<?xml version="1.0" encoding="utf-8"?>
<!-- Generator: Adobe Illustrator 25.2.1, SVG Export Plug-In . SVG Version: 6.00 Build 0)  -->
<svg version="1.1" xmlns="http://www.w3.org/2000/svg" xmlns:xlink="http://www.w3.org/1999/xlink" x="0px" y="0px"
	 viewBox="0 0 3228.6 1064.1" style="enable-background:new 0 0 3228.6 1064.1;" xml:space="preserve">
<style type="text/css">
	.st0{fill:#004161;}
	.st1{opacity:0;fill:#F1F1F1;}
	.st2{opacity:0.5;fill:#F1F1F1;}
	.st3{fill:#F1F1F1;}
	.st4{fill:#FDFDFD;}
</style>
<g id="Ñëîé_1">
</g>
<g id="Ñëîé_2">
	<g>
		<path class="st0" d="M828.9,649.5l236.7-510.8h101.9l-230.9,505h345.9v91.7H828.9V649.5z M1133.1,428.8h96.5V844h-96.5V428.8z"/>
		<path class="st0" d="M1454.9,797.9c-34.1-35.2-51.2-84.4-51.2-147.5V329.8c0-63.4,17.1-112.6,51.4-147.7
			c34.3-35.1,84.2-52.6,149.9-52.6c66,0,116,17.5,150.1,52.4c34.1,34.9,51.2,84.2,51.2,147.9v320.6c0,63.4-17.1,112.6-51.4,147.7
			c-34.3,35.1-84.2,52.6-149.9,52.6C1539.1,850.8,1489,833.2,1454.9,797.9z M1682.4,729.3c16.7-18.3,25-44.5,25-78.8V329.8
			c0-34.3-8.2-60.6-24.7-78.8c-16.5-18.3-42.4-27.4-77.6-27.4c-35.3,0-61.1,9.1-77.6,27.4c-16.5,18.3-24.7,44.6-24.7,78.8v320.6
			c0,34.3,8.3,60.6,25,78.8c16.7,18.3,42.4,27.4,77.4,27.4C1640,756.7,1665.8,747.6,1682.4,729.3z"/>
		<path class="st0" d="M1942.2,649.5l236.7-510.8h101.9l-230.9,505h345.9v91.7h-453.6V649.5z M2246.3,428.8h96.5V844h-96.5V428.8z"
			/>
	</g>
	<g>
		<path class="st1" d="M549.8,1023.5L933.6,898l383.8-125.5c312.6-102.2,637.5-162.2,966.1-178.2l469.9-23l-23.3,146.2l-23.3,146.2
			l-1078.5,80L549.8,1023.5z"/>
		<path class="st2" d="M2753.4,571.2l-11.7,115.4l-11.7,115.4l-71.8,90.1l-1018.3,63l-545.1,34.2l-545.1,34.2l388.5-103.1
			l155.9-41.4l232.6-61.7c51.4-16.8,261.2-63.7,313.7-75.9c107.3-24.9,538.7-106.3,648.9-111.7L2753.4,571.2z"/>
		<polygon class="st3" points="549.8,1023.5 1100.7,910.4 1651.6,797.3 2753.4,571.2 2753.4,740.7 2753.4,910.2 1651.6,966.8 
			1100.7,995.1 		"/>
	</g>
	<path class="st4" d="M549.8,1023.5l2203.6-452.2l81.5,84.8c122.4,127.3,80.4,337.6-81.5,408.1l0,0L549.8,1023.5z"/>
</g>
</svg>
