<?xml version="1.0" encoding="utf-8"?>
<!-- Generator: Adobe Illustrator 25.2.1, SVG Export Plug-In . SVG Version: 6.00 Build 0)  -->
<svg version="1.1" id="Layer_1" xmlns="http://www.w3.org/2000/svg" xmlns:xlink="http://www.w3.org/1999/xlink" x="0px" y="0px"
	 viewBox="0 0 30 30" style="enable-background:new 0 0 30 30;" xml:space="preserve">
<style type="text/css">
	.st0{fill:#004161;}
</style>
<g>
	<path class="st0" d="M27.8,26.6L22.2,21c1.9-2.1,2.9-4.8,2.9-7.6c0.1-6.5-5.1-11.7-11.5-11.8c-3.2,0-6.1,1.1-8.3,3.4
		S1.9,10,1.9,13.1C1.8,19.5,7,24.8,13.4,24.9h0.1c2.6,0,5.2-0.9,7.2-2.4l5.7,5.7c0.2,0.2,0.5,0.3,0.7,0.3c0.3,0,0.5-0.1,0.7-0.3
		C28.2,27.6,28.2,27,27.8,26.6z M13.5,22.8c-5.3,0-9.6-4.4-9.6-9.7c0-2.5,1-5,2.8-6.8c1.8-1.7,4.3-2.7,6.7-2.7h0.1
		c5.3,0,9.6,4.4,9.6,9.7c0,2.5-1,5-2.8,6.8C18.5,21.9,16,22.9,13.5,22.8z"/>
</g>
</svg>
