<?xml version="1.0" encoding="utf-8"?>
<!-- Generator: Adobe Illustrator 25.2.1, SVG Export Plug-In . SVG Version: 6.00 Build 0)  -->
<svg version="1.1" id="Layer_1" xmlns="http://www.w3.org/2000/svg" xmlns:xlink="http://www.w3.org/1999/xlink" x="0px" y="0px"
	 viewBox="0 0 30 30" style="enable-background:new 0 0 30 30;" xml:space="preserve">
<style type="text/css">
	.st0{clip-path:url(#SVGID_2_);}
	.color{fill:#ffffff;}
</style>
<g>
	<defs>
		<rect id="SVGID_1_" x="1.3" y="1.3" width="26.8" height="26.8"/>
	</defs>
	<clipPath id="SVGID_2_">
		<use xlink:href="#SVGID_1_"  style="overflow:visible;"/>
	</clipPath>
	<g class="st0">
		<path class="color" d="M21.2,28.1c-0.5-0.1-1-0.1-1.5-0.3c-1.8-0.5-3.5-1.1-5.1-2.1c-2.5-1.4-4.8-3.2-6.8-5.3
			c-2.4-2.6-4.4-5.5-5.6-8.8c-0.5-1.2-0.8-2.5-0.9-3.8C1.2,6.5,1.7,5.3,2.6,4.4C3.3,3.6,4,2.8,4.9,2.1C6.1,1,7.5,1,8.7,2.1
			c1.3,1.2,2.5,2.4,3.7,3.7c0.9,1,0.9,2.5,0,3.4c-0.6,0.7-1.3,1.4-2,2c-0.1,0.1-0.1,0.1-0.3,0.2c1.8,3.2,4.4,5.9,7.6,7.6l1.6-1.6
			c0.4-0.5,0.9-0.8,1.4-1.1c0.9-0.4,1.9-0.2,2.6,0.5c1.3,1.3,2.6,2.6,3.9,3.9c0.9,1,0.9,2.4,0.1,3.4c-0.8,0.9-1.7,1.8-2.6,2.7
			c-0.6,0.6-1.5,1-2.3,1c-0.1,0-0.1,0-0.2,0.1L21.2,28.1z M21.6,26.5c0.9,0,1.8-0.3,2.4-0.9c0.6-0.6,1.2-1.3,1.8-1.9
			c0.1-0.1,0.1-0.2,0.2-0.3c0.4-0.4,0.4-1.1,0-1.5c0,0,0,0,0,0c-0.5-0.5-1-1-1.5-1.5c-0.7-0.6-1.3-1.3-2-2c-0.4-0.4-1.1-0.5-1.5-0.1
			l0,0c-0.1,0.1-0.2,0.2-0.3,0.3c-0.6,0.6-1.3,1.3-1.9,1.9c-0.4,0.4-1,0.5-1.5,0.3c-0.4-0.2-0.8-0.4-1.1-0.6c-1.6-1-3.1-2.3-4.4-3.7
			c-1.2-1.2-2.2-2.6-2.9-4.2c-0.4-0.8-0.3-1.3,0.4-1.9c0.6-0.6,1.4-1.3,2-2c0.4-0.4,0.5-1,0.1-1.4c0,0,0,0,0-0.1
			c-0.1-0.1-0.2-0.2-0.3-0.3L7.7,3.4C7,2.8,6.4,2.8,5.8,3.4S4.5,4.7,3.9,5.4C3.6,5.7,3.3,6,3.1,6.4C2.9,7.3,2.9,8.2,3.1,9
			c0.3,1.3,0.8,2.6,1.4,3.8C5.6,15,6.9,17,8.6,18.8c2.8,3.2,6.3,5.6,10.3,7.1C19.7,26.2,20.7,26.4,21.6,26.5z"/>
	</g>
</g>
</svg>
