<?xml version="1.0" encoding="utf-8"?>
<!-- Generator: Adobe Illustrator 25.2.1, SVG Export Plug-In . SVG Version: 6.00 Build 0)  -->
<svg version="1.1" id="Layer_1" xmlns="http://www.w3.org/2000/svg" xmlns:xlink="http://www.w3.org/1999/xlink" x="0px" y="0px"
	 viewBox="0 0 170 100" style="enable-background:new 0 0 170 100;" xml:space="preserve">
<style type="text/css">
	.st0{fill:#F7AA36;}
	.st1{fill:#D7488F;}
	.st2{fill:#639E30;}
</style>
<path class="st0" d="M17.4,71.1c0-0.2,0-0.3,0-0.5c0-38.4,30.8-69.5,68.8-69.5v70H17.4z"/>
<path class="st1" d="M123.5,99.5c-15.9,0-28.9-13.2-28.9-29.4s12.9-29.4,28.9-29.4c15.9,0,28.9,13.2,28.9,29.4
	S139.4,99.5,123.5,99.5z"/>
<path class="st2" d="M123.5,35.1c-9.5,0-17.2-7.7-17.2-17.2c0-9.5,7.7-17.2,17.2-17.2c9.5,0,17.2,7.7,17.2,17.2
	C140.7,27.4,133,35.1,123.5,35.1z"/>
</svg>
