<?xml version="1.0" encoding="utf-8"?>
<!-- Generator: Adobe Illustrator 25.2.1, SVG Export Plug-In . SVG Version: 6.00 Build 0)  -->
<svg version="1.1" id="Layer_1" xmlns="http://www.w3.org/2000/svg" xmlns:xlink="http://www.w3.org/1999/xlink" x="0px" y="0px"
	 viewBox="0 0 70 70" style="enable-background:new 0 0 70 70;" xml:space="preserve">
<g>
	<rect x="13.2" y="4.3" width="41.2" height="0.7"/>
	<rect x="13.2" y="6.6" width="41.2" height="0.7"/>
	<polygon points="52,9.2 53.2,8.9 13.2,8.9 13.2,9.5 51.9,9.5 	"/>
	<polygon points="54.4,11.1 53.7,11.1 53.3,11.6 52.9,11.8 54.4,11.8 	"/>
	<path d="M50.7,11.1H13.2v0.7h36.7C50.1,11.7,50.5,11.4,50.7,11.1z"/>
	<rect x="13.2" y="13.4" width="41.2" height="0.7"/>
	<rect x="13.2" y="15.7" width="41.2" height="0.7"/>
	<rect x="13.2" y="18" width="41.2" height="0.7"/>
	<rect x="13.2" y="20.3" width="41.2" height="0.7"/>
	<rect x="13.2" y="22.6" width="41.2" height="0.7"/>
	<rect x="13.2" y="24.9" width="41.2" height="0.7"/>
	<rect x="13.2" y="27.2" width="41.2" height="0.7"/>
	<rect x="13.2" y="29.4" width="41.2" height="0.7"/>
	<rect x="13.2" y="31.7" width="41.2" height="0.7"/>
	<rect x="13.2" y="34" width="41.2" height="0.7"/>
	<rect x="13.2" y="36.3" width="41.2" height="0.7"/>
	<rect x="13.2" y="38.6" width="41.2" height="0.7"/>
	<rect x="13.2" y="40.9" width="41.2" height="0.7"/>
	<polygon points="54.4,43.2 14.3,43.2 14.5,43.9 54.4,43.9 	"/>
	<polygon points="54.4,45.5 17.9,45.5 18.2,45.8 18.6,45.8 19.3,46.2 54.4,46.2 	"/>
	<polygon points="54.4,47.8 20.5,47.8 20.5,48.1 20.8,48.4 54.4,48.4 	"/>
	<polygon points="54.4,50 22.5,50 22.5,50.1 23.6,50.1 24.3,50.7 54.4,50.7 	"/>
	<polygon points="54.4,52.3 25.5,52.3 25.5,52.4 26.8,52.6 27.3,53 54.4,53 	"/>
	<path d="M54.4,54.6H28.6c0,0,0,0.1,0.1,0.1c0.2,0.3,0.5,0.5,0.7,0.6h25.1V54.6z"/>
	<path d="M54.4,56.9H31.6c0.2,0.3,0.3,0.6,0.3,0.7h22.5V56.9z"/>
	<polygon points="54.4,59.2 33.3,59.2 33.8,59.7 34,59.9 54.4,59.9 	"/>
	<polygon points="54.4,61.5 35.1,61.5 35.2,62.2 54.4,62.2 	"/>
	<polygon points="54.4,63.8 35.2,63.8 35.2,64.5 54.4,64.5 	"/>
	<polygon points="54.4,66.1 36.8,66.1 36.9,66.1 37.2,66.8 54.4,66.8 	"/>
</g>
</svg>
