<?xml version="1.0" encoding="utf-8"?>
<!-- Generator: Adobe Illustrator 25.2.1, SVG Export Plug-In . SVG Version: 6.00 Build 0)  -->
<svg version="1.1" id="Layer_1" xmlns="http://www.w3.org/2000/svg" xmlns:xlink="http://www.w3.org/1999/xlink" x="0px" y="0px"
	 viewBox="0 0 70 70" style="enable-background:new 0 0 70 70;" xml:space="preserve">
<style type="text/css">
	.st0{fill:#004161;}
	.st1{fill-rule:evenodd;clip-rule:evenodd;fill:#004161;}
</style>
<g>
	<path class="st0" d="M44.1,46H25.7c-0.9,0-1.7-0.6-2.1-1.5l-1-3.1c-0.2-0.7-0.1-1.4,0.3-2c0.4-0.6,1-0.9,1.7-0.9h20.4
		c0.7,0,1.3,0.3,1.7,0.9c0.4,0.6,0.6,1.3,0.3,1.9l-0.9,3.1C45.9,45.5,45.1,46,44.1,46z M24.8,40.7c0,0-0.1,0-0.2,0.1
		c0,0-0.1,0.1,0,0.2l0.9,3.1c0,0.1,0.1,0.2,0.2,0.2H44c0.1,0,0.2-0.1,0.2-0.2l0.9-3.1c0-0.1,0-0.1,0-0.2c0,0-0.1-0.1-0.2-0.1H24.8z"
		/>
	<path class="st0" d="M48.1,35H21.8c-2.1,0-4-1.1-5-2.9c-0.6-0.9-1.2-1.7-2-2.4c-0.5-0.5-1.1-0.8-1.8-1.2l-2.8-1.3l1.3-0.9
		c0.2-0.2,0.4-0.3,0.6-0.5c0.3-0.3,0.6-0.5,0.8-0.7c1.8-1.7,3.3-3.8,4.3-6.1l0.8-1.7c1.4-1.9,3.7-3.1,6.1-3.1h22
		c2.4,0,4.7,1.2,6.1,3.1l0.2,0.2l0.6,1.3c0.9,2.2,2.3,4.2,4,5.8c0.4,0.4,0.7,0.7,1.1,1l0.1,0.1c0.1,0.1,0.2,0.2,0.2,0.2l1.6,1.3
		l-2.8,1.3c-0.9,0.5-1.7,1-2.4,1.7c-0.6,0.6-1,1.2-1.4,1.9C52.1,33.9,50.1,35,48.1,35z M13.9,26.7c0.9,0.5,1.6,0.9,2.2,1.4
		c0.9,0.8,1.8,1.8,2.4,2.9c0.6,1.2,1.9,1.9,3.2,1.9h26.3c1.3,0,2.6-0.7,3.3-1.9c0.5-0.8,1-1.6,1.7-2.3c0.8-0.9,1.8-1.6,2.9-2.1
		c-0.2-0.2-0.5-0.5-0.7-0.7c-1.8-1.8-3.3-4-4.4-6.5l-0.6-1.3c-1-1.4-2.7-2.2-4.4-2.2h-22c-1.7,0-3.4,0.8-4.4,2.2l-0.6,1.5
		c-1.1,2.5-2.7,4.8-4.7,6.6C14,26.5,13.9,26.7,13.9,26.7z"/>
	<path class="st0" d="M44.1,46H25.7c-0.9,0-1.7-0.6-2.1-1.5l-1-3.1c-0.2-0.7-0.1-1.4,0.3-2c0.4-0.6,1-0.9,1.7-0.9h20.4
		c0.7,0,1.3,0.3,1.7,0.9c0.4,0.6,0.6,1.3,0.3,1.9l-0.9,3.1C45.9,45.5,45.1,46,44.1,46z M24.8,40.7c0,0-0.1,0-0.2,0.1
		c0,0-0.1,0.1,0,0.2l0.9,3.1c0,0.1,0.1,0.2,0.2,0.2H44c0.1,0,0.2-0.1,0.2-0.2l0.9-3.1c0-0.1,0-0.1,0-0.2c0,0-0.1-0.1-0.2-0.1H24.8z"
		/>
	<path class="st0" d="M13.8,43.6c-1.9,0-3.5-1.6-3.5-3.5c0-1.9,1.6-3.4,3.5-3.4c1.9,0,3.4,1.5,3.4,3.4C17.2,42,15.7,43.6,13.8,43.6z
		 M13.8,37.3c-1.6,0-2.8,1.3-2.8,2.8c0,1.6,1.3,2.8,2.8,2.8s2.8-1.3,2.8-2.8C16.5,38.6,15.3,37.3,13.8,37.3z"/>
	<path class="st0" d="M55.8,43.6c-1.9,0-3.5-1.6-3.5-3.5c0-1.9,1.6-3.4,3.5-3.4c1.9,0,3.5,1.5,3.5,3.4C59.3,42,57.7,43.6,55.8,43.6z
		 M55.8,37.3c-1.6,0-2.8,1.3-2.8,2.8c0,1.6,1.3,2.8,2.8,2.8s2.8-1.3,2.8-2.8C58.7,38.6,57.4,37.3,55.8,37.3z"/>
	<path class="st0" d="M7.6,30.9l-0.6-0.2C4,29.7,2.2,28,2.4,26.2c0.4-2.2,3.7-3.2,7.7-2.6c1.4,0.2,2.7,0.6,3.8,1.3l1.1,0.6l-0.9,0.9
		c-0.3,0.3-0.7,0.6-0.9,0.8l-0.2,0.2h-0.7c-1,0-1.9,0.4-2.6,1.2L7.6,30.9z M7.8,25.3c-2.1,0-3.3,0.6-3.4,1.1
		c-0.1,0.5,0.8,1.4,2.7,2.1l1.2-1.3c0.6-0.7,1.5-1.3,2.4-1.6c-0.3-0.1-0.6-0.2-0.9-0.2C9.1,25.4,8.4,25.3,7.8,25.3z"/>
	<path class="st0" d="M62.1,30.6l-1.7-2c-0.6-0.8-1.7-1.2-2.6-1.2h-0.8l-0.2-0.2c-0.5-0.4-0.9-0.8-1.3-1.2l-0.9-1l1.3-0.6
		c0.9-0.4,1.8-0.6,2.9-0.9c4-0.7,7.3,0.4,7.7,2.5c0.2,1.6-1.1,3.2-3.6,4.2L62.1,30.6z M58.7,25.6c1.2,0.2,2.3,0.9,3.1,1.8l0.7,0.9
		c1.3-0.6,1.8-1.4,1.7-1.7C64.2,25.9,62.1,25,58.7,25.6C58.8,25.6,58.8,25.6,58.7,25.6z"/>
	<path class="st0" d="M16.5,55.9h-5.1c-1.7,0-3.1-1.4-3.1-3.1v-2.4l0.4,0.1c0.2,0.1,0.6,0.1,0.9,0.1h10v2.2
		C19.6,54.5,18.2,55.9,16.5,55.9z M9,51.2v1.6c0,1.3,1.1,2.4,2.4,2.4h5.1c1.3,0,2.4-1.1,2.4-2.4v-1.6H9.6C9.3,51.2,9.1,51.2,9,51.2z
		"/>
	<path class="st0" d="M57.6,55.9h-5.1c-1.7,0-3.1-1.4-3.1-3.1v-2.1h11.3v2.1C60.7,54.5,59.3,55.9,57.6,55.9z M50,51.2v1.6
		c0,1.3,1.1,2.4,2.4,2.4h5.1c1.3,0,2.4-1.1,2.4-2.4v-1.6H50z"/>
	<path class="st1" d="M8.3,27.1c1-1.1,2.5-1.8,4-1.8H15l-1.3,1.3l0.1,0.1c0.8,0.4,1.5,0.8,2.2,1.4l0,0l0,0c0.9,0.8,1.8,1.8,2.4,2.9
		c0.6,1.1,1.9,1.9,3.2,1.9h26.3c1.3,0,2.5-0.7,3.2-1.9c0.5-0.9,1.1-1.6,1.7-2.3c0.9-0.9,1.8-1.5,2.9-2.1l-1.2-1.2h2.9
		c1.7,0,3.1,0.8,4.1,1.9l0,0l1.3,1.4l3.5,4c0,0,0,0,0,0c0.7,0.8,1.1,1.8,1.1,2.9v8.9c0,3.9-3.2,7.2-7.2,7.2H9.6c0,0,0,0,0,0
		c-0.3,0-0.7,0-1.1-0.1c-3.4-0.6-5.9-3.5-5.9-7.1v-9.4c0-1.1,0.4-2.1,1.1-2.9l0,0l3-3.4L8.3,27.1L8.3,27.1z M58.7,27.6l-1.8,0.8l0,0
		c-0.9,0.4-1.7,1-2.4,1.7c-0.6,0.6-1.1,1.2-1.4,1.8l0,0l0,0c-1,1.8-3,2.9-5,2.9H21.8c-2.1,0-4-1.1-5-2.9l0,0l0,0
		c-0.5-0.9-1.2-1.7-2-2.4c-0.6-0.5-1.1-0.8-1.7-1.1l0,0l-1.9-0.9c-0.5,0.2-1,0.5-1.4,1v0l-1.7,1.8l-3,3.4c-0.4,0.5-0.6,1-0.6,1.6
		v9.4c0,2.6,1.9,4.7,4.3,5.1l0,0l0,0c0.2,0,0.4,0.1,0.7,0.1h50.9c2.9,0,5.2-2.3,5.2-5.2v-8.9c0-0.5-0.2-1.1-0.6-1.6l0,0l-3.5-4
		l-1.3-1.4C59.8,28.2,59.3,27.8,58.7,27.6z"/>
</g>
</svg>
