<?xml version="1.0" encoding="utf-8"?>
<!-- Generator: Adobe Illustrator 25.2.1, SVG Export Plug-In . SVG Version: 6.00 Build 0)  -->
<svg version="1.1" id="Layer_1" xmlns="http://www.w3.org/2000/svg" xmlns:xlink="http://www.w3.org/1999/xlink" x="0px" y="0px"
	 viewBox="0 0 70 70" style="enable-background:new 0 0 70 70;" xml:space="preserve">
<style type="text/css">
	.st0{fill:#004161;}
</style>
<g>
	<path class="st0" d="M66.7,39.6l-4-2.2V34c0-1.4-1.1-2.5-2.5-2.5c-0.7,0-1.3,0.3-1.7,0.7c-0.5,0.5-0.7,1.1-0.7,1.7v0.9l-4.4-2.4
		v-3.6c0-1.4-1.1-2.5-2.5-2.5c-0.6,0-1.3,0.3-1.7,0.7c-0.5,0.5-0.7,1.1-0.7,1.7v1L41.3,26l0.4-11.7c0-0.5-0.1-1-0.3-1.5l-3.4-8.6
		c-0.6-1.4-1.9-2.4-3.5-2.4c-1.5,0-2.9,0.9-3.5,2.3l-3.4,8.5c-0.2,0.5-0.3,1-0.3,1.5l0.4,11.9l-7,3.8v-1c0-0.7-0.3-1.3-0.7-1.7
		c-0.5-0.5-1.1-0.7-1.7-0.7c-1.4,0-2.5,1.1-2.5,2.5v3.6l-4.5,2.4V34c0-0.7-0.3-1.3-0.7-1.7c-0.5-0.5-1.1-0.7-1.7-0.7
		c-1.4,0-2.5,1.1-2.5,2.5v3.5l-4,2.2c-1.1,0.6-1.7,1.7-1.7,2.9v4.8c0,1.1,0.5,2.1,1.4,2.7c0.6,0.4,1.2,0.6,1.9,0.6
		c0.4,0,0.8-0.1,1.1-0.2l7.5-4l15.7-5.6l0.3,9.9l-6.3,4.1c-1.7,1.1-2.7,3-2.7,5v2.2c0,0.6,0.3,1.1,0.7,1.5c0.3,0.2,0.7,0.4,1.1,0.4
		c0.2,0,0.3,0,0.5-0.1l8.4-2.3c0.7,0.8,1.6,1.3,2.6,1.6v3.3c0,0.9,0.7,1.6,1.6,1.6c0.9,0,1.6-0.7,1.6-1.6v-3.4
		c1-0.3,1.9-0.9,2.6-1.6l8.5,2.3c0.2,0,0.3,0.1,0.5,0.1c0.4,0,0.8-0.1,1.1-0.4c0.5-0.4,0.7-0.9,0.7-1.5v-2.2c0-2-1-3.9-2.7-5
		l-6.4-4.2l0.3-9.5l17.9,6.4l5.2,2.8l0.1,0.1c0.4,0.1,0.7,0.2,1.1,0.2c0.7,0,1.3-0.2,1.9-0.6c0.9-0.6,1.4-1.6,1.4-2.7v-4.8
		C68.4,41.3,67.7,40.2,66.7,39.6z M58.4,34c0-0.5,0.2-0.9,0.5-1.3c0.3-0.3,0.8-0.5,1.3-0.5c1,0,1.8,0.8,1.8,1.8v3.1l-3.6-1.9V34z
		 M49,28.8c0-0.5,0.2-0.9,0.5-1.3c0.3-0.3,0.8-0.5,1.3-0.5c1,0,1.8,0.8,1.8,1.8v3.3L49,30.2V28.8z M16.4,28.8c0-1,0.8-1.8,1.8-1.8
		c0.5,0,0.9,0.2,1.3,0.5c0.3,0.3,0.5,0.8,0.5,1.3v1.3l-3.6,1.9V28.8z M7.1,34c0-1,0.8-1.8,1.8-1.8c0.5,0,0.9,0.2,1.3,0.5
		c0.3,0.3,0.5,0.8,0.5,1.3v1.2l-3.6,1.9V34z M2.7,42.5c0-0.5,0.3-0.9,0.7-1.1l24.4-13.1l0.2,7.5L4.3,48.5c-0.4,0.1-0.8,0.1-1.1-0.2
		c-0.3-0.2-0.5-0.6-0.5-1V42.5z M16.4,44.3L28.1,38l0.1,2.1L16.4,44.3z M23.4,56.5l5.1-3.3l0.1,3.4l-7,4.4v-1.2
		C21.6,58.5,22.2,57.3,23.4,56.5z M21.6,61.8l7-4.4c0,0.8,0.2,1.6,0.6,2.3L21.6,61.8z M35.5,66.5c0,0.5-0.4,1-1,1c-0.5,0-1-0.4-1-1
		v-3.2c0.3,0.1,0.6,0.1,1,0.1c0.3,0,0.7,0,1-0.1V66.5z M35.5,61.2c-0.3,0.1-0.6,0.1-1,0.1c-0.3,0-0.6-0.1-1-0.1v-5.7
		c0-0.5,0.4-1,1-1c0.5,0,1,0.4,1,1V61.2z M34.5,53.9c-0.9,0-1.6,0.7-1.6,1.6V61c-0.1-0.1-0.3-0.1-0.4-0.2l-0.9-1.1
		c-0.2-0.2-0.3-0.5-0.5-0.7c-0.1-0.4-0.2-0.8-0.3-1.2l-1.5-43.7c0-0.2,0-0.5,0.1-0.7l3.4-8.5c0.3-0.6,0.9-1.1,1.6-1.1
		c0.7,0,1.3,0.4,1.6,1.1l3.4,8.6c0.1,0.2,0.1,0.5,0.1,0.7l-1.5,43.6c0,0.5-0.1,0.9-0.3,1.3c-0.1,0.2-0.3,0.4-0.4,0.6l-0.8,1
		c-0.2,0.1-0.4,0.2-0.5,0.3v-5.4C36.1,54.6,35.4,53.9,34.5,53.9z M39.8,59.7c0.3-0.7,0.5-1.5,0.6-2.2l7.1,4.4L39.8,59.7z M45.7,56.5
		c1.1,0.7,1.8,2,1.8,3.3v1.2l-7-4.3l0.1-3.5L45.7,56.5z M40.8,40.5l0.1-2.5l14,7.5L40.8,40.5z M66.4,47.3c0,0.4-0.2,0.8-0.5,1
		c-0.3,0.2-0.7,0.3-1.1,0.2L41.1,35.8l0.2-7.5l24.5,13.1c0.4,0.2,0.6,0.6,0.6,1.1V47.3z"/>
	<path class="st0" d="M37.6,13.3c0.2-0.2,0.2-0.5,0.1-0.8l-0.8-2c-0.1-0.3-0.4-0.5-0.8-0.5h-3.3c-0.3,0-0.6,0.2-0.8,0.5l-0.8,2
		c-0.1,0.3-0.1,0.5,0.1,0.8c0.2,0.2,0.4,0.4,0.7,0.4h4.8C37.2,13.6,37.5,13.5,37.6,13.3z M31.9,12.9c0,0,0-0.1,0-0.2l0.8-2
		c0-0.1,0.1-0.1,0.2-0.1h3.3c0.1,0,0.2,0,0.2,0.1l0.8,2c0,0.1,0,0.1,0,0.2c0,0-0.1,0.1-0.2,0.1h-4.8C32,13,31.9,12.9,31.9,12.9z"/>
</g>
</svg>
