<?xml version="1.0" encoding="utf-8"?>
<!-- Generator: Adobe Illustrator 25.2.1, SVG Export Plug-In . SVG Version: 6.00 Build 0)  -->
<svg version="1.1" id="Layer_1" xmlns="http://www.w3.org/2000/svg" xmlns:xlink="http://www.w3.org/1999/xlink" x="0px" y="0px"
	 viewBox="0 0 70 70" style="enable-background:new 0 0 70 70;" xml:space="preserve">
<style type="text/css">
	.st0{fill:#004161;}
</style>
<g>
	<defs>
		<rect id="SVGID_1_" x="3.5" y="3.4" width="63.1" height="63.1"/>
	</defs>
	<clipPath id="SVGID_2_">
		<use xlink:href="#SVGID_1_"  style="overflow:visible;"/>
	</clipPath>
</g>
<g>
	<defs>
		<rect id="SVGID_3_" x="4.6" y="14.9" width="60.8" height="40.1"/>
	</defs>
	<clipPath id="SVGID_4_">
		<use xlink:href="#SVGID_3_"  style="overflow:visible;"/>
	</clipPath>
</g>
<g>
	<path class="st0" d="M13,24.7c-0.1,0-0.3,0-0.4-0.1c-0.1-0.1-0.2-0.1-0.3-0.2l-7.8-8.4c-0.1-0.1-0.2-0.3-0.2-0.4c0-0.2,0-0.3,0-0.5
		c0-0.2,0.1-0.3,0.2-0.4c0.1-0.1,0.2-0.2,0.4-0.3l22.2-9.7c0.2-0.1,0.4-0.1,0.6-0.1c0.2,0,0.4,0.1,0.5,0.3l7.6,8.1
		c0.1,0.1,0.2,0.3,0.2,0.4c0,0.1,0,0.3,0,0.5c0,0.2-0.1,0.3-0.2,0.4c-0.1,0.1-0.2,0.2-0.4,0.3l-22,10C13.3,24.7,13.2,24.7,13,24.7z
		 M6.9,15.6l6.4,6.9l20.1-9.2l-6.2-6.6L6.9,15.6z"/>
	<path class="st0" d="M57,24.7c-0.1,0-0.3,0-0.4-0.1l-22-10c-0.1-0.1-0.3-0.2-0.4-0.3c-0.1-0.1-0.2-0.3-0.2-0.4c0-0.2,0-0.3,0-0.5
		c0-0.1,0.1-0.3,0.2-0.4l8.3-8.3c0.1-0.1,0.3-0.2,0.5-0.3c0.2,0,0.4,0,0.6,0.1l21.5,9.8c0.1,0.1,0.3,0.2,0.4,0.3
		c0.1,0.1,0.2,0.3,0.2,0.4c0,0.2,0,0.3,0,0.5c0,0.2-0.1,0.3-0.2,0.4l-7.8,8.4c-0.1,0.1-0.2,0.2-0.3,0.2C57.3,24.7,57.2,24.7,57,24.7
		z M36.7,13.4l20.1,9.1l6.4-6.9l-19.6-9L36.7,13.4z"/>
	<path class="st0" d="M42.6,44.3c-0.1,0-0.3,0-0.4-0.1c-0.1,0-0.2-0.1-0.3-0.2l-8.6-8.8c-0.1-0.1-0.2-0.3-0.2-0.4
		c0-0.1-0.1-0.3,0-0.5c0-0.2,0.1-0.3,0.2-0.4c0.1-0.1,0.2-0.2,0.4-0.3l23-10.8c0.2-0.1,0.4-0.1,0.6-0.1c0.2,0.1,0.4,0.2,0.5,0.4
		l7.8,9.9c0.1,0.1,0.2,0.3,0.2,0.4c0,0.1,0,0.3,0,0.4c0,0.1-0.1,0.3-0.2,0.4c-0.1,0.1-0.2,0.2-0.4,0.3L43,44.2
		C42.9,44.3,42.7,44.3,42.6,44.3z M35.7,34.8l7.2,7.3l20.4-8.9l-6.5-8.3L35.7,34.8z"/>
	<path class="st0" d="M26.8,44.5c-0.1,0-0.3,0-0.4-0.1L4.8,34.5c-0.1-0.1-0.3-0.2-0.4-0.3c-0.1-0.1-0.2-0.2-0.2-0.4
		c0-0.1,0-0.3,0-0.4c0-0.1,0.1-0.3,0.2-0.4l7.8-9.9c0.1-0.2,0.3-0.3,0.6-0.4c0.2,0,0.5,0,0.7,0.1l21,10.8c0.1,0.1,0.2,0.2,0.3,0.3
		c0.1,0.1,0.1,0.3,0.2,0.4c0,0.1,0,0.3,0,0.4c0,0.1-0.1,0.3-0.2,0.4l-7.2,9c-0.1,0.1-0.2,0.2-0.3,0.3C27.1,44.4,26.9,44.5,26.8,44.5
		z M6.8,33.2l19.7,9l6-7.4l-19.2-9.9L6.8,33.2z"/>
	<path class="st0" d="M34.3,64.4c-0.1,0-0.3,0-0.4-0.1l-22.1-9.4c-0.2-0.1-0.3-0.2-0.4-0.4c-0.1-0.2-0.2-0.3-0.2-0.5V36.8
		c0-0.3,0.1-0.5,0.3-0.7c0.2-0.2,0.4-0.3,0.7-0.3c0.3,0,0.5,0.1,0.7,0.3c0.2,0.2,0.3,0.4,0.3,0.7v16.5L33.4,62L33,34.5
		c0-0.1,0-0.3,0.1-0.4c0-0.1,0.1-0.2,0.2-0.3c0.1-0.1,0.2-0.2,0.3-0.2c0.1-0.1,0.2-0.1,0.4-0.1c0.3,0,0.5,0.1,0.7,0.3
		c0.2,0.2,0.3,0.4,0.3,0.7l0.3,29c0,0.2,0,0.3-0.1,0.4c-0.1,0.1-0.2,0.3-0.3,0.3C34.7,64.3,34.5,64.4,34.3,64.4z"/>
	<path class="st0" d="M34.6,64.5c-0.2,0-0.4-0.1-0.6-0.2c-0.2-0.1-0.3-0.3-0.3-0.6c0-0.2,0-0.5,0.1-0.7c0.1-0.2,0.3-0.4,0.5-0.5
		l21.4-9.7V37.4c0-0.3,0.1-0.5,0.3-0.7c0.2-0.2,0.4-0.3,0.7-0.3c0.3,0,0.5,0.1,0.7,0.3c0.2,0.2,0.3,0.4,0.3,0.7v16.2
		c0,0.2-0.1,0.4-0.2,0.5c-0.1,0.2-0.3,0.3-0.4,0.4L35,64.4C34.9,64.5,34.8,64.5,34.6,64.5z"/>
	<path class="st0" d="M50.9,53.2l2.7-1c0.1,0,0.1-0.1,0.2-0.2c0-0.1,0.1-0.2,0.1-0.3L53.4,48l1.4-0.5c0.1,0,0.1-0.1,0.2-0.1
		c0,0,0.1-0.1,0.1-0.2c0-0.1,0-0.1,0-0.2c0-0.1,0-0.1-0.1-0.2l-3.6-3.8c0,0-0.1,0-0.1-0.1c0,0-0.1,0-0.1,0c-0.1,0-0.2,0.1-0.2,0.2
		l-2.4,6.1c0,0,0,0.1,0,0.2c0,0.1,0,0.1,0,0.2c0,0,0.1,0.1,0.1,0.1c0,0,0.1,0,0.1,0l1.5-0.6l0.3,3.8c0,0,0,0.1,0,0.1
		c0,0,0,0.1,0.1,0.1c0,0,0.1,0,0.1,0C50.8,53.3,50.8,53.3,50.9,53.2z M53.2,51.7l-2.1,0.8l-0.3-3.8c0,0,0-0.1,0-0.1
		c0,0,0-0.1-0.1-0.1c0,0-0.1,0-0.1,0c0,0-0.1,0-0.1,0l-1.2,0.5l2-5l3,3.1l-1.1,0.4c-0.1,0-0.2,0.1-0.2,0.2c0,0.1-0.1,0.2-0.1,0.3
		L53.2,51.7z"/>
</g>
</svg>
