<?xml version="1.0" encoding="utf-8"?>
<!-- Generator: Adobe Illustrator 26.0.1, SVG Export Plug-In . SVG Version: 6.00 Build 0)  -->
<svg version="1.1" id="Layer_1" xmlns="http://www.w3.org/2000/svg" xmlns:xlink="http://www.w3.org/1999/xlink" x="0px" y="0px"
	 viewBox="0 0 70 70" style="enable-background:new 0 0 70 70;" xml:space="preserve">
<style type="text/css">
	.st0{fill:#004161;}
</style>
<g>
	<path class="st0" d="M41.8,41H29.4v0.6h12.4V41z"/>
	<path class="st0" d="M23.7,12.9h-2.8v0.6h2.8V12.9z"/>
	<path class="st0" d="M50.2,12.9h-2.8v0.6h2.8V12.9z"/>
	<path class="st0" d="M38.1,48.2H33c-0.7,0-1.3-0.6-1.3-1.3v-3.2h7.9v3.2C39.5,47.5,38.9,48.2,38.1,48.2z M32.3,44.2v2.6
		c0,0.4,0.3,0.7,0.7,0.7h5.2c0.4,0,0.7-0.3,0.7-0.7v-2.6H32.3z"/>
	<path class="st0" d="M63.1,15.2H52.5C49.6,8.8,43.4,4.7,36.6,4.7h-2c-4.7,0-9.1,1.9-12.5,5.3c-1.4,1.5-2.6,3.2-3.5,5.1H8.1
		c-2.8,0-5.1,2.3-5.1,5.1v13c0,0.9,0.6,1.7,1.6,2l0.2,0.1c-0.1,0.2-0.1,0.3-0.1,0.5v25.1c0,2.1,1.7,3.8,3.8,3.8h54.1
		c2.1,0,3.8-1.7,3.8-3.8V35.8c0-0.2,0-0.3-0.1-0.5l0.2-0.1c0.9-0.2,1.6-1,1.6-2V20.3C68.2,17.5,65.9,15.2,63.1,15.2z M23.6,11.5
		c3-3.1,6.9-4.7,11.1-4.7h1.9c5.8,0,11,3.2,13.8,8.5H20.8C21.5,13.8,22.5,12.6,23.6,11.5z M42,41.1l22.5-5.3v25.1
		c0,1-0.8,1.8-1.8,1.8H8.5c-1,0-1.8-0.8-1.8-1.8l0.1-25.2l6.1,1.4L29.1,41c0.2,0,0.3,0.1,0.4,0.1v-2L5.9,33.5l-1-0.2V20.3
		c0-1.7,1.4-3.2,3.2-3.2h55c1.7,0,3.2,1.4,3.2,3.2v12.9l-11.1,2.6l-13.5,3.2v2.1L42,41.1z"/>
	<path class="st0" d="M49.9,16.5H21.2l0.2-0.5c2.8-5.4,8.1-8.5,14.1-8.5c6,0,11.3,3.2,14.1,8.6L49.9,16.5z M22.2,15.8h26.6
		c-2.8-4.9-7.7-7.8-13.3-7.8C29.9,8.1,25,10.9,22.2,15.8z"/>
	<path class="st0" d="M40,44.2h-8.9c-1.2,0-2.1-0.6-2.1-1.5V38c0-0.8,0.9-1.5,2.1-1.5H40c1.2,0,2.1,0.6,2.1,1.5v4.7
		C42.1,43.6,41.1,44.2,40,44.2z M31.1,37.2c-0.8,0-1.4,0.4-1.4,0.8v4.7c0,0.4,0.6,0.9,1.4,0.9H40c0.9,0,1.4-0.5,1.4-0.9V38
		c0-0.5-0.7-0.8-1.4-0.8H31.1z"/>
</g>
</svg>
