<?xml version="1.0" encoding="utf-8"?>
<!-- Generator: Adobe Illustrator 25.2.1, SVG Export Plug-In . SVG Version: 6.00 Build 0)  -->
<svg version="1.1" id="Layer_1" xmlns="http://www.w3.org/2000/svg" xmlns:xlink="http://www.w3.org/1999/xlink" x="0px" y="0px"
	 viewBox="0 0 70 70" style="enable-background:new 0 0 70 70;" xml:space="preserve">
<style type="text/css">
	.st0{fill:#004161;}
</style>
<g>
	<path class="st0" d="M40.1,40.2H29.9v0.5h10.2V40.2z"/>
	<path class="st0" d="M25.3,17.1H23v0.5h2.3V17.1z"/>
	<path class="st0" d="M47.1,17.1h-2.3v0.5h2.3V17.1z"/>
	<path class="st0" d="M37.1,46.1h-4.2c-0.6,0-1.1-0.5-1.1-1.1v-2.7h6.5V45C38.2,45.6,37.8,46.1,37.1,46.1z M32.3,42.8V45
		c0,0.3,0.3,0.6,0.6,0.6h4.3c0.3,0,0.6-0.3,0.6-0.6v-2.1H32.3z"/>
	<path class="st0" d="M57.6,19h-8.7c-2.3-5.3-7.5-8.6-13.1-8.6h-1.6c-3.8,0-7.5,1.6-10.3,4.4c-1.2,1.2-2.1,2.6-2.9,4.2h-8.6
		c-2.3,0-4.2,1.9-4.2,4.2v10.7c0,0.8,0.5,1.4,1.3,1.6l0.2,0.1c-0.1,0.1-0.1,0.3-0.1,0.4v20.6c0,1.8,1.4,3.1,3.1,3.1h44.4
		c1.8,0,3.1-1.4,3.1-3.1V35.9c0-0.1,0-0.3-0.1-0.4l0.2-0.1c0.8-0.2,1.3-0.8,1.3-1.6V23.2C61.8,20.9,59.9,19,57.6,19z M25.2,15.9
		c2.5-2.5,5.7-3.9,9.1-3.9h1.6c4.7,0,9,2.7,11.3,6.9H22.9C23.5,17.8,24.3,16.8,25.2,15.9z M40.3,40.2l18.4-4.4v20.6
		c0,0.8-0.6,1.5-1.5,1.5H12.8c-0.8,0-1.5-0.6-1.5-1.5l0.1-20.6l5,1.2l13.4,3.2c0.1,0,0.3,0.1,0.3,0.1v-1.6L10.7,34l-0.8-0.2V23.2
		c0-1.4,1.2-2.6,2.6-2.6h45.1c1.4,0,2.6,1.2,2.6,2.6v10.6l-9.1,2.1L40,38.6v1.7L40.3,40.2z"/>
	<path class="st0" d="M46.8,20H23.2l0.2-0.4c2.3-4.4,6.6-7,11.6-7c4.9,0,9.3,2.7,11.6,7.1L46.8,20z M24.1,19.5h21.8
		c-2.3-4-6.3-6.4-10.9-6.4C30.4,13.1,26.4,15.5,24.1,19.5z"/>
	<path class="st0" d="M38.7,42.8h-7.3c-1,0-1.7-0.5-1.7-1.2v-3.9c0-0.6,0.8-1.2,1.7-1.2h7.3c1,0,1.7,0.5,1.7,1.2v3.9
		C40.4,42.3,39.6,42.8,38.7,42.8z M31.4,37c-0.6,0-1.2,0.3-1.2,0.6v3.9c0,0.3,0.5,0.7,1.2,0.7h7.3c0.7,0,1.2-0.4,1.2-0.7v-3.9
		c0-0.4-0.6-0.6-1.2-0.6H31.4z"/>
</g>
</svg>
