<?xml version="1.0" encoding="utf-8"?>
<!-- Generator: Adobe Illustrator 25.2.1, SVG Export Plug-In . SVG Version: 6.00 Build 0)  -->
<svg version="1.1" id="Layer_1" xmlns="http://www.w3.org/2000/svg" xmlns:xlink="http://www.w3.org/1999/xlink" x="0px" y="0px"
	 viewBox="0 0 70 70" style="enable-background:new 0 0 70 70;" xml:space="preserve">
<style type="text/css">
	.st0{clip-path:url(#SVGID_2_);}
	.st1{fill:#004161;}
</style>
<g>
	<defs>
		<rect id="SVGID_1_" x="2.9" y="2.7" width="64.1" height="64.1"/>
	</defs>
	<clipPath id="SVGID_2_">
		<use xlink:href="#SVGID_1_"  style="overflow:visible;"/>
	</clipPath>
	<g class="st0">
		<path class="st1" d="M54.2,2.7H15.4c-2.5,0-4.4,1.9-4.4,4.4v55.4c0,2.4,1.9,4.4,4.4,4.4h38.8c2.4,0,4.4-1.9,4.4-4.4V7.1
			C58.5,4.6,56.6,2.7,54.2,2.7z M15.4,4.6h38.8c1.3,0,2.5,1.1,2.5,2.5v0.1H12.9V7.1C12.9,5.7,14,4.6,15.4,4.6z M50.3,9.1v16.2
			c0,1.3-1.1,2.5-2.5,2.5H21.4c-1.3,0-2.5-1.1-2.5-2.5V9.1H50.3z M54.2,64.9H15.4c-1.3,0-2.5-1.1-2.5-2.5V9.1h4.2v16.2
			c0,2.4,1.9,4.4,4.4,4.4h26.4c2.4,0,4.4-1.9,4.4-4.4V9.1h4.4v53.3C56.7,63.8,55.5,64.9,54.2,64.9z"/>
		<path class="st1" d="M50.1,33.3H19.2c-1.2,0-2.1,0.9-2.1,2.1v8.1c0,1.2,0.9,2.1,2.1,2.1h30.9c1.2,0,2.1-0.9,2.1-2.1v-8.1
			C52.2,34.3,51.3,33.3,50.1,33.3z M19,43.5v-8.1c0-0.1,0.1-0.2,0.2-0.2h15.2v8.4H19.2C19.1,43.7,19,43.6,19,43.5z M50.3,43.5
			c0,0.1-0.1,0.2-0.2,0.2H35v-8.4h15c0.1,0,0.2,0.1,0.2,0.2L50.3,43.5L50.3,43.5z"/>
		<path class="st1" d="M28.3,39.2h-1.9v-1.9c0-0.2-0.2-0.3-0.3-0.3c-0.2,0-0.3,0.2-0.3,0.3v1.9h-1.9c-0.2,0-0.3,0.2-0.3,0.3
			c0,0.2,0.2,0.3,0.3,0.3h1.9v1.9c0,0.2,0.2,0.3,0.3,0.3c0.2,0,0.3-0.2,0.3-0.3v-1.9h1.9c0.2,0,0.3-0.2,0.3-0.3
			C28.6,39.3,28.5,39.2,28.3,39.2z"/>
		<path class="st1" d="M45,39.2h-4.4c-0.2,0-0.3,0.2-0.3,0.3c0,0.2,0.2,0.3,0.3,0.3H45c0.2,0,0.3-0.2,0.3-0.3
			C45.3,39.3,45.2,39.2,45,39.2z"/>
		<path class="st1" d="M26.6,54l1.3-1.3c0.2-0.2,0.2-0.3,0-0.5c-0.2-0.2-0.3-0.2-0.5,0l-1.3,1.3l-1.3-1.3c-0.2-0.2-0.3-0.2-0.5,0
			c-0.2,0.2-0.2,0.3,0,0.5l1.4,1.3l-1.3,1.3c-0.2,0.2-0.2,0.3,0,0.5c0.1,0.1,0.2,0.1,0.2,0.1s0.2,0,0.2-0.1l1.3-1.3l1.3,1.3
			c0.1,0.1,0.2,0.1,0.2,0.1c0.1,0,0.2,0,0.2-0.1c0.2-0.2,0.2-0.3,0-0.5L26.6,54z"/>
		<path class="st1" d="M50.1,47.9H19.2c-1.2,0-2.1,0.9-2.1,2.1v8.1c0,1.2,0.9,2.1,2.1,2.1h30.9c1.2,0,2.1-0.9,2.1-2.1V50
			C52.2,48.8,51.3,47.9,50.1,47.9z M19,58.1V50c0-0.1,0.1-0.2,0.2-0.2h15.2v8.4H19.2C19.1,58.2,19,58.1,19,58.1z M50.3,58.1
			c0,0.1-0.1,0.2-0.2,0.2H35v-8.4h15c0.1,0,0.2,0.1,0.2,0.2L50.3,58.1L50.3,58.1z"/>
		<path class="st1" d="M45,52.6h-4.4c-0.2,0-0.3,0.2-0.3,0.3c0,0.2,0.2,0.3,0.3,0.3H45c0.2,0,0.3-0.2,0.3-0.3
			C45.3,52.8,45.2,52.6,45,52.6z"/>
		<path class="st1" d="M45,54.8h-4.4c-0.2,0-0.3,0.2-0.3,0.3c0,0.2,0.2,0.3,0.3,0.3H45c0.2,0,0.3-0.2,0.3-0.3
			C45.3,54.9,45.2,54.8,45,54.8z"/>
		<path class="st1" d="M21.5,14c0.1,0,0.2,0,0.2-0.1l1.8-1.8c0.2-0.2,0.2-0.3,0-0.5c-0.2-0.2-0.3-0.2-0.5,0l-1.8,1.8
			c-0.2,0.2-0.2,0.3,0,0.5C21.4,14,21.4,14,21.5,14z"/>
		<path class="st1" d="M21.6,17.5c0.1,0.1,0.2,0.1,0.2,0.1s0.2,0,0.2-0.1l5.3-5.3c0.2-0.2,0.2-0.3,0-0.5c-0.2-0.2-0.3-0.2-0.5,0
			L21.6,17C21.4,17.2,21.4,17.3,21.6,17.5z"/>
	</g>
</g>
</svg>
