<?xml version="1.0" encoding="utf-8"?>
<!-- Generator: Adobe Illustrator 25.2.1, SVG Export Plug-In . SVG Version: 6.00 Build 0)  -->
<svg version="1.1" id="Layer_1" xmlns="http://www.w3.org/2000/svg" xmlns:xlink="http://www.w3.org/1999/xlink" x="0px" y="0px"
	 viewBox="0 0 70 70" style="enable-background:new 0 0 70 70;" xml:space="preserve">
<style type="text/css">
	.st0{fill:#004161;}
</style>
<g>
	<path class="st0" d="M55.6,10.5h-7.1V8.2c0-1.1-0.9-2-2-2c-1.1,0-2,0.9-2,2v2.3H25.5V8.2c0-1.1-0.9-2-2-2c-1.1,0-2,0.9-2,2v2.3
		h-7.1c-6.7,0-12.1,5.4-12.1,12v29.3c0,6.7,5.4,12.1,12.1,12.1h41.2c6.6,0,12.1-5.4,12.1-12.1V22.6C67.7,15.9,62.2,10.5,55.6,10.5z
		 M14.4,14.6h7.1V17c0,1.1,0.9,2,2,2c1.1,0,2-0.9,2-2v-2.4h18.9V17c0,1.1,0.9,2,2,2c1.1,0,2-0.9,2-2v-2.4h7.1c4.4,0,8,3.6,8,8v4.5
		H6.4v-4.5C6.4,18.2,10,14.6,14.4,14.6z M55.6,59.8H14.4c-4.4,0-8-3.6-8-8V29.1h57.2v22.7C63.6,56.2,60,59.8,55.6,59.8z"/>
</g>
</svg>
