<?xml version="1.0" encoding="utf-8"?>
<!-- Generator: Adobe Illustrator 26.0.3, SVG Export Plug-In . SVG Version: 6.00 Build 0)  -->
<svg version="1.1" id="Layer_1" xmlns="http://www.w3.org/2000/svg" xmlns:xlink="http://www.w3.org/1999/xlink" x="0px" y="0px"
	 viewBox="0 0 30 30" style="enable-background:new 0 0 30 30;" xml:space="preserve">
<style type="text/css">
	.st0{fill:#F2F2F2;}
</style>
<g>
	<path class="st0" d="M26.4,10.9h-3.3c-0.1,0-0.1-0.1-0.1-0.1s0.1-0.1,0.1-0.1h3.4c0.1,0,0.1,0.1,0.1,0.1S26.5,10.9,26.4,10.9z"/>
	<path class="st0" d="M26.5,9.3h-8.7c-0.1,0-0.1-0.1-0.1-0.1c0-0.1,0.1-0.1,0.1-0.1h8.7c0.1,0,0.1,0.1,0.1,0.1
		C26.6,9.3,26.6,9.3,26.5,9.3z"/>
	<path class="st0" d="M26.7,12.4h-2.3c-0.1,0-0.1-0.1-0.1-0.1s0.1-0.1,0.1-0.1h2.3c0.1,0,0.1,0.1,0.1,0.1S26.7,12.4,26.7,12.4z"/>
	<path class="st0" d="M6.9,15.1H3.5c-0.1,0-0.1-0.1-0.1-0.1s0.1-0.1,0.1-0.1h3.4C6.9,14.9,7,15,7,15S6.9,15.1,6.9,15.1z"/>
	<path class="st0" d="M12.2,13.6H3.5c-0.1,0-0.1-0.1-0.1-0.1c0-0.1,0.1-0.1,0.1-0.1h8.7c0.1,0,0.1,0.1,0.1,0.1
		C12.3,13.5,12.2,13.6,12.2,13.6z"/>
	<path class="st0" d="M5.8,16.7H3.5c-0.1,0-0.1-0.1-0.1-0.1c0-0.1,0.1-0.1,0.1-0.1h2.3c0.1,0,0.1,0.1,0.1,0.1
		C5.9,16.6,5.8,16.7,5.8,16.7z"/>
	<path class="st0" d="M25.7,6.8h-1.1c-0.3,0-0.6-0.3-0.6-0.6V4.7c0-0.2-0.1-0.5-0.3-0.6c-0.2-0.1-0.5-0.1-0.6,0.1L20,6.6
		c-0.1,0.1-0.3,0.1-0.4,0.1H9.4C8.7,6.8,8.1,7.3,8.1,8V11H4.3C3.6,11,3,11.6,3,12.3v9.6c0,0.7,0.6,1.3,1.3,1.3h1.1
		c0.3,0,0.6,0.3,0.6,0.6v1.5c0,0.2,0.1,0.5,0.3,0.6c0.1,0.1,0.2,0.1,0.3,0.1c0.1,0,0.3-0.1,0.4-0.1l2.9-2.4c0.1-0.1,0.3-0.1,0.4-0.1
		h10.2c0.7,0,1.3-0.6,1.3-1.3v-3h3.8c0.7,0,1.3-0.6,1.3-1.3V8C27,7.3,26.4,6.8,25.7,6.8z M21.2,22c0,0.3-0.3,0.6-0.6,0.6H10.4
		c-0.3,0-0.6,0.1-0.8,0.3l-2.8,2.3v-1.3c0-0.7-0.6-1.3-1.3-1.3H4.3c-0.3,0-0.6-0.3-0.6-0.6v-9.7c0-0.3,0.3-0.6,0.6-0.6h4.1h12.2
		c0.3,0,0.6,0.3,0.6,0.6v6.4V22z M26.3,17.7c0,0.3-0.3,0.6-0.6,0.6h-3.8v-6.1c0-0.7-0.6-1.3-1.3-1.3H8.8V8c0-0.3,0.3-0.6,0.6-0.6
		h10.2c0.3,0,0.6-0.1,0.8-0.3l2.8-2.3v1.3c0,0.7,0.6,1.3,1.3,1.3h1.1c0.3,0,0.6,0.3,0.6,0.6V17.7z"/>
</g>
</svg>
