<?xml version="1.0" encoding="utf-8"?>
<!-- Generator: Adobe Illustrator 25.2.1, SVG Export Plug-In . SVG Version: 6.00 Build 0)  -->
<svg version="1.1" id="Layer_1" xmlns="http://www.w3.org/2000/svg" xmlns:xlink="http://www.w3.org/1999/xlink" x="0px" y="0px"
	 viewBox="0 0 30 30" style="enable-background:new 0 0 30 30;" xml:space="preserve">
<style type="text/css">
	.st0{fill-rule:evenodd;clip-rule:evenodd;fill:#004161;}
	.st1{fill:#004161;}
</style>
<g>
	<defs>
		<rect id="SVGID_1_" x="1.3" y="1.3" width="26.8" height="26.8"/>
	</defs>
	<clipPath id="SVGID_2_">
		<use xlink:href="#SVGID_1_"  style="overflow:visible;"/>
	</clipPath>
</g>
<g>
	<path class="st0" d="M15,25.6c5.9,0,10.6-4.8,10.6-10.6S20.9,4.4,15,4.4S4.4,9.1,4.4,15S9.1,25.6,15,25.6z M15,27.7
		c7,0,12.7-5.7,12.7-12.7S22,2.3,15,2.3S2.3,8,2.3,15S8,27.7,15,27.7z"/>
	<path class="st1" d="M11.3,11.2c-0.1-0.3,0-0.6,0.3-0.7s0.6,0,0.7,0.3l2.9,6.3c-0.5,0.2-1.2,0-1.4-0.5L11.3,11.2z"/>
	<path class="st1" d="M14.3,16.2l3.4-1.6c0.3-0.1,0.6,0,0.7,0.3c0.1,0.3,0,0.6-0.3,0.7l-2.7,1.3c-0.4,0.2-0.8,0-0.9-0.3L14.3,16.2z"
		/>
</g>
</svg>
