<?xml version="1.0" encoding="utf-8"?>
<!-- Generator: Adobe Illustrator 25.2.1, SVG Export Plug-In . SVG Version: 6.00 Build 0)  -->
<svg version="1.1" id="Layer_1" xmlns="http://www.w3.org/2000/svg" xmlns:xlink="http://www.w3.org/1999/xlink" x="0px" y="0px"
	 viewBox="0 0 30 30" style="enable-background:new 0 0 30 30;" xml:space="preserve">
<style type="text/css">
	.st0{fill:#f7aa36;}
</style>
<path class="st0" d="M16.4,15L27.2,4.2c0.2-0.2,0.2-0.5,0-0.7l-0.7-0.7c-0.1-0.1-0.2-0.1-0.4-0.1c-0.1,0-0.3,0.1-0.4,0.1L15,13.6L4.2,2.8
	C4.1,2.7,4,2.6,3.8,2.6c-0.1,0-0.3,0-0.4,0.1L2.8,3.5C2.7,3.6,2.6,3.7,2.6,3.8c0,0.1,0.1,0.3,0.1,0.4L13.6,15L2.8,25.8
	c-0.1,0.1-0.1,0.2-0.1,0.4c0,0.1,0.1,0.3,0.1,0.4l0.7,0.7c0.1,0.1,0.2,0.1,0.4,0.1c0.1,0,0.3,0,0.4-0.1L15,16.4l10.8,10.8
	c0.1,0.1,0.2,0.1,0.4,0.1c0.1,0,0.3-0.1,0.4-0.1l0.7-0.7c0.2-0.2,0.2-0.5,0-0.7L16.4,15z"/>
</svg>
