<?xml version="1.0" encoding="utf-8"?>
<!-- Generator: Adobe Illustrator 25.2.1, SVG Export Plug-In . SVG Version: 6.00 Build 0)  -->
<svg version="1.1" id="Layer_1" xmlns="http://www.w3.org/2000/svg" xmlns:xlink="http://www.w3.org/1999/xlink" x="0px" y="0px"
	 viewBox="0 0 70 70" style="enable-background:new 0 0 70 70;" xml:space="preserve">
<style type="text/css">
	.st0{fill:#004161;}
</style>
<g>
	<path class="st0" d="M64.9,55.4c-2.7-1.3-5.8-2-8.8-1.9l6.8-11.6c0.6-1.1,0.5-2.4-0.4-3.3c-0.7-0.7-1.4-1.4-2.1-2l-4-17
		c1.7-0.4,3.1-2,3.1-3.9v-3.9c0-1.2-1-2.1-2.1-2.1h-2.1V7.4c0-2.5-2-4.5-4.5-4.5H18.9c-2.5,0-4.5,2-4.5,4.5v2.2h-1.9
		c-1.2,0-2.1,1-2.1,2.1v3.9c0,1.9,1.3,3.5,3.1,3.9L9.4,36.9c-0.6,0.7-1.2,1.2-1.8,1.9c-0.9,0.9-1.1,2.2-0.4,3.3l6.8,11.5
		c-3,0.1-5.9,0.8-8.4,2.2l-0.7,0.3C2.4,57.4,1,59.9,1,62.5v1.6c0,1.6,1.3,3,3,3h62.2c1.6,0,3-1.3,3-3v-2.3
		C69,59,67.4,56.6,64.9,55.4z M52.9,53.8c-0.2,0.1-0.4,0.1-0.7,0.2c-0.2,0-0.2,0.1-0.4,0.1c-0.2,0.1-0.5,0.2-0.7,0.2
		c-0.1,0-0.2,0.1-0.3,0.1c-0.3,0.1-0.7,0.2-1,0.3l-0.5,0.2c-1.9,0.7-4,0.7-5.9,0.1l-1.9-0.7c-0.6-0.2-1.1-0.3-1.6-0.5
		c-0.2-0.1-0.3-0.1-0.6-0.1c-0.4-0.1-0.7-0.2-1.2-0.2c-0.2,0-0.4-0.1-0.7-0.1c-0.3-0.2-0.7-0.2-1-0.2c-0.2,0-0.5,0-0.7,0
		c-0.2,0-0.5,0-0.7,0c-0.1,0-0.2,0-0.2,0c-0.3,0-0.7,0-1,0.1c-0.2,0-0.5,0-0.7,0.1c-0.3,0-0.7,0.1-1.1,0.2c-0.2,0-0.5,0.1-0.7,0.1
		c-0.4,0.1-0.7,0.2-1.2,0.2c-0.2,0.1-0.4,0.1-0.6,0.2c-0.6,0.2-1.2,0.3-1.7,0.6l-0.6,0.1c-2,0.8-4.2,0.8-6.3,0.1
		c-0.4-0.2-0.8-0.3-1.2-0.4c-0.2-0.1-0.3-0.1-0.4-0.1c-0.2-0.1-0.6-0.2-0.8-0.2c-0.2,0-0.3-0.1-0.5-0.1c-0.2-0.1-0.5-0.1-0.7-0.2
		c-0.2,0-0.3-0.1-0.5-0.1c-0.2,0-0.3-0.1-0.5-0.1L10.7,44l1-0.8c7.2-6.1,13.2-9.6,20.7-12.4l1.6-0.6v13.6c0,0.6,0.5,1,1,1s1-0.5,1-1
		V30.3l1.3,0.4c7.5,2.6,14.9,6.8,21.9,12.4l0.3,0.2l-5.9,10.3c-0.1,0-0.2,0-0.3,0.1C53.1,53.8,53.1,53.8,52.9,53.8z M37,24.5
		l-2.1-0.4l-1.4,0.2c-5.8,1.2-11.6,3.7-17.1,7.3l1.7-7.3c0.4-1.6,1.8-2.7,3.5-2.7h26.6c1.6,0,3.1,1.2,3.5,2.7l1.6,6.9
		C48.4,28,42.8,25.8,37,24.5z M61.1,40.8l-1.2,2.1l-0.2-0.2c-7.1-5.7-14.5-9.9-22.1-12.5L36,29.8v-3.3l0.6,0.1
		c6.1,1.3,11.8,3.8,17,7.3c1.4,0.9,2.7,2,4,3c0.4,0.3,0.8,0.7,1.2,1.1c0.7,0.7,1.5,1.4,2.2,2.1C61.2,40.2,61.2,40.6,61.1,40.8z
		 M53.1,7.4v2.2h-9.5V5h7.2C52,5,53.1,6.1,53.1,7.4z M26.8,9.7V5h7.8v4.6H26.8z M35.2,5h7.7v4.6h-7.7V5z M16.6,7.4
		C16.6,6.1,17.7,5,19,5h7.2v4.6h-9.6V7.4z M12.6,15.7v-3.9c0,0,0-0.1,0.1-0.1h1.9h40.6h2.1c0.1,0,0.1,0,0.1,0.1v3.9
		c0,1.1-0.9,2-1.9,2H14.5C13.4,17.6,12.6,16.7,12.6,15.7z M15.6,19.7h38.7l3.5,14.6l-0.1-0.1c-0.3-0.2-0.7-0.5-1-0.7
		c-0.2-0.1-0.2-0.2-0.4-0.3c-0.5-0.3-1-0.7-1.5-1.1c-0.2-0.1-0.3-0.2-0.5-0.3l-1.8-7.6c-0.4-1.9-2.1-3.2-4.1-3.2H21.6
		c-2,0-3.6,1.3-4.1,3.2l-1.9,7.9c-0.2,0.1-0.3,0.2-0.5,0.3c-0.5,0.3-1,0.7-1.5,1.1c-0.2,0.1-0.3,0.2-0.4,0.3c-0.3,0.2-0.7,0.5-1,0.7
		l-0.1,0.1L15.6,19.7z M8.9,40.2c0.7-0.7,1.4-1.3,2.1-2c1.6-1.5,3.4-2.9,5.3-4.1c5.5-3.9,11.6-6.5,17.6-7.7v3.3l-1.8,0.6
		c-7.6,2.7-13.6,6.4-20.9,12.5l-0.9,0.7L8.9,41C8.7,40.8,8.8,40.5,8.9,40.2z M66.9,64.1c0,0.5-0.4,0.9-0.9,0.9H3.9
		C3.4,65,3,64.6,3,64.1v-1.6c0-1.9,1.1-3.6,2.7-4.5l0.7-0.3c2.5-1.3,5.2-2,7.9-2c0.4,0,0.8,0,1.3,0.1c1.6,0.1,3.2,0.5,4.8,1.1
		c0.3,0.2,0.7,0.2,1.1,0.3c2.2,0.6,4.6,0.4,6.8-0.4l0.5-0.2c3.9-1.6,8.2-1.6,12.1-0.2l1.9,0.7c0.3,0.1,0.6,0.2,0.9,0.2
		c0.2,0,0.2,0.1,0.4,0.1c0.2,0,0.3,0.1,0.5,0.1c0.2,0,0.3,0,0.4,0.1c0.2,0,0.3,0.1,0.5,0.1c0.2,0,0.3,0,0.5,0c0.2,0,0.2,0,0.4,0
		c0,0,0,0,0.1,0c0.2,0,0.4,0,0.7,0c0.1,0,0.2,0,0.3,0c0.2,0,0.4-0.1,0.7-0.1c0.1,0,0.2,0,0.2,0c0.2-0.1,0.5-0.1,0.7-0.2
		c0.1,0,0.2,0,0.2-0.1c0.3-0.1,0.6-0.2,0.9-0.3l0.5-0.2c0.3-0.1,0.7-0.2,0.9-0.3c1-0.3,1.9-0.5,2.8-0.7c3.3-0.4,6.7,0.1,9.6,1.6
		c1.7,0.8,2.9,2.6,2.9,4.5V64.1z"/>
</g>
</svg>
