<?xml version="1.0" encoding="utf-8"?>
<!-- Generator: Adobe Illustrator 25.2.1, SVG Export Plug-In . SVG Version: 6.00 Build 0)  -->
<svg version="1.1" id="Layer_1" xmlns="http://www.w3.org/2000/svg" xmlns:xlink="http://www.w3.org/1999/xlink" x="0px" y="0px"
	 viewBox="0 0 70 70" style="enable-background:new 0 0 70 70;" xml:space="preserve">
<style type="text/css">
	.st0{fill:none;}
	.st1{clip-path:url(#SVGID_2_);}
	.st2{fill:#004161;}
</style>
<rect x="11" y="11.3" class="st0" width="48" height="48"/>
<g>
	<g>
		<defs>
			<rect id="SVGID_1_" x="1.2" y="12.9" width="67.8" height="44.2"/>
		</defs>
		<clipPath id="SVGID_2_">
			<use xlink:href="#SVGID_1_"  style="overflow:visible;"/>
		</clipPath>
		<g class="st1">
			<path class="st2" d="M68.9,37.4c0-0.7-0.2-1.3-0.6-1.9l-6.6-10.6c-0.9-1.5-2.5-2.4-4.1-2.4h-8v-5.3c0.1-2.4-1.7-4.3-4-4.3H5.2
				c-2.2,0-4,1.9-4,4.3v25.6h0.7v0.3c0,1.8,0.9,3.6,2.4,4.5c-0.1,0.5-0.2,1-0.2,1.6c0,4.4,3.4,7.8,7.4,7.8c4.1,0,7.4-3.5,7.4-7.8
				c0-0.3,0-0.4,0-0.7H19c0,0.3,0,0.5,0,0.7c0,4.4,3.4,7.8,7.4,7.8c4.1,0,7.4-3.5,7.4-7.8c0-0.3,0-0.5,0-0.7H34c0,0.3,0,0.5,0,0.7
				c0,4.4,3.4,7.8,7.4,7.8c4.1,0,7.4-3.5,7.4-7.8c0-0.3,0-0.4,0-0.7h2.4c0,0.3,0,0.5,0,0.7c0,4.4,3.4,7.8,7.4,7.8
				c4.1,0,7.4-3.5,7.4-7.8c0-0.5-0.1-1-0.2-1.6c1.5-1,2.4-2.7,2.4-4.5v-0.2h0.7V37.4z M53.1,24.8h2.1v11.9h-1.3
				c-0.5,0-0.9-0.4-0.9-1L53.1,24.8L53.1,24.8z M56,24.8h1.7c1,0,1.9,0.5,2.4,1.4l6.5,10.5H55.9L56,24.8L56,24.8z M49.7,24.8h2.7
				v10.9c0,0.9,0.7,1.7,1.6,1.7h12.9v0.1v3.3H49.7V24.8z M15.8,42.8h6.3c-1.6,1.1-2.6,2.9-3,5h-0.3C18.5,45.8,17.3,43.9,15.8,42.8z
				 M30.8,42.8H37c-1.5,1.1-2.6,2.9-3,5h-0.3C33.5,45.8,32.3,43.9,30.8,42.8z M45.7,42.8h2v0.1h6.4c-1.5,1.1-2.6,2.9-2.9,4.9h-2.6
				C48.4,45.8,47.2,43.9,45.7,42.8z M3.2,17.2c0-1.1,0.9-2.1,2-2.1h40.5c1.1,0,2,1,2,2.1v23.4H3.2V17.2z M2.5,43.1v-0.3h4.7
				c-1.3,1-2.3,2.4-2.8,4.1C3.2,46,2.5,44.6,2.5,43.1z M11.5,54.9c-3,0-5.4-2.5-5.4-5.7c0-0.4,0-0.8,0.1-1.2
				c0.5-2.6,2.7-4.5,5.3-4.5c2.6,0,4.9,2.1,5.3,4.8c0.1,0.3,0.1,0.6,0.1,0.9C16.9,52.3,14.4,54.9,11.5,54.9z M26.5,54.9
				c-3,0-5.4-2.5-5.4-5.7c0-0.3,0-0.6,0.1-0.9c0.4-2.7,2.7-4.8,5.3-4.8c2.6,0,4.9,2.1,5.3,4.8c0.1,0.3,0.1,0.6,0.1,0.9
				C31.9,52.4,29.4,54.9,26.5,54.9z M41.4,54.9c-3,0-5.4-2.5-5.4-5.7c0-0.3,0-0.6,0.1-0.9c0.4-2.7,2.7-4.8,5.3-4.8
				c2.6,0,4.9,2.1,5.3,4.8c0.1,0.3,0.1,0.6,0.1,0.9C46.8,52.4,44.4,54.9,41.4,54.9z M58.6,54.9c-3,0-5.4-2.5-5.4-5.7
				c0-0.3,0-0.6,0.1-0.9c0.4-2.7,2.7-4.8,5.3-4.8c2.6,0,4.7,1.9,5.3,4.5l0.1,0.3c0.1,0.3,0.1,0.6,0.1,1C64,52.4,61.6,54.9,58.6,54.9
				z M67.6,43.1c0,1.6-0.7,3-1.9,3.8v-0.2h-0.1c-0.5-1.6-1.4-2.9-2.6-3.8h4.6V43.1z"/>
			<path class="st2" d="M12.6,48.5c-0.4-0.6-1.2-0.8-1.8-0.3c-0.6,0.4-0.7,1.3-0.3,1.9c0.2,0.4,0.7,0.6,1.1,0.6
				c0.2,0,0.5-0.1,0.7-0.3c0.3-0.2,0.5-0.5,0.6-0.9C12.9,49.1,12.8,48.7,12.6,48.5z"/>
			<path class="st2" d="M27.5,48.5c-0.4-0.6-1.2-0.8-1.8-0.3c-0.3,0.2-0.5,0.5-0.6,0.9c-0.1,0.3,0,0.7,0.2,1
				c0.2,0.4,0.7,0.6,1.1,0.6c0.2,0,0.5-0.1,0.7-0.3C27.8,49.9,28,49.1,27.5,48.5z"/>
			<path class="st2" d="M42.4,48.5c-0.4-0.6-1.2-0.8-1.8-0.3c-0.3,0.2-0.5,0.5-0.6,0.9c-0.1,0.3,0,0.7,0.2,1
				c0.2,0.4,0.7,0.6,1.1,0.6c0.2,0,0.5-0.1,0.7-0.3C42.6,49.9,42.8,49.1,42.4,48.5z"/>
			<path class="st2" d="M59.7,48.5c-0.4-0.6-1.2-0.8-1.8-0.3c-0.3,0.2-0.5,0.5-0.6,0.9c-0.1,0.3,0,0.7,0.2,1
				c0.2,0.4,0.7,0.6,1.1,0.6c0.2,0,0.5-0.1,0.7-0.3C59.9,49.9,60.1,49.1,59.7,48.5z"/>
		</g>
	</g>
</g>
</svg>
