<?xml version="1.0" encoding="utf-8"?>
<!-- Generator: Adobe Illustrator 25.2.1, SVG Export Plug-In . SVG Version: 6.00 Build 0)  -->
<svg version="1.1" id="Layer_1" xmlns="http://www.w3.org/2000/svg" xmlns:xlink="http://www.w3.org/1999/xlink" x="0px" y="0px"
	 viewBox="0 0 70 70" style="enable-background:new 0 0 70 70;" xml:space="preserve">
<style type="text/css">
	.st0{fill:#004161;}
	.st1{fill-rule:evenodd;clip-rule:evenodd;fill:#004161;}
</style>
<g>
	<path class="st0" d="M63,48.5v-4c0-7.5-2.9-14.5-8.2-19.8c-0.2-0.2-0.5-0.5-0.7-0.7c0,0-0.1-0.1-0.1-0.1c-3.5-3.2-7.6-5.4-12.2-6.6
		c-0.3-1.1-0.9-2.2-1.8-3c-1.3-1.3-3.1-2.1-5-2.1c-3.2,0-5.9,2.2-6.7,5.1C15.7,20.4,7,31.5,7,44.5v4c-0.8,0.2-1.5,0.6-2.1,1.2
		C4,50.6,3.5,51.8,3.5,53c0,2.6,2.1,4.7,4.7,4.7h53.5c2.6,0,4.7-2.1,4.7-4.7C66.5,50.8,65,49,63,48.5z M61.1,44.5v3.8H45.6
		c1.2-1.9,1.9-4.1,1.9-6.5c0-4.3-2.2-8-5.5-10.3V19.4c3.8,1.1,7.4,3,10.4,5.7v12.5c0,0.5,0.4,1,1,1s1-0.4,1-1V26.9
		C58.7,31.7,61.1,37.9,61.1,44.5z M24.4,41.7c0-5.8,4.7-10.6,10.6-10.6c5.8,0,10.6,4.7,10.6,10.6c0,5.8-4.7,10.6-10.6,10.6
		C29.2,52.3,24.4,47.6,24.4,41.7z M35,14.1c1.4,0,2.6,0.5,3.6,1.5c1,1,1.5,2.3,1.5,3.6v11.1c-1.6-0.7-3.3-1.1-5.1-1.1
		c-1.8,0-3.6,0.4-5.1,1.1V19.3C29.9,16.4,32.2,14.1,35,14.1z M8.9,44.5c0-6.6,2.6-12.8,6.8-17.4v10.6c0,0.5,0.4,1,1,1
		c0.5,0,1-0.4,1-1V25.1c2.9-2.6,6.5-4.6,10.4-5.7v12.1c-3.3,2.2-5.5,6-5.5,10.3c0,2.4,0.7,4.6,1.9,6.5H8.9V44.5z M61.7,55.9H8.3
		c-1.6,0-2.8-1.3-2.8-2.8c0-0.8,0.3-1.5,0.8-2c0.5-0.5,1.2-0.8,2-0.8h17.6c2.3,2.5,5.5,4,9.1,4c3.6,0,6.9-1.5,9.1-4h17.6
		c1.6,0,2.8,1.3,2.8,2.8C64.6,54.6,63.3,55.9,61.7,55.9z"/>
	<path class="st1" d="M61.1,48.3v-3.8c0-5.1-1.5-10-4.2-14.1c-0.6-0.9-1.2-1.8-1.9-2.6c-0.2-0.3-0.5-0.6-0.7-0.8v10.7
		c0,0.5-0.4,1-1,1s-1-0.4-1-1V25c-0.2-0.2-0.5-0.4-0.7-0.6c-2.1-1.8-4.5-3.2-7-4.2c-0.6-0.2-1.3-0.5-1.9-0.7
		c-0.2-0.1-0.5-0.1-0.7-0.2v12.1c0.2,0.2,0.5,0.3,0.7,0.5c2.9,2.3,4.7,5.8,4.7,9.8c0,1.4-0.2,2.7-0.6,3.9c-0.2,0.7-0.5,1.3-0.8,1.9
		c-0.1,0.2-0.3,0.5-0.4,0.7H61.1z M44.1,50.2c-0.2,0.2-0.5,0.5-0.7,0.7c-1.1,1-2.3,1.8-3.6,2.3c-1.5,0.6-3.1,1-4.8,1
		c-1.7,0-3.3-0.3-4.8-1c-1.3-0.6-2.6-1.4-3.6-2.3c-0.3-0.2-0.5-0.5-0.7-0.7H8.3c-0.3,0-0.5,0-0.8,0.1c-0.4,0.1-0.8,0.3-1.1,0.6
		c0,0-0.1,0.1-0.1,0.1c-0.5,0.5-0.8,1.2-0.8,2c0,1.6,1.3,2.8,2.8,2.8h53.5c1.6,0,2.8-1.3,2.8-2.8c0-0.8-0.4-1.6-0.9-2.1
		c-0.3-0.3-0.7-0.5-1.1-0.6c-0.2-0.1-0.5-0.1-0.8-0.1H44.1z M63.7,48.7c1.6,0.7,2.8,2.4,2.8,4.3c0,2.6-2.1,4.7-4.7,4.7H8.3
		c-2.6,0-4.7-2.1-4.7-4.7c0-1.3,0.5-2.5,1.4-3.3c0.4-0.4,0.9-0.7,1.4-0.9c0.2-0.1,0.5-0.2,0.7-0.3v-4c0-7.2,2.7-13.8,7.2-18.8
		c0.3-0.3,0.5-0.6,0.8-0.8c0.4-0.4,0.8-0.8,1.3-1.2c0.7-0.6,1.3-1.1,2-1.7c2.7-2,5.8-3.5,9.1-4.4l0,0c0.3-0.1,0.5-0.1,0.8-0.2
		c0.1-0.3,0.2-0.6,0.3-0.8c1.1-2.5,3.6-4.2,6.4-4.2c1.9,0,3.6,0.7,5,2.1c0.6,0.6,1.1,1.4,1.5,2.2c0.1,0.3,0.2,0.6,0.3,0.8
		c0.3,0.1,0.5,0.1,0.8,0.2l0,0c3.3,0.9,6.4,2.4,9.1,4.5c0.7,0.5,1.3,1,2,1.6c0.1,0.1,0.2,0.2,0.3,0.3c0,0,0.1,0.1,0.1,0.1
		c0.1,0.1,0.2,0.1,0.2,0.2c0.2,0.2,0.3,0.3,0.5,0.5c0.1,0.1,0.1,0.1,0.2,0.2c0.2,0.2,0.5,0.5,0.7,0.7c0.4,0.4,0.7,0.8,1.1,1.3
		c0,0,0.1,0.1,0.1,0.1c3.9,4.9,6.1,11,6.1,17.4v4C63.2,48.5,63.5,48.6,63.7,48.7z M39.4,16.6c-0.2-0.4-0.5-0.7-0.8-1
		c-1-1-2.2-1.5-3.6-1.5c-1.9,0-3.5,1-4.4,2.5c-0.2,0.4-0.4,0.8-0.5,1.2c-0.1,0.4-0.2,0.9-0.2,1.4v11.1c0.2-0.1,0.5-0.2,0.7-0.3
		c0.6-0.2,1.3-0.4,1.9-0.6c0.8-0.2,1.6-0.3,2.5-0.3c0.9,0,1.7,0.1,2.5,0.3c0.7,0.1,1.3,0.3,1.9,0.6c0.2,0.1,0.5,0.2,0.7,0.3V19.3
		c0-0.5-0.1-1-0.2-1.4C39.8,17.4,39.6,17,39.4,16.6z M39.4,32.1C39.4,32.1,39.4,32.1,39.4,32.1c-1.4-0.6-2.9-1-4.4-1
		c-1.5,0-3,0.3-4.3,0.9c0,0,0,0-0.1,0c-0.5,0.2-1.1,0.5-1.5,0.9c-0.6,0.4-1.1,0.8-1.6,1.3c-1.9,1.9-3,4.5-3,7.4c0,2,0.6,3.9,1.6,5.5
		c0.1,0.1,0.1,0.2,0.2,0.3c0.3,0.5,0.7,0.9,1.1,1.3c0.4,0.5,0.9,0.9,1.4,1.3c1.8,1.3,4,2.1,6.3,2.1c2.4,0,4.6-0.8,6.3-2.1
		c0.5-0.4,1-0.8,1.4-1.3c0.4-0.4,0.7-0.9,1.1-1.3c0.1-0.1,0.1-0.2,0.2-0.3c1-1.6,1.6-3.5,1.6-5.5c0-2.9-1.2-5.5-3-7.4
		c-0.5-0.5-1-0.9-1.6-1.3C40.5,32.7,39.9,32.4,39.4,32.1z M23.2,45.7c-0.4-1.2-0.6-2.6-0.6-3.9c0-4,1.9-7.5,4.7-9.8
		c0.2-0.2,0.5-0.4,0.7-0.5V19.4c-0.2,0.1-0.5,0.1-0.7,0.2c-0.6,0.2-1.3,0.4-1.9,0.7c-2.6,1-5,2.5-7,4.2c-0.2,0.2-0.5,0.4-0.7,0.6
		v12.5c0,0.5-0.4,1-1,1c-0.5,0-1-0.4-1-1V27c-0.2,0.3-0.5,0.5-0.7,0.8c-0.7,0.8-1.3,1.7-1.9,2.6c-2.6,4.1-4.1,8.9-4.1,14v3.8h15.5
		c-0.1-0.2-0.3-0.5-0.4-0.7C23.7,47,23.4,46.3,23.2,45.7z"/>
	<path class="st1" d="M35,47c2.9,0,5.2-2.3,5.2-5.2s-2.3-5.2-5.2-5.2s-5.2,2.3-5.2,5.2S32.1,47,35,47z M35,47.7
		c3.3,0,5.9-2.6,5.9-5.9s-2.6-5.9-5.9-5.9s-5.9,2.6-5.9,5.9S31.7,47.7,35,47.7z"/>
</g>
</svg>
