<?xml version="1.0" encoding="utf-8"?>
<!-- Generator: Adobe Illustrator 25.2.1, SVG Export Plug-In . SVG Version: 6.00 Build 0)  -->
<svg version="1.1" id="Layer_1" xmlns="http://www.w3.org/2000/svg" xmlns:xlink="http://www.w3.org/1999/xlink" x="0px" y="0px"
	 viewBox="0 0 70 70" style="enable-background:new 0 0 70 70;" xml:space="preserve">
<style type="text/css">
	.creation-white{fill:#FFFFFF;}
</style>
<path class="creation-white" d="M58.5,39.8c-1.2-1.5-2.5-3-4.1-4.5c6.7-6.6,9.9-12.9,7.6-16.6c-2.1-3.4-8.5-3.6-16.4-1.3C43.3,8.7,39.5,3,35,3
	s-8.3,5.7-10.5,14.4c-8-2.4-14.3-2.1-16.5,1.3c-2.3,3.7,0.9,10,7.6,16.6c-1.5,1.5-2.9,3-4.1,4.5C7.5,44.9,6.2,49.2,8,52
	c1.2,2,3.8,2.8,7.1,2.8c2.7,0,5.8-0.5,9.3-1.6c2.2,8.8,6,14.4,10.5,14.4c4.5,0,8.3-5.7,10.5-14.4c3.4,1,6.7,1.6,9.3,1.6
	c3.4,0,6-0.9,7.1-2.8C63.7,49.2,62.5,44.9,58.5,39.8z M54.9,16.4c3.2,0,5.6,0.9,6.6,2.6c2.1,3.4-1,9.6-7.4,15.9
	c-2-1.9-4.2-3.8-6.6-5.6c-0.3-4.2-0.9-7.9-1.7-11.4C49.1,16.9,52.3,16.4,54.9,16.4z M41.3,45.5c1.4-0.9,2.7-1.7,4-2.7
	c-0.3,3.4-0.8,6.5-1.5,9.3c-2.6-0.9-5.3-2-8.2-3.4C37.5,47.7,39.4,46.6,41.3,45.5z M41,44.9c-2,1.3-4,2.4-6,3.4c-2-1-3.9-2.1-6-3.4
	c-1.6-0.9-3-2-4.4-2.9c-0.1-2.1-0.1-4.3-0.1-6.6c0-2.4,0.1-4.5,0.2-6.7c1.4-1,2.9-2,4.4-2.9c2-1.3,4-2.4,6-3.4c2,1,3.9,2.1,6,3.4
	c1.6,0.9,3,2,4.4,2.9c0.2,2.1,0.2,4.3,0.2,6.7c0,2.3-0.1,4.5-0.2,6.7C44,43,42.5,44,41,44.9z M34.3,48.6c-2.8,1.4-5.6,2.6-8.2,3.4
	c-0.6-2.7-1.2-5.9-1.5-9.3c1.3,0.9,2.7,1.8,4,2.7C30.6,46.6,32.5,47.7,34.3,48.6z M22.6,40.5c-2.3-1.7-4.3-3.4-6-5.2
	c1.8-1.7,3.8-3.4,6-5.2c0,1.7-0.1,3.4-0.1,5.2S22.6,38.8,22.6,40.5z M24.8,27.8c0.3-3.4,0.8-6.5,1.5-9.3c2.6,0.9,5.3,2,8.2,3.4
	c-1.8,0.9-3.7,2-5.6,3.1C27.4,26,26.1,27,24.8,27.8z M35.7,22c2.8-1.4,5.6-2.6,8.2-3.4c0.6,2.7,1.2,5.8,1.5,9.3
	c-1.3-0.9-2.7-1.8-4-2.7C39.4,24.1,37.5,23,35.7,22z M47.5,30.2c2.2,1.6,4.2,3.4,6,5.2c-1.8,1.7-3.8,3.4-6,5.2
	c0.1-1.6,0.2-3.4,0.2-5.2S47.6,31.8,47.5,30.2z M35,5c3.2,0,6.7,4.9,8.7,13.1C41,19,38,20.3,35,21.8c-3-1.5-5.9-2.7-8.7-3.7
	C28.4,9.8,31.8,5,35,5z M8.6,19c2-3.2,8.1-3.4,15.8-1c-0.8,3.4-1.4,7.2-1.7,11.4c-2.4,1.8-4.6,3.7-6.6,5.6C9.6,28.6,6.5,22.4,8.6,19
	z M8.6,51.7c-1.6-2.5-0.3-6.6,3.5-11.4c1.2-1.5,2.5-3,4-4.5c2,1.9,4.2,3.8,6.6,5.6c0.3,4.2,0.9,8,1.7,11.4
	C16.7,55,10.6,54.8,8.6,51.7z M35,65.7c-3.2,0-6.7-4.9-8.7-13.1c2.7-0.9,5.7-2.2,8.7-3.7c3,1.5,5.9,2.7,8.7,3.7
	C41.7,60.9,38.3,65.7,35,65.7z M61.5,51.7c-2,3.2-8.1,3.4-15.8,1c0.8-3.4,1.4-7.2,1.7-11.4c2.4-1.8,4.6-3.7,6.6-5.6
	c1.5,1.5,2.8,3,4,4.5C61.8,45.1,63,49.1,61.5,51.7z"/>
<path class="creation-white" d="M41.6,33.9c-0.2-1.6-1.5-3.1-3.1-3.4c-1.2-0.2-2.4,0.1-3.3,0.8c-0.7-0.5-1.6-0.9-2.4-0.9c-2.2,0-4,1.8-4,4
	c0,0.2,0,0.2,0,0.4c0.1,0.9,0.5,1.8,1.3,2.5l4.3,3.8c0.2,0.2,0.4,0.2,0.6,0.2s0.5-0.1,0.6-0.2l4.5-3.8c0.9-0.8,1.4-1.9,1.4-3
	C41.6,34.2,41.6,34,41.6,33.9z M39,35.8l-3.8,3.3l-3.7-3.3c-0.4-0.3-0.6-0.8-0.6-1.3c0-0.1,0-0.2,0-0.2c0-1.1,0.9-2,2-2
	c0.6,0,1.3,0.3,1.6,0.9c0.2,0.2,0.5,0.4,0.8,0.4s0.6-0.2,0.8-0.4c0.5-0.6,1.3-0.9,2.1-0.8c0.9,0.2,1.5,0.9,1.6,1.7
	c0,0.1,0,0.2,0,0.2C39.7,34.9,39.4,35.5,39,35.8z"/>
</svg>
