<?xml version="1.0" encoding="utf-8"?>
<!-- Generator: Adobe Illustrator 25.2.1, SVG Export Plug-In . SVG Version: 6.00 Build 0)  -->
<svg version="1.1" id="Layer_1" xmlns="http://www.w3.org/2000/svg" xmlns:xlink="http://www.w3.org/1999/xlink" x="0px" y="0px"
	 viewBox="0 0 70 70" style="enable-background:new 0 0 70 70;" xml:space="preserve">
<style type="text/css">
	.st0{display:none;}
	.st1{display:inline;fill:#004161;}
	.st2{display:inline;}
	.st3{display:inline;clip-path:url(#SVGID_2_);}
	.st4{fill:#004161;}
</style>
<g class="st0">
	<path class="st1" d="M40.1,40.2H29.9v0.5h10.2V40.2z"/>
	<path class="st1" d="M25.3,17.1H23v0.5h2.3V17.1z"/>
	<path class="st1" d="M47.1,17.1h-2.3v0.5h2.3V17.1z"/>
	<path class="st1" d="M37.1,46.1h-4.2c-0.6,0-1.1-0.5-1.1-1.1v-2.7h6.5V45C38.2,45.6,37.8,46.1,37.1,46.1z M32.3,42.8V45
		c0,0.3,0.3,0.6,0.6,0.6h4.3c0.3,0,0.6-0.3,0.6-0.6v-2.1H32.3z"/>
	<path class="st1" d="M57.6,19h-8.7c-2.3-5.3-7.5-8.6-13.1-8.6h-1.6c-3.8,0-7.5,1.6-10.3,4.4c-1.2,1.2-2.1,2.6-2.9,4.2h-8.6
		c-2.3,0-4.2,1.9-4.2,4.2v10.7c0,0.8,0.5,1.4,1.3,1.6l0.2,0.1c-0.1,0.1-0.1,0.3-0.1,0.4v20.6c0,1.8,1.4,3.1,3.1,3.1h44.4
		c1.8,0,3.1-1.4,3.1-3.1V35.9c0-0.1,0-0.3-0.1-0.4l0.2-0.1c0.8-0.2,1.3-0.8,1.3-1.6V23.2C61.8,20.9,59.9,19,57.6,19z M25.2,15.9
		c2.5-2.5,5.7-3.9,9.1-3.9h1.6c4.7,0,9,2.7,11.3,6.9H22.9C23.5,17.8,24.3,16.8,25.2,15.9z M40.3,40.2l18.4-4.4v20.6
		c0,0.8-0.6,1.5-1.5,1.5H12.8c-0.8,0-1.5-0.6-1.5-1.5l0.1-20.6l5,1.2l13.4,3.2c0.1,0,0.3,0.1,0.3,0.1v-1.6L10.7,34l-0.8-0.2V23.2
		c0-1.4,1.2-2.6,2.6-2.6h45.1c1.4,0,2.6,1.2,2.6,2.6v10.6l-9.1,2.1L40,38.6v1.7L40.3,40.2z"/>
	<path class="st1" d="M46.8,20H23.2l0.2-0.4c2.3-4.4,6.6-7,11.6-7c4.9,0,9.3,2.7,11.6,7.1L46.8,20z M24.1,19.5h21.8
		c-2.3-4-6.3-6.4-10.9-6.4C30.4,13.1,26.4,15.5,24.1,19.5z"/>
	<path class="st1" d="M38.7,42.8h-7.3c-1,0-1.7-0.5-1.7-1.2v-3.9c0-0.6,0.8-1.2,1.7-1.2h7.3c1,0,1.7,0.5,1.7,1.2v3.9
		C40.4,42.3,39.6,42.8,38.7,42.8z M31.4,37c-0.6,0-1.2,0.3-1.2,0.6v3.9c0,0.3,0.5,0.7,1.2,0.7h7.3c0.7,0,1.2-0.4,1.2-0.7v-3.9
		c0-0.4-0.6-0.6-1.2-0.6H31.4z"/>
</g>
<g class="st0">
	<defs>
		<rect id="SVGID_1_" x="9.9" y="9.9" width="50.3" height="50.3"/>
	</defs>
	<clipPath id="SVGID_2_" class="st2">
		<use xlink:href="#SVGID_1_"  style="overflow:visible;"/>
	</clipPath>
	<g class="st3">
		<path class="st4" d="M54.6,40.8c-0.2-0.3-0.5-0.4-0.9-0.4c-0.3,0.1-0.5,0.4-0.5,0.7v0.1c0,2.4-2.4,4.8-6.6,6.4
			c-1,0.4-2.9,0.9-5.5,1.3c-0.5,0.1-1-0.1-1.4-0.4c-0.4-0.3-0.6-0.8-0.6-1.3l-0.7-20.1l6.3,0.4c0.1,0,0.1,0,0.1,0
			c0.9,0,1.5-0.7,1.5-1.5c0-0.4-0.2-0.8-0.5-1.1c-0.3-0.3-0.7-0.4-1.2-0.4l-6.5,0.5l-0.1-3.4c2.3-0.9,3.9-3.2,3.9-5.7
			c0-3.4-2.7-6.2-6.2-6.2c-3.4,0-6.2,2.8-6.2,6.2c0,2.6,1.6,4.8,3.9,5.7l-0.1,3.4l-6.4-0.4c-0.4,0-0.9,0.1-1.2,0.4
			c-0.3,0.3-0.5,0.7-0.5,1.1c0,0.9,0.7,1.5,1.5,1.5c0.1,0,0.1,0,0.1,0l6.3-0.4l-0.7,20.2c0,0.5-0.2,0.9-0.6,1.3
			c-0.4,0.3-0.9,0.4-1.3,0.4c-2-0.3-3.9-0.7-5.6-1.4c-4-1.5-6.6-3.8-6.8-6.2c-0.1-0.4-0.3-0.6-0.6-0.7c-0.4-0.1-0.7,0.1-0.8,0.4
			c-0.5,1-0.8,2.1-0.8,3.2c0,2.9,1.6,5.5,4.4,7.2l14.9,8.2c0.1,0.1,0.2,0.1,0.4,0.1c0.1,0,0.2-0.1,0.4-0.1l14.4-7.9l0.6-0.3
			c0,0,0.1,0,0.1-0.1c2.7-1.6,4.4-4.3,4.4-7.1C55.7,43.3,55.3,42,54.6,40.8z M44.7,25.2c0.3,0,0.5,0.1,0.8,0.3
			c0.2,0.2,0.3,0.5,0.3,0.7c0,0.5-0.5,1-1,1l-6.4-0.4l-0.1-1.3L44.7,25.2z M31.2,16c0-2.6,2.1-4.6,4.7-4.6c2.6,0,4.6,2.1,4.6,4.6
			c0,2.1-1.4,3.9-3.4,4.4c-0.6,0.2-1.3,0.2-2,0.1c-0.2-0.1-0.4-0.1-0.7-0.1C32.6,20,31.2,18.1,31.2,16z M27.1,27.3L27.1,27.3
			c-0.6,0-1.1-0.5-1.1-1c0-0.3,0.1-0.5,0.3-0.7c0.2-0.2,0.4-0.3,0.7-0.3h0.1l6.4,0.4l-0.1,1.3L27.1,27.3z M50.6,50.5l-0.7,0.4
			l-13.8,7.6v-21c0-0.1-0.1-0.2-0.2-0.2c-0.1,0-0.2,0.1-0.2,0.2v21l-13.9-7.7l-0.4-0.2c-2.3-1.3-3.7-3.5-3.7-5.8c0-0.1,0-0.2,0-0.3
			c1.2,1.9,3.6,3.7,6.9,4.9c1.8,0.7,3.8,1.2,5.9,1.5c0.9,0.1,1.8-0.1,2.5-0.7c0.7-0.6,1.1-1.5,1.2-2.4l0.9-25.5c0.5,0.1,1,0.1,1.6,0
			l0.9,25.3c0.1,0.9,0.5,1.8,1.2,2.4c0.7,0.6,1.6,0.9,2.6,0.7c1.9-0.3,4.4-0.9,5.8-1.3c3.5-1.3,5.9-3.2,6.9-5.3
			c0.1,0.2,0.1,0.5,0.1,0.8C54.2,46.9,52.8,49,50.6,50.5z"/>
		<path class="st4" d="M38.6,16c0-1.5-1.2-2.7-2.7-2.7c-1.5,0-2.7,1.2-2.7,2.7s1.2,2.7,2.7,2.7C37.4,18.7,38.6,17.5,38.6,16z
			 M33.6,16c0-1.2,1-2.2,2.2-2.2c1.2,0,2.2,1,2.2,2.2s-1,2.2-2.2,2.2C34.7,18.3,33.6,17.3,33.6,16z"/>
	</g>
</g>
<g>
	<path class="st4" d="M57.2,42.4V29.3c0-0.4-0.2-0.7-0.4-0.9l-3.6-3.3v-8.6c0-1.1-0.9-2-2-2h-1.4v-1.4c0-1.1-0.9-2-2-2H37.4
		l-2.9-2.6c-1.4-1.2-3.4-1.2-4.8,0l-2.9,2.6h-9.9c-1.1,0-2,0.9-2,2v1.4H14c-1.1,0-2,0.9-2,2v7.9l-4.5,4C7.2,28.6,7,28.9,7,29.3v22.2
		c0,1.7,1.4,3.1,3.1,3.1h36.7c1.4,3.4,4.6,5.6,8.3,5.6c4.9,0,9-4,9-9C64.1,47,61.2,43.4,57.2,42.4z M53.1,28.1l1.7,1.5l-1.7,1.1
		V28.1z M49.7,15.2h1.4c0.7,0,1.3,0.6,1.3,1.3v14.6l-2.7,1.7L49.7,15.2L49.7,15.2z M31.2,10.1c0.5-0.5,1.3-0.5,1.9,0l1.1,0.9h-4
		L31.2,10.1z M15.6,13.1c0-0.7,0.6-1.3,1.3-1.3h30.8c0.7,0,1.3,0.6,1.3,1.3v20.2l-13.1,8.2l-1.6-0.8c-1.4-0.7-2.9-0.7-4.3,0
		l-1.6,0.8l-12.8-8L15.6,13.1L15.6,13.1z M12.7,16.5c0-0.7,0.6-1.3,1.3-1.3h0.9V33l-2.2-1.4L12.7,16.5L12.7,16.5z M11.9,27.4v3.8
		l-2.5-1.6L11.9,27.4z M9.3,30.4l2.7,1.7c0,0.2,15.7,9.7,15.7,9.7L9.3,50.5L9.3,30.4L9.3,30.4z M46.2,51.2c0,0.4,0,0.8,0.1,1.2H10.2
		c-0.5,0-0.9-0.4-0.9-0.9v-0.1l21-10c1.2-0.6,2.5-0.6,3.7,0l13,6.2C46.4,48.7,46.2,49.9,46.2,51.2z M36.7,41.8L55,30.4v11.8
		c-3.2,0-6.2,1.8-7.7,4.7L36.7,41.8z M55.1,57.9c-3,0-5.6-1.9-6.4-4.8c-0.2-0.6-0.3-1.3-0.3-2c0-1,0.2-2.1,0.7-3
		c1.1-2.3,3.5-3.7,6-3.7c0.3,0,0.6,0,0.8,0.1c3.4,0.4,5.9,3.3,5.9,6.7C61.9,54.9,58.8,57.9,55.1,57.9z"/>
	<path class="st4" d="M57.4,49.4L54,52.7l-1.4-1.3c-0.1-0.1-0.4-0.1-0.5,0c-0.1,0.1-0.1,0.4,0,0.5l1.7,1.6c0.1,0.1,0.2,0.1,0.2,0.1
		c0.1,0,0.2,0,0.2-0.1l3.6-3.6c0.1-0.1,0.1-0.4,0-0.5C57.7,49.2,57.5,49.2,57.4,49.4z"/>
</g>
</svg>
