<?xml version="1.0" encoding="utf-8"?>
<!-- Generator: Adobe Illustrator 25.2.1, SVG Export Plug-In . SVG Version: 6.00 Build 0)  -->
<svg version="1.1" id="Layer_1" xmlns="http://www.w3.org/2000/svg" xmlns:xlink="http://www.w3.org/1999/xlink" x="0px" y="0px"
	 viewBox="0 0 30 30" style="enable-background:new 0 0 30 30;" xml:space="preserve">
<style type="text/css">
	.envelope{fill:#004161;}
</style>
<path class="envelope" d="M27.4,4.7H2.6C1.2,4.7,0,5.9,0,7.4v15.3c0,1.5,1.2,2.6,2.6,2.6h24.7c1.5,0,2.6-1.2,2.6-2.6V7.4
	C30,5.9,28.8,4.7,27.4,4.7z M27,6.5l-0.4,0.3L16,15.6c-0.6,0.5-1.5,0.5-2.1,0L3.3,6.8L3,6.5H27z M1.8,7.8l8.7,7.2l-8.7,5.8V7.8z
	 M27.4,23.5H2.6c-0.4,0-0.8-0.3-0.9-0.7l10-6.7l1,0.8c0.6,0.5,1.4,0.8,2.2,0.8c0.8,0,1.5-0.3,2.2-0.8l1-0.8l10,6.7
	C28.1,23.2,27.8,23.5,27.4,23.5z M28.2,20.7L19.6,15l8.7-7.2V20.7z"/>
</svg>
