<?xml version="1.0" encoding="utf-8"?>
<!-- Generator: Adobe Illustrator 25.2.1, SVG Export Plug-In . SVG Version: 6.00 Build 0)  -->
<svg version="1.1" id="Layer_1" xmlns="http://www.w3.org/2000/svg" xmlns:xlink="http://www.w3.org/1999/xlink" x="0px" y="0px"
	 viewBox="0 0 70 70" style="enable-background:new 0 0 70 70;" xml:space="preserve">
<style type="text/css">
	.st0{fill:#F2F2F2;}
</style>
<path class="st0" d="M52.1,37.4c-3.2,0.1-6.4-1.1-8.7-3.4c-2.3-2.2-3.7-5.3-3.8-8.5c0-0.1,0-0.2,0-0.3c0-0.2,0.1-0.4,0.2-0.6
	c0.1-0.2,0.4-0.2,0.6-0.2s0.4,0.1,0.6,0.2s0.2,0.4,0.2,0.6c0,2.8,1.1,5.4,3.1,7.4s4.6,3.1,7.4,3.1h0.2c1.4,0,2.8-0.2,4.1-0.7
	s2.5-1.2,3.5-2.2s1.8-2.1,2.4-3.4c0.6-1.3,0.9-2.6,0.9-4v-0.2c0-0.2,0.1-0.4,0.2-0.6c0.1-0.2,0.4-0.2,0.6-0.2c0.2,0,0.4,0.1,0.6,0.2
	c0.2,0.1,0.2,0.4,0.2,0.6c0,1.6-0.3,3.2-0.9,4.7s-1.5,2.8-2.6,4c-1.1,1.1-2.5,2-4,2.6C55.4,37.1,53.8,37.4,52.1,37.4L52.1,37.4z"/>
<path class="st0" d="M4.8,54.9c-0.3,0-0.5-0.1-0.7-0.3c-0.2-0.2-0.3-0.4-0.3-0.7v-4.8c-0.1-2.7,0.6-5.3,1.9-7.7
	c1.3-2.4,3.2-4.3,5.5-5.7c0.1-0.1,0.2-0.1,0.4-0.1c0.1,0,0.3,0,0.4,0s0.3,0.1,0.4,0.2c0.1,0.1,0.2,0.2,0.3,0.3
	c0.1,0.1,0.1,0.2,0.1,0.4c0,0.1,0,0.3,0,0.4c0,0.1-0.1,0.3-0.2,0.4c-0.1,0.1-0.2,0.2-0.3,0.3c-2,1.2-3.6,2.9-4.7,5
	c-1.1,2-1.7,4.3-1.6,6.7v4.8c0,0.1,0,0.3-0.1,0.4c-0.2,0-0.3,0.1-0.4,0.2c-0.1,0.1-0.2,0.2-0.4,0.2C5.1,54.9,4.9,55,4.8,54.9z"/>
<path class="st0" d="M20.1,35.2c-0.5,0-1-0.1-1.4-0.3c-0.4-0.3-0.7-0.6-0.9-1.1c0-0.1,0-0.2,0-0.3c0-0.1,0.1-0.1,0.2-0.2h0.1h0.1
	c0,0,0.1,0,0.1,0.1l0.1,0.1c0.1,0.3,0.4,0.6,0.7,0.8c0.3,0.2,0.7,0.3,1,0.2c0.4,0,0.7-0.1,1-0.3s0.5-0.5,0.7-0.8
	c0-0.1,0.1-0.1,0.2-0.2c0.1,0,0.2,0,0.3,0c0.1,0,0.2,0.1,0.2,0.2s0,0.2,0,0.3c-0.2,0.4-0.5,0.8-0.9,1.1
	C21.1,35.1,20.6,35.2,20.1,35.2z"/>
<path class="st0" d="M21.3,31h-2c-0.1,0-0.2,0-0.2-0.1C19,30.8,19,30.8,19,30.7c0-1.4,0.2-2.8,0.8-4.1c0,0,0-0.1,0.1-0.1l0.1-0.1
	h0.1h0.1c0.1,0,0.1,0.1,0.2,0.2c0,0.1,0,0.2,0,0.3c-0.5,1.1-0.7,2.2-0.7,3.4h1.7c0.1,0,0.2,0,0.2,0.1c0.1,0.1,0.1,0.1,0.1,0.2
	s0,0.2-0.1,0.2C21.5,30.9,21.4,31,21.3,31z"/>
<path class="st0" d="M2.7,42.1c-0.3,0-0.5-0.1-0.7-0.3s-0.3-0.5-0.3-0.7c0-0.3,0.1-0.5,0.3-0.7s0.5-0.3,0.7-0.3c0.3,0,0.7,0,1-0.1
	c0.3-0.1,0.6-0.3,0.9-0.5c0.4-0.6,0.6-1.3,0.5-2V23.4c-0.1-4,1.4-7.9,4.2-10.8S15.9,8,19.9,7.9c4-0.1,7.9,1.4,10.8,4.2
	s4.6,6.6,4.7,10.6c0,0.2,0,0.5,0,0.7v12.2c0,0.3-0.1,0.5-0.3,0.7s-0.5,0.3-0.7,0.3c-0.3,0-0.5-0.1-0.7-0.3s-0.3-0.5-0.3-0.7V23.4
	c0.1-3.4-1.2-6.8-3.6-9.3s-5.6-3.9-9.1-4c-3.4-0.1-6.8,1.2-9.3,3.6s-3.9,5.6-4,9.1v14.4c0.1,1.3-0.2,2.6-1.1,3.6
	c-0.4,0.5-1,0.8-1.6,1.1C4,42,3.4,42.1,2.7,42.1z"/>
<path class="st0" d="M67.5,54.8c-0.2,0-0.4-0.1-0.6-0.2s-0.2-0.4-0.2-0.6v-7.4c0-2.5-0.6-4.9-1.8-7c-1.2-2.2-2.9-4-5-5.3
	c-0.1-0.1-0.2-0.1-0.2-0.2c-0.1-0.1-0.1-0.2-0.1-0.3c0-0.1,0-0.2,0-0.3c0-0.1,0.1-0.2,0.1-0.3c0.1-0.1,0.1-0.2,0.2-0.2
	c0.1-0.1,0.2-0.1,0.3-0.1s0.2,0,0.3,0c0.1,0,0.2,0.1,0.3,0.1c2.3,1.5,4.2,3.5,5.6,5.9c1.3,2.4,2,5.1,2,7.8v7.4
	c0,0.2-0.1,0.4-0.2,0.6C68.1,54.9,67.8,54.8,67.5,54.8z"/>
<path class="st0" d="M52.2,32.2c-0.6,0-1.2-0.1-1.6-0.4c-0.5-0.3-0.9-0.8-1.1-1.3c0-0.1,0-0.2,0-0.3s0.1-0.1,0.2-0.2h0.1h0.1
	c0,0,0.1,0,0.1,0.1l0.1,0.1c0.2,0.4,0.5,0.8,0.8,1c0.4,0.2,0.8,0.3,1.3,0.3c0.4,0,0.9-0.1,1.3-0.3c0.4-0.2,0.7-0.6,0.9-1
	c0-0.1,0.1-0.1,0.2-0.2c0.1,0,0.2,0,0.3,0c0,0,0.1,0,0.1,0.1l0.1,0.1v0.1v0.1c-0.2,0.5-0.6,1-1.1,1.3C53.4,32,52.8,32.2,52.2,32.2z"
	/>
<path class="st0" d="M53.4,28.2h-2c-0.1,0-0.2,0-0.2-0.1c-0.1-0.1-0.1-0.1-0.1-0.2c0-1.7,0.3-3.3,1.1-4.8c0.1-0.1,0.1-0.1,0.2-0.1
	c0.1,0,0.2,0,0.3,0.1c0.1,0,0.1,0.1,0.1,0.2c0,0.1,0,0.2,0,0.2c-0.7,1.3-1,2.7-1,4.1h1.7c0.1,0,0.2,0,0.2,0.1
	c0.1,0.1,0.1,0.1,0.1,0.2c0,0.1,0,0.2-0.1,0.2C53.6,28.2,53.5,28.2,53.4,28.2z"/>
<path class="st0" d="M63.7,26.3c-0.2,0-0.4-0.1-0.6-0.2s-0.2-0.4-0.2-0.6c0-0.4,0-3.4,1.4-4.9c0.2-0.3,0.5-0.5,0.8-0.6
	c0.3-0.1,0.7-0.2,1-0.2c0.2,0,0.4,0.1,0.6,0.2c0.2,0.1,0.2,0.4,0.2,0.6s-0.1,0.4-0.2,0.6c-0.1,0.2-0.4,0.2-0.6,0.2
	c-0.1,0-0.2,0-0.4,0.1c-0.1,0-0.2,0.1-0.3,0.2c-0.8,0.8-1,3-0.9,3.7c0,0.2-0.1,0.4-0.2,0.6C64.2,26.2,64,26.3,63.7,26.3z"/>
<path class="st0" d="M40.2,27.8c-1.8,0-3.4-1.1-3.4-2.5v-3.2c0-0.1,0-0.2,0.1-0.2c0.1-0.1,0.2-0.1,0.2-0.1h0.1c0,0,0.1,0,0.1,0.1
	l0.1,0.1v0.1v3.2c0,1,1.2,1.8,2.7,1.8c0.1,0,0.2,0,0.2,0.1c0.1,0.1,0.1,0.1,0.1,0.2c0,0.1,0,0.2-0.1,0.2
	C40.3,27.8,40.3,27.8,40.2,27.8z"/>
<path class="st0" d="M63.9,27.8c-0.1,0-0.2,0-0.2-0.1c-0.1-0.1-0.1-0.1-0.1-0.2s0-0.2,0.1-0.2c0.1-0.1,0.1-0.1,0.2-0.1
	c0.5,0,0.9-0.2,1.3-0.5c0.3-0.3,0.5-0.8,0.5-1.3v-3.2c0-0.1,0-0.2,0.1-0.2c0.1-0.1,0.1-0.1,0.2-0.1h0.1c0,0,0.1,0,0.1,0.1l0.1,0.1
	v0.1v3.2c0,0.7-0.3,1.3-0.7,1.7C65.2,27.6,64.6,27.8,63.9,27.8z"/>
<path class="st0" d="M20.1,40.4c-3.3,0-6.4-1.3-8.8-3.6c-2.3-2.3-3.6-5.5-3.6-8.7v-2.9c0-1.8,0.5-3.7,1.5-5.2c1-1.6,2.4-2.8,4.1-3.5
	c0.1,0,0.2-0.1,0.4,0c0.1,0,0.2,0,0.3,0.1c0.1,0.1,0.2,0.1,0.3,0.2c0.1,0.1,0.1,0.2,0.1,0.3c0,0.2,1.1,4.9,7.4,4.9h9.9
	c0.2,0,0.4,0.1,0.6,0.2c0.2,0.1,0.2,0.4,0.2,0.6V28c0,3.3-1.3,6.4-3.6,8.7C26.5,39.1,23.4,40.4,20.1,40.4z M13.1,18.4
	c-1.2,0.7-2.1,1.7-2.8,2.8c-0.7,1.2-1,2.5-0.9,3.9V28c0,2.8,1.1,5.5,3.1,7.6c2,2.1,4.7,3.1,7.6,3.1c2.8,0,5.5-1.1,7.6-3.1
	s3.1-4.7,3.1-7.6v-4.3h-9C16,23.7,13.8,20.1,13.1,18.4z"/>
<path class="st0" d="M40.5,26.1c-0.2,0-0.4-0.1-0.6-0.2c-0.2-0.2-0.2-0.4-0.2-0.6c0-1-0.3-2.7-0.9-3.4c-0.1-0.1-0.2-0.2-0.3-0.2
	c-0.1,0-0.2-0.1-0.3-0.1c-0.2,0-0.4,0-0.6-0.1s-0.4-0.2-0.5-0.4c-0.4-0.5-0.6-1-0.5-1.6c0-4.2,1.7-8.2,4.6-11.1
	c3-2.9,7-4.6,11.1-4.6c4.2,0,8.2,1.7,11.1,4.6c2.9,3,4.6,7,4.6,11.1c0,0.5-0.1,1-0.5,1.4c-0.1,0.2-0.3,0.3-0.5,0.4
	c-0.2,0.1-0.4,0.1-0.6,0.1c-0.1,0-0.2,0-0.3,0c-0.1,0-0.2-0.1-0.3-0.2s-0.1-0.2-0.2-0.3c0-0.1-0.1-0.2-0.1-0.3s0-0.2,0-0.3
	c0-0.1,0.1-0.2,0.2-0.3c0.1-0.1,0.2-0.1,0.3-0.2c0.1,0,0.2-0.1,0.3-0.1v-0.1C66.5,11.9,60.4,6,52.6,5.8c-7.8-0.2-14.3,5.3-14.5,13.1
	c0,0.2,0,0.5,0,0.7c0,0.1,0,0.2,0,0.4c0.3,0,0.7,0.1,1,0.2s0.6,0.3,0.8,0.6c1.5,1.4,1.5,4.3,1.5,4.6c0,0.2-0.1,0.4-0.2,0.6
	C41.1,26.2,40.7,26.1,40.5,26.1z"/>
<path class="st0" d="M62.1,24.3c-0.2,0-0.4-0.1-0.6-0.2s-0.2-0.4-0.2-0.6v-3.1c-1.8-0.3-3.7-1.9-4.6-2.8c-3.9,3.2-11,3-13.6,2.8v3.1
	c0,0.2-0.1,0.4-0.2,0.6c-0.1,0.2-0.4,0.2-0.6,0.2s-0.4-0.1-0.6-0.2s-0.2-0.4-0.2-0.6v-4c0-0.1,0-0.2,0.1-0.3c0-0.1,0.1-0.2,0.2-0.3
	c0.1-0.1,0.2-0.1,0.3-0.2c0.1,0,0.2,0,0.4,0c0.1,0,9.9,1.1,13.7-2.8c0.2-0.2,0.4-0.2,0.6-0.3c0.1,0,0.2,0,0.3,0.1
	c0.1,0.1,0.2,0.1,0.3,0.2c1.1,1.2,3.4,3,4.7,2.9c0.1,0,0.2,0,0.4,0c0.1,0,0.2,0.1,0.3,0.2c0.1,0.1,0.2,0.2,0.2,0.3
	c0,0.1,0.1,0.2,0.1,0.3v3.8c0,0.2-0.1,0.4-0.2,0.6C62.5,24.2,62.3,24.3,62.1,24.3z"/>
<path class="st0" d="M49.8,66.7c-0.2,0-0.4-0.1-0.6-0.2C49,66.4,49,66.1,49,65.9c0-2-0.5-3.9-1.4-5.6s-2.3-3.2-4-4.2
	c-0.1-0.1-0.2-0.1-0.2-0.2c-0.1-0.1-0.1-0.2-0.1-0.3s0-0.2,0-0.3c0-0.1,0.1-0.2,0.1-0.3c0.1-0.1,0.1-0.2,0.2-0.2
	c0.1-0.1,0.2-0.1,0.3-0.1c0.1,0,0.2,0,0.3,0c0.1,0,0.2,0.1,0.3,0.1c1.9,1.2,3.5,2.8,4.6,4.8s1.7,4.2,1.6,6.4c0,0.1,0,0.2-0.1,0.3
	c0,0.1-0.1,0.2-0.2,0.3c-0.1,0.1-0.2,0.1-0.3,0.2C50,66.7,49.9,66.7,49.8,66.7z"/>
<path class="st0" d="M25,66.7c-0.2,0-0.4-0.1-0.6-0.2s-0.2-0.4-0.2-0.6c0-2.2,0.6-4.4,1.7-6.4s2.7-3.6,4.6-4.8
	c0.1-0.1,0.2-0.1,0.3-0.2c0.1,0,0.2-0.1,0.3,0c0.1,0,0.2,0,0.3,0.1c0.1,0,0.2,0.1,0.3,0.2c0.1,0.1,0.1,0.2,0.2,0.3
	c0,0.1,0.1,0.2,0,0.3c0,0.1,0,0.2-0.1,0.3c0,0.1-0.1,0.2-0.2,0.3c-0.1,0.1-0.2,0.1-0.3,0.2c-1.7,1-3,2.5-4,4.2
	c-0.9,1.7-1.4,3.6-1.4,5.6c0,0.2-0.1,0.4-0.2,0.6C25.4,66.6,25.2,66.7,25,66.7z"/>
<path class="st0" d="M37.4,54.4c-0.4,0-0.8-0.1-1.2-0.3c-0.4-0.2-0.6-0.6-0.8-0.9c0-0.1,0-0.2,0-0.2c0-0.1,0.1-0.1,0.2-0.2h0.1h0.1
	c0,0,0.1,0,0.1,0.1L36,53c0.1,0.3,0.3,0.5,0.6,0.6c0.2,0.2,0.5,0.2,0.8,0.2c0.3,0,0.6,0,0.8-0.2c0.2-0.1,0.4-0.4,0.6-0.6
	c0-0.1,0.1-0.1,0.2-0.2c0.1,0,0.2,0,0.2,0c0.1,0,0.1,0.1,0.2,0.2c0,0.1,0,0.2,0,0.3c-0.2,0.4-0.4,0.7-0.8,0.9
	C38.3,54.3,37.8,54.4,37.4,54.4z"/>
<path class="st0" d="M46.7,49.6c-0.2,0-0.3,0-0.5-0.1c-0.1-0.1-0.3-0.2-0.3-0.4c-0.1-0.2-0.1-0.3,0-0.5c0-0.2,0.1-0.3,0.2-0.4
	l1.8-1.8c0-2.8-1.1-5.5-3.1-7.4c-2-2-4.6-3.1-7.4-3.1S31.9,37,30,39c-2,2-3.1,4.6-3.1,7.4l1.7,1.8c0.2,0.2,0.2,0.4,0.2,0.6
	s-0.1,0.4-0.2,0.6c-0.2,0.2-0.4,0.2-0.6,0.2c-0.2,0-0.4-0.1-0.6-0.2l-1.9-2c-0.1-0.2-0.2-0.4-0.2-0.6c0-3.2,1.3-6.3,3.6-8.6
	c2.3-2.3,5.4-3.6,8.6-3.6c3.2,0,6.3,1.3,8.6,3.6c2.3,2.3,3.6,5.4,3.6,8.6c0,0.1,0,0.2-0.1,0.3c0,0.1-0.1,0.2-0.2,0.3l-2.1,2
	C47.1,49.5,46.9,49.6,46.7,49.6z"/>
<path class="st0" d="M37.4,58.9c-2.7,0-5.3-1.1-7.2-3c-1.9-1.9-3-4.5-3-7.2c0-0.1,0-0.2,0.1-0.3c0-0.1,0.1-0.2,0.2-0.3
	s0.2-0.1,0.3-0.2c0.1,0,0.2-0.1,0.3-0.1c0.1,0,0.2,0,0.3,0.1c0.1,0,0.2,0.1,0.3,0.2c0.1,0.1,0.1,0.2,0.2,0.3c0,0.1,0.1,0.2,0.1,0.3
	c0,1.1,0.2,2.2,0.6,3.2c0.4,1,1.1,2,1.8,2.8c0.7,0.8,1.7,1.4,2.8,1.8c1,0.4,2.1,0.6,3.2,0.6s2.2-0.2,3.2-0.6c1-0.4,2-1.1,2.8-1.8
	c0.8-0.7,1.4-1.7,1.8-2.8c0.4-1,0.6-2.1,0.6-3.2c0-0.2,0.1-0.4,0.2-0.6c0.1-0.2,0.4-0.2,0.6-0.2s0.4,0.1,0.6,0.2s0.2,0.4,0.2,0.6
	c0,2.7-1.1,5.3-3,7.2C42.6,57.8,40.1,58.9,37.4,58.9z"/>
<path class="st0" d="M38.8,46.1c-3.6,0-3.7-3.6-3.7-3.7c0-0.1,0-0.2,0.1-0.2c0.1-0.1,0.1-0.1,0.2-0.1h0.1c0,0,0.1,0,0.1,0.1l0.1,0.1
	v0.1c0,0.4,0.1,0.8,0.2,1.1c0.1,0.4,0.3,0.7,0.6,1c0.3,0.3,0.6,0.5,0.9,0.7c0.3,0.2,0.7,0.2,1.1,0.2h0.2c0.1,0,0.2,0,0.2,0.1
	c0.1,0.1,0.1,0.1,0.1,0.2c0,0.1,0,0.2-0.1,0.2C39,46,38.9,46.1,38.8,46.1z"/>
<path class="st0" d="M46.6,52.2h-0.2c-0.1,0-0.2-0.1-0.2-0.1c-0.1-0.1-0.1-0.2-0.1-0.2c0-0.1,0.1-0.2,0.1-0.2
	c0.1-0.1,0.2-0.1,0.2-0.1c0.6,0,1.1-0.2,1.5-0.5c0.3-0.3,0.5-0.6,0.6-1c0.1-0.4,0.2-0.8,0.1-1.2v-0.1c0,0,0-0.1,0.1-0.1l0.1-0.1h0.1
	c0.1,0,0.2,0,0.2,0.1c0.1,0.1,0.1,0.1,0.1,0.2c0.1,0.5,0,1-0.1,1.5c-0.2,0.5-0.4,0.9-0.8,1.3C48,52,47.3,52.2,46.6,52.2z"/>
<path class="st0" d="M28.2,52.2c-0.7,0-1.3-0.2-1.9-0.7c-0.3-0.4-0.6-0.8-0.8-1.3c-0.2-0.5-0.2-1-0.2-1.5c0-0.1,0-0.2,0.1-0.2
	c0.1,0,0.1-0.1,0.2-0.1h0.1c0,0,0.1,0,0.1,0.1l0.1,0.1v0.1c0,0.4,0,0.8,0.1,1.2c0.1,0.4,0.3,0.7,0.6,1c0.4,0.4,1,0.5,1.5,0.5h0.1
	c0,0,0.1,0,0.1,0.1l0.1,0.1v0.1v0.1c0,0,0,0.1-0.1,0.1L28.2,52h-0.1L28.2,52.2z"/>
<path class="st0" d="M41.7,37.1h-0.2c-0.1,0-0.2-0.1-0.3-0.1c-0.1-0.1-0.2-0.1-0.2-0.2c-0.1-0.1-0.1-0.2-0.1-0.3c0-0.1,0-0.2,0-0.3
	c0.4-1.7,2.7-3,3-3.2c0.2-0.1,0.4-0.1,0.6-0.1c0.2,0.1,0.4,0.2,0.5,0.4c0.1,0.2,0.1,0.4,0.1,0.6c-0.1,0.2-0.2,0.4-0.4,0.5
	c-0.8,0.4-2,1.3-2.1,2c0,0.2-0.2,0.4-0.3,0.5C42.1,37,41.9,37.1,41.7,37.1z"/>
</svg>
