<?xml version="1.0" encoding="utf-8"?>
<!-- Generator: Adobe Illustrator 25.2.1, SVG Export Plug-In . SVG Version: 6.00 Build 0)  -->
<svg version="1.1" id="Layer_1" xmlns="http://www.w3.org/2000/svg" xmlns:xlink="http://www.w3.org/1999/xlink" x="0px" y="0px"
	 viewBox="0 0 70 70" style="enable-background:new 0 0 70 70;" xml:space="preserve">
<style type="text/css">
	.st0{fill:#004161;}
</style>
<g>
	<path class="st0" d="M51.6,35.8c-3.2,0.1-6.4-1.1-8.7-3.4c-2.3-2.2-3.7-5.3-3.8-8.5c0-0.1,0-0.2,0-0.3c0-0.2,0.1-0.4,0.2-0.6
		s0.4-0.2,0.6-0.2c0.2,0,0.4,0.1,0.6,0.2s0.2,0.4,0.2,0.6c0,2.8,1.1,5.4,3.1,7.4c2,2,4.6,3.1,7.4,3.1h0.2c1.4,0,2.8-0.2,4.1-0.7
		c1.3-0.5,2.5-1.2,3.5-2.2c1-1,1.8-2.1,2.4-3.4c0.6-1.3,0.9-2.6,0.9-4v-0.2c0-0.2,0.1-0.4,0.2-0.6s0.4-0.2,0.6-0.2
		c0.2,0,0.4,0.1,0.6,0.2s0.2,0.4,0.2,0.6c0,1.6-0.3,3.2-0.9,4.7c-0.6,1.5-1.5,2.8-2.6,4c-1.1,1.1-2.5,2-4,2.6
		c-1.5,0.6-3.1,0.9-4.7,0.9H51.6z"/>
	<path class="st0" d="M4.3,53.3c-0.3,0-0.5-0.1-0.7-0.3c-0.2-0.2-0.3-0.4-0.3-0.7v-4.8c-0.1-2.7,0.6-5.3,1.9-7.7
		c1.3-2.4,3.2-4.3,5.5-5.7c0.1-0.1,0.2-0.1,0.4-0.1c0.1,0,0.3,0,0.4,0c0.1,0,0.3,0.1,0.4,0.2c0.1,0.1,0.2,0.2,0.3,0.3
		c0.1,0.1,0.1,0.2,0.1,0.4c0,0.1,0,0.3,0,0.4c0,0.1-0.1,0.3-0.2,0.4c-0.1,0.1-0.2,0.2-0.3,0.3c-2,1.2-3.6,2.9-4.7,5
		c-1.1,2-1.7,4.3-1.6,6.7v4.8c0,0.1,0,0.3-0.1,0.4C5.2,52.9,5.1,53,5,53.1c-0.1,0.1-0.2,0.2-0.4,0.2C4.6,53.3,4.4,53.4,4.3,53.3z"/>
	<path class="st0" d="M19.6,33.6c-0.5,0-1-0.1-1.4-0.3c-0.4-0.3-0.7-0.6-0.9-1.1c0-0.1,0-0.2,0-0.3c0-0.1,0.1-0.1,0.2-0.2
		c0,0,0.1,0,0.1,0c0,0,0.1,0,0.1,0c0,0,0.1,0,0.1,0.1c0,0,0.1,0.1,0.1,0.1c0.1,0.3,0.4,0.6,0.7,0.8c0.3,0.2,0.7,0.3,1,0.2
		c0.4,0,0.7-0.1,1-0.3c0.3-0.2,0.5-0.5,0.7-0.8c0-0.1,0.1-0.1,0.2-0.2c0.1,0,0.2,0,0.3,0c0.1,0,0.2,0.1,0.2,0.2c0,0.1,0,0.2,0,0.3
		c-0.2,0.4-0.5,0.8-0.9,1.1C20.6,33.5,20.1,33.6,19.6,33.6z"/>
	<path class="st0" d="M20.8,29.4h-2c-0.1,0-0.2,0-0.2-0.1c-0.1-0.1-0.1-0.1-0.1-0.2c0-1.4,0.2-2.8,0.8-4.1c0,0,0-0.1,0.1-0.1
		c0,0,0.1-0.1,0.1-0.1c0,0,0.1,0,0.1,0c0,0,0.1,0,0.1,0c0.1,0,0.1,0.1,0.2,0.2c0,0.1,0,0.2,0,0.3c-0.5,1.1-0.7,2.2-0.7,3.4h1.7
		c0.1,0,0.2,0,0.2,0.1c0.1,0.1,0.1,0.1,0.1,0.2c0,0.1,0,0.2-0.1,0.2C21,29.3,20.9,29.4,20.8,29.4L20.8,29.4z"/>
	<path class="st0" d="M2.2,40.5c-0.3,0-0.5-0.1-0.7-0.3c-0.2-0.2-0.3-0.5-0.3-0.7c0-0.3,0.1-0.5,0.3-0.7c0.2-0.2,0.5-0.3,0.7-0.3
		c0.3,0,0.7,0,1-0.1c0.3-0.1,0.6-0.3,0.9-0.5c0.4-0.6,0.6-1.3,0.5-2V21.8C4.5,17.8,6,13.9,8.8,11c2.8-2.9,6.6-4.6,10.6-4.7
		s7.9,1.4,10.8,4.2c2.9,2.8,4.6,6.6,4.7,10.6c0,0.2,0,0.5,0,0.7V34c0,0.3-0.1,0.5-0.3,0.7c-0.2,0.2-0.5,0.3-0.7,0.3
		c-0.3,0-0.5-0.1-0.7-0.3c-0.2-0.2-0.3-0.5-0.3-0.7V21.8c0.1-3.4-1.2-6.8-3.6-9.3c-2.4-2.5-5.6-3.9-9.1-4c-3.4-0.1-6.8,1.2-9.3,3.6
		c-2.5,2.4-3.9,5.6-4,9.1v14.4c0.1,1.3-0.2,2.6-1.1,3.6c-0.4,0.5-1,0.8-1.6,1.1C3.5,40.4,2.9,40.5,2.2,40.5z"/>
	<path class="st0" d="M67,53.2c-0.2,0-0.4-0.1-0.6-0.2s-0.2-0.4-0.2-0.6V45c0-2.5-0.6-4.9-1.8-7c-1.2-2.2-2.9-4-5-5.3
		c-0.1-0.1-0.2-0.1-0.2-0.2c-0.1-0.1-0.1-0.2-0.1-0.3c0-0.1,0-0.2,0-0.3c0-0.1,0.1-0.2,0.1-0.3c0.1-0.1,0.1-0.2,0.2-0.2
		c0.1-0.1,0.2-0.1,0.3-0.1c0.1,0,0.2,0,0.3,0c0.1,0,0.2,0.1,0.3,0.1c2.3,1.5,4.2,3.5,5.6,5.9c1.3,2.4,2,5.1,2,7.8v7.4
		c0,0.2-0.1,0.4-0.2,0.6S67.3,53.2,67,53.2L67,53.2z"/>
	<path class="st0" d="M51.7,30.6c-0.6,0-1.2-0.1-1.6-0.4c-0.5-0.3-0.9-0.8-1.1-1.3c0-0.1,0-0.2,0-0.3c0-0.1,0.1-0.1,0.2-0.2
		c0,0,0.1,0,0.1,0c0,0,0.1,0,0.1,0c0,0,0.1,0,0.1,0.1c0,0,0.1,0.1,0.1,0.1c0.2,0.4,0.5,0.8,0.8,1c0.4,0.2,0.8,0.3,1.3,0.3
		c0.4,0,0.9-0.1,1.3-0.3c0.4-0.2,0.7-0.6,0.9-1c0-0.1,0.1-0.1,0.2-0.2c0.1,0,0.2,0,0.3,0c0,0,0.1,0,0.1,0.1c0,0,0.1,0.1,0.1,0.1
		c0,0,0,0.1,0,0.1c0,0,0,0.1,0,0.1c-0.2,0.5-0.6,1-1.1,1.3C52.9,30.4,52.3,30.6,51.7,30.6z"/>
	<path class="st0" d="M52.9,26.6h-2c-0.1,0-0.2,0-0.2-0.1c-0.1-0.1-0.1-0.1-0.1-0.2c0-1.7,0.3-3.3,1.1-4.8c0.1-0.1,0.1-0.1,0.2-0.1
		c0.1,0,0.2,0,0.3,0.1c0.1,0,0.1,0.1,0.1,0.2c0,0.1,0,0.2,0,0.2c-0.7,1.3-1,2.7-1,4.1h1.7c0.1,0,0.2,0,0.2,0.1
		c0.1,0.1,0.1,0.1,0.1,0.2c0,0.1,0,0.2-0.1,0.2C53.1,26.6,53,26.6,52.9,26.6L52.9,26.6z"/>
	<path class="st0" d="M63.2,24.7c-0.2,0-0.4-0.1-0.6-0.2s-0.2-0.4-0.2-0.6c0-0.4,0-3.4,1.4-4.9c0.2-0.3,0.5-0.5,0.8-0.6
		c0.3-0.1,0.7-0.2,1-0.2c0.2,0,0.4,0.1,0.6,0.2s0.2,0.4,0.2,0.6c0,0.2-0.1,0.4-0.2,0.6s-0.4,0.2-0.6,0.2c-0.1,0-0.2,0-0.4,0.1
		c-0.1,0-0.2,0.1-0.3,0.2c-0.8,0.8-1,3-0.9,3.7c0,0.2-0.1,0.4-0.2,0.6C63.7,24.6,63.5,24.7,63.2,24.7L63.2,24.7z"/>
	<path class="st0" d="M39.7,26.2c-1.8,0-3.4-1.1-3.4-2.5v-3.2c0-0.1,0-0.2,0.1-0.2c0.1-0.1,0.2-0.1,0.2-0.1c0,0,0.1,0,0.1,0
		c0,0,0.1,0,0.1,0.1c0,0,0.1,0.1,0.1,0.1c0,0,0,0.1,0,0.1v3.2c0,1,1.2,1.8,2.7,1.8c0.1,0,0.2,0,0.2,0.1c0.1,0.1,0.1,0.1,0.1,0.2
		c0,0.1,0,0.2-0.1,0.2C39.8,26.2,39.8,26.2,39.7,26.2L39.7,26.2z"/>
	<path class="st0" d="M63.4,26.2c-0.1,0-0.2,0-0.2-0.1c-0.1-0.1-0.1-0.1-0.1-0.2c0-0.1,0-0.2,0.1-0.2c0.1-0.1,0.1-0.1,0.2-0.1
		c0.5,0,0.9-0.2,1.3-0.5c0.3-0.3,0.5-0.8,0.5-1.3v-3.2c0-0.1,0-0.2,0.1-0.2c0.1-0.1,0.1-0.1,0.2-0.1c0,0,0.1,0,0.1,0
		c0,0,0.1,0,0.1,0.1c0,0,0.1,0.1,0.1,0.1c0,0,0,0.1,0,0.1v3.2c0,0.7-0.3,1.3-0.7,1.7C64.7,26,64.1,26.2,63.4,26.2L63.4,26.2z"/>
	<path class="st0" d="M19.6,38.8c-3.3,0-6.4-1.3-8.8-3.6c-2.3-2.3-3.6-5.5-3.6-8.7v-2.9c0-1.8,0.5-3.7,1.5-5.2
		c1-1.6,2.4-2.8,4.1-3.5c0.1,0,0.2-0.1,0.4,0c0.1,0,0.2,0,0.3,0.1c0.1,0.1,0.2,0.1,0.3,0.2c0.1,0.1,0.1,0.2,0.1,0.3
		c0,0.2,1.1,4.9,7.4,4.9h9.9c0.2,0,0.4,0.1,0.6,0.2S32,21,32,21.2v5.2c0,3.3-1.3,6.4-3.6,8.7C26,37.5,22.9,38.8,19.6,38.8z
		 M12.6,16.8c-1.2,0.7-2.1,1.7-2.8,2.8c-0.7,1.2-1,2.5-0.9,3.9v2.9c0,2.8,1.1,5.5,3.1,7.6s4.7,3.1,7.6,3.1c2.8,0,5.5-1.1,7.6-3.1
		s3.1-4.7,3.1-7.6v-4.3h-9C15.5,22.1,13.3,18.5,12.6,16.8z"/>
	<path class="st0" d="M40,24.5c-0.2,0-0.4-0.1-0.6-0.2c-0.2-0.2-0.2-0.4-0.2-0.6c0-1-0.3-2.7-0.9-3.4c-0.1-0.1-0.2-0.2-0.3-0.2
		c-0.1,0-0.2-0.1-0.3-0.1c-0.2,0-0.4,0-0.6-0.1c-0.2-0.1-0.4-0.2-0.5-0.4c-0.4-0.5-0.6-1-0.5-1.6c0-4.2,1.7-8.2,4.6-11.1
		c3-2.9,7-4.6,11.1-4.6c4.2,0,8.2,1.7,11.1,4.6c2.9,3,4.6,7,4.6,11.1c0,0.5-0.1,1-0.5,1.4c-0.1,0.2-0.3,0.3-0.5,0.4
		c-0.2,0.1-0.4,0.1-0.6,0.1c-0.1,0-0.2,0-0.3,0c-0.1,0-0.2-0.1-0.3-0.2c-0.1-0.1-0.1-0.2-0.2-0.3c0-0.1-0.1-0.2-0.1-0.3
		c0-0.1,0-0.2,0-0.3c0-0.1,0.1-0.2,0.2-0.3c0.1-0.1,0.2-0.1,0.3-0.2c0.1,0,0.2-0.1,0.3-0.1V18c0.2-7.7-5.9-13.6-13.7-13.8
		S37.8,9.5,37.6,17.3c0,0.2,0,0.5,0,0.7c0,0.1,0,0.2,0,0.4c0.3,0,0.7,0.1,1,0.2c0.3,0.1,0.6,0.3,0.8,0.6c1.5,1.4,1.5,4.3,1.5,4.6
		c0,0.2-0.1,0.4-0.2,0.6S40.2,24.5,40,24.5L40,24.5z"/>
	<path class="st0" d="M61.6,22.7c-0.2,0-0.4-0.1-0.6-0.2s-0.2-0.4-0.2-0.6v-3.1c-1.8-0.3-3.7-1.9-4.6-2.8c-3.9,3.2-11,3-13.6,2.8
		v3.1c0,0.2-0.1,0.4-0.2,0.6s-0.4,0.2-0.6,0.2c-0.2,0-0.4-0.1-0.6-0.2s-0.2-0.4-0.2-0.6v-4c0-0.1,0-0.2,0.1-0.3
		c0-0.1,0.1-0.2,0.2-0.3c0.1-0.1,0.2-0.1,0.3-0.2c0.1,0,0.2,0,0.4,0c0.1,0,9.9,1.1,13.7-2.8c0.2-0.2,0.4-0.2,0.6-0.3
		c0.1,0,0.2,0,0.3,0.1c0.1,0.1,0.2,0.1,0.3,0.2c1.1,1.2,3.4,3,4.7,2.9c0.1,0,0.2,0,0.4,0c0.1,0,0.2,0.1,0.3,0.2
		c0.1,0.1,0.2,0.2,0.2,0.3c0,0.1,0.1,0.2,0.1,0.3v3.8c0,0.2-0.1,0.4-0.2,0.6C62,22.6,61.8,22.7,61.6,22.7L61.6,22.7z"/>
	<path class="st0" d="M49.3,65.1c-0.2,0-0.4-0.1-0.6-0.2s-0.2-0.4-0.2-0.6c0-2-0.5-3.9-1.4-5.6c-0.9-1.7-2.3-3.2-4-4.2
		c-0.1-0.1-0.2-0.1-0.2-0.2c-0.1-0.1-0.1-0.2-0.1-0.3c0-0.1,0-0.2,0-0.3c0-0.1,0.1-0.2,0.1-0.3c0.1-0.1,0.1-0.2,0.2-0.2
		c0.1-0.1,0.2-0.1,0.3-0.1c0.1,0,0.2,0,0.3,0c0.1,0,0.2,0.1,0.3,0.1c1.9,1.2,3.5,2.8,4.6,4.8c1.1,2,1.7,4.2,1.6,6.4
		c0,0.1,0,0.2-0.1,0.3c0,0.1-0.1,0.2-0.2,0.3c-0.1,0.1-0.2,0.1-0.3,0.2C49.5,65.1,49.4,65.1,49.3,65.1z"/>
	<path class="st0" d="M24.5,65.1c-0.2,0-0.4-0.1-0.6-0.2s-0.2-0.4-0.2-0.6c0-2.2,0.6-4.4,1.7-6.4c1.1-2,2.7-3.6,4.6-4.8
		c0.1-0.1,0.2-0.1,0.3-0.2c0.1,0,0.2-0.1,0.3,0c0.1,0,0.2,0,0.3,0.1c0.1,0,0.2,0.1,0.3,0.2c0.1,0.1,0.1,0.2,0.2,0.3
		c0,0.1,0.1,0.2,0,0.3c0,0.1,0,0.2-0.1,0.3c0,0.1-0.1,0.2-0.2,0.3c-0.1,0.1-0.2,0.1-0.3,0.2c-1.7,1-3,2.5-4,4.2
		c-0.9,1.7-1.4,3.6-1.4,5.6c0,0.2-0.1,0.4-0.2,0.6C24.9,65,24.7,65.1,24.5,65.1z"/>
	<path class="st0" d="M36.9,52.8c-0.4,0-0.8-0.1-1.2-0.3c-0.4-0.2-0.6-0.6-0.8-0.9c0-0.1,0-0.2,0-0.2c0-0.1,0.1-0.1,0.2-0.2
		c0,0,0.1,0,0.1,0c0,0,0.1,0,0.1,0c0,0,0.1,0,0.1,0.1c0,0,0.1,0.1,0.1,0.1c0.1,0.3,0.3,0.5,0.6,0.6c0.2,0.2,0.5,0.2,0.8,0.2
		c0.3,0,0.6,0,0.8-0.2c0.2-0.1,0.4-0.4,0.6-0.6c0-0.1,0.1-0.1,0.2-0.2c0.1,0,0.2,0,0.2,0c0.1,0,0.1,0.1,0.2,0.2c0,0.1,0,0.2,0,0.3
		c-0.2,0.4-0.4,0.7-0.8,0.9C37.8,52.7,37.3,52.8,36.9,52.8z"/>
	<path class="st0" d="M46.2,48c-0.2,0-0.3,0-0.5-0.1c-0.1-0.1-0.3-0.2-0.3-0.4c-0.1-0.2-0.1-0.3,0-0.5c0-0.2,0.1-0.3,0.2-0.4
		l1.8-1.8c0-2.8-1.1-5.5-3.1-7.4c-2-2-4.6-3.1-7.4-3.1s-5.5,1.1-7.4,3.1c-2,2-3.1,4.6-3.1,7.4l1.7,1.8c0.2,0.2,0.2,0.4,0.2,0.6
		c0,0.2-0.1,0.4-0.2,0.6c-0.2,0.2-0.4,0.2-0.6,0.2c-0.2,0-0.4-0.1-0.6-0.2l-1.9-2c-0.1-0.2-0.2-0.4-0.2-0.6c0-3.2,1.3-6.3,3.6-8.6
		c2.3-2.3,5.4-3.6,8.6-3.6s6.3,1.3,8.6,3.6c2.3,2.3,3.6,5.4,3.6,8.6c0,0.1,0,0.2-0.1,0.3c0,0.1-0.1,0.2-0.2,0.3l-2.1,2
		C46.6,47.9,46.4,48,46.2,48z"/>
	<path class="st0" d="M36.9,57.3c-2.7,0-5.3-1.1-7.2-3c-1.9-1.9-3-4.5-3-7.2c0-0.1,0-0.2,0.1-0.3c0-0.1,0.1-0.2,0.2-0.3
		c0.1-0.1,0.2-0.1,0.3-0.2c0.1,0,0.2-0.1,0.3-0.1s0.2,0,0.3,0.1c0.1,0,0.2,0.1,0.3,0.2c0.1,0.1,0.1,0.2,0.2,0.3
		c0,0.1,0.1,0.2,0.1,0.3c0,1.1,0.2,2.2,0.6,3.2c0.4,1,1.1,2,1.8,2.8s1.7,1.4,2.8,1.8c1,0.4,2.1,0.6,3.2,0.6c1.1,0,2.2-0.2,3.2-0.6
		c1-0.4,2-1.1,2.8-1.8s1.4-1.7,1.8-2.8c0.4-1,0.6-2.1,0.6-3.2c0-0.2,0.1-0.4,0.2-0.6s0.4-0.2,0.6-0.2c0.2,0,0.4,0.1,0.6,0.2
		s0.2,0.4,0.2,0.6c0,2.7-1.1,5.3-3,7.2C42.1,56.2,39.6,57.3,36.9,57.3z"/>
	<path class="st0" d="M38.3,44.5c-3.6,0-3.7-3.6-3.7-3.7c0-0.1,0-0.2,0.1-0.2c0.1-0.1,0.1-0.1,0.2-0.1c0,0,0.1,0,0.1,0
		c0,0,0.1,0,0.1,0.1c0,0,0.1,0.1,0.1,0.1c0,0,0,0.1,0,0.1c0,0.4,0.1,0.8,0.2,1.1c0.1,0.4,0.3,0.7,0.6,1c0.3,0.3,0.6,0.5,0.9,0.7
		c0.3,0.2,0.7,0.2,1.1,0.2h0.2c0.1,0,0.2,0,0.2,0.1c0.1,0.1,0.1,0.1,0.1,0.2c0,0.1,0,0.2-0.1,0.2C38.5,44.4,38.4,44.5,38.3,44.5z"/>
	<path class="st0" d="M46.1,50.6h-0.2c-0.1,0-0.2-0.1-0.2-0.1c-0.1-0.1-0.1-0.2-0.1-0.2c0-0.1,0.1-0.2,0.1-0.2
		c0.1-0.1,0.2-0.1,0.2-0.1c0.6,0,1.1-0.2,1.5-0.5c0.3-0.3,0.5-0.6,0.6-1c0.1-0.4,0.2-0.8,0.1-1.2c0,0,0-0.1,0-0.1c0,0,0-0.1,0.1-0.1
		c0,0,0.1-0.1,0.1-0.1c0,0,0.1,0,0.1,0c0.1,0,0.2,0,0.2,0.1c0.1,0.1,0.1,0.1,0.1,0.2c0.1,0.5,0,1-0.1,1.5c-0.2,0.5-0.4,0.9-0.8,1.3
		C47.5,50.4,46.8,50.6,46.1,50.6z"/>
	<path class="st0" d="M27.7,50.6c-0.7,0-1.3-0.2-1.9-0.7c-0.3-0.4-0.6-0.8-0.8-1.3c-0.2-0.5-0.2-1-0.2-1.5c0-0.1,0-0.2,0.1-0.2
		s0.1-0.1,0.2-0.1c0,0,0.1,0,0.1,0c0,0,0.1,0,0.1,0.1c0,0,0.1,0.1,0.1,0.1c0,0,0,0.1,0,0.1c0,0.4,0,0.8,0.1,1.2
		c0.1,0.4,0.3,0.7,0.6,1c0.4,0.4,1,0.5,1.5,0.5c0,0,0.1,0,0.1,0c0,0,0.1,0,0.1,0.1c0,0,0.1,0.1,0.1,0.1c0,0,0,0.1,0,0.1
		c0,0,0,0.1,0,0.1c0,0,0,0.1-0.1,0.1c0,0-0.1,0.1-0.1,0.1c0,0-0.1,0-0.1,0L27.7,50.6z"/>
	<path class="st0" d="M41.2,35.5H41c-0.1,0-0.2-0.1-0.3-0.1c-0.1-0.1-0.2-0.1-0.2-0.2c-0.1-0.1-0.1-0.2-0.1-0.3c0-0.1,0-0.2,0-0.3
		c0.4-1.7,2.7-3,3-3.2c0.2-0.1,0.4-0.1,0.6-0.1c0.2,0.1,0.4,0.2,0.5,0.4c0.1,0.2,0.1,0.4,0.1,0.6c-0.1,0.2-0.2,0.4-0.4,0.5
		c-0.8,0.4-2,1.3-2.1,2c0,0.2-0.2,0.4-0.3,0.5C41.6,35.4,41.4,35.5,41.2,35.5z"/>
</g>
</svg>
