<?xml version="1.0" encoding="utf-8"?>
<!-- Generator: Adobe Illustrator 26.0.3, SVG Export Plug-In . SVG Version: 6.00 Build 0)  -->
<svg version="1.1" id="Layer_1" xmlns="http://www.w3.org/2000/svg" xmlns:xlink="http://www.w3.org/1999/xlink" x="0px" y="0px"
	 viewBox="0 0 30 30" style="enable-background:new 0 0 30 30;" xml:space="preserve">
<style type="text/css">
	.st0{fill:#F2F2F2;}
</style>
<g>
	<path class="st0" d="M24.6,16.9c0.1-0.3,0-0.7-0.2-0.9c-0.2-0.3-0.5-0.4-0.9-0.4h-1.7c-0.3-1.4-1.1-2.4-2.4-2.9
		c-0.2-0.7-0.3-2,0-4.5c0-0.1,0.1-2.6-1.6-4.2c-1.4-1.3-2.8-1-3.5-0.9c-0.1,0-0.3,0.1-0.4,0.1c-0.8,0-3.2,0.9-3.3,3.5
		c-0.1,0.9,0,1.9,0.1,2.8c0.1,1.1,0.1,2.2,0,3.1c-1.4,0.5-2.3,1.5-2.7,3H6.5c-0.3,0-0.6,0.1-0.9,0.4c-0.2,0.3-0.3,0.6-0.2,0.9
		L7,25.5c0,0.1,0,0.1,0.1,0.2l0,0c-0.1,0.1-0.2,0.3-0.2,0.5c0,0.4,0.3,0.7,0.7,0.7h14.8c0.2,0,0.4-0.1,0.5-0.2
		c0.1-0.1,0.2-0.3,0.2-0.5c0-0.2-0.1-0.4-0.2-0.5c0-0.1,0.1-0.1,0.1-0.2L24.6,16.9z M11.3,6.7c0.2-2.4,2.4-2.9,2.7-2.9
		c0.1,0,0.3,0,0.5-0.1c0.7-0.1,1.9-0.4,3,0.7c1.5,1.4,1.4,3.7,1.4,3.7c-0.2,1.8-0.3,3.2-0.1,4.3c-0.1,0-0.2-0.1-0.3-0.1
		c0,0-0.1,0-0.1,0c-0.1,0-0.2,0-0.3-0.1h0c-0.1,0-0.2,0-0.2,0c0,0-0.1,0-0.1,0c-0.1,0-0.1,0-0.2,0c0,0-0.1,0-0.1,0
		c-0.4,0-0.6-0.2-0.6-0.3c0,0,0-0.1,0-0.1c0.5-0.5,0.9-1.1,1.1-1.9c0.1-0.5,0.2-1,0.2-1.5c0-0.2,0-0.4,0-0.7V7.7l-0.1,0
		c-0.9-0.4-3.1-1.4-3.7-1.8c-0.5-0.4-0.9-0.5-1.3-0.4c-0.3,0.1-0.6,0.4-0.7,0.8c-0.2,0.6-0.5,1.4-0.7,1.9v0c0,0.1,0,0.2,0,0.3
		c0,0.5,0.1,1,0.2,1.5c0.2,0.7,0.6,1.4,1.1,1.9c0,0.1-0.2,0.3-0.6,0.4h0c0,0-0.1,0-0.1,0c-0.1,0-0.1,0-0.1,0h0c-0.1,0-0.1,0-0.2,0
		c-0.1,0-0.1,0-0.2,0c0,0,0,0-0.1,0c-0.1,0-0.1,0-0.2,0h0c0.1-0.9,0.1-1.9,0-2.9C11.3,8.5,11.2,7.6,11.3,6.7z M14.9,12.4
		c-0.6,0-1.1-0.2-1.6-0.6c-0.6-0.4-1-1.1-1.2-1.9C12,9.5,11.9,9,11.9,8.5c0-0.1,0-0.2,0-0.3c0.2-0.5,0.5-1.3,0.7-1.8
		c0.1-0.3,0.3-0.6,0.6-0.6c0.3-0.1,0.7,0,1.1,0.3c0.6,0.4,2.5,1.3,3.6,1.8c0,0.2,0,0.4,0,0.6c0,0.5-0.1,1-0.2,1.4
		C17.3,11.4,16.1,12.4,14.9,12.4z M13.5,12.2c0.4,0.3,0.9,0.4,1.4,0.4c0.5,0,1-0.1,1.4-0.4c0.1,0.2,0.3,0.5,0.9,0.6
		c-0.4,0.4-0.9,0.8-1.5,0.9c-0.5,0.1-1.1,0.1-1.7,0c-0.6-0.1-1.1-0.5-1.4-0.9C13.2,12.7,13.4,12.4,13.5,12.2z M11,13.1
		c0.5-0.1,1-0.2,1.3-0.2h0c0.4,0.5,1,0.9,1.7,1.1c0.3,0.1,0.6,0.1,0.9,0.1c0.3,0,0.6,0,0.8-0.1c0.7-0.2,1.3-0.6,1.8-1.1h0
		c0.1,0,0.2,0,0.3,0c0.1,0,0.1,0,0.2,0c0.3,0,0.7,0.1,1.1,0.3c1.1,0.4,1.8,1.2,2.1,2.4H8.6C9,14.3,9.8,13.4,11,13.1z M6,16.8
		c0-0.1,0-0.3,0.1-0.4c0.1-0.1,0.3-0.2,0.4-0.2h17c0.1,0,0.3,0.1,0.4,0.2c0.1,0.1,0.1,0.3,0.1,0.4l-1.6,8.6c0,0.1,0,0.1-0.1,0.1
		c-0.1,0.2-0.3,0.3-0.5,0.3H8.1c-0.2,0-0.4-0.1-0.5-0.3c0,0,0-0.1,0-0.1L6,16.8z M22.7,26.6c-0.1,0.1-0.2,0.1-0.4,0.1H7.5
		c-0.3,0-0.5-0.2-0.5-0.5c0-0.1,0.1-0.2,0.1-0.3c0.2,0.3,0.6,0.5,0.9,0.5h13.8c0.4,0,0.7-0.2,0.9-0.4c0.1,0.1,0.1,0.2,0.1,0.3
		C22.9,26.4,22.8,26.5,22.7,26.6z"/>
	<path class="st0" d="M14.9,21.7c0.4,0,0.6-0.3,0.6-0.6c0-0.4-0.3-0.6-0.6-0.6c-0.4,0-0.6,0.3-0.6,0.6
		C14.3,21.4,14.6,21.7,14.9,21.7z M14.9,20.6c0.2,0,0.4,0.2,0.4,0.4c0,0.2-0.2,0.4-0.4,0.4c-0.2,0-0.4-0.2-0.4-0.4
		C14.5,20.8,14.7,20.6,14.9,20.6z"/>
</g>
</svg>
