<?xml version="1.0" encoding="utf-8"?>
<!-- Generator: Adobe Illustrator 26.0.1, SVG Export Plug-In . SVG Version: 6.00 Build 0)  -->
<svg version="1.1" id="Layer_1" xmlns="http://www.w3.org/2000/svg" xmlns:xlink="http://www.w3.org/1999/xlink" x="0px" y="0px"
	 viewBox="0 0 70 70" style="enable-background:new 0 0 70 70;" xml:space="preserve">
<style type="text/css">
	.st0{fill:#F2F2F2;}
</style>
<g>
	<path class="st0" d="M59.3,27.3C58.2,14.6,47.5,4.6,34.5,4.6c-12.9,0-23.6,10-24.8,22.8c-2.8,1-4.8,3.7-4.8,6.8v3.5
		c0,4,3.2,7.2,7.3,7.2h3.2c0.4,0,0.7-0.1,1.1-0.2c0.9-0.4,1.5-1.4,1.5-2.4V29.6c0-1.2-0.8-2.2-1.9-2.5C16,27,15.8,27,15.6,27
		c1.2-9.4,9.3-16.6,18.9-16.6s17.8,7.3,18.9,16.7c-1.2,0.3-2,1.3-2,2.5v12.8c0,1.2,0.7,2.2,1.8,2.4l0.1,0.1C53.6,45,53.8,45,54,45
		h1.2c-0.3,7.6-6.1,14-13.7,14.9l0.1,0.6c7.9-1,13.9-7.6,14.2-15.5h1.4c4,0,7.2-3.2,7.2-7.2v-3.5C64.5,31.1,62.3,28.2,59.3,27.3z
		 M16.2,29.6v12.8c0,0.3-0.1,0.6-0.4,0.7c-0.1,0.1-0.2,0.1-0.3,0.1h-3.2c-3,0-5.5-2.4-5.5-5.4v-3.5c0-2.7,2-5,4.7-5.3
		c0.3-0.1,0.5-0.1,0.8-0.1h3.2c0.1,0,0.1,0,0.2,0C16,29,16.2,29.2,16.2,29.6z M34.5,9.8c-10,0-18.3,7.5-19.5,17.2h-2.8
		c-0.2,0-0.4,0-0.6,0C12.9,15.4,22.8,6.4,34.5,6.4c11.8,0,21.7,9,22.9,20.6c-0.1,0-0.1,0-0.2,0H54C52.9,17.3,44.4,9.8,34.5,9.8z
		 M62.7,37.7c0,3-2.5,5.4-5.4,5.4H54c-0.1,0-0.1,0-0.2,0h-0.1c-0.3-0.1-0.5-0.4-0.5-0.7V29.6c0-0.4,0.3-0.7,0.7-0.8h3.3
		c0.4,0,0.7,0,1,0.1c2.5,0.5,4.4,2.7,4.4,5.3V37.7z"/>
	<path class="st0" d="M38.9,64.2h-8.1c-2,0-3.5-1.6-3.5-3.5v-1c0-1.9,1.6-3.5,3.5-3.5h8.1c1.9,0,3.5,1.6,3.5,3.5v1
		C42.5,62.6,40.9,64.2,38.9,64.2z"/>
</g>
</svg>
