<?xml version="1.0" encoding="utf-8"?>
<!-- Generator: Adobe Illustrator 26.0.3, SVG Export Plug-In . SVG Version: 6.00 Build 0)  -->
<svg version="1.1" id="Layer_1" xmlns="http://www.w3.org/2000/svg" xmlns:xlink="http://www.w3.org/1999/xlink" x="0px" y="0px"
	 viewBox="0 0 30 30" style="enable-background:new 0 0 30 30;" xml:space="preserve">
<style type="text/css">
	.st0{fill:#F2F2F2;}
	.st1{fill-rule:evenodd;clip-rule:evenodd;fill:#F2F2F2;}
</style>
<g>
	<defs>
		<rect id="SVGID_1_" x="3" y="7.6" width="24" height="14.8"/>
	</defs>
	<clipPath id="SVGID_00000041995989943422955610000008655410648129413306_">
		<use xlink:href="#SVGID_1_"  style="overflow:visible;"/>
	</clipPath>
</g>
<g>
	<defs>
		<rect id="SVGID_00000142892324041095336600000001196291952719134388_" x="3" y="3" width="24" height="24"/>
	</defs>
	<clipPath id="SVGID_00000154423063378036056270000011306768454205959070_">
		<use xlink:href="#SVGID_00000142892324041095336600000001196291952719134388_"  style="overflow:visible;"/>
	</clipPath>
</g>
<g>
	<path class="st0" d="M18.4,19.1h-6.8c-0.3,0-0.6-0.2-0.8-0.6l-0.4-1.1c-0.1-0.3,0-0.5,0.1-0.7c0.1-0.2,0.4-0.3,0.6-0.3h7.5
		c0.3,0,0.5,0.1,0.6,0.3c0.1,0.2,0.2,0.5,0.1,0.7l-0.3,1.1C19,18.9,18.7,19.1,18.4,19.1z M11.2,17.1C11.2,17.1,11.2,17.1,11.2,17.1
		C11.2,17.1,11.1,17.1,11.2,17.1l0.3,1.2c0,0,0,0.1,0.1,0.1h6.7c0,0,0.1,0,0.1-0.1l0.3-1.1c0,0,0,0,0-0.1c0,0,0,0-0.1,0H11.2z"/>
	<path class="st0" d="M19.8,15h-9.7c-0.8,0-1.5-0.4-1.8-1.1c-0.2-0.3-0.4-0.6-0.7-0.9c-0.2-0.2-0.4-0.3-0.7-0.4l-1-0.5l0.5-0.3
		c0.1-0.1,0.1-0.1,0.2-0.2c0.1-0.1,0.2-0.2,0.3-0.3C7.5,10.7,8,9.9,8.4,9.1l0.3-0.6c0.5-0.7,1.4-1.1,2.2-1.1H19
		c0.9,0,1.7,0.4,2.2,1.1l0.1,0.1L21.5,9c0.3,0.8,0.8,1.5,1.5,2.2c0.1,0.1,0.3,0.3,0.4,0.4l0,0c0,0,0.1,0.1,0.1,0.1l0.6,0.5l-1,0.5
		c-0.3,0.2-0.6,0.4-0.9,0.6c-0.2,0.2-0.4,0.4-0.5,0.7C21.3,14.6,20.6,15,19.8,15z M7.2,12c0.3,0.2,0.6,0.3,0.8,0.5
		c0.3,0.3,0.7,0.7,0.9,1.1c0.2,0.4,0.7,0.7,1.2,0.7h9.7c0.5,0,1-0.3,1.2-0.7c0.2-0.3,0.4-0.6,0.6-0.8c0.3-0.3,0.7-0.6,1.1-0.8
		c-0.1-0.1-0.2-0.2-0.3-0.3c-0.7-0.7-1.2-1.5-1.6-2.4l-0.2-0.5C20.3,8.3,19.7,8,19,8h-8.1c-0.6,0-1.2,0.3-1.6,0.8L9.1,9.4
		c-0.4,0.9-1,1.8-1.7,2.4C7.3,11.9,7.3,11.9,7.2,12z"/>
	<path class="st0" d="M18.4,19.1h-6.8c-0.3,0-0.6-0.2-0.8-0.6l-0.4-1.1c-0.1-0.3,0-0.5,0.1-0.7c0.1-0.2,0.4-0.3,0.6-0.3h7.5
		c0.3,0,0.5,0.1,0.6,0.3c0.1,0.2,0.2,0.5,0.1,0.7l-0.3,1.1C19,18.9,18.7,19.1,18.4,19.1z M11.2,17.1C11.2,17.1,11.2,17.1,11.2,17.1
		C11.2,17.1,11.1,17.1,11.2,17.1l0.3,1.2c0,0,0,0.1,0.1,0.1h6.7c0,0,0.1,0,0.1-0.1l0.3-1.1c0,0,0,0,0-0.1c0,0,0,0-0.1,0H11.2z"/>
	<path class="st0" d="M7.2,18.2c-0.7,0-1.3-0.6-1.3-1.3c0-0.7,0.6-1.2,1.3-1.2c0.7,0,1.2,0.6,1.2,1.2C8.4,17.6,7.9,18.2,7.2,18.2z
		 M7.2,15.9c-0.6,0-1,0.5-1,1c0,0.6,0.5,1,1,1s1-0.5,1-1C8.2,16.3,7.7,15.9,7.2,15.9z"/>
	<path class="st0" d="M22.7,18.2c-0.7,0-1.3-0.6-1.3-1.3c0-0.7,0.6-1.2,1.3-1.2c0.7,0,1.3,0.6,1.3,1.2
		C23.9,17.6,23.4,18.2,22.7,18.2z M22.7,15.9c-0.6,0-1,0.5-1,1c0,0.6,0.5,1,1,1s1-0.5,1-1C23.7,16.3,23.2,15.9,22.7,15.9z"/>
	<path class="st0" d="M4.9,13.5l-0.2-0.1c-1.1-0.3-1.8-1-1.7-1.7c0.1-0.8,1.4-1.2,2.8-1c0.5,0.1,1,0.2,1.4,0.5l0.4,0.2l-0.3,0.3
		C7.2,12,7.1,12.1,7,12.1l-0.1,0.1H6.7c-0.4,0-0.7,0.1-1,0.4L4.9,13.5z M5,11.4c-0.8,0-1.2,0.2-1.3,0.4s0.3,0.5,1,0.8l0.4-0.5
		c0.2-0.3,0.6-0.5,0.9-0.6c-0.1,0-0.2-0.1-0.3-0.1C5.5,11.5,5.2,11.4,5,11.4z"/>
	<path class="st0" d="M25,13.4l-0.6-0.7c-0.2-0.3-0.6-0.4-1-0.4h-0.3L23,12.1c-0.2-0.1-0.3-0.3-0.5-0.4l-0.3-0.4l0.5-0.2
		c0.3-0.1,0.7-0.2,1.1-0.3c1.5-0.3,2.7,0.1,2.8,0.9c0.1,0.6-0.4,1.2-1.3,1.5L25,13.4z M23.7,11.5c0.4,0.1,0.8,0.3,1.1,0.7l0.3,0.3
		c0.5-0.2,0.7-0.5,0.6-0.6C25.7,11.6,25,11.3,23.7,11.5C23.8,11.5,23.8,11.5,23.7,11.5z"/>
	<path class="st0" d="M8.2,22.7H6.3c-0.6,0-1.1-0.5-1.1-1.1v-0.9l0.1,0c0.1,0,0.2,0,0.3,0h3.7v0.8C9.3,22.2,8.8,22.7,8.2,22.7z
		 M5.4,21v0.6c0,0.5,0.4,0.9,0.9,0.9h1.9c0.5,0,0.9-0.4,0.9-0.9V21H5.7C5.6,21,5.5,21,5.4,21z"/>
	<path class="st0" d="M23.3,22.7h-1.9c-0.6,0-1.1-0.5-1.1-1.1v-0.8h4.2v0.8C24.5,22.2,23.9,22.7,23.3,22.7z M20.5,21v0.6
		c0,0.5,0.4,0.9,0.9,0.9h1.9c0.5,0,0.9-0.4,0.9-0.9V21H20.5z"/>
	<path class="st1" d="M5.2,12.1c0.4-0.4,0.9-0.7,1.5-0.7h1l-0.5,0.5l0,0c0.3,0.1,0.6,0.3,0.8,0.5l0,0l0,0c0.3,0.3,0.7,0.7,0.9,1.1
		c0.2,0.4,0.7,0.7,1.2,0.7h9.7c0.5,0,0.9-0.2,1.2-0.7c0.2-0.3,0.4-0.6,0.6-0.8c0.3-0.3,0.7-0.6,1.1-0.8l-0.4-0.4h1.1
		c0.6,0,1.1,0.3,1.5,0.7l0,0l0.5,0.5l1.3,1.5c0,0,0,0,0,0c0.3,0.3,0.4,0.7,0.4,1.1v3.3c0,1.5-1.2,2.6-2.6,2.6H5.7c0,0,0,0,0,0
		c-0.1,0-0.3,0-0.4,0c-1.2-0.2-2.2-1.3-2.2-2.6v-3.5c0-0.4,0.2-0.8,0.4-1.1l0,0l1.1-1.3L5.2,12.1L5.2,12.1z M23.7,12.3L23,12.6l0,0
		c-0.3,0.2-0.6,0.4-0.9,0.6c-0.2,0.2-0.4,0.4-0.5,0.7l0,0l0,0c-0.4,0.7-1.1,1.1-1.8,1.1h-9.7c-0.8,0-1.5-0.4-1.8-1.1l0,0l0,0
		c-0.2-0.3-0.4-0.6-0.7-0.9c-0.2-0.2-0.4-0.3-0.6-0.4l0,0l-0.7-0.3c-0.2,0.1-0.4,0.2-0.5,0.4v0l-0.6,0.7L4,14.5
		c-0.2,0.2-0.2,0.4-0.2,0.6v3.5c0,1,0.7,1.7,1.6,1.9l0,0l0,0c0.1,0,0.1,0,0.3,0h18.7c1,0,1.9-0.9,1.9-1.9v-3.3
		c0-0.2-0.1-0.4-0.2-0.6l0,0l-1.3-1.5l-0.5-0.5C24.1,12.5,23.9,12.3,23.7,12.3z"/>
</g>
</svg>
