<?xml version="1.0" encoding="utf-8"?>
<!-- Generator: Adobe Illustrator 26.0.3, SVG Export Plug-In . SVG Version: 6.00 Build 0)  -->
<svg version="1.1" id="Layer_1" xmlns="http://www.w3.org/2000/svg" xmlns:xlink="http://www.w3.org/1999/xlink" x="0px" y="0px"
	 viewBox="0 0 30 30" style="enable-background:new 0 0 30 30;" xml:space="preserve">
<style type="text/css">
	.st0{clip-path:url(#SVGID_00000176744798704821371880000004975361104619077306_);}
	.st1{fill:#F2F2F2;}
</style>
<g>
	<defs>
		<rect id="SVGID_1_" x="3" y="7.6" width="24" height="14.8"/>
	</defs>
	<clipPath id="SVGID_00000079449867617931582770000017660374161701047462_">
		<use xlink:href="#SVGID_1_"  style="overflow:visible;"/>
	</clipPath>
</g>
<g>
	<defs>
		<rect id="SVGID_00000127726653686402452320000008875323593324513185_" x="3" y="3" width="24" height="24"/>
	</defs>
	<clipPath id="SVGID_00000155111811199976113270000005124367936832006304_">
		<use xlink:href="#SVGID_00000127726653686402452320000008875323593324513185_"  style="overflow:visible;"/>
	</clipPath>
</g>
<g>
	<defs>
		<rect id="SVGID_00000178187523313758191430000002788047987856494476_" x="2.9" y="2.8" width="24" height="24"/>
	</defs>
	<clipPath id="SVGID_00000119834947787111549670000010486099698834596263_">
		<use xlink:href="#SVGID_00000178187523313758191430000002788047987856494476_"  style="overflow:visible;"/>
	</clipPath>
</g>
<g>
	<defs>
		<rect id="SVGID_00000179613301736453121920000004195549626858154399_" x="3" y="3" width="24" height="24"/>
	</defs>
	<clipPath id="SVGID_00000090977223810948743880000007287586193893450416_">
		<use xlink:href="#SVGID_00000179613301736453121920000004195549626858154399_"  style="overflow:visible;"/>
	</clipPath>
	<g style="clip-path:url(#SVGID_00000090977223810948743880000007287586193893450416_);">
		<path class="st1" d="M22.2,3H7.7C6.7,3,6,3.7,6,4.7v20.7C6,26.3,6.7,27,7.7,27h14.5c0.9,0,1.7-0.7,1.7-1.7V4.7
			C23.8,3.7,23.1,3,22.2,3z M7.7,3.7h14.5c0.5,0,0.9,0.4,0.9,0.9v0H6.7v0C6.7,4.1,7.1,3.7,7.7,3.7z M20.7,5.4v6.1
			c0,0.5-0.4,0.9-0.9,0.9H9.9C9.4,12.4,9,12,9,11.5V5.4H20.7z M22.2,26.3H7.7c-0.5,0-0.9-0.4-0.9-0.9v-20h1.6v6.1
			c0,0.9,0.7,1.7,1.7,1.7h9.9c0.9,0,1.7-0.7,1.7-1.7V5.4h1.7v20C23.1,25.9,22.7,26.3,22.2,26.3z"/>
		<path class="st1" d="M20.7,14.5H9.1c-0.4,0-0.8,0.3-0.8,0.8v3c0,0.4,0.3,0.8,0.8,0.8h11.6c0.4,0,0.8-0.3,0.8-0.8v-3
			C21.4,14.8,21.1,14.5,20.7,14.5z M9,18.3v-3c0,0,0-0.1,0.1-0.1h5.7v3.1L9,18.3C9.1,18.3,9,18.3,9,18.3z M20.7,18.3
			C20.7,18.3,20.7,18.3,20.7,18.3L15,18.3v-3.1h5.6c0,0,0.1,0,0.1,0.1L20.7,18.3L20.7,18.3z"/>
		<path class="st1" d="M12.5,16.6h-0.7v-0.7c0-0.1-0.1-0.1-0.1-0.1c-0.1,0-0.1,0.1-0.1,0.1v0.7h-0.7c-0.1,0-0.1,0.1-0.1,0.1
			c0,0.1,0.1,0.1,0.1,0.1h0.7v0.7c0,0.1,0.1,0.1,0.1,0.1c0.1,0,0.1-0.1,0.1-0.1v-0.7h0.7c0.1,0,0.1-0.1,0.1-0.1
			C12.6,16.7,12.6,16.6,12.5,16.6z"/>
		<path class="st1" d="M18.7,16.6h-1.6c-0.1,0-0.1,0.1-0.1,0.1c0,0.1,0.1,0.1,0.1,0.1h1.6c0.1,0,0.1-0.1,0.1-0.1
			C18.9,16.7,18.8,16.6,18.7,16.6z"/>
		<path class="st1" d="M11.8,22.2l0.5-0.5c0.1-0.1,0.1-0.1,0-0.2c-0.1-0.1-0.1-0.1-0.2,0L11.7,22l-0.5-0.5c-0.1-0.1-0.1-0.1-0.2,0
			c-0.1,0.1-0.1,0.1,0,0.2l0.5,0.5L11,22.7c-0.1,0.1-0.1,0.1,0,0.2c0,0,0.1,0,0.1,0s0.1,0,0.1,0l0.5-0.5l0.5,0.5c0,0,0.1,0,0.1,0
			s0.1,0,0.1,0c0.1-0.1,0.1-0.1,0-0.2L11.8,22.2z"/>
		<path class="st1" d="M20.7,19.9H9.1c-0.4,0-0.8,0.3-0.8,0.8v3c0,0.4,0.3,0.8,0.8,0.8h11.6c0.4,0,0.8-0.3,0.8-0.8v-3
			C21.4,20.3,21.1,19.9,20.7,19.9z M9,23.7v-3c0,0,0-0.1,0.1-0.1h5.7v3.1L9,23.7C9.1,23.8,9,23.7,9,23.7z M20.7,23.7
			C20.7,23.7,20.7,23.8,20.7,23.7L15,23.8v-3.1h5.6c0,0,0.1,0,0.1,0.1L20.7,23.7L20.7,23.7z"/>
		<path class="st1" d="M18.7,21.7h-1.6c-0.1,0-0.1,0.1-0.1,0.1s0.1,0.1,0.1,0.1h1.6c0.1,0,0.1-0.1,0.1-0.1S18.8,21.7,18.7,21.7z"/>
		<path class="st1" d="M18.7,22.5h-1.6c-0.1,0-0.1,0.1-0.1,0.1c0,0.1,0.1,0.1,0.1,0.1h1.6c0.1,0,0.1-0.1,0.1-0.1
			C18.9,22.5,18.8,22.5,18.7,22.5z"/>
		<path class="st1" d="M10,7.2C10,7.2,10,7.2,10,7.2l0.8-0.7c0.1-0.1,0.1-0.1,0-0.2c-0.1-0.1-0.1-0.1-0.2,0L9.9,7
			C9.8,7.1,9.8,7.2,10,7.2C9.9,7.2,9.9,7.2,10,7.2z"/>
		<path class="st1" d="M10,8.5C10,8.6,10,8.6,10,8.5c0.1,0,0.1,0,0.2,0l2-2c0.1-0.1,0.1-0.1,0-0.2c-0.1-0.1-0.1-0.1-0.2,0l-2,2
			C9.9,8.4,9.9,8.5,10,8.5z"/>
	</g>
</g>
</svg>
