<?xml version="1.0" encoding="utf-8"?>
<!-- Generator: Adobe Illustrator 26.0.3, SVG Export Plug-In . SVG Version: 6.00 Build 0)  -->
<svg version="1.1" id="Layer_1" xmlns="http://www.w3.org/2000/svg" xmlns:xlink="http://www.w3.org/1999/xlink" x="0px" y="0px"
	 viewBox="0 0 30 30" style="enable-background:new 0 0 30 30;" xml:space="preserve">
<style type="text/css">
	.st0{fill:#F2F2F2;}
</style>
<g>
	<path class="st0" d="M25.5,22.2c-1-0.5-2-0.7-3.1-0.7l2.4-4.1c0.2-0.4,0.2-0.8-0.1-1.2c-0.2-0.2-0.5-0.5-0.8-0.7l-1.4-6
		c0.6-0.1,1.1-0.7,1.1-1.4V6.9c0-0.4-0.3-0.8-0.8-0.8H22V5.3c0-0.9-0.7-1.6-1.6-1.6H9.3c-0.9,0-1.6,0.7-1.6,1.6v0.8H7.1
		c-0.4,0-0.8,0.3-0.8,0.8v1.4c0,0.7,0.5,1.2,1.1,1.4l-1.4,6c-0.2,0.2-0.4,0.4-0.6,0.7c-0.3,0.3-0.4,0.8-0.1,1.2l2.4,4.1
		c-1,0-2.1,0.3-3,0.8l-0.2,0.1c-1,0.3-1.5,1.2-1.5,2.1v0.6c0,0.6,0.5,1,1,1h22c0.6,0,1-0.5,1-1v-0.8C27,23.5,26.4,22.6,25.5,22.2z
		 M21.3,21.6c-0.1,0-0.1,0-0.2,0.1c-0.1,0-0.1,0-0.1,0c-0.1,0-0.2,0.1-0.2,0.1h-0.1c-0.1,0-0.2,0.1-0.3,0.1L20.1,22
		c-0.7,0.3-1.4,0.3-2.1,0l-0.7-0.2c-0.2-0.1-0.4-0.1-0.6-0.2c-0.1,0-0.1,0-0.2,0s-0.3-0.1-0.4-0.1s-0.1,0-0.2,0
		c-0.1-0.1-0.2-0.1-0.3-0.1s-0.2,0-0.2,0c-0.1,0-0.2,0-0.3,0H15c-0.1,0-0.2,0-0.3,0s-0.2,0-0.3,0s-0.3,0-0.4,0.1c-0.1,0-0.2,0-0.3,0
		s-0.3,0.1-0.4,0.1c-0.1,0-0.1,0-0.2,0.1c-0.2,0.1-0.4,0.1-0.6,0.2h-0.2c-0.7,0.3-1.5,0.3-2.2,0c-0.1-0.1-0.3-0.1-0.4-0.1
		c-0.1,0-0.1,0-0.1,0c-0.1,0-0.2-0.1-0.3-0.1s-0.1,0-0.2,0c-0.1,0-0.2,0-0.3-0.1c-0.1,0-0.1,0-0.2,0c-0.1,0-0.1,0-0.2,0l-2-3.4
		l0.3-0.3c2.5-2.1,4.6-3.4,7.3-4.4l0.6-0.2v4.8c0,0.2,0.2,0.3,0.3,0.3s0.3-0.2,0.3-0.3v-4.8l0.5,0.1c2.6,0.9,5.3,2.4,7.7,4.4
		l0.1,0.1l-2.1,3.6L21.3,21.6C21.4,21.6,21.4,21.6,21.3,21.6z M15.7,11.3L15,11.1l-0.5,0.1c-2,0.4-4.1,1.3-6,2.6l0.6-2.6
		c0.1-0.6,0.6-1,1.2-1h9.4c0.6,0,1.1,0.4,1.2,1l0.6,2.4C19.7,12.5,17.8,11.8,15.7,11.3z M24.2,17l-0.4,0.7l-0.1-0.1
		c-2.5-2-5.1-3.5-7.8-4.4L15.3,13v-1h0.2c2.1,0.5,4.2,1.3,6,2.6c0.5,0.3,1,0.7,1.4,1c0.1,0.1,0.3,0.3,0.4,0.4
		c0.3,0.2,0.5,0.5,0.8,0.7C24.2,16.8,24.2,17,24.2,17z M21.4,5.3v0.8H18V4.4h2.5C21,4.4,21.4,4.8,21.4,5.3z M12.1,6.1V4.4h2.7V6
		L12.1,6.1L12.1,6.1z M15.1,4.4h2.7V6h-2.7C15.1,6,15.1,4.4,15.1,4.4z M8.5,5.3c0-0.5,0.4-0.8,0.8-0.8h2.5v1.6H8.5V5.3z M7.1,8.2
		V6.8l0,0h0.7h14.3h0.8l0,0v1.4c0,0.4-0.3,0.7-0.7,0.7H7.8C7.4,8.9,7.1,8.6,7.1,8.2z M8.2,9.6h13.6l1.2,5.1l0,0
		c-0.1-0.1-0.2-0.2-0.3-0.3c-0.1,0-0.1-0.1-0.1-0.1c-0.2-0.1-0.3-0.3-0.5-0.4c-0.1,0-0.1-0.1-0.2-0.1l-0.6-2.7
		C21,10.5,20.4,10,19.7,10h-9.4c-0.7,0-1.3,0.5-1.5,1.1L8.2,14c-0.1,0-0.1,0.1-0.2,0.1c-0.2,0.1-0.3,0.3-0.5,0.4
		c-0.1,0-0.1,0.1-0.1,0.1c-0.1,0.1-0.2,0.2-0.3,0.3l0,0L8.2,9.6z M5.8,16.8c0.2-0.2,0.5-0.5,0.8-0.7c0.6-0.5,1.2-1,1.9-1.5
		c1.9-1.4,4.1-2.3,6.2-2.7v1.2L14,13.3c-2.7,1-4.8,2.2-7.4,4.4L6.3,18l-0.5-0.9C5.7,17,5.8,16.9,5.8,16.8z M26.2,25.2
		c0,0.2-0.1,0.3-0.3,0.3H4c-0.2,0-0.3-0.1-0.3-0.3v-0.6c0-0.7,0.4-1.3,1-1.6h0.2c0.9-0.5,1.8-0.7,2.8-0.7c0.1,0,0.3,0,0.5,0
		c0.6,0,1.1,0.2,1.7,0.4c0.1,0.1,0.2,0.1,0.4,0.1c0.8,0.2,1.6,0.1,2.4-0.1l0.2-0.1c1.4-0.6,2.9-0.6,4.3-0.1l0.7,0.2
		c0.1,0,0.2,0.1,0.3,0.1c0.1,0,0.1,0,0.1,0c0.1,0,0.1,0,0.2,0s0.1,0,0.1,0c0.1,0,0.1,0,0.2,0s0.1,0,0.2,0s0.1,0,0.1,0l0,0
		c0.1,0,0.1,0,0.2,0h0.1c0.1,0,0.1,0,0.2,0h0.1c0.1,0,0.2,0,0.3-0.1h0.1c0.1,0,0.2-0.1,0.3-0.1l0.2-0.1c0.1,0,0.2-0.1,0.3-0.1
		c0.3-0.1,0.7-0.2,1-0.2c1.2-0.1,2.4,0,3.4,0.6c0.6,0.3,1,0.9,1,1.6v0.8H26.2z"/>
</g>
</svg>
