<?xml version="1.0" encoding="utf-8"?>
<!-- Generator: Adobe Illustrator 26.0.3, SVG Export Plug-In . SVG Version: 6.00 Build 0)  -->
<svg version="1.1" id="Layer_1" xmlns="http://www.w3.org/2000/svg" xmlns:xlink="http://www.w3.org/1999/xlink" x="0px" y="0px"
	 viewBox="0 0 30 30" style="enable-background:new 0 0 30 30;" xml:space="preserve">
<style type="text/css">
	.st0{clip-path:url(#SVGID_00000119815297167229835190000002670755450699059092_);}
	.st1{fill:#F2F2F2;}
</style>
<g>
	<defs>
		<rect id="SVGID_1_" x="3" y="7.6" width="24" height="14.8"/>
	</defs>
	<clipPath id="SVGID_00000075849808096561953080000001570752560966545550_">
		<use xlink:href="#SVGID_1_"  style="overflow:visible;"/>
	</clipPath>
</g>
<g>
	<defs>
		<rect id="SVGID_00000109029975781816763060000009462415622281126296_" x="3" y="3" width="24" height="24"/>
	</defs>
	<clipPath id="SVGID_00000024683932735244639670000002065393313197309349_">
		<use xlink:href="#SVGID_00000109029975781816763060000009462415622281126296_"  style="overflow:visible;"/>
	</clipPath>
	<g style="clip-path:url(#SVGID_00000024683932735244639670000002065393313197309349_);">
		<path class="st1" d="M26.6,26.2h-2.4v-0.9h2.1c0.1,0,0.2-0.1,0.3-0.1c0.1-0.1,0.1-0.2,0-0.3l-1.1-2h0.3c0.1,0,0.2-0.1,0.3-0.2
			c0.1-0.1,0.1-0.2,0-0.3l-1-1.7h0.2c0.1,0,0.2-0.1,0.3-0.1c0.1-0.1,0.1-0.2,0-0.3l-1.3-2.3c-0.1-0.1-0.2-0.2-0.3-0.2
			c-0.1,0-0.2,0.1-0.3,0.2l-1.3,2.3c-0.1,0.1,0,0.2,0,0.3c0.1,0.1,0.2,0.1,0.3,0.1h0.2l-1,1.7c-0.1,0.1-0.1,0.2,0,0.3
			c0.1,0.1,0.2,0.2,0.3,0.2h0.3l-1.1,2c-0.1,0.1-0.1,0.2,0,0.3c0.1,0.1,0.2,0.1,0.3,0.1H24v0.9h-3.7V5.6h0c0.5,0,0.9-0.4,0.9-0.9
			V3.9c0-0.5-0.4-0.9-0.9-0.9H9.8C9.2,3,8.8,3.4,8.8,3.9v0.7c0,0.5,0.4,0.9,0.9,0.9h0v20.6H6.1v-0.9h2.1c0.1,0,0.2-0.1,0.3-0.2
			c0.1-0.1,0.1-0.2,0-0.3l-1.1-2h0.3c0.1,0,0.2-0.1,0.3-0.1C8,22.6,8,22.4,8,22.3l-1-1.7h0.2c0.1,0,0.2-0.1,0.3-0.1
			c0.1-0.1,0.1-0.2,0-0.3l-1.3-2.3c-0.1-0.1-0.2-0.2-0.3-0.2c-0.1,0-0.2,0.1-0.3,0.2l-1.3,2.3c-0.1,0.1-0.1,0.2,0,0.3
			c0.1,0.1,0.2,0.1,0.3,0.1h0.2l-1,1.7c-0.1,0.1-0.1,0.2,0,0.3c0.1,0.1,0.2,0.1,0.3,0.1h0.3l-1.1,2c-0.1,0.1,0,0.2,0,0.3
			c0.1,0.1,0.2,0.1,0.3,0.1h2.1v0.9H3.4c-0.2,0-0.4,0.2-0.4,0.4c0,0.2,0.2,0.4,0.4,0.4h6.8h9.8h6.7c0.2,0,0.4-0.2,0.4-0.4
			C27,26.3,26.8,26.2,26.6,26.2z M21.8,25C21.8,24.9,21.8,24.9,21.8,25l1.2-2.2c0,0,0-0.1,0-0.1c0,0-0.1-0.1-0.1-0.1h-0.5
			c0,0-0.1,0-0.1,0c0,0,0,0,0-0.1l1.1-1.9c0,0,0-0.1,0-0.1c0,0-0.1-0.1-0.1-0.1h-0.4c0,0-0.1,0-0.1,0c0,0,0,0,0-0.1l1.3-2.3
			c0,0,0,0,0.1,0c0,0,0,0,0.1,0l1.3,2.3c0,0,0,0.1,0,0.1c0,0,0,0-0.1,0H25c0,0-0.1,0-0.1,0.1s0,0.1,0,0.1l1.1,1.9c0,0,0,0.1,0,0.1
			c0,0,0,0-0.1,0h-0.5c0,0-0.1,0-0.1,0.1c0,0,0,0.1,0,0.1l1.2,2.2c0,0,0,0.1,0,0.1c0,0,0,0-0.1,0L21.8,25C21.9,25,21.8,25,21.8,25z
			 M3.6,25C3.6,24.9,3.6,24.9,3.6,25l1.2-2.2c0,0,0-0.1,0-0.1c0,0-0.1-0.1-0.1-0.1H4.2c0,0,0,0-0.1,0c0,0,0,0,0-0.1l1.1-1.9
			c0,0,0-0.1,0-0.1c0,0-0.1-0.1-0.1-0.1H4.7c0,0-0.1,0-0.1,0c0,0,0,0,0-0.1L5.9,18c0,0,0,0,0.1,0c0,0,0,0,0.1,0l1.3,2.3
			c0,0,0,0.1,0,0.1c0,0,0,0-0.1,0H6.8c0,0-0.1,0-0.1,0.1c0,0,0,0.1,0,0.1l1.1,1.9c0,0,0,0.1,0,0.1c0,0,0,0-0.1,0H7.2
			c0,0-0.1,0-0.1,0.1c0,0,0,0.1,0,0.1l1.2,2.2c0,0,0,0.1,0,0.1c0,0,0,0-0.1,0L3.6,25C3.6,25,3.6,25,3.6,25z M9.8,4.9
			c-0.1,0-0.2-0.1-0.2-0.2V3.9c0-0.1,0.1-0.2,0.2-0.2h10.5c0.1,0,0.2,0.1,0.2,0.2v0.7c0,0.1-0.1,0.2-0.2,0.2h-0.4h-9.8H9.8z
			 M10.5,26.2V5.6h9.1v20.6L10.5,26.2L10.5,26.2z"/>
		<path class="st1" d="M13.2,7.1c-0.7,0-1.3,0.6-1.3,1.3v1.7c0,0.1,0.1,0.1,0.1,0.1h2.3c0.1,0,0.1-0.1,0.1-0.1V8.4
			C14.5,7.7,13.9,7.1,13.2,7.1z M14.2,9.9h-2V8.4c0-0.6,0.5-1,1-1c0.6,0,1,0.5,1,1V9.9z"/>
		<path class="st1" d="M17,7.1c-0.7,0-1.3,0.6-1.3,1.3v1.7c0,0.1,0.1,0.1,0.1,0.1h2.3c0.1,0,0.1-0.1,0.1-0.1V8.4
			C18.2,7.7,17.7,7.1,17,7.1z M18,9.9h-2V8.4c0-0.6,0.5-1,1-1c0.6,0,1,0.5,1,1V9.9z"/>
		<path class="st1" d="M13.2,11.8c-0.7,0-1.3,0.6-1.3,1.3v1.7c0,0.1,0.1,0.1,0.1,0.1h2.3c0.1,0,0.1-0.1,0.1-0.1V13
			C14.5,12.3,13.9,11.8,13.2,11.8z M14.2,14.6h-2V13c0-0.6,0.5-1,1-1c0.6,0,1,0.5,1,1V14.6z"/>
		<path class="st1" d="M17,11.8c-0.7,0-1.3,0.6-1.3,1.3v1.7c0,0.1,0.1,0.1,0.1,0.1h2.3c0.1,0,0.1-0.1,0.1-0.1V13
			C18.2,12.3,17.7,11.8,17,11.8z M18,14.6h-2V13c0-0.6,0.5-1,1-1c0.6,0,1,0.5,1,1V14.6z"/>
		<path class="st1" d="M13.2,16.3c-0.7,0-1.3,0.6-1.3,1.3v1.7c0,0.1,0.1,0.1,0.1,0.1h2.3c0.1,0,0.1-0.1,0.1-0.1v-1.7
			C14.5,16.9,13.9,16.3,13.2,16.3z M14.2,19.2h-2v-1.6c0-0.6,0.5-1,1-1c0.6,0,1,0.5,1,1V19.2z"/>
		<path class="st1" d="M17,16.3c-0.7,0-1.3,0.6-1.3,1.3v1.7c0,0.1,0.1,0.1,0.1,0.1h2.3c0.1,0,0.1-0.1,0.1-0.1v-1.7
			C18.2,16.9,17.7,16.3,17,16.3z M18,19.2h-2v-1.6c0-0.6,0.5-1,1-1c0.6,0,1,0.5,1,1V19.2z"/>
		<path class="st1" d="M13.2,20.9c-0.7,0-1.3,0.6-1.3,1.3v1.7c0,0.1,0.1,0.1,0.1,0.1h2.3c0.1,0,0.1-0.1,0.1-0.1v-1.7
			C14.5,21.4,13.9,20.9,13.2,20.9z M14.2,23.7h-2v-1.6c0-0.6,0.5-1,1-1c0.6,0,1,0.5,1,1V23.7z"/>
		<path class="st1" d="M17,20.9c-0.7,0-1.3,0.6-1.3,1.3v1.7c0,0.1,0.1,0.1,0.1,0.1h2.3c0.1,0,0.1-0.1,0.1-0.1v-1.7
			C18.2,21.4,17.7,20.9,17,20.9z M18,23.7h-2v-1.6c0-0.6,0.5-1,1-1c0.6,0,1,0.5,1,1V23.7z"/>
	</g>
</g>
</svg>
