<?xml version="1.0" encoding="utf-8"?>
<!-- Generator: Adobe Illustrator 26.0.1, SVG Export Plug-In . SVG Version: 6.00 Build 0)  -->
<svg version="1.1" id="Layer_1" xmlns="http://www.w3.org/2000/svg" xmlns:xlink="http://www.w3.org/1999/xlink" x="0px" y="0px"
	 viewBox="0 0 70 70" style="enable-background:new 0 0 70 70;" xml:space="preserve">
<style type="text/css">
	.st0{fill:#F2F2F2;}
</style>
<g>
	<path class="st0" d="M35,17.5C31.2,17.7,28,21,28,25v5.4c-0.1,0.9,0.7,1.7,1.7,1.7h11c1,0,1.8-0.8,1.8-1.8v-5.6
		c0-2-0.8-3.9-2.2-5.2C38.9,18.1,37,17.4,35,17.5z M34.9,30.5h-5.2c-0.2,0-0.2-0.2-0.2-0.2V26h5.4V30.5z M34.9,25.4h-5.4v-0.5
		c0-3.2,2.4-5.8,5.4-6V25.4z M40.9,30.3c0,0.1-0.1,0.2-0.2,0.2h-5.2V26h5.4V30.3z M40.9,25.3h-5.4v-6.4c1.4,0.1,2.6,0.6,3.6,1.6
		c1.2,1.1,1.8,2.6,1.8,4.1V25.3z"/>
	<path class="st0" d="M65.1,57.6c0-0.1,0-0.1,0-0.2c0-2-1.3-3.9-3-4.7V27.4l1.5,0.9c0.3,0.2,0.7,0.3,1.1,0.3c0.4,0,0.7-0.1,1-0.3
		c0.7-0.4,1.1-1.1,1.1-1.9v-3.3c0-0.8-0.4-1.4-1-1.8l-29-17.6c-1.1-0.6-2.4-0.6-3.5-0.1L4.5,20.4c-0.6,0.4-1.1,1.1-1.1,1.8v3.4
		c0,0.8,0.4,1.5,1,1.8c0.6,0.4,1.5,0.4,2.1,0l1.7-1v26.2c-1.8,0.9-3,2.7-3,4.7c0,0.1,0,0.1,0,0.2c-1.2,1.1-2,2.6-2,4.2
		c0,2.9,2.3,5.3,5.3,5.3h10.2c0.9,0,1.8-0.3,2.5-0.8h28c0.7,0.5,1.5,0.8,2.5,0.8H62c2.9,0,5.3-2.3,5.3-5.3
		C67.2,60.1,66.4,58.6,65.1,57.6z M5.6,25.8c-0.1,0-0.1,0-0.2,0c-0.1-0.1-0.1-0.1-0.1-0.2v-3.4c0-0.1,0-0.1,0.1-0.2L34.3,5.5
		c0.5-0.2,1.1-0.2,1.5,0l29,17.5C65,23,65,23,65,23.1v3.4c0,0,0,0.1-0.1,0.2c-0.1,0-0.1,0-0.2,0L36.1,9.3C35.8,9.1,35.4,9,35,9
		c-0.4,0-0.7,0.1-1.1,0.3L5.6,25.8z M20.4,64.5c-0.5,0.4-1,0.5-1.5,0.5H8.6c-1.9-0.1-3.3-1.5-3.3-3.3c0-1.2,0.6-2.2,1.5-2.8l0.5-0.3
		L7.2,58c0-0.2,0-0.3,0-0.5c0-1.5,0.9-2.7,2.3-3.2c0.3-0.1,0.7-0.2,1-0.2c1.3,0,2.5,0.8,3,2l0.3,0.7l0.8-0.1c0.1,0,0.2,0,0.3,0
		c1.5,0,2.7,1,3,2.4l0.2,0.8h0.8c0.7,0,1.4,0.3,1.9,0.9c0.4,0.5,0.6,1,0.6,1.6C21.3,63.2,21,63.9,20.4,64.5z M22.9,64.3L22.9,64.3
		c0-0.2,0-0.2,0.1-0.2c0-0.1,0.1-0.2,0.1-0.2c0-0.1,0.1-0.2,0.1-0.3c0-0.1,0-0.2,0.1-0.2c0-0.1,0-0.2,0.1-0.3c0-0.1,0-0.1,0-0.2
		c0-0.2,0-0.3,0-0.5c0-0.2,0-0.5-0.1-0.8c0-0.1,0-0.2-0.1-0.2c0-0.1-0.1-0.2-0.1-0.3h24.4c0,0.1-0.1,0.2-0.1,0.4
		c0,0.1-0.1,0.2-0.1,0.2c-0.1,0.2-0.1,0.5-0.1,0.8c0,0.2,0,0.3,0,0.5c0,0.1,0,0.1,0,0.2c0,0.1,0,0.2,0.1,0.3c0,0.1,0,0.2,0.1,0.2
		c0,0.1,0.1,0.2,0.1,0.2c0,0.1,0.1,0.2,0.1,0.2s0,0.1,0.1,0.2H22.9z M29.4,59.1V39.7h11.5v19.4H29.4z M42.9,59.2V39.6
		c0-1.1-0.9-1.9-1.9-1.9H29.3c-1.1,0-1.9,0.9-1.9,1.9v19.5h-5.7c-0.6-0.5-1.4-0.9-2.2-1.1c-0.7-1.9-2.5-3.2-4.6-3.2
		c-1-1.6-2.8-2.6-4.8-2.6V25.3L35,11.1c0.1,0,0.2,0,0.2,0l25.1,15.2v26.1c-1.9-0.1-3.8,0.9-4.8,2.6c-2.1,0.1-3.9,1.4-4.6,3.2
		c-0.9,0.2-1.5,0.5-2.2,1.1H42.9z M62,65H51.7c-0.5,0-1.2-0.2-1.5-0.5c-0.6-0.5-0.9-1.2-0.9-1.9c0-0.6,0.2-1.3,0.6-1.7
		c0.5-0.5,1.2-0.9,1.9-0.9h0.8l0.2-0.8c0.3-1.4,1.5-2.4,3-2.4c0.1,0,0.2,0,0.3,0l0.8,0.1l0.3-0.7c0.6-1.5,2.4-2.3,4-1.9
		c1.4,0.4,2.3,1.7,2.3,3.2c0,0.2,0,0.3,0,0.5l-0.1,0.6l0.5,0.3c1,0.6,1.5,1.6,1.5,2.8C65.2,63.5,63.8,65,62,65z"/>
	<path class="st0" d="M22.2,36.2h-7.5c-0.5,0-1,0.4-1,1v8.2c0,0.5,0.4,1,1,1h7.5c0.5,0,1-0.4,1-1v-8.2
		C23.1,36.6,22.7,36.2,22.2,36.2z M22.6,45.4c0,0.2-0.2,0.4-0.4,0.4h-7.5c-0.2,0-0.4-0.2-0.4-0.4v-8.2c0-0.2,0.2-0.4,0.4-0.4h7.5
		c0.2,0,0.4,0.2,0.4,0.4V45.4z"/>
	<path class="st0" d="M56.1,45.4v-8.2c0-0.5-0.4-1-1-1h-7.6c-0.5,0-1,0.4-1,1v8.2c0,0.5,0.4,1,1,1h7.6
		C55.7,46.3,56.1,45.9,56.1,45.4z M47.2,45.4v-8.2c0-0.2,0.2-0.4,0.4-0.4h7.6c0.2,0,0.4,0.2,0.4,0.4v8.2c0,0.2-0.2,0.4-0.4,0.4h-7.6
		C47.4,45.8,47.2,45.6,47.2,45.4z"/>
</g>
</svg>
