<?xml version="1.0" encoding="utf-8"?>
<!-- Generator: Adobe Illustrator 26.0.3, SVG Export Plug-In . SVG Version: 6.00 Build 0)  -->
<svg version="1.1" id="Layer_1" xmlns="http://www.w3.org/2000/svg" xmlns:xlink="http://www.w3.org/1999/xlink" x="0px" y="0px"
	 viewBox="0 0 30 30" style="enable-background:new 0 0 30 30;" xml:space="preserve">
<style type="text/css">
	.st0{clip-path:url(#SVGID_00000180366981553813318850000008724675950019758247_);}
	.st1{fill:#F2F2F2;}
</style>
<g>
	<defs>
		<rect id="SVGID_1_" x="3" y="7.6" width="24" height="14.8"/>
	</defs>
	<clipPath id="SVGID_00000076572209086508640020000000081916192823123593_">
		<use xlink:href="#SVGID_1_"  style="overflow:visible;"/>
	</clipPath>
</g>
<g>
	<defs>
		<rect id="SVGID_00000009553290521105231630000001216683709278877582_" x="3" y="3" width="24" height="24"/>
	</defs>
	<clipPath id="SVGID_00000119816750992072540250000016594535545248940171_">
		<use xlink:href="#SVGID_00000009553290521105231630000001216683709278877582_"  style="overflow:visible;"/>
	</clipPath>
</g>
<g>
	<defs>
		<rect id="SVGID_00000080175516560389694140000006633294415370042006_" x="2.9" y="2.8" width="24" height="24"/>
	</defs>
	<clipPath id="SVGID_00000054959303707143554490000002279000665168694682_">
		<use xlink:href="#SVGID_00000080175516560389694140000006633294415370042006_"  style="overflow:visible;"/>
	</clipPath>
	<g style="clip-path:url(#SVGID_00000054959303707143554490000002279000665168694682_);">
		<path class="st1" d="M24.3,17.6c-0.1-0.1-0.3-0.2-0.4-0.2c-0.1,0.1-0.3,0.2-0.3,0.3v0.1c0,1.2-1.2,2.3-3.1,3.1
			c-0.5,0.2-1.4,0.4-2.6,0.6c-0.2,0-0.5,0-0.7-0.2c-0.2-0.1-0.3-0.4-0.3-0.6l-0.3-9.6l3,0.2c0,0,0,0,0.1,0c0.4,0,0.7-0.3,0.7-0.7
			c0-0.2-0.1-0.4-0.2-0.5c-0.1-0.1-0.3-0.2-0.6-0.2l-3.1,0.2l-0.1-1.6c1.1-0.4,1.9-1.5,1.9-2.7c0-1.6-1.3-2.9-2.9-2.9
			c-1.6,0-3,1.3-3,2.9c0,1.2,0.8,2.3,1.9,2.7l-0.1,1.6l-3.1-0.2c-0.2,0-0.4,0.1-0.6,0.2c-0.1,0.1-0.2,0.3-0.2,0.5
			c0,0.4,0.3,0.7,0.7,0.7c0,0,0,0,0.1,0l3-0.2l-0.3,9.7c0,0.2-0.1,0.4-0.3,0.6c-0.2,0.1-0.4,0.2-0.6,0.2c-1-0.1-1.9-0.3-2.7-0.7
			C8.3,20.2,7.1,19.1,7,18c0-0.2-0.1-0.3-0.3-0.3c-0.2,0-0.3,0.1-0.4,0.2c-0.3,0.5-0.4,1-0.4,1.5c0,1.4,0.8,2.6,2.1,3.4l7.1,3.9
			c0.1,0,0.1,0.1,0.2,0.1c0.1,0,0.1,0,0.2-0.1l6.9-3.8l0.3-0.1c0,0,0,0,0,0c1.3-0.8,2.1-2,2.1-3.4C24.8,18.8,24.7,18.1,24.3,17.6z
			 M19.6,10.1c0.1,0,0.3,0,0.4,0.1c0.1,0.1,0.1,0.2,0.1,0.3c0,0.3-0.2,0.5-0.5,0.5l-3.1-0.2l0-0.6L19.6,10.1z M13.1,5.7
			c0-1.2,1-2.2,2.2-2.2c1.3,0,2.2,1,2.2,2.2c0,1-0.7,1.9-1.6,2.1c-0.3,0.1-0.6,0.1-0.9,0.1c-0.1,0-0.2,0-0.3-0.1
			C13.8,7.6,13.1,6.7,13.1,5.7z M11.2,11.1L11.2,11.1c-0.3,0-0.5-0.2-0.5-0.5c0-0.1,0.1-0.3,0.1-0.3c0.1-0.1,0.2-0.1,0.3-0.1h0
			l3.1,0.2l0,0.6L11.2,11.1z M22.4,22.2l-0.3,0.2l-6.6,3.6v-10c0-0.1-0.1-0.1-0.1-0.1c-0.1,0-0.1,0.1-0.1,0.1v10l-6.6-3.7l-0.2-0.1
			c-1.1-0.6-1.7-1.7-1.7-2.8c0-0.1,0-0.1,0-0.1c0.6,0.9,1.7,1.7,3.3,2.3c0.8,0.3,1.8,0.6,2.8,0.7c0.4,0.1,0.9-0.1,1.2-0.3
			c0.3-0.3,0.5-0.7,0.6-1.1L15,8.7c0.2,0,0.5,0,0.8,0l0.4,12.1c0,0.4,0.2,0.9,0.6,1.1c0.3,0.3,0.8,0.4,1.3,0.3
			c0.9-0.1,2.1-0.4,2.8-0.6c1.7-0.6,2.8-1.5,3.3-2.5c0,0.1,0,0.3,0,0.4C24.1,20.5,23.5,21.5,22.4,22.2z"/>
		<path class="st1" d="M16.7,5.7c0-0.7-0.6-1.3-1.3-1.3c-0.7,0-1.3,0.6-1.3,1.3S14.7,7,15.4,7C16.1,7,16.7,6.5,16.7,5.7z M14.3,5.7
			c0-0.6,0.5-1,1-1c0.6,0,1,0.5,1,1s-0.5,1-1,1C14.8,6.8,14.3,6.3,14.3,5.7z"/>
	</g>
</g>
</svg>
