<?xml version="1.0" encoding="utf-8"?>
<!-- Generator: Adobe Illustrator 26.0.1, SVG Export Plug-In . SVG Version: 6.00 Build 0)  -->
<svg version="1.1" id="Layer_1" xmlns="http://www.w3.org/2000/svg" xmlns:xlink="http://www.w3.org/1999/xlink" x="0px" y="0px"
	 viewBox="0 0 70 70" style="enable-background:new 0 0 70 70;" xml:space="preserve">
<style type="text/css">
	.st0{fill:#F2F2F2;}
	.st1{fill-rule:evenodd;clip-rule:evenodd;fill:#F2F2F2;}
</style>
<g>
	<path class="st0" d="M29.2,39.6c0,6.3,5.2,11.5,11.5,11.5c6.3,0,11.5-5.2,11.5-11.5c0-6.3-5.2-11.6-11.5-11.6
		C34.4,28,29.2,33.2,29.2,39.6z M51.5,39.6c0,6-4.8,10.8-10.8,10.8c-6,0-10.8-4.8-10.8-10.8c0-6,4.8-10.9,10.8-10.9
		C46.7,28.7,51.5,33.7,51.5,39.6z"/>
	<path class="st0" d="M13.1,18h16.2c0.2,0,0.4-0.2,0.4-0.4c0-0.2-0.2-0.4-0.4-0.4H13.1c-0.2,0-0.4,0.2-0.4,0.4
		C12.7,17.8,12.9,18,13.1,18z"/>
	<path class="st0" d="M66,59.5l-8.4-8.4c-0.6-0.6-1.4-0.6-2,0l-1,1.1l-1-1C56.3,48.1,58,44,58,39.5c0-6.2-3.3-11.6-8.2-14.6v-9.1
		c0-0.8-0.3-1.5-0.9-2l-8.1-8C40.4,5.3,39.7,5,38.9,5H7.6C5.5,5,3.9,6.6,3.9,8.7v53.6c0,2,1.6,3.7,3.7,3.7h38.7c2,0,3.7-1.6,3.7-3.7
		v-8c0.7-0.5,1.3-0.9,2-1.4l1,1L51.8,55c-0.6,0.6-0.6,1.4,0,2l8.4,8.4c0.6,0.6,1.4,0.9,2.2,0.9c0.8,0,1.6-0.3,2.2-0.9L66,64
		C67.2,62.8,67.2,60.8,66,59.5z M56.2,39.6c0,8.5-6.9,15.4-15.4,15.4c-8.5,0-15.4-6.9-15.4-15.4c0-8.5,6.9-15.4,15.4-15.4
		C49.3,24.2,56.2,31.1,56.2,39.6z M46.6,14.1h-5.8c-0.1,0-0.1,0-0.2-0.1c0,0-0.1-0.1-0.1-0.2V8.1L46.6,14.1z M47.9,62.3
		c0,0.9-0.8,1.8-1.8,1.8H7.6c-0.9,0-1.8-0.8-1.8-1.8V8.7c0-1,0.8-1.8,1.8-1.8h31.2v7c0,0.6,0.2,1.1,0.7,1.5c0.5,0.4,0.9,0.7,1.5,0.7
		H48v7.8c-2.2-1-4.6-1.6-7.2-1.6c-3,0-5.9,0.8-8.3,2.1H13.1c-0.2,0-0.4,0.2-0.4,0.4c0,0.2,0.2,0.4,0.4,0.4h18.1
		c-2.5,1.6-4.4,3.9-5.8,6.4H13.1c-0.2,0-0.4,0.2-0.4,0.4c0,0.2,0.2,0.4,0.4,0.4h12c-0.9,2.1-1.5,4.3-1.6,6.8H13.1
		c-0.2,0-0.4,0.2-0.4,0.4s0.2,0.4,0.4,0.4h10.4c0,2.5,0.6,4.7,1.5,6.8H13.1c-0.2,0-0.4,0.2-0.4,0.4s0.2,0.4,0.4,0.4h12.3
		c1.1,2.2,2.7,4.2,4.6,5.7h-7.5c-0.2,0-0.4,0.2-0.4,0.4c0,0.2,0.2,0.4,0.4,0.4H31c2.7,1.9,6.1,3,9.7,3c2.6,0,5-0.6,7.2-1.6V62.3z
		 M52.4,52.4c0.2-0.2,0.4-0.4,0.6-0.5l1,1l-0.6,0.6L52.4,52.4z M64.7,62.7l-1.4,1.4c-0.5,0.5-1.2,0.5-1.7,0l-8.1-8l3.2-3.2l8,8
		C65.1,61.3,65.1,62.2,64.7,62.7z"/>
	<path class="st1" d="M40.6,49.4c5.4,0,9.7-4.4,9.7-9.7c0-5.4-4.4-9.7-9.7-9.7s-9.7,4.4-9.7,9.7C30.9,45,35.3,49.4,40.6,49.4z
		 M40.6,51.5c6.5,0,11.8-5.3,11.8-11.8s-5.3-11.8-11.8-11.8s-11.8,5.3-11.8,11.8S34.1,51.5,40.6,51.5z"/>
</g>
</svg>
