<?xml version="1.0" encoding="utf-8"?>
<!-- Generator: Adobe Illustrator 26.0.3, SVG Export Plug-In . SVG Version: 6.00 Build 0)  -->
<svg version="1.1" id="Layer_1" xmlns="http://www.w3.org/2000/svg" xmlns:xlink="http://www.w3.org/1999/xlink" x="0px" y="0px"
	 viewBox="0 0 30 30" style="enable-background:new 0 0 30 30;" xml:space="preserve">
<style type="text/css">
	.st0{clip-path:url(#SVGID_00000155132564274045599090000008850875078003035045_);}
	.st1{fill:#F2F2F2;}
</style>
<g>
	<defs>
		<rect id="SVGID_1_" x="3" y="7.6" width="24" height="14.8"/>
	</defs>
	<clipPath id="SVGID_00000067218556263175452810000013169335116171751094_">
		<use xlink:href="#SVGID_1_"  style="overflow:visible;"/>
	</clipPath>
	<g style="clip-path:url(#SVGID_00000067218556263175452810000013169335116171751094_);">
		<path class="st1" d="M27,15.8c0-0.2-0.1-0.4-0.2-0.6l-2.3-3.6c-0.3-0.5-0.9-0.8-1.5-0.8h-2.8V9c0-0.8-0.6-1.4-1.4-1.4H4.4
			C3.6,7.6,3,8.2,3,9v8.6h0.2v0.1c0,0.6,0.3,1.2,0.8,1.5c0,0.2-0.1,0.4-0.1,0.5c0,1.5,1.2,2.6,2.6,2.6c1.5,0,2.6-1.2,2.6-2.6
			c0-0.1,0-0.1,0-0.2h0.1c0,0.1,0,0.2,0,0.2c0,1.5,1.2,2.6,2.6,2.6c1.5,0,2.6-1.2,2.6-2.6c0-0.1,0-0.2,0-0.2h0c0,0.1,0,0.2,0,0.2
			c0,1.5,1.2,2.6,2.6,2.6c1.5,0,2.6-1.2,2.6-2.6c0-0.1,0-0.1,0-0.2h0.8c0,0.1,0,0.2,0,0.2c0,1.5,1.2,2.6,2.6,2.6
			c1.5,0,2.6-1.2,2.6-2.6c0-0.2,0-0.4-0.1-0.5c0.5-0.3,0.8-0.9,0.8-1.5v-0.1H27V15.8z M21.4,11.6h0.8v4h-0.5c-0.2,0-0.3-0.1-0.3-0.3
			L21.4,11.6L21.4,11.6z M22.4,11.6H23c0.4,0,0.7,0.2,0.8,0.5l2.3,3.5h-3.8L22.4,11.6L22.4,11.6z M20.2,11.6h1v3.6
			c0,0.3,0.2,0.6,0.6,0.6h4.6v0v1.1h-6.1V11.6z M8.2,17.6h2.2c-0.6,0.4-0.9,1-1.1,1.7H9.3C9.1,18.6,8.7,18,8.2,17.6z M13.5,17.6h2.2
			c-0.5,0.4-0.9,1-1.1,1.7h-0.1C14.4,18.6,14,18,13.5,17.6z M18.8,17.6h0.7v0h2.3c-0.5,0.4-0.9,1-1,1.6h-0.9
			C19.7,18.6,19.3,18,18.8,17.6z M3.7,9c0-0.4,0.3-0.7,0.7-0.7h14.3c0.4,0,0.7,0.3,0.7,0.7v7.9H3.7V9z M3.5,17.7L3.5,17.7l1.7-0.1
			c-0.5,0.3-0.8,0.8-1,1.4C3.7,18.7,3.5,18.2,3.5,17.7z M6.7,21.7c-1.1,0-1.9-0.8-1.9-1.9c0-0.1,0-0.3,0-0.4c0.2-0.9,1-1.5,1.9-1.5
			c0.9,0,1.8,0.7,1.9,1.6c0,0.1,0,0.2,0,0.3C8.6,20.8,7.7,21.7,6.7,21.7z M12,21.7c-1.1,0-1.9-0.8-1.9-1.9c0-0.1,0-0.2,0-0.3
			c0.1-0.9,1-1.6,1.9-1.6c0.9,0,1.8,0.7,1.9,1.6c0,0.1,0,0.2,0,0.3C13.9,20.8,13,21.7,12,21.7z M17.2,21.7c-1.1,0-1.9-0.8-1.9-1.9
			c0-0.1,0-0.2,0-0.3c0.1-0.9,1-1.6,1.9-1.6c0.9,0,1.8,0.7,1.9,1.6c0,0.1,0,0.2,0,0.3C19.2,20.8,18.3,21.7,17.2,21.7z M23.4,21.7
			c-1.1,0-1.9-0.8-1.9-1.9c0-0.1,0-0.2,0-0.3c0.1-0.9,1-1.6,1.9-1.6s1.7,0.6,1.9,1.5l0,0.1c0,0.1,0,0.2,0,0.3
			C25.2,20.8,24.4,21.7,23.4,21.7z M26.5,17.7c0,0.5-0.3,1-0.7,1.3v-0.1h0c-0.2-0.5-0.5-1-0.9-1.3L26.5,17.7L26.5,17.7z"/>
		<path class="st1" d="M7.1,19.5c-0.1-0.2-0.4-0.3-0.6-0.1S6.2,19.8,6.3,20c0.1,0.1,0.2,0.2,0.4,0.2c0.1,0,0.2,0,0.3-0.1
			c0.1-0.1,0.2-0.2,0.2-0.3C7.1,19.7,7.1,19.6,7.1,19.5z"/>
		<path class="st1" d="M12.3,19.5c-0.1-0.2-0.4-0.3-0.6-0.1c-0.1,0.1-0.2,0.2-0.2,0.3c0,0.1,0,0.2,0.1,0.3c0.1,0.1,0.2,0.2,0.4,0.2
			c0.1,0,0.2,0,0.3-0.1C12.4,20,12.5,19.7,12.3,19.5z"/>
		<path class="st1" d="M17.6,19.5c-0.1-0.2-0.4-0.3-0.6-0.1c-0.1,0.1-0.2,0.2-0.2,0.3c0,0.1,0,0.2,0.1,0.3c0.1,0.1,0.2,0.2,0.4,0.2
			c0.1,0,0.2,0,0.3-0.1C17.7,20,17.7,19.7,17.6,19.5z"/>
		<path class="st1" d="M23.7,19.5c-0.1-0.2-0.4-0.3-0.6-0.1c-0.1,0.1-0.2,0.2-0.2,0.3c0,0.1,0,0.2,0.1,0.3c0.1,0.1,0.2,0.2,0.4,0.2
			c0.1,0,0.2,0,0.3-0.1C23.8,20,23.9,19.7,23.7,19.5z"/>
	</g>
</g>
</svg>
