<?xml version="1.0" encoding="utf-8"?>
<!-- Generator: Adobe Illustrator 26.0.3, SVG Export Plug-In . SVG Version: 6.00 Build 0)  -->
<svg version="1.1" id="Layer_1" xmlns="http://www.w3.org/2000/svg" xmlns:xlink="http://www.w3.org/1999/xlink" x="0px" y="0px"
	 viewBox="0 0 30 30" style="enable-background:new 0 0 30 30;" xml:space="preserve">
<style type="text/css">
	.st0{fill:#F2F2F2;}
</style>
<g>
	<path class="st0" d="M25.2,9h-5.6c-0.3,0-0.6-0.2-0.7-0.5l-0.6-2.6c-0.2-0.8-0.9-1.3-1.7-1.3h-3.2c-0.8,0-1.5,0.5-1.7,1.3l-0.6,2.6
		C11,8.8,10.8,9,10.5,9c-0.3-0.7-0.9-1.2-1.7-1.2C8,7.8,7.3,8.3,7,9H4.8C3.8,9,3,9.8,3,10.8v12.8c0,1,0.8,1.8,1.8,1.8h20.3
		c1,0,1.8-0.8,1.8-1.8V10.8C27,9.8,26.2,9,25.2,9z M8.8,8.5c0.4,0,0.7,0.2,0.9,0.5H7.9C8.1,8.7,8.4,8.5,8.8,8.5z M4.8,9.7h2h3.5h0.2
		l0,0c0.6-0.1,1.1-0.5,1.2-1.1L12.5,6c0.1-0.4,0.5-0.8,1-0.8h3.2c0.5,0,0.9,0.3,1,0.8l0.6,2.6c0.2,0.6,0.7,1.1,1.4,1.1h5.6
		c0.6,0,1.1,0.5,1.1,1.1v3.8h-6.4c0,0,0,0,0-0.1c-1-1.7-2.8-2.8-4.8-2.8s-3.8,1.1-4.8,2.8c0,0,0,0,0,0.1H3.7v-3.8
		C3.7,10.2,4.2,9.7,4.8,9.7z M10.8,14.9c0.9-1.5,2.5-2.4,4.2-2.4s3.3,0.9,4.2,2.4c0.4,0.7,0.6,1.5,0.6,2.4c0,2.7-2.2,4.8-4.8,4.8
		s-4.8-2.2-4.8-4.8C10.2,16.4,10.4,15.6,10.8,14.9z M25.2,24.7H4.8c-0.6,0-1.1-0.5-1.1-1.1v-8.8H10c-0.4,0.8-0.6,1.6-0.6,2.4
		c0,3.1,2.5,5.5,5.5,5.5s5.5-2.5,5.5-5.5c0-0.8-0.2-1.7-0.6-2.4h6.3v8.8C26.3,24.2,25.8,24.7,25.2,24.7z"/>
	<path class="st0" d="M22.5,12.4h1.6c0.2,0,0.4-0.2,0.4-0.4c0-0.2-0.2-0.4-0.4-0.4h-1.6c-0.2,0-0.4,0.2-0.4,0.4
		C22.2,12.3,22.3,12.4,22.5,12.4z"/>
	<path class="st0" d="M15,21.2c2.2,0,3.9-1.8,3.9-3.9c0-1-0.4-1.9-1-2.6c-0.7-0.8-1.8-1.3-2.9-1.3s-2.2,0.5-2.9,1.3
		c-0.6,0.7-1,1.7-1,2.6C11.1,19.4,12.8,21.2,15,21.2z M12.2,14.8c0.7-0.8,1.7-1.2,2.8-1.2s2.1,0.4,2.8,1.2c0.6,0.7,0.9,1.6,0.9,2.5
		c0,2-1.7,3.7-3.7,3.7s-3.7-1.7-3.7-3.7C11.3,16.3,11.6,15.5,12.2,14.8z"/>
	<path class="st0" d="M15,8.7c0.7,0,1.2-0.5,1.2-1.2c0-0.7-0.5-1.2-1.2-1.2s-1.2,0.5-1.2,1.2C13.8,8.1,14.3,8.7,15,8.7z M15,6.5
		c0.5,0,1,0.4,1,1c0,0.5-0.4,1-1,1s-1-0.4-1-1C14,6.9,14.5,6.5,15,6.5z"/>
</g>
</svg>
