<?xml version="1.0" encoding="utf-8"?>
<!-- Generator: Adobe Illustrator 26.0.3, SVG Export Plug-In . SVG Version: 6.00 Build 0)  -->
<svg version="1.1" id="Layer_1" xmlns="http://www.w3.org/2000/svg" xmlns:xlink="http://www.w3.org/1999/xlink" x="0px" y="0px"
	 viewBox="0 0 30 30" style="enable-background:new 0 0 30 30;" xml:space="preserve">
<style type="text/css">
	.st0{fill:#F2F2F2;}
	.st1{fill-rule:evenodd;clip-rule:evenodd;fill:#F2F2F2;}
</style>
<g>
	<path class="st0" d="M25.7,20.1v-1.5c0-2.8-1.1-5.5-3.1-7.5c-0.1-0.1-0.2-0.2-0.3-0.3c0,0,0,0,0,0c-1.3-1.2-2.9-2.1-4.7-2.5
		c-0.1-0.4-0.4-0.8-0.7-1.2c-0.5-0.5-1.2-0.8-1.9-0.8c-1.2,0-2.2,0.8-2.6,1.9c-4.8,1.2-8.1,5.4-8.1,10.3v1.5
		c-0.3,0.1-0.6,0.2-0.8,0.5C3.2,20.9,3,21.4,3,21.9c0,1,0.8,1.8,1.8,1.8h20.4c1,0,1.8-0.8,1.8-1.8C27,21,26.4,20.3,25.7,20.1z
		 M24.9,18.6v1.5H19c0.5-0.7,0.7-1.6,0.7-2.5c0-1.6-0.8-3.1-2.1-3.9V9c1.5,0.4,2.8,1.1,4,2.2V16c0,0.2,0.2,0.4,0.4,0.4
		s0.4-0.2,0.4-0.4v-4.1C24,13.8,24.9,16.1,24.9,18.6z M11,17.6c0-2.2,1.8-4,4-4c2.2,0,4,1.8,4,4c0,2.2-1.8,4-4,4
		C12.8,21.6,11,19.8,11,17.6z M15,7.1c0.5,0,1,0.2,1.4,0.6C16.7,8,17,8.5,17,9v4.2c-0.6-0.3-1.3-0.4-1.9-0.4c-0.7,0-1.4,0.2-2,0.4V9
		C13,7.9,13.9,7.1,15,7.1z M5.1,18.6c0-2.5,1-4.9,2.6-6.6v4c0,0.2,0.2,0.4,0.4,0.4c0.2,0,0.4-0.2,0.4-0.4v-4.8c1.1-1,2.5-1.8,4-2.2
		v4.6c-1.3,0.9-2.1,2.3-2.1,3.9c0,0.9,0.3,1.8,0.7,2.5H5.1V18.6z M25.2,23H4.8c-0.6,0-1.1-0.5-1.1-1.1c0-0.3,0.1-0.6,0.3-0.8
		c0.2-0.2,0.5-0.3,0.8-0.3h6.7c0.9,0.9,2.1,1.5,3.5,1.5c1.4,0,2.6-0.6,3.5-1.5h6.7c0.6,0,1.1,0.5,1.1,1.1S25.8,23,25.2,23z"/>
	<path class="st1" d="M24.9,20.1v-1.5c0-1.9-0.6-3.8-1.6-5.4c-0.2-0.3-0.5-0.7-0.7-1c-0.1-0.1-0.2-0.2-0.3-0.3V16
		c0,0.2-0.2,0.4-0.4,0.4s-0.4-0.2-0.4-0.4v-4.8c-0.1-0.1-0.2-0.2-0.3-0.2c-0.8-0.7-1.7-1.2-2.7-1.6c-0.2-0.1-0.5-0.2-0.7-0.3
		c-0.1,0-0.2-0.1-0.3-0.1v4.6c0.1,0.1,0.2,0.1,0.3,0.2c1.1,0.9,1.8,2.2,1.8,3.7c0,0.5-0.1,1-0.2,1.5c-0.1,0.3-0.2,0.5-0.3,0.7
		c-0.1,0.1-0.1,0.2-0.2,0.3H24.9z M18.5,20.8c-0.1,0.1-0.2,0.2-0.3,0.3c-0.4,0.4-0.9,0.7-1.4,0.9c-0.6,0.2-1.2,0.4-1.8,0.4
		c-0.6,0-1.3-0.1-1.8-0.4c-0.5-0.2-1-0.5-1.4-0.9c-0.1-0.1-0.2-0.2-0.3-0.3H4.8c-0.1,0-0.2,0-0.3,0c-0.2,0-0.3,0.1-0.4,0.2
		c0,0,0,0,0,0c-0.2,0.2-0.3,0.5-0.3,0.8c0,0.6,0.5,1.1,1.1,1.1h20.4c0.6,0,1.1-0.5,1.1-1.1c0-0.3-0.1-0.6-0.4-0.8
		c-0.1-0.1-0.3-0.2-0.4-0.2c-0.1,0-0.2,0-0.3,0H18.5z M25.9,20.2c0.6,0.3,1.1,0.9,1.1,1.6c0,1-0.8,1.8-1.8,1.8H4.8
		c-1,0-1.8-0.8-1.8-1.8c0-0.5,0.2-0.9,0.5-1.3c0.2-0.2,0.3-0.3,0.5-0.4c0.1,0,0.2-0.1,0.3-0.1v-1.5c0-2.7,1-5.3,2.7-7.2
		c0.1-0.1,0.2-0.2,0.3-0.3c0.2-0.2,0.3-0.3,0.5-0.5c0.2-0.2,0.5-0.4,0.8-0.6c1-0.8,2.2-1.3,3.5-1.7l0,0c0.1,0,0.2-0.1,0.3-0.1
		c0-0.1,0.1-0.2,0.1-0.3C13,7,13.9,6.3,15,6.3c0.7,0,1.4,0.3,1.9,0.8c0.2,0.2,0.4,0.5,0.6,0.8c0,0.1,0.1,0.2,0.1,0.3
		c0.1,0,0.2,0.1,0.3,0.1l0,0c1.3,0.4,2.4,0.9,3.5,1.7c0.3,0.2,0.5,0.4,0.8,0.6c0,0,0.1,0.1,0.1,0.1c0,0,0,0,0,0c0,0,0.1,0.1,0.1,0.1
		c0.1,0.1,0.1,0.1,0.2,0.2c0,0,0.1,0.1,0.1,0.1c0.1,0.1,0.2,0.2,0.3,0.3c0.1,0.2,0.3,0.3,0.4,0.5c0,0,0,0,0,0.1
		c1.5,1.9,2.3,4.2,2.3,6.6v1.5C25.8,20.2,25.9,20.2,25.9,20.2z M16.7,8c-0.1-0.1-0.2-0.3-0.3-0.4C16,7.3,15.5,7.1,15,7.1
		c-0.7,0-1.3,0.4-1.7,1c-0.1,0.1-0.2,0.3-0.2,0.5C13.1,8.6,13,8.8,13,9v4.2c0.1,0,0.2-0.1,0.3-0.1c0.2-0.1,0.5-0.2,0.7-0.2
		c0.3-0.1,0.6-0.1,1-0.1c0.3,0,0.6,0,0.9,0.1c0.2,0.1,0.5,0.1,0.7,0.2c0.1,0,0.2,0.1,0.3,0.1V9c0-0.2,0-0.4-0.1-0.5
		C16.8,8.3,16.8,8.1,16.7,8z M16.7,13.9C16.7,13.9,16.7,13.9,16.7,13.9c-0.5-0.2-1.1-0.4-1.7-0.4c-0.6,0-1.1,0.1-1.7,0.4
		c0,0,0,0,0,0c-0.2,0.1-0.4,0.2-0.6,0.3c-0.2,0.2-0.4,0.3-0.6,0.5c-0.7,0.7-1.1,1.7-1.1,2.8c0,0.8,0.2,1.5,0.6,2.1
		c0,0,0,0.1,0.1,0.1c0.1,0.2,0.3,0.4,0.4,0.5c0.2,0.2,0.3,0.3,0.5,0.5c0.7,0.5,1.5,0.8,2.4,0.8c0.9,0,1.7-0.3,2.4-0.8
		c0.2-0.1,0.4-0.3,0.5-0.5c0.1-0.2,0.3-0.3,0.4-0.5c0,0,0-0.1,0.1-0.1c0.4-0.6,0.6-1.3,0.6-2.1c0-1.1-0.4-2.1-1.2-2.8
		c-0.2-0.2-0.4-0.4-0.6-0.5C17.1,14.1,16.9,14,16.7,13.9z M10.5,19.1c-0.2-0.5-0.2-1-0.2-1.5c0-1.5,0.7-2.9,1.8-3.7
		c0.1-0.1,0.2-0.1,0.3-0.2V9c-0.1,0-0.2,0.1-0.3,0.1c-0.2,0.1-0.5,0.2-0.7,0.3c-1,0.4-1.9,0.9-2.7,1.6c-0.1,0.1-0.2,0.2-0.3,0.2V16
		c0,0.2-0.2,0.4-0.4,0.4c-0.2,0-0.4-0.2-0.4-0.4v-4c-0.1,0.1-0.2,0.2-0.3,0.3c-0.3,0.3-0.5,0.6-0.7,1c-1,1.6-1.6,3.4-1.6,5.3v1.5H11
		c-0.1-0.1-0.1-0.2-0.2-0.3C10.7,19.6,10.6,19.3,10.5,19.1z"/>
	<path class="st1" d="M15,19.6c1.1,0,2-0.9,2-2s-0.9-2-2-2s-2,0.9-2,2S13.9,19.6,15,19.6z M15,19.8c1.2,0,2.2-1,2.2-2.2
		s-1-2.2-2.2-2.2s-2.2,1-2.2,2.2S13.8,19.8,15,19.8z"/>
</g>
</svg>
