<?xml version="1.0" encoding="utf-8"?>
<!-- Generator: Adobe Illustrator 26.0.1, SVG Export Plug-In . SVG Version: 6.00 Build 0)  -->
<svg version="1.1" id="Layer_1" xmlns="http://www.w3.org/2000/svg" xmlns:xlink="http://www.w3.org/1999/xlink" x="0px" y="0px"
	 viewBox="0 0 60 60" style="enable-background:new 0 0 60 60;" xml:space="preserve">
<style type="text/css">
	.st0{fill:#FFFFFF;}
</style>
<g>
	<path class="st0" d="M14.3,30c0-0.7,0.6-1.3,1.3-1.3h28.9c0.7,0,1.3,0.6,1.3,1.3s-0.6,1.3-1.3,1.3H15.6
		C14.8,31.3,14.3,30.7,14.3,30z"/>
	<path class="st0" d="M14.3,20.8c0-0.7,0.6-1.3,1.3-1.3h28.9c0.7,0,1.3,0.6,1.3,1.3s-0.6,1.3-1.3,1.3H15.6
		C14.8,22.1,14.3,21.5,14.3,20.8z"/>
	<path class="st0" d="M14.3,39.2c0-0.7,0.6-1.3,1.3-1.3h28.9c0.7,0,1.3,0.6,1.3,1.3s-0.6,1.3-1.3,1.3H15.6
		C14.8,40.5,14.3,39.9,14.3,39.2z"/>
</g>
</svg>
