<?xml version="1.0" encoding="utf-8"?>
<!-- Generator: Adobe Illustrator 25.2.1, SVG Export Plug-In . SVG Version: 6.00 Build 0)  -->
<svg version="1.1" id="Layer_1" xmlns="http://www.w3.org/2000/svg" xmlns:xlink="http://www.w3.org/1999/xlink" x="0px" y="0px"
	 viewBox="0 0 70 70" style="enable-background:new 0 0 70 70;" xml:space="preserve">
<style type="text/css">
	.st0{fill:#004161;}
</style>
<g>
	<path class="st0" d="M60.1,27.8C59,14.8,48,4.6,34.8,4.6c-13.1,0-24.1,10.2-25.3,23.3c-2.9,1-4.9,3.7-4.9,6.9v3.5
		c0,4,3.3,7.3,7.4,7.3h3.2c0.4,0,0.7-0.1,1.1-0.2c1-0.4,1.5-1.4,1.5-2.4V30.1c0-1.2-0.8-2.2-1.9-2.6c-0.1-0.1-0.4-0.1-0.5-0.1
		c1.2-9.5,9.5-17,19.3-17s18.1,7.4,19.3,17c-1.2,0.3-2.1,1.3-2.1,2.6v13c0,1.2,0.7,2.2,1.8,2.5l0.1,0.1c0.2,0.1,0.4,0.1,0.7,0.1H56
		C55.7,53.6,49.8,60,42,61l0.1,0.6c8.1-1,14.2-7.7,14.5-15.8H58c4.1,0,7.4-3.3,7.4-7.3v-3.5C65.4,31.6,63.2,28.7,60.1,27.8z
		 M16.1,30.1v13c0,0.3-0.1,0.6-0.4,0.7c-0.1,0.1-0.2,0.1-0.3,0.1h-3.2c-3.1,0-5.6-2.5-5.6-5.5v-3.5c0-2.7,2.1-5.1,4.8-5.4
		c0.3-0.1,0.5-0.1,0.8-0.1h3.2c0.1,0,0.1,0,0.2,0C15.9,29.5,16.1,29.7,16.1,30.1z M34.8,9.9c-10.2,0-18.7,7.6-19.9,17.6h-2.9
		c-0.2,0-0.4,0-0.6,0c1.3-11.8,11.3-21,23.3-21c12.1,0,22.2,9.2,23.3,21c-0.1,0-0.1,0-0.2,0h-3.2C53.5,17.6,44.9,9.9,34.8,9.9z
		 M63.5,38.3c0,3.1-2.5,5.5-5.5,5.5h-3.3c-0.1,0-0.1,0-0.2,0h-0.1c-0.3-0.1-0.5-0.4-0.5-0.7v-13c0-0.4,0.3-0.7,0.7-0.8H58
		c0.4,0,0.7,0,1,0.1c2.6,0.5,4.5,2.8,4.5,5.4V38.3z"/>
	<path class="st0" d="M39.3,65.4h-8.2c-2,0-3.6-1.6-3.6-3.6v-1c0-2,1.6-3.6,3.6-3.6h8.2c2,0,3.6,1.6,3.6,3.6v1
		C42.9,63.8,41.3,65.4,39.3,65.4z"/>
</g>
</svg>
