<?xml version="1.0" encoding="utf-8"?>
<!-- Generator: Adobe Illustrator 26.0.1, SVG Export Plug-In . SVG Version: 6.00 Build 0)  -->
<svg version="1.1" id="Layer_1" xmlns="http://www.w3.org/2000/svg" xmlns:xlink="http://www.w3.org/1999/xlink" x="0px" y="0px"
	 viewBox="0 0 1000 1000" style="enable-background:new 0 0 1000 1000;" xml:space="preserve">
<style type="text/css">
	.st0{fill:#004161;}
</style>
<g>
	<path class="st0" d="M500,10C229.8,10,10,229.8,10,500s219.8,490,490,490s490-219.8,490-490S770.2,10,500,10z M500,941.8
		C256.4,941.8,58.2,743.6,58.2,500S256.4,58.2,500,58.2S941.8,256.4,941.8,500S743.6,941.8,500,941.8z"/>
	<path class="st0" d="M444.6,310.2c-10.8-10.8-28.5-10.8-39.3,0c-10.8,10.8-10.8,28.5,0,39.3L555.9,500L405.4,650.4
		c-10.8,10.8-10.8,28.5,0,39.3c5.4,5.4,12.6,8.2,19.6,8.2c7.1,0,14.2-2.8,19.6-8.2l170.2-170.2c10.8-10.8,10.8-28.5,0-39.3
		L444.6,310.2z"/>
</g>
</svg>
