<?xml version="1.0" encoding="utf-8"?>
<!-- Generator: Adobe Illustrator 26.0.3, SVG Export Plug-In . SVG Version: 6.00 Build 0)  -->
<svg version="1.1" id="Layer_1" xmlns="http://www.w3.org/2000/svg" xmlns:xlink="http://www.w3.org/1999/xlink" x="0px" y="0px"
	 viewBox="0 0 30 30" style="enable-background:new 0 0 30 30;" xml:space="preserve">
<style type="text/css">
	.st0{fill:#004161;}
</style>
<g>
	<path class="st0" d="M24.1,19.2c-0.7,0-1.2-0.6-1.2-1.2c0-0.7,0.6-1.2,1.2-1.2c0.7,0,1.2,0.6,1.2,1.2
		C25.3,18.7,24.8,19.2,24.1,19.2z M24.1,17c-0.5,0-1,0.4-1,1c0,0.5,0.4,1,1,1c0.5,0,1-0.4,1-1C25.1,17.5,24.7,17,24.1,17z"/>
	<path class="st0" d="M5.9,21.1c-1.6,0-2.9-1.3-2.9-2.9c0-1.6,1.3-2.9,2.9-2.9c1.6,0,2.9,1.3,2.9,2.9C8.8,19.8,7.6,21.1,5.9,21.1z
		 M5.9,15.6c-1.5,0-2.6,1.2-2.6,2.6c0,1.5,1.2,2.6,2.6,2.6c1.5,0,2.6-1.2,2.6-2.6C8.6,16.8,7.4,15.6,5.9,15.6z"/>
	<path class="st0" d="M24.1,21c-1.7,0-3-1.4-3-3c0-0.6,0.2-1.2,0.5-1.7l0-0.1h0.1c1.3-0.1,2.6-0.4,3.8-1l0.1,0l0.1,0
		c1,0.5,1.6,1.6,1.6,2.7C27.1,19.7,25.8,21,24.1,21z M21.7,16.5c-0.3,0.4-0.4,0.9-0.4,1.5c0,1.5,1.3,2.8,2.8,2.8
		c1.5,0,2.8-1.3,2.8-2.8c0-1-0.5-1.9-1.4-2.4C24.3,16.1,23,16.5,21.7,16.5z"/>
	<path class="st0" d="M27.2,14.8C27.2,14.8,27.2,14.7,27.2,14.8c0-0.2-0.1-0.4-0.2-0.4c-0.9-0.7-1.9-1-2.9-1c-1.9,0-3.6,1.2-4.4,2.9
		c-0.1,0.1,0,0.3,0,0.4c0,0,0,0.1,0.1,0.1c-0.1,0.4-0.2,0.9-0.2,1.4c0,2.5,2,4.5,4.5,4.5s4.5-2,4.5-4.5
		C28.6,16.8,28.1,15.6,27.2,14.8z M24.2,14.2c0.7,0,1.4,0.2,1.9,0.5c-0.1,0-0.1,0.1-0.2,0.1c-0.1,0-0.1,0.1-0.2,0.1
		c-0.2,0.1-0.3,0.2-0.5,0.2c-0.1,0-0.2,0.1-0.3,0.1c-0.1,0.1-0.2,0.1-0.4,0.1c-0.1,0-0.1,0.1-0.2,0.1c-0.2,0.1-0.4,0.1-0.6,0.2
		c0,0-0.1,0-0.1,0c-0.2,0-0.3,0.1-0.5,0.1c0,0-0.1,0-0.1,0c-0.2,0-0.4,0.1-0.6,0.1c-0.1,0-0.1,0-0.2,0c-0.1,0-0.3,0-0.4,0
		c-0.1,0-0.2,0-0.2,0c-0.2,0-0.4,0-0.6,0c0,0-0.1,0-0.1,0c-0.1,0-0.2,0-0.2,0C21.5,14.9,22.8,14.2,24.2,14.2z M24.2,21.8
		c-2,0-3.7-1.7-3.7-3.7c0-0.4,0.1-0.8,0.2-1.2c0.1,0,0.3,0,0.4,0c0.2,0,0.4,0,0.6,0c0,0,0,0,0.1,0c0.1,0,0.2,0,0.3,0
		c0.1,0,0.3,0,0.4,0c0.1,0,0.1,0,0.2,0c0.2,0,0.4-0.1,0.6-0.1c0,0,0,0,0.1,0c0.2,0,0.4-0.1,0.6-0.1c0.1,0,0.1,0,0.2,0
		c0.2,0,0.3-0.1,0.5-0.2c0.1,0,0.1,0,0.2-0.1c0.2-0.1,0.4-0.1,0.6-0.2c0.1,0,0.2-0.1,0.3-0.1c0.1,0,0.1-0.1,0.2-0.1c0,0,0.1,0,0.1,0
		c0.1-0.1,0.2-0.1,0.4-0.2c0.1-0.1,0.2-0.1,0.3-0.2c0.1,0,0.1-0.1,0.2-0.1c0.8,0.7,1.2,1.7,1.2,2.7C27.8,20.1,26.2,21.8,24.2,21.8z"
		/>
	<path class="st0" d="M21.4,14c0.8-0.5,1.8-0.9,2.8-1c0.4,0,0.8-0.2,1-0.5l0.1-0.1c0.5-1.6-2.1-4-3.2-4.9c-0.1-0.1-0.3-0.2-0.5-0.1
		l-2.1,0.2c-0.3,0-0.5,0.2-0.6,0.5c-0.1,0.3,0,0.5,0.2,0.7l2.1,1.9c0.1,0.1,0.2,0.2,0.1,0.4c0,0.1-0.1,0.3-0.2,0.3L21,11.3
		c0-0.2-0.1-0.3-0.2-0.4c-0.8-1.1-2-1.6-3.4-1.6h-3c-1.3,0-2.4,0.8-2.7,2c0,0.1-0.1,0.1-0.2,0.1H10c-0.1,0-0.1,0-0.1-0.1L7.4,9.2
		C7.2,9,6.9,8.9,6.7,8.9H3.6C3.3,8.9,3.1,9,2.9,9.2C2.7,9.4,2.6,9.7,2.6,10c0,0.4,0.2,0.7,0.5,0.9l3.7,2.4c0.2,0.1,0.4,0.2,0.5,0.2
		h1.8c0,0,0.1,0,0.1,0c0.3,0.1,1.1,0.5,1.7,1.4l-1.4,0.6c-0.8-1.1-2.1-1.7-3.6-1.7c-2.4,0-4.5,2-4.5,4.5c0,2.5,2,4.5,4.5,4.5
		c2.4,0,4.3-1.8,4.5-4.1l0.7-0.1L11,18.7v0.9c0,0.6,0.4,1.1,0.9,1.1h5.8c0.3,0,0.6-0.1,0.8-0.3c0.2-0.2,0.3-0.5,0.3-0.8v-0.4
		c0-1.7,0.7-3.4,1.9-4.5C20.9,14.4,21.2,14.2,21.4,14z M9.6,12.7c-0.1-0.1-0.3-0.1-0.4-0.1H7.4c0,0-0.1,0-0.1,0l-3.8-2.4
		c-0.1,0-0.1-0.1-0.1-0.2c0-0.1,0-0.1,0.1-0.2c0,0,0.1,0,0.1,0h3.1c0.1,0,0.1,0,0.1,0.1l2.5,2.1c0.2,0.2,0.4,0.2,0.6,0.2h1.5
		c0.5,0,0.8-0.3,1-0.7c0.3-0.9,1.1-1.5,1.9-1.5h3c1.1,0,2.1,0.5,2.7,1.4c0,0.1,0,0.1,0,0.2c0,0.1-0.1,0.1-0.1,0.2L14,14.2
		c-0.1,0-0.2,0.1-0.3,0.2c0,0-0.1,0-0.1,0.1c-0.1,0-0.1,0.1-0.2,0.1c0,0-0.1,0.1-0.1,0.1c0,0.1-0.1,0.1-0.1,0.2c0,0-0.1,0.1-0.1,0.1
		c0,0,0,0.1-0.1,0.1c0,0,0,0,0,0h0c0,0-0.1,0-0.1,0h0c0,0-0.1,0-0.1,0c0,0,0,0,0,0c0,0-0.1,0-0.1,0c0,0,0,0-0.1,0c0,0-0.1,0-0.1,0
		h-0.1c0,0-0.1,0-0.1,0C12.1,15.1,12,15,12,14.9c0-0.1-0.1-0.1-0.1-0.2l-0.2-0.3C11,13.4,10,12.9,9.6,12.7z M5.9,22
		c-2,0-3.7-1.7-3.7-3.7c0-2,1.7-3.7,3.7-3.7c1.1,0,2.1,0.5,2.8,1.3l-2.4,1.1c-0.6,0.2-1,0.8-0.8,1.5c0.1,0.5,0.6,0.9,1.2,0.9h0
		l2.9-0.4C9.4,20.6,7.8,22,5.9,22z M9.6,17.9L9,18l-2.3,0.4c-0.2,0-0.3-0.1-0.4-0.3c-0.1-0.2,0.1-0.4,0.3-0.5l2-0.9l0.6-0.3
		C9.4,16.9,9.6,17.4,9.6,17.9z M10.5,17.8c-0.1-0.6-0.2-1.2-0.5-1.7l0.4-0.2l1.1-0.5c0,0,0,0.1,0.1,0.1c0.1,0.2,0.3,0.3,0.5,0.4
		c0.1,0,0.1,0,0.2,0c0,0,0,0,0.1,0h0.4c0,0,0.1,0,0.1,0h0v0c0,0,0,0.1,0,0.1c0,0.1-0.1,0.2-0.1,0.3c0,0,0,0.1,0,0.1
		c0,0.1-0.1,0.2-0.1,0.2c0,0,0,0.1-0.1,0.1c-0.1,0.1-0.1,0.2-0.2,0.3c-0.1,0.1-0.2,0.3-0.3,0.4l0,0L10.5,17.8z M20.2,14.1
		c-1.4,1.3-2.2,3.1-2.2,5.1c-0.1,0.1-0.1,0.2-0.1,0.4c0,0.1,0,0.1-0.1,0.2c-0.1,0.1-0.1,0.1-0.2,0.1h-5.8c0,0-0.1,0-0.1-0.3v-0.5
		c0.2-0.2,0.4-0.4,0.5-0.6c0.1-0.1,0.1-0.2,0.2-0.3c0.2-0.2,0.3-0.4,0.4-0.6c0.3-0.5,0.5-1.2,0.7-1.8c0-0.1,0-0.2,0.1-0.3
		c0.1-0.3,0.3-0.5,0.6-0.6l7.2-3c0.4-0.2,0.6-0.5,0.7-0.9c0.1-0.4-0.1-0.8-0.4-1.1l-1.9-1.7l1.8-0.2c1.6,1.3,3.1,3,2.9,4
		c-0.1,0.1-0.3,0.2-0.4,0.2c-1.2,0.1-2.2,0.5-3.2,1.1C20.8,13.6,20.4,13.8,20.2,14.1z"/>
</g>
</svg>
