<?xml version="1.0" encoding="utf-8"?>
<!-- Generator: Adobe Illustrator 25.2.1, SVG Export Plug-In . SVG Version: 6.00 Build 0)  -->
<svg version="1.1" id="Layer_1" xmlns="http://www.w3.org/2000/svg" xmlns:xlink="http://www.w3.org/1999/xlink" x="0px" y="0px"
	 viewBox="0 0 70 70" style="enable-background:new 0 0 70 70;" xml:space="preserve">
<style type="text/css">
	.office{fill:#F2F2F2;}
</style>
<path class="office" d="M62.9,58.5h-5.7v-2.1h5.2c0.3,0,0.5-0.1,0.6-0.3c0.1-0.2,0.1-0.4,0-0.7l-2.7-4.3h0.8c0.3,0,0.5-0.1,0.6-0.3
	c0.1-0.2,0.1-0.4,0-0.7l-2.3-3.8h0.5c0.3,0,0.5-0.1,0.6-0.3c0.1-0.2,0.1-0.4,0-0.6l-3-4.9c-0.1-0.2-0.4-0.3-0.6-0.3
	c-0.3,0-0.5,0.1-0.6,0.3l-3,4.9c-0.1,0.2-0.1,0.5,0,0.7c0.1,0.2,0.4,0.3,0.6,0.3h0.5l-2.3,3.8c-0.1,0.2-0.1,0.4,0,0.6
	c0.1,0.2,0.4,0.3,0.6,0.3h0.8l-2.7,4.3c-0.1,0.2-0.1,0.5,0,0.7c0.1,0.2,0.4,0.3,0.6,0.3h5.2v2.1h-9V13.4c1.3,0,2.3-0.9,2.3-2.1V9.7
	c0-1.1-1-2.1-2.3-2.1H22.1c-1.3,0-2.3,0.9-2.3,2.1v1.6c0,1.1,1,2.1,2.3,2.1v45.1h-9v-2.1h5.2c0.3,0,0.5-0.1,0.6-0.3
	c0.1-0.2,0.1-0.4,0-0.6l-2.7-4.3H17c0.3,0,0.5-0.1,0.6-0.3c0.1-0.2,0.1-0.4,0-0.7l-2.3-3.8h0.5c0.3,0,0.5-0.1,0.6-0.3
	c0.1-0.2,0.1-0.4,0-0.7l-3-4.9c-0.1-0.2-0.4-0.3-0.6-0.3c-0.3,0-0.5,0.1-0.6,0.3l-3,4.9c-0.1,0.2-0.1,0.5,0,0.7
	c0.1,0.2,0.4,0.3,0.6,0.3h0.5L8,50.2c-0.1,0.2-0.1,0.5,0,0.7c0.1,0.2,0.4,0.3,0.6,0.3h0.8l-2.6,4.2c-0.1,0.2-0.1,0.5,0,0.7
	c0.1,0.2,0.4,0.3,0.6,0.3h5.2v2.1H6.7c-0.5,0-0.9,0.4-0.9,0.8c0,0.4,0.4,0.7,0.9,0.7h16.4h23.7H63c0.5,0,0.9-0.4,0.9-0.8
	C63.8,58.8,63.4,58.5,62.9,58.5z M51.3,55.8L51.3,55.8l2.9-4.8c0-0.1,0-0.2,0-0.3c-0.1-0.1-0.1-0.1-0.2-0.1h-1.3
	c-0.1,0-0.1-0.1-0.1-0.1v-0.1l2.6-4.2c0.1-0.1,0.1-0.2,0-0.3c0-0.1-0.1-0.1-0.2-0.1h-0.9c-0.1,0-0.1,0-0.1-0.1v-0.1l3-4.9
	c0-0.1,0.1-0.1,0.1-0.1s0.1,0,0.1,0.1l3,4.9c0,0.1,0,0.1,0,0.1l-0.1,0.1h-1c-0.1,0-0.2,0.1-0.2,0.1c0,0.1,0,0.2,0,0.3l2.6,4.2
	c0,0.1,0,0.1,0,0.1l-0.1,0.1h-1.3c-0.1,0-0.2,0.1-0.2,0.1c0,0.1,0,0.2,0,0.3l2.9,4.7c0,0.1,0,0.1,0,0.2L62.7,56h-11
	C51.4,55.9,51.3,55.8,51.3,55.8z M7.3,55.8L7.3,55.8l2.9-4.8c0.1-0.1,0.1-0.2,0-0.3c0-0.1-0.1-0.1-0.2-0.1H8.6c-0.1,0-0.1,0-0.1-0.1
	v-0.1l2.6-4.2c0-0.1,0-0.2,0-0.3c-0.1-0.1-0.1-0.1-0.2-0.1H10c-0.1,0-0.1-0.1-0.1-0.1v-0.1l3-4.9c0-0.1,0.1-0.1,0.1-0.1
	s0.1,0,0.1,0.1l3,4.9c0,0.1,0,0.1,0,0.2L16,45.9h-1c-0.1,0-0.2,0.1-0.2,0.1c0,0.1,0,0.2,0,0.3l2.6,4.2c0,0.1,0,0.1,0,0.2l-0.1,0.1
	h-1.5c-0.1,0-0.2,0.1-0.2,0.1c0,0.1,0,0.2,0,0.3l2.9,4.7c0,0.1,0,0.1,0,0.1l-0.1,0.1h-11C7.3,55.9,7.3,55.8,7.3,55.8z M22.1,11.8
	c-0.3,0-0.5-0.2-0.5-0.5V9.7c0-0.3,0.2-0.5,0.5-0.5h25.5c0.3,0,0.5,0.2,0.5,0.5v1.6c0,0.3-0.2,0.5-0.5,0.5h-0.9H23H22.1z M23.9,58.5
	V13.4h21.9v45.1H23.9z"/>
<path class="office" d="M30.5,16.7c-1.7,0-3,1.2-3,2.8v3.7c0,0.1,0.1,0.3,0.3,0.3h5.5c0.2,0,0.3-0.1,0.3-0.3v-3.7
	C33.5,18,32.2,16.7,30.5,16.7z M33,22.9h-5v-3.4c0-1.2,1.1-2.2,2.5-2.2c1.4,0,2.5,1,2.5,2.2V22.9z"/>
<path class="office" d="M39.6,16.7c-1.7,0-3,1.2-3,2.8v3.7c0,0.1,0.1,0.3,0.3,0.3h5.5c0.2,0,0.3-0.1,0.3-0.3v-3.7
	C42.6,18,41.3,16.7,39.6,16.7z M42.1,22.9h-5v-3.4c0-1.2,1.1-2.2,2.5-2.2c1.4,0,2.5,1,2.5,2.2V22.9z"/>
<path class="office" d="M30.5,26.9c-1.7,0-3,1.2-3,2.8v3.7c0,0.1,0.1,0.3,0.3,0.3h5.5c0.2,0,0.3-0.1,0.3-0.3v-3.7
	C33.5,28.2,32.2,26.9,30.5,26.9z M33,33.1h-5v-3.4c0-1.2,1.1-2.2,2.5-2.2c1.4,0,2.5,1,2.5,2.2V33.1z"/>
<path class="office" d="M39.6,26.9c-1.7,0-3,1.2-3,2.8v3.7c0,0.1,0.1,0.3,0.3,0.3h5.5c0.2,0,0.3-0.1,0.3-0.3v-3.7
	C42.6,28.2,41.3,26.9,39.6,26.9z M42.1,33.1h-5v-3.4c0-1.2,1.1-2.2,2.5-2.2c1.4,0,2.5,1,2.5,2.2V33.1z"/>
<path class="office" d="M30.5,36.9c-1.7,0-3,1.2-3,2.8v3.7c0,0.1,0.1,0.3,0.3,0.3h5.5c0.2,0,0.3-0.1,0.3-0.3v-3.7
	C33.5,38.1,32.2,36.9,30.5,36.9z M33,43.1h-5v-3.4c0-1.2,1.1-2.2,2.5-2.2c1.4,0,2.5,1,2.5,2.2V43.1z"/>
<path class="office" d="M39.6,36.9c-1.7,0-3,1.2-3,2.8v3.7c0,0.1,0.1,0.3,0.3,0.3h5.5c0.2,0,0.3-0.1,0.3-0.3v-3.7
	C42.6,38.1,41.3,36.9,39.6,36.9z M42.1,43.1h-5v-3.4c0-1.2,1.1-2.2,2.5-2.2c1.4,0,2.5,1,2.5,2.2V43.1z"/>
<path class="office" d="M30.5,46.9c-1.7,0-3,1.2-3,2.8v3.7c0,0.1,0.1,0.3,0.3,0.3h5.5c0.2,0,0.3-0.1,0.3-0.3v-3.7
	C33.5,48.1,32.2,46.9,30.5,46.9z M33,53.1h-5v-3.4c0-1.2,1.1-2.2,2.5-2.2c1.4,0,2.5,1,2.5,2.2V53.1z"/>
<path class="office" d="M39.6,46.9c-1.7,0-3,1.2-3,2.8v3.7c0,0.1,0.1,0.3,0.3,0.3h5.5c0.2,0,0.3-0.1,0.3-0.3v-3.7
	C42.6,48.1,41.3,46.9,39.6,46.9z M42.1,53.1h-5v-3.4c0-1.2,1.1-2.2,2.5-2.2c1.4,0,2.5,1,2.5,2.2V53.1z"/>
</svg>
