<?xml version="1.0" encoding="utf-8"?>
<!-- Generator: Adobe Illustrator 25.2.1, SVG Export Plug-In . SVG Version: 6.00 Build 0)  -->
<svg version="1.1" id="Layer_1" xmlns="http://www.w3.org/2000/svg" xmlns:xlink="http://www.w3.org/1999/xlink" x="0px" y="0px"
	 viewBox="0 0 70 70" style="enable-background:new 0 0 70 70;" xml:space="preserve">
<style type="text/css">
	.st0{fill-rule:evenodd;clip-rule:evenodd;fill:none;stroke:#000000;stroke-miterlimit:10;}
</style>
<g>
	<path class="st0" d="M35.1,33.1c-1.3-2.2-4-2.9-6.2-1.6c-1,0.5-1.7,1.4-2.2,2.4c-4-2.3-6.7-6.2-7.7-10.3c1.3-0.3,2.8-0.4,4.3-0.4
		c3-0.1,5.9,0.9,8.4,2.4c1,0.6,1.8,1.3,2.7,2c0.3,0.4,0.5,0.7,0.7,1C35.9,29.9,36,31.6,35.1,33.1 M43.9,38.5
		c3.8-1.7,7.3-5.2,9.6-9.2c1.6-2.9,2.5-5.9,2.7-9c-6-2.9-13.5-2.9-19.8,0.8c-0.5,0.3-1,0.6-1.4,1c-3.3-2.4-7.5-3.8-11.9-3.8
		c-3.3,0-6.5,0.8-9.2,2.1v0.2c0.5,6.7,4.1,13,10.5,16.7c0.5,0.3,1,0.6,1.4,0.8c-0.3,4.1,0.6,8.4,2.9,12.2c1.6,2.9,3.8,5.2,6.4,7
		c5.7-3.8,9.4-10.3,9.4-17.6c0-0.5,0-1.1-0.2-1.6 M35.6,33.5c-1.3,2.2-0.5,4.9,1.7,6.2c1,0.6,2.1,0.8,3.2,0.6
		c0,4.6-1.9,8.9-4.9,11.9c-1-1-1.7-2.2-2.5-3.5c-1.6-2.5-2.2-5.6-2.2-8.4c0-1.1,0.2-2.2,0.3-3.3c0.2-0.5,0.3-0.8,0.5-1.1
		C32.5,34.5,33.9,33.5,35.6,33.5 M35.6,33.7c2.5-0.4,4.2-2.6,3.8-5.2c-0.1-1.1-0.6-2.1-1.4-2.9c3.6-2.8,8.2-3.9,12.4-3.4
		c-0.2,1.3-0.7,2.7-1.2,4.1c-1,2.8-3,5.2-5.3,6.9C43,33.9,42,34.5,41.1,35c-0.5,0.2-0.8,0.2-1.2,0.3C38.3,35.6,36.6,35.1,35.6,33.7"
		/>
	<path class="st0" d="M25.2,66C13.1,64.7,3.4,55.2,2.8,43.1c0-2.4-0.2-4.8-0.2-7.1c0-0.6,0-1.3,0-1.9c0-2.4,0.2-4.8,0.2-7.1
		C3.4,14.8,13.1,5.3,25.2,4c3.3-0.2,6.5-0.3,9.7-0.3c3.3,0,6.5,0.2,9.7,0.3c12.1,1.3,21.7,10.8,22.4,22.9c0.2,2.4,0.2,4.8,0.3,7.1
		c0,0.6,0,1.3,0,1.9c0,2.4-0.2,4.8-0.3,7.1C66.3,55.2,56.6,64.7,44.5,66c-3.2,0.2-6.3,0.3-9.7,0.3C31.7,66.3,28.5,66.1,25.2,66
		 M34.9,61.8c3.3,0,6.5-0.2,9.7-0.5c9.7-0.8,17.3-8.6,17.9-18.3c0.2-2.4,0.2-4.8,0.2-7.1c0-0.6,0-1.3,0-1.9c0-2.4,0-4.8-0.2-7.1
		c-0.6-9.7-8.3-17.3-17.9-18.3c-3.2-0.3-6.3-0.5-9.7-0.5c-3.2,0-6.5,0.2-9.7,0.5c-9.5,1-17.1,8.6-17.8,18.3
		c-0.2,2.4-0.3,4.8-0.3,7.1c0,0.6,0,1.3,0,1.9c0,2.4,0.2,4.8,0.3,7.1c0.6,9.7,8.3,17.5,17.8,18.3C28.4,61.7,31.7,61.8,34.9,61.8"/>
</g>
</svg>
