<?xml version="1.0" encoding="utf-8"?>
<!-- Generator: Adobe Illustrator 25.2.1, SVG Export Plug-In . SVG Version: 6.00 Build 0)  -->
<svg version="1.1" id="Layer_1" xmlns="http://www.w3.org/2000/svg" xmlns:xlink="http://www.w3.org/1999/xlink" x="0px" y="0px"
	 viewBox="0 0 70 70" style="enable-background:new 0 0 70 70;" xml:space="preserve">
<style type="text/css">
	.st0{fill:#004161;}
	.st1{fill-rule:evenodd;clip-rule:evenodd;fill:#004161;}
</style>
<g>
	<path class="st0" d="M32,38.9c0,6.2,5.1,11.4,11.4,11.4c6.2,0,11.4-5.1,11.4-11.4c0-6.2-5.1-11.5-11.4-11.5
		C37.1,27.4,32,32.5,32,38.9z M54,38.9c0,5.9-4.8,10.6-10.6,10.6c-5.9,0-10.6-4.8-10.6-10.6c0-5.9,4.8-10.7,10.6-10.7
		C49.2,28.1,54,33,54,38.9z"/>
	<path class="st0" d="M16.1,17.5H32c0.2,0,0.4-0.2,0.4-0.4c0-0.2-0.2-0.4-0.4-0.4H16.1c-0.2,0-0.4,0.2-0.4,0.4
		C15.7,17.3,15.9,17.5,16.1,17.5z"/>
	<path class="st0" d="M68.2,58.5L60,50.2c-0.6-0.6-1.4-0.6-2,0l-1,1.1l-1-1c2.8-3.1,4.5-7.1,4.5-11.6c0-6.1-3.3-11.5-8.1-14.4v-8.9
		c0-0.7-0.3-1.5-0.8-2l-8-7.9C43,5,42.3,4.8,41.6,4.8H10.6C8.6,4.8,7,6.3,7,8.4v52.8c0,2,1.6,3.6,3.6,3.6h38.1c2,0,3.6-1.6,3.6-3.6
		v-7.9c0.7-0.5,1.3-0.8,2-1.4l1,1l-1.1,1.1c-0.6,0.6-0.6,1.4,0,2l8.3,8.3c0.6,0.6,1.4,0.9,2.1,0.9c0.7,0,1.6-0.3,2.1-0.9l1.4-1.4
		C69.5,61.7,69.5,59.7,68.2,58.5z M58.6,38.9c0,8.4-6.8,15.2-15.2,15.2c-8.4,0-15.2-6.8-15.2-15.2c0-8.4,6.8-15.2,15.2-15.2
		C51.8,23.7,58.6,30.5,58.6,38.9z M49.1,13.7h-5.7c-0.1,0-0.1,0-0.2-0.1c0,0-0.1-0.1-0.1-0.2V7.8L49.1,13.7z M50.4,61.2
		c0,0.9-0.7,1.8-1.8,1.8h-38c-0.9,0-1.8-0.7-1.8-1.8V8.4c0-1,0.7-1.8,1.8-1.8h30.8v6.9c0,0.6,0.2,1.1,0.7,1.5
		c0.5,0.4,0.9,0.6,1.5,0.6h7v7.7c-2.1-1-4.6-1.6-7.1-1.6c-3,0-5.8,0.7-8.2,2.1H16.1c-0.2,0-0.4,0.2-0.4,0.4c0,0.2,0.2,0.4,0.4,0.4
		h17.9c-2.4,1.6-4.4,3.8-5.7,6.3H16.1c-0.2,0-0.4,0.2-0.4,0.4c0,0.2,0.2,0.4,0.4,0.4h11.8c-0.9,2.1-1.5,4.3-1.6,6.7H16.1
		c-0.2,0-0.4,0.2-0.4,0.4s0.2,0.4,0.4,0.4h10.3c0,2.4,0.6,4.7,1.5,6.7H16.1c-0.2,0-0.4,0.2-0.4,0.4s0.2,0.4,0.4,0.4h12.1
		c1.1,2.1,2.7,4.1,4.6,5.6h-7.4c-0.2,0-0.4,0.2-0.4,0.4s0.2,0.4,0.4,0.4h8.4c2.7,1.9,6.1,3,9.6,3c2.5,0,4.9-0.6,7.1-1.6V61.2z
		 M54.8,51.5c0.2-0.2,0.4-0.4,0.6-0.5l1,1l-0.6,0.6L54.8,51.5z M66.9,61.6L65.5,63c-0.5,0.5-1.2,0.5-1.7,0l-8-7.9l3.2-3.2l7.9,7.9
		C67.4,60.3,67.4,61.1,66.9,61.6z"/>
	<path class="st1" d="M43.3,48.5c5.3,0,9.6-4.3,9.6-9.6c0-5.3-4.3-9.6-9.6-9.6s-9.6,4.3-9.6,9.6C33.7,44.2,38,48.5,43.3,48.5z
		 M43.3,50.6c6.4,0,11.7-5.2,11.7-11.7s-5.2-11.7-11.7-11.7s-11.7,5.2-11.7,11.7S36.8,50.6,43.3,50.6z"/>
</g>
</svg>
