<?xml version="1.0" encoding="utf-8"?>
<!-- Generator: Adobe Illustrator 25.2.1, SVG Export Plug-In . SVG Version: 6.00 Build 0)  -->
<svg version="1.1" id="Layer_1" xmlns="http://www.w3.org/2000/svg" xmlns:xlink="http://www.w3.org/1999/xlink" x="0px" y="0px"
	 viewBox="0 0 70 70" style="enable-background:new 0 0 70 70;" xml:space="preserve">
<style type="text/css">
	.plane{fill:#004161;}
</style>
<path class="plane" d="M67.2,39.9l-4-2.2v-3.4c0-1.4-1.1-2.5-2.5-2.5c-0.7,0-1.3,0.3-1.7,0.7c-0.5,0.5-0.7,1.1-0.7,1.7v0.9l-4.4-2.4
	v-3.6c0-1.4-1.1-2.5-2.5-2.5c-0.6,0-1.3,0.3-1.7,0.7C49.2,27.8,49,28.4,49,29v1l-7.2-3.7l0.4-11.7c0-0.5-0.1-1-0.3-1.5l-3.4-8.6
	c-0.6-1.4-1.9-2.4-3.5-2.4c-1.5,0-2.9,0.9-3.5,2.3l-3.4,8.5c-0.2,0.5-0.3,1-0.3,1.5l0.4,11.9l-7,3.8v-1c0-0.7-0.3-1.3-0.7-1.7
	c-0.5-0.5-1.1-0.7-1.7-0.7c-1.4,0-2.5,1.1-2.5,2.5v3.6l-4.5,2.4v-0.9c0-0.7-0.3-1.3-0.7-1.7c-0.5-0.5-1.1-0.7-1.7-0.7
	c-1.4,0-2.5,1.1-2.5,2.5v3.5l-4,2.2c-1.1,0.6-1.7,1.7-1.7,2.9v4.8c0,1.1,0.5,2.1,1.4,2.7c0.6,0.4,1.2,0.6,1.9,0.6
	c0.4,0,0.8-0.1,1.1-0.2l7.5-4l15.7-5.6l0.3,9.9l-6.3,4.1c-1.7,1.1-2.7,3-2.7,5v2.2c0,0.6,0.3,1.1,0.7,1.5c0.3,0.2,0.7,0.4,1.1,0.4
	c0.2,0,0.3,0,0.5-0.1l8.4-2.3c0.7,0.8,1.6,1.3,2.6,1.6v3.3c0,0.9,0.7,1.6,1.6,1.6c0.9,0,1.6-0.7,1.6-1.6v-3.4c1-0.3,1.9-0.9,2.6-1.6
	l8.5,2.3c0.2,0,0.3,0.1,0.5,0.1c0.4,0,0.8-0.1,1.1-0.4c0.5-0.4,0.7-0.9,0.7-1.5v-2.2c0-2-1-3.9-2.7-5L40.9,51l0.3-9.5l17.9,6.4
	l5.2,2.8l0.1,0.1c0.4,0.1,0.7,0.2,1.1,0.2c0.7,0,1.3-0.2,1.9-0.6c0.9-0.6,1.4-1.6,1.4-2.7v-4.8C68.9,41.6,68.2,40.5,67.2,39.9z
	 M58.9,34.3c0-0.5,0.2-0.9,0.5-1.3c0.3-0.3,0.8-0.5,1.3-0.5c1,0,1.8,0.8,1.8,1.8v3.1l-3.6-1.9V34.3z M49.5,29.1
	c0-0.5,0.2-0.9,0.5-1.3c0.3-0.3,0.8-0.5,1.3-0.5c1,0,1.8,0.8,1.8,1.8v3.3l-3.6-1.9V29.1z M16.9,29.1c0-1,0.8-1.8,1.8-1.8
	c0.5,0,0.9,0.2,1.3,0.5c0.3,0.3,0.5,0.8,0.5,1.3v1.3l-3.6,1.9V29.1z M7.6,34.3c0-1,0.8-1.8,1.8-1.8c0.5,0,0.9,0.2,1.3,0.5
	c0.3,0.3,0.5,0.8,0.5,1.3v1.2l-3.6,1.9V34.3z M3.2,42.8c0-0.5,0.3-0.9,0.7-1.1l24.4-13.1l0.2,7.5L4.8,48.8c-0.4,0.1-0.8,0.1-1.1-0.2
	c-0.3-0.2-0.5-0.6-0.5-1V42.8z M16.9,44.6l11.7-6.3l0.1,2.1L16.9,44.6z M23.9,56.8l5.1-3.3l0.1,3.4l-7,4.4v-1.2
	C22.1,58.8,22.7,57.6,23.9,56.8z M22.1,62.1l7-4.4c0,0.8,0.2,1.6,0.6,2.3L22.1,62.1z M36,66.8c0,0.5-0.4,1-1,1c-0.5,0-1-0.4-1-1
	v-3.2c0.3,0.1,0.6,0.1,1,0.1c0.3,0,0.7,0,1-0.1V66.8z M36,61.5c-0.3,0.1-0.6,0.1-1,0.1c-0.3,0-0.6-0.1-1-0.1v-5.7c0-0.5,0.4-1,1-1
	c0.5,0,1,0.4,1,1V61.5z M35,54.2c-0.9,0-1.6,0.7-1.6,1.6v5.5c-0.1-0.1-0.3-0.1-0.4-0.2L32.1,60c-0.2-0.2-0.3-0.5-0.5-0.7
	c-0.1-0.4-0.2-0.8-0.3-1.2l-1.5-43.7c0-0.2,0-0.5,0.1-0.7l3.4-8.5c0.3-0.6,0.9-1.1,1.6-1.1c0.7,0,1.3,0.4,1.6,1.1l3.4,8.6
	C40,14,40,14.3,40,14.5l-1.5,43.6c0,0.5-0.1,0.9-0.3,1.3c-0.1,0.2-0.3,0.4-0.4,0.6L37,61c-0.2,0.1-0.4,0.2-0.5,0.3v-5.4
	C36.6,54.9,35.9,54.2,35,54.2z M40.3,60c0.3-0.7,0.5-1.5,0.6-2.2l7.1,4.4L40.3,60z M46.2,56.8c1.1,0.7,1.8,2,1.8,3.3v1.2L41,57
	l0.1-3.5L46.2,56.8z M41.3,40.8l0.1-2.5l14,7.5L41.3,40.8z M66.9,47.6c0,0.4-0.2,0.8-0.5,1c-0.3,0.2-0.7,0.3-1.1,0.2L41.6,36.1
	l0.2-7.5l24.5,13.1c0.4,0.2,0.6,0.6,0.6,1.1V47.6z"/>
<path class="plane" d="M38.1,13.6c0.2-0.2,0.2-0.5,0.1-0.8l-0.8-2c-0.1-0.3-0.4-0.5-0.8-0.5h-3.3c-0.3,0-0.6,0.2-0.8,0.5l-0.8,2
	c-0.1,0.3-0.1,0.5,0.1,0.8c0.2,0.2,0.4,0.4,0.7,0.4h4.8C37.7,13.9,38,13.8,38.1,13.6z M32.4,13.2c0,0,0-0.1,0-0.2l0.8-2
	c0-0.1,0.1-0.1,0.2-0.1h3.3c0.1,0,0.2,0,0.2,0.1l0.8,2c0,0.1,0,0.1,0,0.2c0,0-0.1,0.1-0.2,0.1h-4.8C32.5,13.3,32.4,13.2,32.4,13.2z"
	/>
</svg>
