<?xml version="1.0" encoding="utf-8"?>
<!-- Generator: Adobe Illustrator 25.2.1, SVG Export Plug-In . SVG Version: 6.00 Build 0)  -->
<svg version="1.1" id="Layer_1" xmlns="http://www.w3.org/2000/svg" xmlns:xlink="http://www.w3.org/1999/xlink" x="0px" y="0px"
	 viewBox="0 0 70 70" style="enable-background:new 0 0 70 70;" xml:space="preserve">
<style type="text/css">
	.st0{fill:#FFFFFF;stroke:#FFFFFF;stroke-miterlimit:10;}
</style>
<path class="st0" d="M67.2,39.9l-4-2.2v-3.4c0-1.4-1.1-2.5-2.5-2.5c-0.7,0-1.3,0.3-1.7,0.7c-0.5,0.5-0.7,1.1-0.7,1.7v0.9l-4.4-2.4
	v-3.6c0-1.4-1.1-2.5-2.5-2.5c-0.6,0-1.3,0.3-1.7,0.7C49.2,27.8,49,28.4,49,29v1l-7.2-3.7l0.4-11.7c0-0.5-0.1-1-0.3-1.5l-3.4-8.6
	c-0.6-1.4-1.9-2.4-3.5-2.4c-1.5,0-2.9,0.9-3.5,2.3l-3.4,8.5c-0.2,0.5-0.3,1-0.3,1.5l0.4,11.9l-7,3.8v-1c0-0.7-0.3-1.3-0.7-1.7
	c-0.5-0.5-1.1-0.7-1.7-0.7c-1.4,0-2.5,1.1-2.5,2.5v3.6l-4.5,2.4v-0.9c0-0.7-0.3-1.3-0.7-1.7c-0.5-0.5-1.1-0.7-1.7-0.7
	c-1.4,0-2.5,1.1-2.5,2.5v3.5l-4,2.2c-1.1,0.6-1.7,1.7-1.7,2.9v4.8c0,1.1,0.5,2.1,1.4,2.7c0.6,0.4,1.2,0.6,1.9,0.6
	c0.4,0,0.8-0.1,1.1-0.2l7.5-4l15.7-5.6l0.3,9.9l-6.3,4.1c-1.7,1.1-2.7,3-2.7,5v2.2c0,0.6,0.3,1.1,0.7,1.5c0.3,0.2,0.7,0.4,1.1,0.4
	c0.2,0,0.3,0,0.5-0.1l8.4-2.3c0.7,0.8,1.6,1.3,2.6,1.6v3.3c0,0.9,0.7,1.6,1.6,1.6c0.9,0,1.6-0.7,1.6-1.6v-3.4c1-0.3,1.9-0.9,2.6-1.6
	l8.5,2.3c0.2,0,0.3,0.1,0.5,0.1c0.4,0,0.8-0.1,1.1-0.4c0.5-0.4,0.7-0.9,0.7-1.5v-2.2c0-2-1-3.9-2.7-5L40.9,51l0.3-9.5l17.9,6.4
	l5.2,2.8l0.1,0.1c0.4,0.1,0.7,0.2,1.1,0.2c0.7,0,1.3-0.2,1.9-0.6c0.9-0.6,1.4-1.6,1.4-2.7v-4.8C68.9,41.6,68.2,40.5,67.2,39.9z
	 M58.9,34.3c0-0.5,0.2-0.9,0.5-1.3c0.3-0.3,0.8-0.5,1.3-0.5c1,0,1.8,0.8,1.8,1.8v3.1l-3.6-1.9V34.3z M49.5,29.1
	c0-0.5,0.2-0.9,0.5-1.3c0.3-0.3,0.8-0.5,1.3-0.5c1,0,1.8,0.8,1.8,1.8v3.3l-3.6-1.9V29.1z M16.9,29.1c0-1,0.8-1.8,1.8-1.8
	c0.5,0,0.9,0.2,1.3,0.5c0.3,0.3,0.5,0.8,0.5,1.3v1.3l-3.6,1.9C16.9,32.3,16.9,29.1,16.9,29.1z M7.6,34.3c0-1,0.8-1.8,1.8-1.8
	c0.5,0,0.9,0.2,1.3,0.5c0.3,0.3,0.5,0.8,0.5,1.3v1.2l-3.6,1.9V34.3z M3.2,42.8c0-0.5,0.3-0.9,0.7-1.1l24.4-13.1l0.2,7.5L4.8,48.8
	c-0.4,0.1-0.8,0.1-1.1-0.2c-0.3-0.2-0.5-0.6-0.5-1C3.2,47.6,3.2,42.8,3.2,42.8z M16.9,44.6l11.7-6.3l0.1,2.1L16.9,44.6z M23.9,56.8
	l5.1-3.3l0.1,3.4l-7,4.4v-1.2C22.1,58.8,22.7,57.6,23.9,56.8z M22.1,62.1l7-4.4c0,0.8,0.2,1.6,0.6,2.3L22.1,62.1z M36,66.8
	c0,0.5-0.4,1-1,1c-0.5,0-1-0.4-1-1v-3.2c0.3,0.1,0.6,0.1,1,0.1c0.3,0,0.7,0,1-0.1V66.8z M36,61.5c-0.3,0.1-0.6,0.1-1,0.1
	c-0.3,0-0.6-0.1-1-0.1v-5.7c0-0.5,0.4-1,1-1c0.5,0,1,0.4,1,1V61.5z M35,54.2c-0.9,0-1.6,0.7-1.6,1.6v5.5c-0.1-0.1-0.3-0.1-0.4-0.2
	L32.1,60c-0.2-0.2-0.3-0.5-0.5-0.7c-0.1-0.4-0.2-0.8-0.3-1.2l-1.5-43.7c0-0.2,0-0.5,0.1-0.7l3.4-8.5c0.3-0.6,0.9-1.1,1.6-1.1
	s1.3,0.4,1.6,1.1l3.4,8.6C40,14,40,14.3,40,14.5l-1.5,43.6c0,0.5-0.1,0.9-0.3,1.3c-0.1,0.2-0.3,0.4-0.4,0.6L37,61
	c-0.2,0.1-0.4,0.2-0.5,0.3v-5.4C36.6,54.9,35.9,54.2,35,54.2z M40.3,60c0.3-0.7,0.5-1.5,0.6-2.2l7.1,4.4L40.3,60z M46.2,56.8
	c1.1,0.7,1.8,2,1.8,3.3v1.2L41,57l0.1-3.5L46.2,56.8z M41.3,40.8l0.1-2.5l14,7.5L41.3,40.8z M66.9,47.6c0,0.4-0.2,0.8-0.5,1
	s-0.7,0.3-1.1,0.2L41.6,36.1l0.2-7.5l24.5,13.1c0.4,0.2,0.6,0.6,0.6,1.1V47.6z"/>
<path class="st0" d="M38.1,13.6c0.2-0.2,0.2-0.5,0.1-0.8l-0.8-2c-0.1-0.3-0.4-0.5-0.8-0.5h-3.3c-0.3,0-0.6,0.2-0.8,0.5l-0.8,2
	c-0.1,0.3-0.1,0.5,0.1,0.8c0.2,0.2,0.4,0.4,0.7,0.4h4.8C37.7,13.9,38,13.8,38.1,13.6z M32.4,13.2c0,0,0-0.1,0-0.2l0.8-2
	c0-0.1,0.1-0.1,0.2-0.1h3.3c0.1,0,0.2,0,0.2,0.1l0.8,2c0,0.1,0,0.1,0,0.2c0,0-0.1,0.1-0.2,0.1h-4.8C32.5,13.3,32.4,13.2,32.4,13.2z"
	/>
<path class="st0" d="M38.1,13.6L36,11.5l-0.3,0.3l-0.2,0.4L38.1,13.6z M38.2,12.8l2.8-0.9v-0.1v-0.1L38.2,12.8z M37.4,10.8l-2.8,0.9
	v0.1v0.1L37.4,10.8z M32.5,10.8L30,9.1l-0.2,0.3l-0.1,0.3L32.5,10.8z M31.7,12.8L29,11.7v0.1v0.1L31.7,12.8z M31.8,13.6l-2.5,1.7
	l0.2,0.2l0.2,0.2L31.8,13.6z M37.3,14v3h0.4l0.4-0.1L37.3,14z M32.4,13.2h-3v1.2l0.9,0.9L32.4,13.2z M32.4,13l-2.8-1.1l-0.2,0.5V13
	H32.4z M33.2,11l2.8,1.1l0.2-0.5V11H33.2z M36.9,11h-3v0.6l0.2,0.5L36.9,11z M37.7,13h3v-0.6l-0.2-0.5L37.7,13z M37.7,13.2l2.1,2.1
	l0.9-0.9v-1.2H37.7z M40.3,15.7c1.4-1.4,1.1-3.2,0.8-3.9l-5.7,1.9c0-0.1-0.1-0.4-0.1-0.8c0-0.4,0.2-1,0.7-1.5L40.3,15.7z M41,11.7
	l-0.8-2l-5.6,2.2l0.8,2L41,11.7z M40.3,9.9c-0.6-1.8-2.3-2.6-3.6-2.6v6c-0.6,0-1.7-0.4-2-1.6L40.3,9.9z M36.6,7.3h-3.3v6h3.3V7.3z
	 M33.3,7.3c-1.6,0-2.7,1-3.3,1.8l5,3.3c-0.1,0.2-0.3,0.3-0.5,0.5s-0.7,0.3-1.2,0.3V7.3z M29.8,9.7l-0.8,2l5.6,2.2l0.8-2L29.8,9.7z
	 M28.9,11.9c-0.1,0.3-0.3,0.9-0.2,1.6c0.1,0.8,0.4,1.4,0.7,1.8l5-3.3c0.1,0.1,0.3,0.4,0.3,1c0,0.5-0.1,0.8-0.1,0.8L28.9,11.9z
	 M29.7,15.7c0,0,1.1,1.3,2.8,1.3v-6c0.6,0,1,0.2,1.3,0.4c0.1,0.1,0.2,0.1,0.2,0.1l0,0L29.7,15.7z M32.5,17h4.8v-6h-4.8V17z
	 M38.1,16.9c0.2-0.1,0.6-0.2,1-0.3c0.4-0.2,1.2-0.6,1.7-1.6l-5.4-2.7c0.4-0.8,1-1.1,1.2-1.2c0.1-0.1,0.2-0.1,0,0L38.1,16.9z
	 M32.4,13.2c3,0,3,0,3,0l0,0l0,0l0,0l0,0l0,0l0,0l0,0l0,0l0,0l0,0l0,0l0,0l0,0l0,0l0,0l0,0l0,0l0,0l0,0l0,0l0,0l0,0l0,0l0,0l0,0l0,0
	l0,0l0,0l0,0l0,0l0,0l0,0l0,0l0,0l0,0l0,0l0,0l0,0l0,0l0,0l0,0l0,0l0,0l0,0l0,0l0,0l0,0l0,0l0,0l0,0l0,0l0,0l0,0l0,0l0,0l0,0l0,0
	l0,0l0,0l0,0l0,0l0,0l0,0l0,0l0,0l0,0l0,0l0,0l0,0l0,0l0,0l0,0l0,0l0,0l0,0l0,0l0,0l0,0l0,0l0,0l0,0l0,0l0,0l0,0l0,0l0,0l0,0l0,0
	l0,0l0,0l0,0l0,0l0,0l0,0l0,0l0,0l0,0l0,0l0,0l0,0l0,0l0,0l0,0l0,0l0,0l0,0l0,0l0,0l0,0l0,0l0,0l0,0l0,0l0,0l0,0l0,0l0,0l0,0l0,0
	l0,0l0,0l0,0l0,0l0,0l0,0l0,0l0,0l0,0l0,0l0,0l0,0l0,0l0,0l0,0l0,0l0,0l0,0l0,0l0,0l0,0l0,0l0,0l0,0l0,0l0,0l0,0l0,0l0,0l0,0l0,0
	l0,0l0,0l0,0l0,0l0,0l0,0l0,0l0,0l0,0l0,0l0,0l0,0l0,0l0,0l0,0l0,0l0,0l0,0l0,0l0,0l0,0l0,0l0,0l0,0l0,0l0,0l0,0l0,0l0,0l0,0l0,0
	l0,0l0,0l0,0l0,0l0,0l0,0l0,0l0,0l0,0l0,0l0,0l0,0l0,0l0,0l0,0l0,0l0,0l0,0l0,0l0,0l0,0l0,0l0,0l0,0l0,0l0,0l0,0l0,0l0,0l0,0l0,0
	l0,0l0,0l0,0l0,0l0,0l0,0l0,0l0,0l0,0l0,0l0,0l0,0l0,0l0,0l0,0l0,0l0,0l0,0l0,0l0,0l0,0l0,0l0,0l0,0l0,0l0,0l0,0l0,0l0,0l0,0l0,0
	l0,0l0,0l0,0l0,0l0,0l0,0l0,0l0,0l0,0l0,0l0,0l0,0l0,0l0,0l0,0l0,0l0,0l0,0l0,0l0,0l0,0l0,0l0,0l0,0l0,0l0,0l0,0l0,0l0,0l0,0l0,0
	l0,0l0,0l0,0l0,0l0,0l0,0l0,0l0,0l0,0l0,0l0,0l0,0l0,0l0,0l0,0l0,0l0,0l0,0l0,0l0,0l0,0l0,0l0,0l0,0l0,0l0,0l0,0l0,0l0,0l0,0l0,0
	l0,0l0,0l0,0l0,0l0,0l0,0l0,0l0,0l0,0l0,0l0,0l0,0l0,0l0,0l0,0l0,0l0,0l0,0l0,0l0,0l0,0l0,0l0,0l0,0l0,0l0,0l0,0l0,0l0,0l0,0l0,0
	l0,0l0,0l0,0l0,0l0,0l0,0l0,0l0,0l0,0l0,0l0,0l0,0l0,0l0,0l0,0l0,0l0,0l0,0l0,0l0,0l0,0l0,0l0,0l0,0l0,0l0,0l0,0l0,0l0,0l0,0l0,0
	l0,0l0,0l0,0l0,0l0,0l0,0l0,0l0,0l0,0l0,0l0,0l0,0l0,0l0,0l0,0l0,0l0,0l0,0l0,0l0,0l0,0l0,0l0,0l0,0l0,0l0,0l0,0l0,0l0,0l0,0l0,0
	l0,0l0,0l0,0l0,0l0,0l0,0l0,0l0,0l0,0l0,0l0,0l0,0l0,0l0,0l0,0l0,0l0,0l0,0l0,0l0,0l0,0l0,0l0,0l0,0l0,0l0,0l0,0l0,0l0,0l0,0l0,0
	l0,0l0,0l0,0l0,0l0,0l0,0l0,0l0,0l0,0l0,0l0,0l0,0l0,0l0,0l0,0l0,0l0,0l0,0l0,0l0,0l0,0l0,0l0,0l0,0l0,0l0,0l0,0l0,0l0,0l0,0l0,0
	l0,0l0,0l0,0l0,0l0,0l0,0l0,0l0,0l0,0l0,0l0,0l0,0l0,0l0,0l0,0l0,0l0,0l0,0l0,0l0,0l0,0l0,0l0,0l0,0l0,0l0,0l0,0l0,0l0,0l0,0l0,0
	l0,0l0,0l0,0l0,0l0,0l0,0l0,0l0,0l0,0l0,0l0,0l0,0l0,0l0,0l0,0l0,0l0,0l0,0l0,0l0,0h-6l0,0l0,0l0,0l0,0l0,0l0,0l0,0l0,0l0,0l0,0l0,0
	l0,0l0,0l0,0l0,0l0,0l0,0l0,0l0,0l0,0l0,0l0,0l0,0l0,0l0,0l0,0l0,0l0,0l0,0l0,0l0,0l0,0l0,0l0,0l0,0l0,0l0,0l0,0l0,0l0,0l0,0l0,0
	l0,0l0,0l0,0l0,0l0,0l0,0l0,0l0,0l0,0l0,0l0,0l0,0l0,0l0,0l0,0l0,0l0,0l0,0l0,0l0,0l0,0l0,0l0,0l0,0l0,0l0,0l0,0l0,0l0,0l0,0l0,0
	l0,0l0,0l0,0l0,0l0,0l0,0l0,0l0,0l0,0l0,0l0,0l0,0l0,0l0,0l0,0l0,0l0,0l0,0l0,0l0,0l0,0l0,0l0,0l0,0l0,0l0,0l0,0l0,0l0,0l0,0l0,0
	l0,0l0,0l0,0l0,0l0,0l0,0l0,0l0,0l0,0l0,0l0,0l0,0l0,0l0,0l0,0l0,0l0,0l0,0l0,0l0,0l0,0l0,0l0,0l0,0l0,0l0,0l0,0l0,0l0,0l0,0l0,0
	l0,0l0,0l0,0l0,0l0,0l0,0l0,0l0,0l0,0l0,0l0,0l0,0l0,0l0,0l0,0l0,0l0,0l0,0l0,0l0,0l0,0l0,0l0,0l0,0l0,0l0,0l0,0l0,0l0,0l0,0l0,0
	l0,0l0,0l0,0l0,0l0,0l0,0l0,0l0,0l0,0l0,0l0,0l0,0l0,0l0,0l0,0l0,0l0,0l0,0l0,0l0,0l0,0l0,0l0,0l0,0l0,0l0,0l0,0l0,0l0,0l0,0l0,0
	l0,0l0,0l0,0l0,0l0,0l0,0l0,0l0,0l0,0l0,0l0,0l0,0l0,0l0,0l0,0l0,0l0,0l0,0l0,0l0,0l0,0l0,0l0,0l0,0l0,0l0,0l0,0l0,0l0,0l0,0l0,0
	l0,0l0,0l0,0l0,0l0,0l0,0l0,0l0,0l0,0l0,0l0,0l0,0l0,0l0,0l0,0l0,0l0,0l0,0l0,0l0,0l0,0l0,0l0,0l0,0l0,0l0,0l0,0l0,0l0,0l0,0l0,0
	l0,0l0,0l0,0l0,0l0,0l0,0l0,0l0,0l0,0l0,0l0,0l0,0l0,0l0,0l0,0l0,0l0,0l0,0l0,0l0,0l0,0l0,0l0,0l0,0l0,0l0,0l0,0l0,0l0,0l0,0l0,0
	l0,0l0,0l0,0l0,0l0,0l0,0l0,0l0,0l0,0l0,0l0,0l0,0l0,0l0,0l0,0l0,0l0,0l0,0l0,0l0,0l0,0l0,0l0,0l0,0l0,0l0,0l0,0l0,0l0,0l0,0l0,0
	l0,0l0,0l0,0l0,0l0,0l0,0l0,0l0,0l0,0l0,0l0,0l0,0l0,0l0,0l0,0l0,0l0,0l0,0l0,0l0,0l0,0l0,0l0,0l0,0l0,0l0,0l0,0l0,0l0,0l0,0l0,0
	l0,0l0,0l0,0l0,0l0,0l0,0l0,0l0,0l0,0l0,0l0,0l0,0l0,0l0,0l0,0l0,0l0,0l0,0l0,0l0,0l0,0l0,0l0,0l0,0l0,0l0,0l0,0l0,0l0,0l0,0l0,0
	l0,0l0,0l0,0l0,0l0,0l0,0l0,0l0,0l0,0l0,0l0,0l0,0l0,0l0,0l0,0l0,0l0,0l0,0l0,0l0,0l0,0l0,0l0,0l0,0l0,0l0,0l0,0l0,0l0,0l0,0l0,0
	l0,0l0,0l0,0l0,0l0,0l0,0l0,0l0,0l0,0l0,0l0,0l0,0l0,0l0,0l0,0l0,0l0,0l0,0l0,0l0,0l0,0l0,0l0,0l0,0l0,0l0,0l0,0l0,0l0,0l0,0l0,0
	l0,0l0,0l0,0l0,0l0,0l0,0l0,0l0,0l0,0l0,0l0,0l0,0l0,0l0,0l0,0l0,0l0,0l0,0l0,0l0,0l0,0l0,0l0,0l0,0l0,0l0,0l0,0l0,0l0,0l0,0l0,0
	l0,0l0,0l0,0l0,0l0,0l0,0l0,0l0,0l0,0l0,0l0,0l0,0l0,0l0,0l0,0l0,0l0,0l0,0l0,0l0,0l0,0l0,0l0,0l0,0l0,0l0,0l0,0l0,0l0,0l0,0l0,0
	l0,0l0,0l0,0l0,0C29.4,13.2,29.4,13.2,32.4,13.2z M35.2,14.1l0.8-2l-5.6-2.2l-0.8,2L35.2,14.1z M36.2,11c0,0.5-0.1,1.2-0.6,1.8
	s-1,0.9-1.4,1c-0.3,0.1-0.6,0.1-0.7,0.1c-0.1,0-0.2,0-0.1,0v-6c0,0-0.1,0-0.3,0c-0.1,0-0.4,0-0.8,0.2c-0.4,0.1-1,0.4-1.5,1
	s-0.6,1.4-0.6,1.9H36.2z M33.4,13.9h3.3v-6h-3.3V13.9z M36.7,13.9C36.7,13.9,36.7,13.9,36.7,13.9c-0.2,0-0.5,0-0.8-0.1
	s-0.9-0.4-1.4-1s-0.6-1.3-0.6-1.8h6c0-0.5-0.1-1.3-0.6-1.9c-0.5-0.6-1.1-0.9-1.5-1C37.4,8,37.1,8,37,7.9c-0.1,0-0.3,0-0.3,0
	S36.7,13.9,36.7,13.9z M34.2,12.1l0.8,2l5.6-2.2l-0.8-2L34.2,12.1z M34.7,13L34.7,13L34.7,13L34.7,13L34.7,13L34.7,13L34.7,13
	L34.7,13L34.7,13L34.7,13L34.7,13L34.7,13L34.7,13L34.7,13L34.7,13L34.7,13L34.7,13L34.7,13L34.7,13L34.7,13L34.7,13L34.7,13
	L34.7,13L34.7,13L34.7,13L34.7,13L34.7,13L34.7,13L34.7,13L34.7,13L34.7,13L34.7,13L34.7,13L34.7,13L34.7,13L34.7,13L34.7,13
	L34.7,13L34.7,13L34.7,13L34.7,13L34.7,13L34.7,13L34.7,13L34.7,13L34.7,13L34.7,13L34.7,13L34.7,13L34.7,13L34.7,13L34.7,13
	L34.7,13L34.7,13L34.7,13L34.7,13L34.7,13L34.7,13L34.7,13L34.7,13L34.7,13L34.7,13L34.7,13L34.7,13L34.7,13L34.7,13L34.7,13
	L34.7,13L34.7,13L34.7,13L34.7,13L34.7,13L34.7,13L34.7,13L34.7,13L34.7,13L34.7,13L34.7,13L34.7,13L34.7,13L34.7,13L34.7,13
	L34.7,13L34.7,13L34.7,13L34.7,13L34.7,13L34.7,13L34.7,13L34.7,13L34.7,13L34.7,13L34.7,13L34.7,13C34.7,13.1,34.7,13.1,34.7,13
	C34.7,13.1,34.7,13.1,34.7,13C34.7,13.1,34.7,13.1,34.7,13C34.7,13.1,34.7,13.1,34.7,13C34.7,13.1,34.7,13.1,34.7,13
	C34.7,13.1,34.7,13.1,34.7,13C34.7,13.1,34.7,13.1,34.7,13C34.7,13.1,34.7,13.1,34.7,13C34.7,13.1,34.7,13.1,34.7,13
	C34.7,13.1,34.7,13.1,34.7,13C34.7,13.1,34.7,13.1,34.7,13C34.7,13.1,34.7,13.1,34.7,13C34.7,13.1,34.7,13.1,34.7,13
	C34.7,13.1,34.7,13.1,34.7,13C34.7,13.1,34.7,13.1,34.7,13C34.7,13.1,34.7,13.1,34.7,13C34.7,13.1,34.7,13.1,34.7,13
	C34.7,13.1,34.7,13.1,34.7,13C34.7,13.1,34.7,13.1,34.7,13C34.7,13.1,34.7,13.1,34.7,13C34.7,13.1,34.7,13.1,34.7,13
	C34.7,13.1,34.7,13.1,34.7,13C34.7,13.1,34.7,13.1,34.7,13C34.7,13.1,34.7,13.1,34.7,13C34.7,13.1,34.7,13.1,34.7,13
	C34.7,13.1,34.7,13.1,34.7,13C34.7,13.1,34.7,13.1,34.7,13C34.7,13.1,34.7,13.1,34.7,13C34.7,13.1,34.7,13.1,34.7,13
	C34.7,13.1,34.7,13.1,34.7,13C34.7,13.1,34.7,13.1,34.7,13C34.7,13.1,34.7,13.1,34.7,13C34.7,13.1,34.7,13.1,34.7,13
	C34.7,13.1,34.7,13.1,34.7,13C34.7,13.1,34.7,13.1,34.7,13C34.7,13.1,34.7,13.1,34.7,13C34.7,13.1,34.7,13.1,34.7,13
	C34.7,13.1,34.7,13.1,34.7,13C34.7,13.1,34.7,13.1,34.7,13C34.7,13.1,34.7,13.1,34.7,13C34.7,13.1,34.7,13.1,34.7,13
	C34.7,13.1,34.7,13.1,34.7,13C34.7,13.1,34.7,13.1,34.7,13C34.7,13.1,34.7,13.1,34.7,13C34.7,13.1,34.7,13.1,34.7,13
	C34.7,13.1,34.7,13.1,34.7,13C34.7,13.1,34.7,13.1,34.7,13C34.7,13.1,34.7,13.1,34.7,13C34.7,13.1,34.7,13.1,34.7,13
	C34.7,13.1,34.7,13.1,34.7,13C34.7,13.1,34.7,13.1,34.7,13C34.7,13.1,34.7,13.1,34.7,13C34.7,13.1,34.7,13.1,34.7,13
	C34.7,13.1,34.7,13.1,34.7,13C34.7,13.1,34.7,13.1,34.7,13C34.7,13.1,34.7,13.1,34.7,13C34.7,13.1,34.7,13.1,34.7,13
	C34.7,13.1,34.7,13.1,34.7,13C34.7,13.1,34.7,13.1,34.7,13C34.7,13.1,34.7,13.1,34.7,13C34.7,13.1,34.7,13.1,34.7,13
	C34.7,13.1,34.7,13.1,34.7,13C34.7,13.1,34.7,13.1,34.7,13C34.7,13.1,34.7,13.1,34.7,13C34.7,13.1,34.7,13.1,34.7,13
	C34.7,13.1,34.7,13.1,34.7,13C34.7,13.1,34.7,13.1,34.7,13C34.7,13.1,34.7,13.1,34.7,13C34.7,13.1,34.7,13.1,34.7,13
	C34.7,13.1,34.7,13.1,34.7,13C34.7,13.1,34.7,13.1,34.7,13C34.7,13.1,34.7,13.1,34.7,13C34.7,13.1,34.7,13.1,34.7,13
	C34.7,13.1,34.7,13.1,34.7,13C34.7,13.1,34.7,13.1,34.7,13C34.7,13.1,34.7,13.1,34.7,13C34.7,13.1,34.7,13.1,34.7,13
	C34.7,13.1,34.7,13.1,34.7,13C34.7,13.1,34.7,13.1,34.7,13C34.7,13.1,34.7,13.1,34.7,13C34.7,13.1,34.7,13.1,34.7,13
	C34.7,13.1,34.7,13.1,34.7,13C34.7,13.1,34.7,13.1,34.7,13C34.7,13.1,34.7,13.1,34.7,13C34.7,13.1,34.7,13.1,34.7,13
	C34.7,13.1,34.7,13.1,34.7,13C34.7,13.1,34.7,13.1,34.7,13C34.7,13.1,34.7,13.1,34.7,13C34.7,13.1,34.7,13.1,34.7,13
	C34.7,13.1,34.7,13.1,34.7,13C34.7,13.1,34.7,13.1,34.7,13C34.7,13.1,34.7,13.1,34.7,13C34.7,13.1,34.7,13.1,34.7,13
	C34.7,13.1,34.7,13.1,34.7,13C34.7,13.1,34.7,13.1,34.7,13C34.7,13.1,34.7,13.1,34.7,13C34.7,13.1,34.7,13.1,34.7,13
	C34.7,13.1,34.7,13.1,34.7,13C34.7,13.1,34.7,13.1,34.7,13C34.7,13.1,34.7,13.1,34.7,13C34.7,13.1,34.7,13.1,34.7,13
	C34.7,13.1,34.7,13.1,34.7,13C34.7,13.1,34.7,13.1,34.7,13C34.7,13.1,34.7,13.1,34.7,13C34.7,13.1,34.7,13.1,34.7,13
	C34.7,13.1,34.7,13.1,34.7,13C34.7,13.1,34.7,13.1,34.7,13C34.7,13.1,34.7,13.1,34.7,13C34.7,13.1,34.7,13.1,34.7,13
	C34.7,13.1,34.7,13.1,34.7,13C34.7,13.1,34.7,13.1,34.7,13C34.7,13.1,34.7,13.1,34.7,13C34.7,13.1,34.7,13.1,34.7,13
	C34.7,13.1,34.7,13.1,34.7,13C34.7,13.1,34.7,13.1,34.7,13C34.7,13.1,34.7,13.1,34.7,13C34.7,13.1,34.7,13.1,34.7,13
	C34.7,13.1,34.7,13.1,34.7,13C34.7,13.1,34.7,13.1,34.7,13C34.7,13.1,34.7,13.1,34.7,13C34.7,13.1,34.7,13.1,34.7,13
	C34.7,13.1,34.7,13.1,34.7,13C34.7,13.1,34.7,13.1,34.7,13C34.7,13.1,34.7,13.1,34.7,13C34.7,13.1,34.7,13.1,34.7,13
	C34.7,13.1,34.7,13.1,34.7,13C34.7,13.1,34.7,13.1,34.7,13C34.7,13.1,34.7,13.1,34.7,13C34.7,13.1,34.7,13.1,34.7,13
	C34.7,13.1,34.7,13.1,34.7,13C34.7,13.1,34.7,13.1,34.7,13C34.7,13.1,34.7,13.1,34.7,13C34.7,13.1,34.7,13.1,34.7,13
	C34.7,13.1,34.7,13.1,34.7,13C34.7,13.1,34.7,13.1,34.7,13C34.7,13.1,34.7,13.1,34.7,13C34.7,13.1,34.7,13.1,34.7,13
	C34.7,13.1,34.7,13.1,34.7,13C34.7,13.1,34.7,13.1,34.7,13C34.7,13.1,34.7,13.1,34.7,13C34.7,13.1,34.7,13.1,34.7,13
	C34.7,13.1,34.7,13.1,34.7,13C34.7,13.1,34.7,13.1,34.7,13C34.7,13.1,34.7,13.1,34.7,13C34.7,13.1,34.7,13.1,34.7,13
	C34.7,13.1,34.7,13.1,34.7,13C34.7,13.1,34.7,13.1,34.7,13C34.7,13.1,34.7,13.1,34.7,13C34.7,13.1,34.7,13.1,34.7,13
	C34.7,13.1,34.7,13.1,34.7,13C34.7,13.1,34.7,13.1,34.7,13C34.7,13.1,34.7,13.1,34.7,13C34.7,13.1,34.7,13.1,34.7,13
	C34.7,13.1,34.7,13.1,34.7,13C34.7,13.1,34.7,13.1,34.7,13C34.7,13.1,34.7,13.1,34.7,13C34.7,13.1,34.7,13.1,34.7,13
	C34.7,13.1,34.7,13.1,34.7,13C34.7,13.1,34.7,13.1,34.7,13C34.7,13.1,34.7,13.1,34.7,13C34.7,13.1,34.7,13.1,34.7,13
	C34.7,13.1,34.7,13.1,34.7,13c0,0.1,0,0.1,0,0.1l0,0l0,0l0,0l0,0l0,0l0,0l0,0l0,0l0,0l0,0l0,0l0,0l0,0l0,0l0,0l0,0l0,0l0,0l0,0l0,0
	l0,0l0,0l0,0l0,0l0,0l0,0l0,0l0,0l0,0l0,0l0,0l0,0l0,0l0,0l0,0l0,0l0,0l0,0l0,0l0,0l0,0l0,0l0,0l0,0l0,0l0,0l0,0l0,0l0,0l0,0l0,0
	l0,0l0,0l0,0l0,0l0,0l0,0l0,0l0,0l0,0l0,0l0,0l0,0l0,0l0,0l0,0l0,0l0,0l0,0l0,0l0,0l0,0l0,0l0,0l0,0l0,0l0,0l0,0l0,0l0,0l0,0l0,0
	l0,0l0,0l0,0l0,0l0,0l0,0l0,0l0,0l0,0l0,0l0,0l0,0l0,0l0,0l0,0l0,0l0,0l0,0l0,0l0,0l0,0l0,0l0,0l0,0l0,0l0,0l0,0l0,0l0,0l0,0l0,0
	l0,0l0,0l0,0l0,0l0,0l0,0l0,0l0,0l0,0l0,0l0,0l0,0l0,0l0,0l0,0l0,0l0,0l0,0l0,0l0,0l0,0l0,0l0,0l0,0l0,0l0,0l0,0l0,0l0,0l0,0l0,0
	l0,0l0,0l0,0l0,0l0,0l0,0l0,0l0,0l0,0l0,0l0,0l0,0l0,0l0,0l0,0l0,0l0,0l0,0l0,0l0,0l0,0l0,0l0,0l0,0l0,0l0,0l0,0l0,0l0,0l0,0l0,0
	l0,0l0,0l0,0l0,0l0,0l0,0l0,0l0,0l0,0l0,0l0,0l0,0l0,0l0,0l0,0l0,0l0,0l0,0l0,0l0,0l0,0l0,0l0,0l0,0l0,0l0,0l0,0l0,0l0,0l0,0l0,0
	l0,0l0,0l0,0l0,0l0,0l0,0l0,0l0,0l0,0l0,0l0,0l0,0l0,0l0,0l0,0l0,0l0,0l0,0l0,0l0,0l0,0l0,0l0,0l0,0l0,0l0,0l0,0l0,0l0,0l0,0l0,0
	l0,0l0,0l0,0l0,0l0,0l0,0l0,0l0,0l0,0l0,0l0,0l0,0l0,0l0,0l0,0l0,0l0,0l0,0l0,0h6l0,0l0,0l0,0l0,0l0,0l0,0l0,0l0,0l0,0l0,0l0,0l0,0
	l0,0l0,0l0,0l0,0l0,0l0,0l0,0l0,0l0,0l0,0l0,0l0,0l0,0l0,0l0,0l0,0l0,0l0,0l0,0l0,0l0,0l0,0l0,0l0,0l0,0l0,0l0,0l0,0l0,0l0,0l0,0
	l0,0l0,0l0,0l0,0l0,0l0,0l0,0l0,0l0,0l0,0l0,0l0,0l0,0l0,0l0,0l0,0l0,0l0,0l0,0l0,0l0,0l0,0l0,0l0,0l0,0l0,0l0,0l0,0l0,0l0,0l0,0
	l0,0l0,0l0,0l0,0l0,0l0,0l0,0l0,0l0,0l0,0l0,0l0,0l0,0l0,0l0,0l0,0l0,0l0,0l0,0l0,0l0,0l0,0l0,0l0,0l0,0l0,0l0,0l0,0l0,0l0,0l0,0
	l0,0l0,0l0,0l0,0l0,0l0,0l0,0l0,0l0,0l0,0l0,0l0,0l0,0l0,0l0,0l0,0l0,0l0,0l0,0l0,0l0,0l0,0l0,0l0,0l0,0l0,0l0,0l0,0l0,0l0,0l0,0
	l0,0l0,0l0,0l0,0l0,0l0,0l0,0l0,0l0,0l0,0l0,0l0,0l0,0l0,0l0,0l0,0l0,0l0,0l0,0l0,0l0,0l0,0l0,0l0,0l0,0l0,0l0,0l0,0l0,0l0,0l0,0
	l0,0l0,0l0,0l0,0l0,0l0,0l0,0l0,0l0,0l0,0l0,0l0,0l0,0l0,0l0,0l0,0l0,0l0,0l0,0l0,0l0,0l0,0l0,0l0,0l0,0l0,0l0,0l0,0l0,0l0,0l0,0
	l0,0l0,0l0,0l0,0l0,0l0,0l0,0l0,0l0,0l0,0l0,0l0,0l0,0l0,0l0,0l0,0l0,0l0,0l0,0l0,0l0,0l0,0l0,0l0,0l0,0l0,0l0,0l0,0l0,0l0,0l0,0
	l0,0l0,0l0,0l0,0l0,0l0,0l0,0l0,0l0,0l0,0l0,0l0,0l0,0l0,0l0,0l0,0l0,0l0,0l0,0l0,0l0,0l0,0l0,0l0,0l0,0l0,0l0,0l0,0l0,0l0,0l0,0
	l0,0l0,0l0,0l0,0l0,0l0,0l0,0l0,0l0,0l0,0l0,0l0,0l0,0l0,0l0,0l0,0l0,0l0,0l0,0l0,0l0,0l0,0l0,0l0,0l0,0l0,0l0,0l0,0l0,0l0,0l0,0
	l0,0l0,0l0,0l0,0l0,0l0,0l0,0l0,0l0,0l0,0l0,0l0,0l0,0l0,0l0,0l0,0l0,0l0,0l0,0l0,0l0,0l0,0l0,0l0,0l0,0l0,0l0,0l0,0l0,0l0,0l0,0
	l0,0l0,0l0,0l0,0l0,0l0,0l0,0l0,0l0,0l0,0l0,0l0,0l0,0l0,0l0,0l0,0l0,0l0,0l0,0l0,0l0,0l0,0l0,0l0,0l0,0l0,0l0,0l0,0l0,0l0,0l0,0
	l0,0l0,0l0,0l0,0l0,0l0,0l0,0l0,0l0,0l0,0l0,0l0,0l0,0l0,0l0,0l0,0l0,0l0,0l0,0l0,0l0,0l0,0l0,0l0,0l0,0l0,0l0,0l0,0l0,0l0,0l0,0
	l0,0l0,0l0,0l0,0l0,0l0,0l0,0l0,0l0,0l0,0l0,0l0,0l0,0l0,0l0,0l0,0l0,0l0,0l0,0l0,0l0,0l0,0l0,0l0,0l0,0l0,0l0,0l0,0l0,0l0,0l0,0
	l0,0l0,0l0,0l0,0l0,0l0,0l0,0l0,0l0,0l0,0l0,0l0,0l0,0l0,0l0,0l0,0l0,0l0,0l0,0l0,0l0,0l0,0l0,0l0,0l0,0l0,0l0,0l0,0l0,0l0,0l0,0
	l0,0l0,0l0,0l0,0l0,0l0,0l0,0l0,0l0,0l0,0l0,0l0,0l0,0l0,0l0,0l0,0l0,0l0,0l0,0l0,0l0,0l0,0l0,0l0,0l0,0l0,0l0,0l0,0l0,0l0,0l0,0
	l0,0l0,0l0,0l0,0l0,0l0,0l0,0l0,0l0,0l0,0l0,0l0,0l0,0l0,0l0,0l0,0l0,0l0,0l0,0l0,0l0,0l0,0l0,0l0,0l0,0l0,0l0,0l0,0l0,0l0,0l0,0
	l0,0l0,0l0,0l0,0h-6V13z M37.7,13.2c-2.1-2.1-2.1-2.1-2.1-2.1l0,0l0,0l0,0l0,0l0,0l0,0c0,0,0.1,0,0.1-0.1c0.1,0,0.1-0.1,0.2-0.2
	c0.1-0.1,0.3-0.2,0.5-0.3s0.6-0.2,1-0.2v6c1,0,1.6-0.4,1.8-0.6c0.1-0.1,0.3-0.2,0.3-0.3l0.1-0.1l0,0l0,0l0,0l0,0l0,0l0,0
	C39.9,15.3,39.9,15.3,37.7,13.2z M37.5,10.3h-4.8v6h4.8V10.3z M32.7,10.3c0.4,0,0.8,0.1,1.1,0.3c0.2,0.1,0.3,0.2,0.4,0.2
	c0.1,0,0.1,0.1,0.2,0.1c0,0,0,0,0.1,0.1l0,0l0,0l0,0l0,0l0,0c0,0,0,0-2.1,2.1s-2.1,2.1-2.1,2.1l0,0l0,0l0,0l0,0l0,0
	c0,0,0.1,0,0.1,0.1c0.1,0,0.1,0.1,0.2,0.2c0.1,0.1,0.3,0.2,0.5,0.3c0.4,0.2,0.9,0.4,1.6,0.4V10.3z"/>
</svg>
