<?xml version="1.0" encoding="utf-8"?>
<!-- Generator: Adobe Illustrator 26.0.1, SVG Export Plug-In . SVG Version: 6.00 Build 0)  -->
<svg version="1.1" id="Capa_1" xmlns="http://www.w3.org/2000/svg" xmlns:xlink="http://www.w3.org/1999/xlink" x="0px" y="0px"
	 viewBox="0 0 61.8 61.8" style="enable-background:new 0 0 61.8 61.8;" xml:space="preserve">
<style type="text/css">
	.st0{opacity:0.31;fill:#F2F2F2;}
	.st1{fill:#F2F2F2;}
</style>
<circle class="st0" cx="30.5" cy="31.1" r="29.4"/>
<g>
	<path class="st1" d="M46.4,30l-22-15c-0.3-0.2-0.7-0.2-1-0.1c-0.3,0.2-0.5,0.5-0.5,0.9v30c0,0.4,0.2,0.7,0.5,0.9
		c0.1,0.1,0.3,0.1,0.5,0.1c0.2,0,0.4-0.1,0.6-0.2l22-15c0.3-0.2,0.4-0.5,0.4-0.8S46.6,30.2,46.4,30z M24.8,43.9V17.7L44,30.8
		L24.8,43.9z"/>
	<path class="st1" d="M30.8,0.8c-16.5,0-30,13.5-30,30s13.5,30,30,30s30-13.5,30-30S47.4,0.8,30.8,0.8z M30.8,58.8
		c-15.4,0-28-12.6-28-28s12.6-28,28-28s28,12.6,28,28S46.2,58.8,30.8,58.8z"/>
</g>
</svg>
