<?xml version="1.0" encoding="utf-8"?>
<!-- Generator: Adobe Illustrator 25.2.1, SVG Export Plug-In . SVG Version: 6.00 Build 0)  -->
<svg version="1.1" id="Layer_1" xmlns="http://www.w3.org/2000/svg" xmlns:xlink="http://www.w3.org/1999/xlink" x="0px" y="0px"
	 viewBox="0 0 70 70" style="enable-background:new 0 0 70 70;" xml:space="preserve">
<style type="text/css">
	.st0{display:none;}
	.st1{display:inline;fill:#004161;}
	.st2{display:inline;}
	.st3{display:inline;clip-path:url(#SVGID_2_);}
	.st4{fill:#004161;}
	.st5{clip-path:url(#SVGID_4_);}
	.st6{fill:#FFFFFF;}
</style>
<g class="st0">
	<path class="st1" d="M40.1,40.2H29.9v0.5h10.2V40.2z"/>
	<path class="st1" d="M25.3,17.1H23v0.5h2.3V17.1z"/>
	<path class="st1" d="M47.1,17.1h-2.3v0.5h2.3V17.1z"/>
	<path class="st1" d="M37.1,46.1h-4.2c-0.6,0-1.1-0.5-1.1-1.1v-2.7h6.5V45C38.2,45.6,37.8,46.1,37.1,46.1z M32.3,42.8V45
		c0,0.3,0.3,0.6,0.6,0.6h4.3c0.3,0,0.6-0.3,0.6-0.6v-2.1H32.3z"/>
	<path class="st1" d="M57.6,19h-8.7c-2.3-5.3-7.5-8.6-13.1-8.6h-1.6c-3.8,0-7.5,1.6-10.3,4.4c-1.2,1.2-2.1,2.6-2.9,4.2h-8.6
		c-2.3,0-4.2,1.9-4.2,4.2v10.7c0,0.8,0.5,1.4,1.3,1.6l0.2,0.1c-0.1,0.1-0.1,0.3-0.1,0.4v20.6c0,1.8,1.4,3.1,3.1,3.1h44.4
		c1.8,0,3.1-1.4,3.1-3.1V35.9c0-0.1,0-0.3-0.1-0.4l0.2-0.1c0.8-0.2,1.3-0.8,1.3-1.6V23.2C61.8,20.9,59.9,19,57.6,19z M25.2,15.9
		c2.5-2.5,5.7-3.9,9.1-3.9h1.6c4.7,0,9,2.7,11.3,6.9H22.9C23.5,17.8,24.3,16.8,25.2,15.9z M40.3,40.2l18.4-4.4v20.6
		c0,0.8-0.6,1.5-1.5,1.5H12.8c-0.8,0-1.5-0.6-1.5-1.5l0.1-20.6l5,1.2l13.4,3.2c0.1,0,0.3,0.1,0.3,0.1v-1.6L10.7,34l-0.8-0.2V23.2
		c0-1.4,1.2-2.6,2.6-2.6h45.1c1.4,0,2.6,1.2,2.6,2.6v10.6l-9.1,2.1L40,38.6v1.7L40.3,40.2z"/>
	<path class="st1" d="M46.8,20H23.2l0.2-0.4c2.3-4.4,6.6-7,11.6-7c4.9,0,9.3,2.7,11.6,7.1L46.8,20z M24.1,19.5h21.8
		c-2.3-4-6.3-6.4-10.9-6.4C30.4,13.1,26.4,15.5,24.1,19.5z"/>
	<path class="st1" d="M38.7,42.8h-7.3c-1,0-1.7-0.5-1.7-1.2v-3.9c0-0.6,0.8-1.2,1.7-1.2h7.3c1,0,1.7,0.5,1.7,1.2v3.9
		C40.4,42.3,39.6,42.8,38.7,42.8z M31.4,37c-0.6,0-1.2,0.3-1.2,0.6v3.9c0,0.3,0.5,0.7,1.2,0.7h7.3c0.7,0,1.2-0.4,1.2-0.7v-3.9
		c0-0.4-0.6-0.6-1.2-0.6H31.4z"/>
</g>
<g class="st0">
	<defs>
		<rect id="SVGID_1_" x="9.9" y="9.9" width="50.3" height="50.3"/>
	</defs>
	<clipPath id="SVGID_2_" class="st2">
		<use xlink:href="#SVGID_1_"  style="overflow:visible;"/>
	</clipPath>
	<g class="st3">
		<path class="st4" d="M54.6,40.8c-0.2-0.3-0.5-0.4-0.9-0.4c-0.3,0.1-0.5,0.4-0.5,0.7v0.1c0,2.4-2.4,4.8-6.6,6.4
			c-1,0.4-2.9,0.9-5.5,1.3c-0.5,0.1-1-0.1-1.4-0.4c-0.4-0.3-0.6-0.8-0.6-1.3l-0.7-20.1l6.3,0.4c0.1,0,0.1,0,0.1,0
			c0.9,0,1.5-0.7,1.5-1.5c0-0.4-0.2-0.8-0.5-1.1c-0.3-0.3-0.7-0.4-1.2-0.4l-6.5,0.5l-0.1-3.4c2.3-0.9,3.9-3.2,3.9-5.7
			c0-3.4-2.7-6.2-6.2-6.2c-3.4,0-6.2,2.8-6.2,6.2c0,2.6,1.6,4.8,3.9,5.7l-0.1,3.4l-6.4-0.4c-0.4,0-0.9,0.1-1.2,0.4
			c-0.3,0.3-0.5,0.7-0.5,1.1c0,0.9,0.7,1.5,1.5,1.5c0.1,0,0.1,0,0.1,0l6.3-0.4l-0.7,20.2c0,0.5-0.2,0.9-0.6,1.3
			c-0.4,0.3-0.9,0.4-1.3,0.4c-2-0.3-3.9-0.7-5.6-1.4c-4-1.5-6.6-3.8-6.8-6.2c-0.1-0.4-0.3-0.6-0.6-0.7c-0.4-0.1-0.7,0.1-0.8,0.4
			c-0.5,1-0.8,2.1-0.8,3.2c0,2.9,1.6,5.5,4.4,7.2l14.9,8.2c0.1,0.1,0.2,0.1,0.4,0.1c0.1,0,0.2-0.1,0.4-0.1l14.4-7.9l0.6-0.3
			c0,0,0.1,0,0.1-0.1c2.7-1.6,4.4-4.3,4.4-7.1C55.7,43.3,55.3,42,54.6,40.8z M44.7,25.2c0.3,0,0.5,0.1,0.8,0.3
			c0.2,0.2,0.3,0.5,0.3,0.7c0,0.5-0.5,1-1,1l-6.4-0.4l-0.1-1.3L44.7,25.2z M31.2,16c0-2.6,2.1-4.6,4.7-4.6c2.6,0,4.6,2.1,4.6,4.6
			c0,2.1-1.4,3.9-3.4,4.4c-0.6,0.2-1.3,0.2-2,0.1c-0.2-0.1-0.4-0.1-0.7-0.1C32.6,20,31.2,18.1,31.2,16z M27.1,27.3L27.1,27.3
			c-0.6,0-1.1-0.5-1.1-1c0-0.3,0.1-0.5,0.3-0.7c0.2-0.2,0.4-0.3,0.7-0.3h0.1l6.4,0.4l-0.1,1.3L27.1,27.3z M50.6,50.5l-0.7,0.4
			l-13.8,7.6v-21c0-0.1-0.1-0.2-0.2-0.2c-0.1,0-0.2,0.1-0.2,0.2v21l-13.9-7.7l-0.4-0.2c-2.3-1.3-3.7-3.5-3.7-5.8c0-0.1,0-0.2,0-0.3
			c1.2,1.9,3.6,3.7,6.9,4.9c1.8,0.7,3.8,1.2,5.9,1.5c0.9,0.1,1.8-0.1,2.5-0.7c0.7-0.6,1.1-1.5,1.2-2.4l0.9-25.5c0.5,0.1,1,0.1,1.6,0
			l0.9,25.3c0.1,0.9,0.5,1.8,1.2,2.4c0.7,0.6,1.6,0.9,2.6,0.7c1.9-0.3,4.4-0.9,5.8-1.3c3.5-1.3,5.9-3.2,6.9-5.3
			c0.1,0.2,0.1,0.5,0.1,0.8C54.2,46.9,52.8,49,50.6,50.5z"/>
		<path class="st4" d="M38.6,16c0-1.5-1.2-2.7-2.7-2.7c-1.5,0-2.7,1.2-2.7,2.7s1.2,2.7,2.7,2.7C37.4,18.7,38.6,17.5,38.6,16z
			 M33.6,16c0-1.2,1-2.2,2.2-2.2c1.2,0,2.2,1,2.2,2.2s-1,2.2-2.2,2.2C34.7,18.3,33.6,17.3,33.6,16z"/>
	</g>
</g>
<g>
	<g>
		<defs>
			<rect id="SVGID_3_" x="11.3" y="11.3" width="47.4" height="47.4"/>
		</defs>
		<clipPath id="SVGID_4_">
			<use xlink:href="#SVGID_3_"  style="overflow:visible;"/>
		</clipPath>
		<g class="st5">
			<path class="st4" d="M50.3,58.5H19v0c-0.3,0-0.7,0-1.1,0c-0.6,0-1.2-0.1-1.7-0.3c-0.5-0.2-1-0.5-1.5-1c-0.8-1-1.3-2.3-1.2-3.7
				V12.2c0-0.1,0-0.2,0.1-0.3c0-0.1,0.1-0.2,0.2-0.2c0.1-0.1,0.2-0.1,0.2-0.2c0.1,0,0.2-0.1,0.3-0.1h35.6c0.2,0,0.4,0.1,0.5,0.2
				c0.1,0.1,0.2,0.3,0.2,0.5l0.2,41h2.8c0.1,0,0.2,0,0.3,0.1c0.1,0,0.2,0.1,0.3,0.2c0.1,0.1,0.1,0.2,0.1,0.3c0,0.1,0,0.2,0,0.3
				C54.3,54.3,53.7,58.5,50.3,58.5z M22.6,57h27.8c1.4,0,2-1.4,2.4-2.3h-29C23.6,55.6,23.2,56.4,22.6,57z M15,13v40.7
				c-0.1,0.9,0.2,1.8,0.8,2.6c0.3,0.3,0.6,0.5,1,0.6c0.4,0.1,0.7,0.2,1.1,0.2c3.6,0,4.1-1.3,4.5-3.2c0-0.2,0.1-0.3,0.3-0.4
				c0.1-0.1,0.3-0.2,0.5-0.2h26.2L49.2,13L15,13z"/>
			<path class="st4" d="M32.9,28.2h-5c-0.1,0-0.1,0-0.2-0.1c0,0-0.1-0.1-0.1-0.2c0-0.1,0-0.1,0.1-0.2c0,0,0.1-0.1,0.2-0.1h5
				c0.1,0,0.1,0,0.2,0.1c0,0,0.1,0.1,0.1,0.2c0,0.1,0,0.1-0.1,0.2C33,28.2,32.9,28.2,32.9,28.2z"/>
			<path class="st4" d="M28.4,20.9h-5c-0.1,0-0.1,0-0.2-0.1c0,0-0.1-0.1-0.1-0.2c0-0.1,0-0.1,0.1-0.2c0,0,0.1-0.1,0.2-0.1h5
				c0.1,0,0.1,0,0.2,0.1c0,0,0.1,0.1,0.1,0.2c0,0.1,0,0.1-0.1,0.2C28.5,20.9,28.4,20.9,28.4,20.9z"/>
			<path class="st4" d="M40,20.9H29.1c-0.1,0-0.1,0-0.2-0.1c0,0-0.1-0.1-0.1-0.2c0-0.1,0-0.1,0.1-0.2c0,0,0.1-0.1,0.2-0.1H40
				c0.1,0,0.1,0,0.2,0.1c0,0,0.1,0.1,0.1,0.2c0,0.1,0,0.1-0.1,0.2C40.1,20.9,40,20.9,40,20.9z"/>
			<path class="st4" d="M42.1,20.9h-1.3c-0.1,0-0.1,0-0.2-0.1c0,0-0.1-0.1-0.1-0.2c0-0.1,0-0.1,0.1-0.2c0,0,0.1-0.1,0.2-0.1h1.3
				c0.1,0,0.1,0,0.2,0.1c0,0,0.1,0.1,0.1,0.2c0,0.1,0,0.1-0.1,0.2C42.2,20.9,42.2,20.9,42.1,20.9z"/>
			<path class="st4" d="M28.4,24.6h-5c-0.1,0-0.1,0-0.2-0.1c0,0-0.1-0.1-0.1-0.2c0-0.1,0-0.1,0.1-0.2c0,0,0.1-0.1,0.2-0.1h5
				c0.1,0,0.1,0,0.2,0.1c0,0,0.1,0.1,0.1,0.2c0,0.1,0,0.1-0.1,0.2C28.5,24.5,28.4,24.6,28.4,24.6z"/>
			<path class="st4" d="M38.6,28.2h-5c-0.1,0-0.1,0-0.2-0.1c0,0-0.1-0.1-0.1-0.2c0-0.1,0-0.1,0.1-0.2c0,0,0.1-0.1,0.2-0.1h5
				c0.1,0,0.1,0,0.2,0.1c0,0,0.1,0.1,0.1,0.2c0,0.1,0,0.1-0.1,0.2C38.7,28.2,38.6,28.2,38.6,28.2z"/>
			<path class="st4" d="M42.7,24.6H31.8c-0.1,0-0.1,0-0.2-0.1c0,0-0.1-0.1-0.1-0.2c0-0.1,0-0.1,0.1-0.2c0,0,0.1-0.1,0.2-0.1h10.9
				c0.1,0,0.1,0,0.2,0.1c0,0,0.1,0.1,0.1,0.2c0,0.1,0,0.1-0.1,0.2C42.8,24.5,42.8,24.6,42.7,24.6z"/>
			<path class="st4" d="M30.7,24.6h-1.3c-0.1,0-0.1,0-0.2-0.1c0,0-0.1-0.1-0.1-0.2c0-0.1,0-0.1,0.1-0.2c0,0,0.1-0.1,0.2-0.1h1.3
				c0.1,0,0.1,0,0.2,0.1c0,0,0.1,0.1,0.1,0.2c0,0.1,0,0.1-0.1,0.2C30.9,24.5,30.8,24.6,30.7,24.6z"/>
			<path class="st4" d="M41,28.2h-1.3c-0.1,0-0.1,0-0.2-0.1c0,0-0.1-0.1-0.1-0.2c0-0.1,0-0.1,0.1-0.2c0,0,0.1-0.1,0.2-0.1H41
				c0.1,0,0.1,0,0.2,0.1c0,0,0.1,0.1,0.1,0.2c0,0.1,0,0.1-0.1,0.2C41.1,28.2,41.1,28.2,41,28.2z"/>
			<path class="st4" d="M25,28.2h-1.3c-0.1,0-0.1,0-0.2-0.1c0,0-0.1-0.1-0.1-0.2c0-0.1,0-0.1,0.1-0.2c0,0,0.1-0.1,0.2-0.1H25
				c0.1,0,0.1,0,0.2,0.1c0,0,0.1,0.1,0.1,0.2c0,0.1,0,0.1-0.1,0.2C25.2,28.2,25.1,28.2,25,28.2z"/>
			<path class="st4" d="M27.2,28.2h-1.3c-0.1,0-0.1,0-0.2-0.1c0,0-0.1-0.1-0.1-0.2c0-0.1,0-0.1,0.1-0.2c0,0,0.1-0.1,0.2-0.1h1.3
				c0.1,0,0.1,0,0.2,0.1c0,0,0.1,0.1,0.1,0.2c0,0.1,0,0.1-0.1,0.2C27.3,28.2,27.3,28.2,27.2,28.2z"/>
			<path class="st4" d="M28.7,30.5h-5c-0.1,0-0.1,0-0.2-0.1c0,0-0.1-0.1-0.1-0.2c0-0.1,0-0.1,0.1-0.2c0,0,0.1-0.1,0.2-0.1h5
				c0.1,0,0.1,0,0.2,0.1c0,0,0.1,0.1,0.1,0.2c0,0.1,0,0.1-0.1,0.2C28.8,30.5,28.8,30.5,28.7,30.5z"/>
			<path class="st4" d="M40.3,30.5H29.4c-0.1,0-0.1,0-0.2-0.1c0,0-0.1-0.1-0.1-0.2c0-0.1,0-0.1,0.1-0.2c0,0,0.1-0.1,0.2-0.1h10.9
				c0.1,0,0.1,0,0.2,0.1c0,0,0.1,0.1,0.1,0.2c0,0.1,0,0.1-0.1,0.2C40.5,30.5,40.4,30.5,40.3,30.5z"/>
			<path class="st4" d="M42.5,30.5h-1.3c-0.1,0-0.1,0-0.2-0.1c0,0-0.1-0.1-0.1-0.2c0-0.1,0-0.1,0.1-0.2c0,0,0.1-0.1,0.2-0.1h1.3
				c0.1,0,0.1,0,0.2,0.1c0,0,0.1,0.1,0.1,0.2c0,0.1,0,0.1-0.1,0.2C42.6,30.5,42.5,30.5,42.5,30.5z"/>
			<path class="st4" d="M28.7,34.1h-5c-0.1,0-0.1,0-0.2-0.1c0,0-0.1-0.1-0.1-0.2c0-0.1,0-0.1,0.1-0.2c0,0,0.1-0.1,0.2-0.1h5
				c0.1,0,0.1,0,0.2,0.1c0,0,0.1,0.1,0.1,0.2c0,0.1,0,0.1-0.1,0.2C28.8,34.1,28.8,34.1,28.7,34.1z"/>
			<path class="st4" d="M33.2,37.8h-5c-0.1,0-0.1,0-0.2-0.1c0,0-0.1-0.1-0.1-0.2s0-0.1,0.1-0.2c0,0,0.1-0.1,0.2-0.1h5
				c0.1,0,0.1,0,0.2,0.1c0,0,0.1,0.1,0.1,0.2s0,0.1-0.1,0.2C33.3,37.8,33.3,37.8,33.2,37.8z"/>
			<path class="st4" d="M43,34.1H32.2c-0.1,0-0.1,0-0.2-0.1c0,0-0.1-0.1-0.1-0.2c0-0.1,0-0.1,0.1-0.2c0,0,0.1-0.1,0.2-0.1H43
				c0.1,0,0.1,0,0.2,0.1c0,0,0.1,0.1,0.1,0.2c0,0.1,0,0.1-0.1,0.2C43.2,34.1,43.1,34.1,43,34.1z"/>
			<path class="st4" d="M31.1,34.1h-1.3c-0.1,0-0.1,0-0.2-0.1c0,0-0.1-0.1-0.1-0.2c0-0.1,0-0.1,0.1-0.2c0,0,0.1-0.1,0.2-0.1h1.3
				c0.1,0,0.1,0,0.2,0.1c0,0,0.1,0.1,0.1,0.2c0,0.1,0,0.1-0.1,0.2C31.2,34.1,31.1,34.1,31.1,34.1z"/>
			<path class="st4" d="M35.2,37.8h-1.3c-0.1,0-0.1,0-0.2-0.1c0,0-0.1-0.1-0.1-0.2s0-0.1,0.1-0.2c0,0,0.1-0.1,0.2-0.1h1.3
				c0.1,0,0.1,0,0.2,0.1c0,0,0.1,0.1,0.1,0.2s0,0.1-0.1,0.2C35.3,37.8,35.3,37.8,35.2,37.8z"/>
			<path class="st4" d="M28.7,40.7h-5c0,0-0.1,0-0.1,0c0,0-0.1,0-0.1-0.1c0,0,0,0-0.1-0.1c0,0,0-0.1,0-0.1c0,0,0-0.1,0-0.1
				c0,0,0-0.1,0.1-0.1c0,0,0,0,0.1-0.1c0,0,0.1,0,0.1,0h5c0.1,0,0.1,0,0.2,0.1c0,0,0.1,0.1,0.1,0.2c0,0.1,0,0.1-0.1,0.2
				C28.8,40.7,28.8,40.7,28.7,40.7z"/>
			<path class="st4" d="M30.7,40.7h-1.3c-0.1,0-0.1,0-0.2-0.1c0,0-0.1-0.1-0.1-0.2c0-0.1,0-0.1,0.1-0.2c0,0,0.1-0.1,0.2-0.1h1.3
				c0.1,0,0.1,0,0.2,0.1c0,0,0.1,0.1,0.1,0.2c0,0.1,0,0.1-0.1,0.2C30.8,40.7,30.7,40.7,30.7,40.7z"/>
			<path class="st4" d="M25.4,37.8H24c-0.1,0-0.1,0-0.2-0.1c0,0-0.1-0.1-0.1-0.2s0-0.1,0.1-0.2c0,0,0.1-0.1,0.2-0.1h1.3
				c0.1,0,0.1,0,0.2,0.1c0,0,0.1,0.1,0.1,0.2s0,0.1-0.1,0.2C25.5,37.8,25.4,37.8,25.4,37.8z"/>
			<path class="st4" d="M27.5,37.8h-1.3c-0.1,0-0.1,0-0.2-0.1c0,0-0.1-0.1-0.1-0.2s0-0.1,0.1-0.2c0,0,0.1-0.1,0.2-0.1h1.3
				c0.1,0,0.1,0,0.2,0.1c0,0,0.1,0.1,0.1,0.2s0,0.1-0.1,0.2C27.6,37.8,27.6,37.8,27.5,37.8z"/>
			<path class="st6" d="M48,50.4c4.2,0,7.7-3.4,7.7-7.7s-3.4-7.7-7.7-7.7c-4.2,0-7.7,3.4-7.7,7.7S43.8,50.4,48,50.4z"/>
			<path class="st4" d="M48,51.2c-1.7,0-3.3-0.5-4.7-1.4c-1.4-0.9-2.5-2.2-3.1-3.8c-0.6-1.5-0.8-3.2-0.5-4.9
				c0.3-1.6,1.1-3.1,2.3-4.3c1.2-1.2,2.7-2,4.3-2.3c1.6-0.3,3.3-0.2,4.9,0.5c1.5,0.6,2.9,1.7,3.8,3.1c0.9,1.4,1.4,3,1.4,4.7
				c0,2.2-0.9,4.4-2.5,6C52.4,50.3,50.3,51.2,48,51.2z M48,35.8c-1.4,0-2.7,0.4-3.9,1.2c-1.1,0.8-2,1.8-2.6,3.1
				c-0.5,1.3-0.7,2.7-0.4,4c0.3,1.3,0.9,2.6,1.9,3.5c1,1,2.2,1.6,3.6,1.9c1.3,0.3,2.7,0.1,4-0.4c1.3-0.5,2.4-1.4,3.1-2.6
				c0.8-1.1,1.2-2.5,1.2-3.9c0-1.8-0.7-3.6-2-4.9C51.6,36.5,49.9,35.8,48,35.8z"/>
			<path class="st4" d="M46.5,45.4C46.5,45.4,46.5,45.4,46.5,45.4c-0.1,0-0.1,0-0.2-0.1l-2.8-2.8c0,0,0,0-0.1-0.1c0,0,0-0.1,0-0.1
				c0,0,0-0.1,0-0.1c0,0,0-0.1,0.1-0.1c0,0,0.1-0.1,0.2-0.1c0.1,0,0.1,0,0.2,0.1l2.6,2.6l5-4.9c0,0,0.1-0.1,0.2,0
				c0.1,0,0.1,0,0.2,0.1c0,0,0.1,0.1,0.1,0.2c0,0.1,0,0.1,0,0.2l-5.1,5.1C46.7,45.4,46.6,45.4,46.5,45.4z"/>
		</g>
	</g>
</g>
</svg>
