<?xml version="1.0" encoding="utf-8"?>
<!-- Generator: Adobe Illustrator 25.2.1, SVG Export Plug-In . SVG Version: 6.00 Build 0)  -->
<svg version="1.1" id="Layer_1" xmlns="http://www.w3.org/2000/svg" xmlns:xlink="http://www.w3.org/1999/xlink" x="0px" y="0px"
	 viewBox="0 0 70 70" style="enable-background:new 0 0 70 70;" xml:space="preserve">
<style type="text/css">
	.st0{clip-path:url(#SVGID_2_);}
	.st1{fill:#004161;}
</style>
<g>
	<g>
		<defs>
			<rect id="SVGID_1_" x="3.5" y="3.3" width="63" height="63"/>
		</defs>
		<clipPath id="SVGID_2_">
			<use xlink:href="#SVGID_1_"  style="overflow:visible;"/>
		</clipPath>
		<g class="st0">
			<path class="st1" d="M59.3,39.8c0.2-0.9-0.1-1.8-0.6-2.4c-0.5-0.7-1.4-1.1-2.2-1.1H52c-0.9-3.7-2.9-6.3-6.2-7.7
				c-0.5-1.9-0.9-5.3,0-11.8c0-0.3,0.3-6.9-4.1-11c-3.6-3.4-7.3-2.7-9.3-2.3c-0.4,0.1-0.8,0.2-0.9,0.2c-2.1,0-8.3,2.2-8.7,9.1
				c-0.2,2.5,0,4.9,0.2,7.3c0.2,2.9,0.4,5.7-0.1,8.1c-3.7,1.2-6,3.9-7,8h-4.2c-0.9,0-1.7,0.4-2.2,1.1c-0.5,0.7-0.8,1.5-0.6,2.4
				L13,62.4c0,0.2,0.1,0.3,0.2,0.5l-0.1,0.1c-0.4,0.4-0.5,0.9-0.5,1.4c0,1.1,0.9,1.9,1.9,1.9h38.9c0.5,0,1-0.2,1.4-0.5
				c0.4-0.4,0.5-0.9,0.5-1.4c0-0.5-0.2-0.9-0.5-1.2c0.1-0.2,0.2-0.4,0.2-0.6L59.3,39.8z M24.2,13c0.5-6.3,6.3-7.7,7.2-7.7
				c0.3,0,0.7-0.1,1.2-0.2c1.9-0.4,4.9-0.9,8,1.9c3.9,3.6,3.6,9.7,3.6,9.7c-0.6,4.7-0.7,8.5-0.2,11.2c-0.3-0.1-0.5-0.2-0.9-0.2
				c-0.1,0-0.2,0-0.2-0.1c-0.2-0.1-0.5-0.1-0.7-0.2h-0.1c-0.2,0-0.5-0.1-0.6-0.1c-0.1,0-0.2,0-0.2,0c-0.2,0-0.4,0-0.5-0.1
				c-0.1,0-0.2,0-0.2,0c-1.1,0.1-1.5-0.5-1.7-0.9c0-0.1-0.1-0.2-0.1-0.2c1.3-1.2,2.3-2.9,2.9-4.9c0.4-1.2,0.5-2.6,0.5-3.9
				c0-0.5,0-1.2-0.1-1.8v-0.2L42,15.7c-2.4-1.1-8-3.6-9.6-4.8C31.2,10,30,9.6,29,10c-0.9,0.2-1.5,0.9-1.9,2
				c-0.5,1.5-1.3,3.6-1.8,4.9v0.1c0,0.2,0,0.5,0,0.8c0,1.4,0.2,2.7,0.5,3.9c0.5,1.9,1.6,3.7,2.9,4.9c0,0.2-0.5,0.9-1.7,1h-0.1
				c-0.1,0-0.2,0-0.2,0c-0.2,0-0.2,0-0.4,0h-0.1c-0.2,0-0.3,0-0.5,0.1c-0.2,0-0.4,0.1-0.6,0.1c-0.1,0-0.1,0-0.2,0
				c-0.2,0-0.4,0.1-0.5,0.1h-0.1c0.3-2.4,0.2-5,0-7.7C24.2,17.8,24,15.4,24.2,13z M33.8,28.1c-1.5,0-2.9-0.5-4.1-1.5
				c-1.5-1.2-2.6-2.9-3.2-5C26.2,20.3,26,19,26,17.7c0-0.2,0-0.5,0-0.7c0.5-1.3,1.2-3.3,1.8-4.8c0.3-0.9,0.9-1.5,1.5-1.6
				c0.8-0.2,1.8,0.1,2.9,0.9c1.5,1.1,6.5,3.4,9.5,4.7c0.1,0.5,0.1,1,0.1,1.5c0,1.3-0.2,2.6-0.5,3.7C40,25.4,37.1,28.1,33.8,28.1z
				 M30,27.5c1.2,0.8,2.5,1.2,3.8,1.2c1.3,0,2.6-0.4,3.8-1.2c0.2,0.5,0.8,1.2,2.2,1.5c-1,1.2-2.5,2-4,2.5c-1.4,0.4-2.9,0.3-4.3-0.1
				c-1.5-0.4-2.8-1.2-3.7-2.4C29.4,28.7,29.9,28,30,27.5z M23.6,29.7c1.3-0.4,2.6-0.5,3.3-0.5H27c1.1,1.4,2.6,2.4,4.3,2.9
				c0.8,0.2,1.6,0.3,2.5,0.3c0.8,0,1.5-0.1,2.2-0.2c1.9-0.5,3.5-1.5,4.6-2.9h0.1c0.2,0,0.5,0.1,0.8,0.1c0.2,0,0.3,0.1,0.5,0.1
				c0.9,0.1,1.8,0.3,2.8,0.7c2.9,1.1,4.7,3.2,5.6,6.3H17.3C18.2,32.9,20.3,30.7,23.6,29.7z M10.3,39.6c-0.1-0.4,0-0.9,0.3-1.2
				c0.2-0.3,0.7-0.5,1.1-0.5h44.6c0.4,0,0.8,0.2,1.1,0.5c0.2,0.3,0.4,0.8,0.3,1.2l-4.2,22.5c0,0.2-0.1,0.2-0.2,0.4
				c-0.2,0.5-0.7,0.8-1.2,0.8H15.9c-0.5,0-1.1-0.3-1.3-0.9c-0.1-0.1-0.1-0.2-0.1-0.3L10.3,39.6z M54.3,65.3
				c-0.2,0.2-0.6,0.4-0.9,0.4h-39c-0.8,0-1.3-0.6-1.3-1.3c0-0.3,0.2-0.6,0.3-0.9c0.5,0.9,1.5,1.4,2.5,1.4h36.3
				c0.9,0,1.8-0.5,2.3-1.2c0.2,0.2,0.2,0.5,0.2,0.7C54.7,64.6,54.6,65,54.3,65.3z"/>
			<path class="st1" d="M33.8,52.3c0.9,0,1.7-0.8,1.7-1.7c0-0.9-0.8-1.7-1.7-1.7c-0.9,0-1.7,0.8-1.7,1.7
				C32.1,51.6,32.9,52.3,33.8,52.3z M33.8,49.6c0.6,0,1.1,0.5,1.1,1.1c0,0.6-0.5,1.1-1.1,1.1c-0.6,0-1.1-0.5-1.1-1.1
				C32.7,50,33.2,49.6,33.8,49.6z"/>
		</g>
	</g>
</g>
</svg>
