<?xml version="1.0" encoding="utf-8"?>
<!-- Generator: Adobe Illustrator 25.2.1, SVG Export Plug-In . SVG Version: 6.00 Build 0)  -->
<svg version="1.1" id="Layer_1" xmlns="http://www.w3.org/2000/svg" xmlns:xlink="http://www.w3.org/1999/xlink" x="0px" y="0px"
	 viewBox="0 0 70 70" style="enable-background:new 0 0 70 70;" xml:space="preserve">
<style type="text/css">
	.st0{fill:#313131;}
</style>
<path class="st0" d="M35,1.5l-0.6,1.1c0,0-1.9,3.4-3.7,7.7c-1.9,4.3-3.7,9.5-3.7,13.4c0,2.3,0.4,4.5,0.9,6.5
	c-3.1-3.1-7.8-4.8-11.7-4.9c-1.3,0-2.7,0.2-3.8,0.6c-2.7,1-4.5,3.1-5,5.6c-0.5,2.5,0.1,5.5,2,8.1c1.7,2.3,4.1,3.4,6.1,3.8
	c1.8,0.5,3.6,0.3,5.2,0l-0.9-0.9c0,0-0.9-0.9-1.1-1.3c-0.9-1.3-1.1-2.5-0.9-3.6c0.2-1,0.9-1.9,2.1-2.5c0.7-0.3,1.3-0.4,2-0.2
	c0.7,0.2,1.4,0.6,2,1.2c1.3,1.2,2.4,3.2,2.8,5l0,0.1c0,0.1-0.1,0.2-0.1,0.3c-0.3,1.3-0.1,2.5,0.4,3.4c0.4,0.7,1,1.2,1.7,1.6l0,0.1
	c0,1-0.3,2.2-0.8,3c-0.3,0.4-0.5,0.7-0.8,0.9c-0.3,0.2-0.5,0.2-0.9,0.1c-0.6-0.1-1-0.5-1.2-0.9c-0.2-0.4-0.3-1,0-1.8h0
	c0.1-0.2,0.4-0.8,0.4-0.8l0.7-1.1c-1.3,0-2.5,0.2-3.5,0.7c-1.1,0.5-2.3,1.4-3,3c-0.7,1.8-0.7,3.5-0.1,4.9c0.7,1.4,2,2.4,3.7,2.6
	c1.7,0.2,3.6-0.4,5.2-1.4c0.8-0.5,1.5-1.1,2.1-1.8c-1.2,3.4-2.4,6.3-2.4,6.3l-0.9,2l1.9-1.1c0,0,0.5-0.3,1.2-0.5
	c0.5-0.2,1-0.2,1.4-0.2c0,0.2,0,0.5,0,0.8c0,0.7,0,1.4,0,1.4c0,2.8,2.7,4.8,2.7,4.8l0.4,0.3l0.4-0.3c0,0,2.7-2,2.7-4.8
	c0-0.1,0-0.8,0-1.4c0-0.3,0-0.5,0-0.8c0.4,0,0.9,0.1,1.4,0.2c0.7,0.2,1.2,0.6,1.2,0.6l1.8,1.1l-0.8-2c0,0-0.9-2.2-1.9-5
	c-0.1-0.4-0.3-0.8-0.4-1.3c0.6,0.7,1.3,1.2,2,1.7c1.6,1,3.5,1.6,5.2,1.4c1.7-0.2,3-1.2,3.7-2.6c0.7-1.4,0.7-3.2-0.1-4.9
	c-0.6-1.6-1.9-2.5-3-3c-1.2-0.6-2.3-0.7-3.5-0.7l0.7,1.1c0,0,0.4,0.6,0.4,0.8c0.3,0.8,0.2,1.4,0,1.8c-0.2,0.4-0.6,0.7-1.2,0.9
	c-0.3,0.1-0.6,0-0.9-0.1c-0.3-0.2-0.6-0.4-0.8-0.8c-0.5-0.8-0.8-1.9-0.8-2.9v0c0,0,0.1,0,0.1,0c0.8-0.4,1.5-1,1.8-1.9
	c0.4-0.9,0.4-1.9,0.3-3.2c0-0.2-0.1-0.3-0.1-0.5l0,0c0.5-1.8,1.5-3.8,2.8-5c0.6-0.6,1.3-1,2-1.2c0.7-0.2,1.3-0.2,2,0.2
	c1.2,0.6,1.9,1.4,2.1,2.5c0.2,1,0,2.2-0.9,3.6c-0.3,0.4-1.1,1.3-1.1,1.3l-0.9,0.9l1.3,0.3c0.3,0.1,0.7,0.1,1.4,0.1
	c0.7,0,1.6-0.1,2.6-0.3c2-0.4,4.4-1.5,6.1-3.8c1.9-2.7,2.6-5.6,2-8.1c-0.5-2.5-2.3-4.6-5-5.6c-1.5-0.4-2.4-0.6-3.8-0.6
	c-3.8,0.1-8.5,1.8-11.7,4.9c0.6-1.9,0.9-4.1,0.9-6.4c0-3.9-1.9-9.1-3.7-13.4c-1.9-4.3-3.7-7.7-3.7-7.7L35,1.5z M35,4.6
	c0.6,1.2,1.7,3.3,3,6.3c1.8,4.2,3.6,9.4,3.6,12.9c0,2.5-0.4,4.8-1,6.8C40,32.4,39,33.9,38.2,36l0,0l0,0c-0.6,1.5-1,3-1.3,4.6
	c0,0.1-0.2,0.5-0.2,0.6c-0.5,0-1,0-1.6,0c-0.6,0-1.1,0-1.6,0c0,0-0.1-0.2-0.1-0.2c-0.4-1.9-0.9-3.7-1.6-5.4v0l0,0
	c-0.7-1.7-1.7-3.3-2.3-4.9l0,0l0,0c-0.7-2-1.1-4.3-1.1-6.9c0-3.5,1.8-8.6,3.6-12.9C33.3,7.8,34.4,5.8,35,4.6L35,4.6z M16.2,26.8
	c4.1,0.1,9.8,2.5,12.3,6.4c1.9,2.9,3,6.6,3.3,7.8c-0.4,0-0.6,0-1.2-0.1c-1.1-0.1-2.2-0.2-2.7-0.3c-0.6-2-1.7-3.9-3.1-5.3
	c-0.8-0.7-1.6-1.3-2.6-1.6c-1-0.3-2-0.2-3,0.3c-1.5,0.7-2.5,2-2.9,3.4c-0.3,1.5,0,3.1,1.1,4.7c0.1,0.1,0.1,0.2,0.3,0.3
	c-0.6,0-1.2-0.1-1.9-0.2c-1.8-0.4-3.8-1.3-5.2-3.3c-1.7-2.4-2.3-4.9-1.8-7c0.4-2.1,1.8-3.8,4.1-4.6C14,26.9,15.1,26.8,16.2,26.8
	L16.2,26.8z M53.9,26.8c1.1,0,2.3,0.2,3.3,0.5c2.3,0.8,3.7,2.5,4.1,4.6c0.4,2.1-0.1,4.6-1.8,7c-1.4,2-3.5,2.9-5.2,3.3
	c-0.7,0.2-1.4,0.2-1.9,0.2c0.1-0.1,0.2-0.2,0.3-0.3c1.1-1.6,1.4-3.2,1.1-4.7c-0.3-1.5-1.4-2.7-2.9-3.4c-1-0.5-2-0.5-3-0.3
	c-1,0.3-1.8,0.8-2.6,1.6c-1.4,1.4-2.5,3.3-3.1,5.3c-0.5,0.1-1.6,0.2-2.6,0.3C38.8,41,38.6,41,38.2,41c0.4-1.3,1.5-5,3.3-7.9
	C44.1,29.3,49.7,26.8,53.9,26.8L53.9,26.8z M28.1,31.1C28.1,31.1,28.1,31.1,28.1,31.1C28.1,31.1,28.1,31.1,28.1,31.1L28.1,31.1z
	 M28.1,42.5c2.1,0.4,4.5,0.7,7,0.7h0c2.5,0,4.9-0.3,7-0.7c0.1,0.9,0,1.6-0.2,2c-0.2,0.5-0.6,0.9-1.1,1.2c-1.1,0.6-3.1,0.7-5.7,0.9
	c-1.3,0.1-3.5,0-5-0.7c-0.8-0.3-1.4-0.8-1.7-1.4C28,44,28,43.3,28.1,42.5L28.1,42.5z M30.1,47.8c0.3,0.1,0.5,0.2,0.8,0.2
	c0.3,0.1,0.6,0.1,0.8,0.1c-0.1,0.8-0.4,1.9-0.9,3.1c-0.5,1.5-1.7,2.8-3.1,3.7c-1.4,0.9-3,1.3-4.3,1.2c-1.3-0.1-2.1-0.8-2.6-1.8
	c-0.5-1-0.5-2.3,0.1-3.8c0.5-1.2,1.4-1.9,2.3-2.3c0.2-0.1,0.3-0.1,0.4-0.1c-0.2,0.9-0.3,1.8,0.1,2.5c0.4,0.8,1.2,1.4,2.2,1.7
	c0.7,0.2,1.4,0,1.9-0.3s1-0.8,1.3-1.3C29.8,49.8,30,48.8,30.1,47.8L30.1,47.8z M39.9,47.8c0.1,1,0.4,2,1,2.9c0.3,0.5,0.8,1,1.3,1.3
	c0.5,0.3,1.2,0.4,1.9,0.3c1-0.2,1.8-0.8,2.2-1.7c0.4-0.7,0.3-1.6,0.1-2.5c0.1,0.1,0.3,0.1,0.4,0.1c0.9,0.4,1.8,1.1,2.3,2.3
	c0.6,1.5,0.6,2.8,0.1,3.8c-0.5,1-1.3,1.6-2.6,1.8c-1.3,0.1-2.9-0.3-4.3-1.2c-1.4-0.9-2.6-2.2-3.1-3.7c-0.4-1.2-0.8-2.3-0.9-3.1
	c0.3,0,0.5-0.1,0.9-0.1C39.5,47.9,39.7,47.9,39.9,47.8L39.9,47.8z M36.4,48.3c0.4,2.3,1.3,5.2,2.2,7.8c0.7,1.9,1,2.6,1.3,3.5
	c-0.8-0.3-1.7-0.5-2.7-0.2l-0.5,0.2l0,0.5c0-0.1,0,0.2,0,0.4c0,0.3,0,0.6,0,0.9c0,0.7,0,1.4,0,1.4c0,1.5-1.2,2.7-1.7,3.2
	c-0.6-0.5-1.7-1.7-1.7-3.2c0-0.1,0-0.7,0-1.4c0-0.3,0-0.7,0-0.9c0-0.3,0-0.5,0-0.4l0-0.5l-0.5-0.2c-0.9-0.3-1.9-0.1-2.6,0.2
	c0.8-2,2.8-6.8,3.5-11.2c0.5,0,1,0,1.4,0C35.6,48.4,36,48.4,36.4,48.3L36.4,48.3z M36.4,48.3"/>
</svg>
