<?xml version="1.0" encoding="utf-8"?>
<!-- Generator: Adobe Illustrator 26.0.1, SVG Export Plug-In . SVG Version: 6.00 Build 0)  -->
<svg version="1.1" id="Layer_1" xmlns="http://www.w3.org/2000/svg" xmlns:xlink="http://www.w3.org/1999/xlink" x="0px" y="0px"
	 viewBox="0 0 70 70" style="enable-background:new 0 0 70 70;" xml:space="preserve">
<style type="text/css">
	.st0{display:none;}
	.st1{display:inline;}
	.st2{fill:#3ea9c436;}
</style>
<g>
	<g class="st0">
		<g class="st1">
			<polygon points="-789.8,179.2 -705.6,179.2 -720.5,246.1 -812.1,332.7 -836.6,332.7 			"/>
			<polygon points="-659.2,179.2 -575,179.2 -589.9,246.1 -681.5,332.7 -706,332.7 			"/>
		</g>
		<g class="st1">
			<g>
				<polygon points="-285.2,179.2 -221.5,179.2 -285.2,332.7 -317,332.7 				"/>
			</g>
			<g>
				<polygon points="-154.5,179.2 -90.9,179.2 -154.5,332.7 -186.4,332.7 				"/>
			</g>
		</g>
		<g class="st1">
			<path d="M-1313.3,179.2v91h20.8c-2.4,11-8.7,20.7-17.8,27.3l-3.1,2.2v33l9-2c26.4-5.8,48.6-23.1,60.8-46.6
				c3.9-7.5,5.9-15.9,6.4-24.3l4.5-80.6H-1313.3z"/>
			<path d="M-1182.7,179.2v91h20.8c-2.4,11-8.7,20.7-17.8,27.3l-3.1,2.2v33l9-2c26.4-5.8,48.6-23.1,60.8-46.6
				c3.9-7.5,5.9-15.9,6.4-24.3l4.5-80.6H-1182.7z"/>
		</g>
		<g class="st1">
			<g>
				<path d="M749.6,183.1c0,33.2-33.2,114.9-67.1,148.1c-1.5,0.8-2.3,1.5-3.1,1.5c-1.5,0-9.3-6.2-8.5-9.3
					c13.1-42.4,15.4-91,16.2-115.7c0-3.9,3.1-10,13.1-13.9c17-6.2,44-14.7,47.1-14.7c1.5,0,2.3,0.8,2.3,3.1V183.1z"/>
			</g>
			<g>
				<path d="M880.2,183.1c0,33.2-33.2,114.9-67.1,148.1c-1.5,0.8-2.3,1.5-3.1,1.5c-1.5,0-9.3-6.2-8.5-9.3
					c13.1-42.4,15.4-91,16.2-115.7c0-3.9,3.1-10,13.1-13.9c17-6.2,44-14.7,47.1-14.7c1.5,0,2.3,0.8,2.3,3.1V183.1z"/>
			</g>
		</g>
		<g class="st1">
			<g>
				<path d="M1145,332.7l48.3-82.3c-13.7-5.3-21.4-13.7-22.9-25.3c0-14.8,11.3-27.7,34-38.8c10-4.7,19-7.1,26.9-7.1
					c16.9,0,25.3,9.2,25.3,27.7c0,15.3-11.1,36.1-33.2,62.5C1188.5,311.6,1162.4,332.7,1145,332.7z"/>
			</g>
			<g>
				<path d="M1275.7,332.7l48.3-82.3c-13.7-5.3-21.4-13.7-22.9-25.3c0-14.8,11.3-27.7,34-38.8c10-4.7,19-7.1,26.9-7.1
					c16.9,0,25.3,9.2,25.3,27.7c0,15.3-11.1,36.1-33.2,62.5C1319.2,311.6,1293.1,332.7,1275.7,332.7z"/>
			</g>
		</g>
		<g class="st1">
			<g>
				<path d="M200.3,179.2H269v58.4l-48.9,94.9l-44,0.2l24.2-95.1V179.2z"/>
			</g>
			<g>
				<path d="M330.9,179.2h68.7v58.4l-48.9,94.9l-44,0.2l24.2-95.1V179.2z"/>
			</g>
		</g>
	</g>
	<g class="st0">
		<g class="st1">
			<path d="M-1211.8-654.1c-1-12.3-5.2-24-13.6-33.9c-8-9.4-19.2-15.2-31.4-16.7c-2.1-0.2-4.2-0.4-6.3-0.4
				c-22.7,0-41.9,14.7-48.6,35.2c-1.6,5-2.5,10.3-2.5,15.8c0,1.5,0,3,0.2,4.4c2.2,26.1,24.1,46.7,50.9,46.7c0.7,0,1.4,0,2.1,0
				c-7.2,26.2-21.5,45.4-38.2,50.2c2.2,0.8,4.7,1.2,7.5,1.2c16.5,0,32.7-10.7,44.6-21.1C-1226-591.1-1209.3-624.2-1211.8-654.1z"/>
			<path d="M-1081.2-654.1c-1-12.3-5.2-24-13.6-33.9c-8-9.4-19.2-15.2-31.4-16.7c-2.1-0.2-4.2-0.4-6.3-0.4
				c-22.7,0-41.9,14.7-48.6,35.2c-1.6,5-2.5,10.3-2.5,15.8c0,1.5,0,3,0.2,4.4c2.2,26.1,24.1,46.7,50.9,46.7c0.7,0,1.4,0,2.1,0
				c-7.2,26.2-21.5,45.4-38.2,50.2c2.2,0.8,4.7,1.2,7.5,1.2c16.5,0,32.7-10.7,44.6-21.1C-1095.3-591.1-1078.7-624.2-1081.2-654.1z"
				/>
		</g>
		<g class="st1">
			<path d="M-709.8-653.8c0,2.2-0.2,4.3-0.4,6.4c-0.4,3.9-1.3,7.6-2.6,11.1l-0.1,0.1l-5.2,10.3l-37.1,74.3l-21.7-10.8l20.2-40.4
				c-1.5,0.2-3,0.2-4.5,0.2c-28.3,0-51.3-23-51.3-51.3c0-28.3,23-51.3,51.3-51.3C-732.8-705.1-709.8-682.1-709.8-653.8z"/>
			<path d="M-579.2-653.8c0,2.2-0.2,4.3-0.4,6.4c-0.4,3.9-1.3,7.6-2.6,11.1l-0.1,0.1l-5.2,10.3l-37.1,74.3l-21.7-10.8l20.2-40.4
				c-1.5,0.2-3,0.2-4.5,0.2c-28.3,0-51.3-23-51.3-51.3c0-28.3,23-51.3,51.3-51.3C-602.1-705.1-579.2-682.1-579.2-653.8z"/>
		</g>
		<g class="st1">
			<g>
				<path d="M1175.6-552.1c-2,0.8-3.9,0.7-5.7-0.3s-3.2-2.4-4.2-4.2c-1-1.8-1.5-3.7-1.5-5.7c0-1.6,0.8-3,2.4-4.2
					c6.8-4.4,13.4-8.8,20-13.1c6.6-4.4,12.5-9.3,17.9-14.6c5.4-5.4,9.8-11.5,13.1-18.2c3.4-6.8,5.1-14.3,5.1-22.7c0-3.6-2-4.6-6-3
					c-3.6,1.6-8.4,2.4-14.3,2.4c-7.6,0-14.1-2.8-19.7-8.4c-5.6-5.6-8.4-13.9-8.4-25.1c0-10,3.6-18.4,10.8-25.4
					c7.2-7,15.9-10.5,26.3-10.5c7.2,0,13.6,1.4,19.4,4.2c5.8,2.8,10.7,6.6,14.6,11.3c4,4.8,7,10.3,9,16.4c2,6.2,3,12.5,3,18.8
					c0,13.9-2.3,26.2-6.9,36.7c-4.6,10.5-10.6,19.9-17.9,28.1c-7.4,8.2-16,15.2-26,21.2C1196.7-562.3,1186.4-556.9,1175.6-552.1z"/>
			</g>
			<g>
				<path d="M1306.2-552.1c-2,0.8-3.9,0.7-5.7-0.3s-3.2-2.4-4.2-4.2c-1-1.8-1.5-3.7-1.5-5.7c0-1.6,0.8-3,2.4-4.2
					c6.8-4.4,13.4-8.8,20-13.1c6.6-4.4,12.5-9.3,17.9-14.6c5.4-5.4,9.8-11.5,13.1-18.2c3.4-6.8,5.1-14.3,5.1-22.7c0-3.6-2-4.6-6-3
					c-3.6,1.6-8.4,2.4-14.3,2.4c-7.6,0-14.1-2.8-19.7-8.4c-5.6-5.6-8.4-13.9-8.4-25.1c0-10,3.6-18.4,10.8-25.4
					c7.2-7,15.9-10.5,26.3-10.5c7.2,0,13.6,1.4,19.4,4.2c5.8,2.8,10.7,6.6,14.6,11.3c4,4.8,7,10.3,9,16.4c2,6.2,3,12.5,3,18.8
					c0,13.9-2.3,26.2-6.9,36.7c-4.6,10.5-10.6,19.9-17.9,28.1c-7.4,8.2-16,15.2-26,21.2C1327.3-562.3,1317-556.9,1306.2-552.1z"/>
			</g>
		</g>
		<g class="st1">
			<g>
				<path d="M-303.4-569.5c7.2-2.4,13.8-6.1,19.8-11c6-5,11.3-10.5,15.9-16.7c4.6-6.2,8.2-12.8,10.8-20c2.6-7.2,3.8-14.4,3.8-21.6
					v-4.6H-289c-3.4-5.5-5.8-10.6-7.2-15.4c-1.4-4.8-2.1-9.6-2.1-14.4c0-5.8,0.8-11.3,2.6-16.4c1.7-5.1,3.9-10.3,6.7-15.4h64.7
					c3.4,8.6,5.8,16.9,7.2,24.9c1.4,8,2.1,15.8,2.1,23.4c0,13.7-2.1,26.4-6.4,38c-4.3,11.6-10.1,22-17.5,31.1
					c-7.4,9.1-15.7,16.7-25.2,22.8c-9.4,6.2-19.3,10.6-29.5,13.3L-303.4-569.5z"/>
			</g>
			<g>
				<path d="M-172.7-569.5c7.2-2.4,13.8-6.1,19.8-11c6-5,11.3-10.5,15.9-16.7c4.6-6.2,8.2-12.8,10.8-20c2.6-7.2,3.8-14.4,3.8-21.6
					v-4.6h-35.9c-3.4-5.5-5.8-10.6-7.2-15.4c-1.4-4.8-2.1-9.6-2.1-14.4c0-5.8,0.8-11.3,2.6-16.4c1.7-5.1,3.9-10.3,6.7-15.4h64.7
					c3.4,8.6,5.8,16.9,7.2,24.9c1.4,8,2.1,15.8,2.1,23.4c0,13.7-2.1,26.4-6.4,38c-4.3,11.6-10.1,22-17.5,31.1
					c-7.4,9.1-15.7,16.7-25.2,22.8c-9.4,6.2-19.3,10.6-29.5,13.3L-172.7-569.5z"/>
			</g>
		</g>
		<g class="st1">
			<g>
				<path d="M189.6-551.6l-7.1-10.9c20-12.7,36.4-25.5,49.2-38.5c12.8-13,21.3-25.4,25.4-37.1c-8.9,7-17.1,10.4-24.7,10.4
					c-8.6,0-15.2-2.8-20-8.3c-4.8-5.5-7.1-12.8-7.1-21.6c0-13,4.1-24.1,12.4-33.5c8.2-9.3,18.4-14,30.4-14c9.8,0,18.1,3.7,24.7,11.2
					c6.7,7.4,10,16.7,10,27.8c0,19-8.8,39.3-26.4,60.8C238.8-583.7,216.5-565.8,189.6-551.6z"/>
			</g>
			<g>
				<path d="M320.2-551.6l-7.1-10.9c20-12.7,36.4-25.5,49.2-38.5c12.8-13,21.3-25.4,25.4-37.1c-8.9,7-17.1,10.4-24.7,10.4
					c-8.6,0-15.2-2.8-20-8.3c-4.8-5.5-7.1-12.8-7.1-21.6c0-13,4.1-24.1,12.4-33.5c8.2-9.3,18.4-14,30.4-14c9.8,0,18.1,3.7,24.7,11.2
					c6.7,7.4,10,16.7,10,27.8c0,19-8.8,39.3-26.4,60.8C369.4-583.7,347.1-565.8,320.2-551.6z"/>
			</g>
		</g>
		<g class="st1">
			<g>
				<path d="M764.6-637.7c0,48.1-43.7,74.9-81.7,86.1l-6.9-18.1c30-12.5,48-28.7,48-52.4c0-22.5-17.5-36.8-39.3-41.8
					c-3.1-0.6-7.5-5-7.5-15.6c0-15.6,15-25.6,30-25.6C729.6-705.1,764.6-681.4,764.6-637.7z"/>
			</g>
			<g>
				<path d="M895.2-637.7c0,48.1-43.7,74.9-81.7,86.1l-6.9-18.1c30-12.5,48-28.7,48-52.4c0-22.5-17.5-36.8-39.3-41.8
					c-3.1-0.6-7.5-5-7.5-15.6c0-15.6,15-25.6,30-25.6C860.3-705.1,895.2-681.4,895.2-637.7z"/>
			</g>
		</g>
	</g>
	<g class="st0">
		<g class="st1">
			<g>
				<g>
					<path d="M-789.8,626.1c28.1,0,56.1,0,84.2,0c-1.5-2-3-3.9-4.5-5.9c-2.9,12.9-5.7,25.8-8.6,38.8c-1.7,7.7-3.4,15.3-5.1,23
						c-0.2,0.9-1.5,4.1-1.1,4.9c-0.4-0.8,2.3-2.6,0.1-0.8c-9.3,7.5-17.7,16.8-26.4,25c-13.3,12.6-26.6,25.2-40,37.8
						c-8.1,7.6-16.1,15.2-24.2,22.9c1.1-0.5,2.2-0.9,3.3-1.4c-8.2,0-16.3,0-24.5,0c1.5,2,3,3.9,4.5,5.9
						c13.7-44.8,27.3-89.7,41-134.5c1.9-6.3,3.9-12.7,5.8-19c1.8-5.8-7.2-8.2-9-2.5c-13.7,44.8-27.3,89.7-41,134.5
						c-1.9,6.3-3.9,12.7-5.8,19c-0.9,2.9,1.5,5.9,4.5,5.9c7.9,0,15.8,0.3,23.7,0c3.8-0.2,6-3.2,8.6-5.6
						c12.8-12.1,25.6-24.2,38.4-36.3c13.6-12.9,27.3-25.8,40.9-38.7c2.5-2.4,5.6-4.6,7.7-7.3c3-3.7,3.2-10.9,4.2-15.4
						c4-17.8,7.9-35.7,11.9-53.5c0.7-2.9-1.3-5.9-4.5-5.9c-28.1,0-56.1,0-84.2,0C-795.8,616.7-795.8,626.1-789.8,626.1z"/>
				</g>
			</g>
			<g>
				<g>
					<path d="M-659.2,626.1c28.1,0,56.1,0,84.2,0c-1.5-2-3-3.9-4.5-5.9c-2.9,12.9-5.7,25.8-8.6,38.8c-1.7,7.7-3.4,15.3-5.1,23
						c-0.2,0.9-1.5,4.1-1.1,4.9c-0.4-0.8,2.3-2.6,0.1-0.8c-9.3,7.5-17.7,16.8-26.4,25c-13.3,12.6-26.6,25.2-40,37.8
						c-8.1,7.6-16.1,15.2-24.2,22.9c1.1-0.5,2.2-0.9,3.3-1.4c-8.2,0-16.3,0-24.5,0c1.5,2,3,3.9,4.5,5.9
						c13.7-44.8,27.3-89.7,41-134.5c1.9-6.3,3.9-12.7,5.8-19c1.8-5.8-7.2-8.2-9-2.5c-13.7,44.8-27.3,89.7-41,134.5
						c-1.9,6.3-3.9,12.7-5.8,19c-0.9,2.9,1.5,5.9,4.5,5.9c7.9,0,15.8,0.3,23.7,0c3.8-0.2,6-3.2,8.6-5.6
						c12.8-12.1,25.6-24.2,38.4-36.3c13.6-12.9,27.3-25.8,40.9-38.7c2.5-2.4,5.6-4.6,7.7-7.3c3-3.7,3.2-10.9,4.2-15.4
						c4-17.8,7.9-35.7,11.9-53.5c0.7-2.9-1.3-5.9-4.5-5.9c-28.1,0-56.1,0-84.2,0C-665.2,616.7-665.2,626.1-659.2,626.1z"/>
				</g>
			</g>
		</g>
		<g class="st1">
			<g>
				<g>
					<g>
						<path d="M-285.2,626.1c21.2,0,42.4,0,63.6,0c-1.5-2-3-3.9-4.5-5.9c-18.6,44.8-37.2,89.7-55.8,134.5c-2.6,6.3-5.3,12.7-7.9,19
							c1.5-1.1,3-2.3,4.5-3.4c-10.6,0-21.2,0-31.8,0c1.5,2,3,3.9,4.5,5.9c9.3-44.8,18.6-89.6,27.9-134.4c1.3-6.4,2.6-12.7,4-19.1
							c1.2-5.9-7.8-8.4-9-2.5c-9.3,44.8-18.6,89.6-27.9,134.4c-1.3,6.4-2.6,12.7-4,19.1c-0.6,2.9,1.3,5.9,4.5,5.9
							c10.6,0,21.2,0,31.8,0c2.3,0,3.7-1.5,4.5-3.4c18.6-44.8,37.2-89.7,55.8-134.5c2.6-6.3,5.3-12.7,7.9-19
							c1.2-2.9-1.8-5.9-4.5-5.9c-21.2,0-42.4,0-63.6,0C-291.2,616.7-291.2,626.1-285.2,626.1z"/>
					</g>
				</g>
			</g>
			<g>
				<g>
					<g>
						<path d="M-154.5,626.1c21.2,0,42.4,0,63.6,0c-1.5-2-3-3.9-4.5-5.9c-18.6,44.8-37.2,89.7-55.8,134.5c-2.6,6.3-5.3,12.7-7.9,19
							c1.5-1.1,3-2.3,4.5-3.4c-10.6,0-21.2,0-31.8,0c1.5,2,3,3.9,4.5,5.9c9.3-44.8,18.6-89.6,27.9-134.4c1.3-6.4,2.6-12.7,4-19.1
							c1.2-5.9-7.8-8.4-9-2.5c-9.3,44.8-18.6,89.6-27.9,134.4c-1.3,6.4-2.6,12.7-4,19.1c-0.6,2.9,1.3,5.9,4.5,5.9
							c10.6,0,21.2,0,31.8,0c2.3,0,3.7-1.5,4.5-3.4c18.6-44.8,37.2-89.7,55.8-134.5c2.6-6.3,5.3-12.7,7.9-19
							c1.2-2.9-1.8-5.9-4.5-5.9c-21.2,0-42.4,0-63.6,0C-160.5,616.7-160.5,626.1-154.5,626.1z"/>
					</g>
				</g>
			</g>
		</g>
		<g class="st1">
			<g>
				<g>
					<path d="M-1318,621.4c0,26.5,0,53,0,79.5c0,3.8,0,7.7,0,11.5c0,2.5,2.1,4.7,4.7,4.7c6.9,0,13.9,0,20.8,0c-1.5-2-3-3.9-4.5-5.9
						c-2.3,9.9-7.7,18.5-15.9,24.7c-2.4,1.8-4.7,2.9-5.2,6.1c-0.2,1.2,0,2.5,0,3.7c0,9.7,0,19.5,0,29.2c0,3.2,3,5.1,5.9,4.5
						c16.1-3.5,31.3-8.2,44.7-18.2c16.4-12.2,30.5-30.2,34-50.8c1.3-8,1.4-16.4,1.9-24.5c0.7-12.9,1.4-25.8,2.2-38.8
						c0.5-8.6,1-17.1,1.4-25.7c0.1-2.5-2.3-4.7-4.7-4.7c-26.9,0-53.9,0-80.8,0c-6,0-6,9.3,0,9.3c26.9,0,53.9,0,80.8,0
						c-1.6-1.6-3.1-3.1-4.7-4.7c-1.1,18.9-2.1,37.8-3.2,56.7c-0.4,7.8-0.8,15.6-1.3,23.4c-1.1,18.5-11.1,34.6-24.5,46.8
						c-13.9,12.6-30.4,18.2-48.3,22.1c2,1.5,3.9,3,5.9,4.5c0-11,0-22,0-33c-0.8,1.3-1.5,2.7-2.3,4c11.4-8.3,19.7-18.3,23-32.3
						c0.7-2.9-1.4-5.9-4.5-5.9c-6.9,0-13.9,0-20.8,0c1.6,1.6,3.1,3.1,4.7,4.7c0-26.5,0-53,0-79.5c0-3.8,0-7.7,0-11.5
						C-1308.6,615.4-1318,615.4-1318,621.4z"/>
				</g>
			</g>
			<g>
				<g>
					<path d="M-1187.3,621.4c0,26.5,0,53,0,79.5c0,3.8,0,7.7,0,11.5c0,2.5,2.1,4.7,4.7,4.7c6.9,0,13.9,0,20.8,0
						c-1.5-2-3-3.9-4.5-5.9c-2.3,9.9-7.7,18.5-15.9,24.7c-2.4,1.8-4.7,2.9-5.2,6.1c-0.2,1.2,0,2.5,0,3.7c0,9.7,0,19.5,0,29.2
						c0,3.2,3,5.1,5.9,4.5c16.1-3.5,31.3-8.2,44.7-18.2c16.4-12.2,30.5-30.2,34-50.8c1.3-8,1.4-16.4,1.9-24.5
						c0.7-12.9,1.4-25.8,2.2-38.8c0.5-8.6,1-17.1,1.4-25.7c0.1-2.5-2.3-4.7-4.7-4.7c-26.9,0-53.9,0-80.8,0c-6,0-6,9.3,0,9.3
						c26.9,0,53.9,0,80.8,0c-1.6-1.6-3.1-3.1-4.7-4.7c-1.1,18.9-2.1,37.8-3.2,56.7c-0.4,7.8-0.8,15.6-1.3,23.4
						c-1.1,18.5-11.1,34.6-24.5,46.8c-13.9,12.6-30.4,18.2-48.3,22.1c2,1.5,3.9,3,5.9,4.5c0-11,0-22,0-33c-0.8,1.3-1.5,2.7-2.3,4
						c11.4-8.3,19.7-18.3,23-32.3c0.7-2.9-1.4-5.9-4.5-5.9c-6.9,0-13.9,0-20.8,0c1.6,1.6,3.1,3.1,4.7,4.7c0-26.5,0-53,0-79.5
						c0-3.8,0-7.7,0-11.5C-1178,615.4-1187.3,615.4-1187.3,621.4z"/>
				</g>
			</g>
		</g>
		<g class="st1">
			<g>
				<g>
					<g>
						<path d="M744.9,625.3c-0.1,19.5-7.4,39.4-14.3,57.3c-8.9,23.1-20,45.8-34,66.3c-3.1,4.5-6.3,8.8-9.7,12.9
							c-1.6,1.9-3.2,3.7-5,5.5c-0.3,0.4-3,2.8-3,2.7c-0.1-0.4,2.3,1.5,1.7,0.3c-0.1-0.3-1.1-0.7-1.4-0.9c-0.9-0.7-2.1-1.6-2.7-2.5
							c-0.2-0.3-0.7-0.7-0.8-1.1c-0.3-1.1,0.3,0,0.3-0.6c0.1-3.7,2.4-8.3,3.3-11.9c1.9-7.7,3.6-15.4,5-23.2
							c4.6-25.6,6.7-51.6,7.5-77.6c0.2-5.9,3.4-9,8.8-11.5c6.5-2.9,13.5-4.9,20.3-7.1c6.2-2,12.5-4,18.8-5.9
							c2.1-0.6,4.2-1.2,6.3-1.7c0.2-0.1,0.7-0.1,0.9-0.2c1-0.6,0.2,0.2,0.2-0.1C747,626.4,744.9,623.2,744.9,625.3c0,6,9.3,6,9.3,0
							c0-12.9-13.6-7.3-21-5c-7.1,2.1-14.2,4.4-21.2,6.8c-6.6,2.2-14,4-19.9,7.9c-4.8,3.1-8.9,7.8-9.6,13.7
							c-0.6,5.5-0.5,11.1-0.7,16.6c-0.8,15.7-2.1,31.5-4.3,47.1c-1.2,8.9-2.7,17.7-4.6,26.5c-0.9,4.3-1.9,8.6-3,12.9
							c-1.1,4.3-3.1,8.9-3.7,13.3c-0.7,5.4,4.3,10.1,8.4,12.8c5.4,3.5,9.8,0.3,13.7-3.8c18.9-19.9,32.4-45.4,43.5-70.3
							c6.2-14,11.7-28.4,16-43.2c3.3-11.4,6.2-23.3,6.3-35.2C754.3,619.3,745,619.3,744.9,625.3z"/>
					</g>
				</g>
			</g>
			<g>
				<g>
					<g>
						<path d="M875.6,625.3c-0.1,19.5-7.4,39.4-14.3,57.3c-8.9,23.1-20,45.8-34,66.3c-3.1,4.5-6.3,8.8-9.7,12.9
							c-1.6,1.9-3.2,3.7-5,5.5c-0.3,0.4-3,2.8-3,2.7c-0.1-0.4,2.3,1.5,1.7,0.3c-0.1-0.3-1.1-0.7-1.4-0.9c-0.9-0.7-2.1-1.6-2.7-2.5
							c-0.2-0.3-0.7-0.7-0.8-1.1c-0.3-1.1,0.3,0,0.3-0.6c0.1-3.7,2.4-8.3,3.3-11.9c1.9-7.7,3.6-15.4,5-23.2
							c4.6-25.6,6.7-51.6,7.5-77.6c0.2-5.9,3.4-9,8.8-11.5c6.5-2.9,13.5-4.9,20.3-7.1c6.2-2,12.5-4,18.8-5.9
							c2.1-0.6,4.2-1.2,6.3-1.7c0.2-0.1,0.7-0.1,0.9-0.2c1-0.6,0.2,0.2,0.2-0.1C877.6,626.4,875.6,623.2,875.6,625.3
							c0,6,9.3,6,9.3,0c0-12.9-13.6-7.3-21-5c-7.1,2.1-14.2,4.4-21.2,6.8c-6.6,2.2-14,4-19.9,7.9c-4.8,3.1-8.9,7.8-9.6,13.7
							c-0.6,5.5-0.5,11.1-0.7,16.6c-0.8,15.7-2.1,31.5-4.3,47.1c-1.2,8.9-2.7,17.7-4.6,26.5c-0.9,4.3-1.9,8.6-3,12.9
							c-1.1,4.3-3.1,8.9-3.7,13.3c-0.7,5.4,4.3,10.1,8.4,12.8c5.4,3.5,9.8,0.3,13.7-3.8c18.9-19.9,32.4-45.4,43.5-70.3
							c6.2-14,11.7-28.4,16-43.2c3.3-11.4,6.2-23.3,6.3-35.2C884.9,619.3,875.6,619.3,875.6,625.3z"/>
					</g>
				</g>
			</g>
		</g>
		<g class="st1">
			<g>
				<g>
					<g>
						<path d="M1149.1,777.3c14.1-24,28.1-47.9,42.2-71.9c2-3.5,4.1-6.9,6.1-10.4c1.7-2.8,0-5.8-2.8-6.8c-9.1-3.6-19.4-11-19.5-21.9
							c-0.1-9.1,6.8-17,13.4-22.4c9.9-8.2,22.7-14.6,35.3-17c8.2-1.5,19.1-1.3,24.3,6.3c4.7,6.7,4.7,16.6,2.8,24.3
							c-2.3,9.6-7.2,18.3-12.5,26.6c-14,21.8-32,42-50.6,60c-7.6,7.3-15.5,14.4-24.5,19.9c-5.5,3.4-11.7,6.5-18.2,6.6
							c-6,0.1-6,9.4,0,9.3c17.9-0.3,34-14.8,46.3-26.2c10.8-10.1,20.8-21.2,30.4-32.5c10.2-12,20.3-24.3,28.2-38
							c5.4-9.2,10.1-19.4,11.1-30.1c1-9.9-1-21.7-8.5-28.7c-8.3-7.8-20.7-8.2-31.3-6.2c-14.2,2.7-28.3,10.2-39.5,19.4
							c-8.9,7.4-17.4,19.1-16,31.3c1.7,14.4,13.6,23.5,26.2,28.6c-0.9-2.3-1.9-4.6-2.8-6.8c-14.1,24-28.1,47.9-42.2,71.9
							c-2,3.5-4.1,6.9-6.1,10.4C1138,777.7,1146,782.4,1149.1,777.3z"/>
					</g>
				</g>
			</g>
			<g>
				<g>
					<g>
						<path d="M1279.7,777.3c14.1-24,28.1-47.9,42.2-71.9c2-3.5,4.1-6.9,6.1-10.4c1.7-2.8,0-5.8-2.8-6.8c-9.1-3.6-19.4-11-19.5-21.9
							c-0.1-9.1,6.8-17,13.4-22.4c9.9-8.2,22.7-14.6,35.3-17c8.2-1.5,19.1-1.3,24.3,6.3c4.7,6.7,4.7,16.6,2.8,24.3
							c-2.3,9.6-7.2,18.3-12.5,26.6c-14,21.8-32,42-50.6,60c-7.6,7.3-15.5,14.4-24.5,19.9c-5.5,3.4-11.7,6.5-18.2,6.6
							c-6,0.1-6,9.4,0,9.3c17.9-0.3,34-14.8,46.3-26.2c10.8-10.1,20.8-21.2,30.4-32.5c10.2-12,20.3-24.3,28.2-38
							c5.4-9.2,10.1-19.4,11.1-30.1c1-9.9-1-21.7-8.5-28.7c-8.3-7.8-20.7-8.2-31.3-6.2c-14.2,2.7-28.3,10.2-39.5,19.4
							c-8.9,7.4-17.4,19.1-16,31.3c1.7,14.4,13.6,23.5,26.2,28.6c-0.9-2.3-1.9-4.6-2.8-6.8c-14.1,24-28.1,47.9-42.2,71.9
							c-2,3.5-4.1,6.9-6.1,10.4C1268.6,777.7,1276.6,782.4,1279.7,777.3z"/>
					</g>
				</g>
			</g>
		</g>
		<g class="st1">
			<g>
				<g>
					<g>
						<path d="M200.3,626.1c22.9,0,45.8,0,68.7,0c-1.6-1.6-3.1-3.1-4.7-4.7c0,11.4,0,22.8,0,34.1c0,6.6,0,13.1,0,19.7
							c0,1-0.4,3.2,0,4.2c0-0.1,1.4-3.1,0.1-0.9c-5.3,8.5-9.3,18.1-13.9,27c-7.1,13.7-14.1,27.5-21.2,41.2
							c-4.4,8.6-8.8,17.1-13.2,25.7c1.3-0.8,2.7-1.5,4-2.3c-14.7,0.1-29.4,0.1-44,0.2c1.5,2,3,3.9,4.5,5.9
							c5.6-21.8,11.1-43.7,16.7-65.5c2.4-9.5,5.2-19,7.3-28.6c1.7-7.4,0.4-16,0.4-23.6c0-12.4,0-24.7,0-37.1c0-6-9.3-6-9.3,0
							c0,10.4,0,20.8,0,31.2c0,6.7,0,13.5,0,20.2c0,1.9-0.1,3.8,0,5.6c0.1,2.2,0.1,0.3,0.1,0.4c-5.9,22.6-11.5,45.2-17.3,67.8
							c-2.3,9-4.6,18-6.9,27c-0.7,2.9,1.4,5.9,4.5,5.9c14.7-0.1,29.4-0.1,44-0.2c1.6,0,3.3-0.9,4-2.3c10.8-20.9,21.5-41.8,32.3-62.7
							c5.2-10.1,10.4-20.1,15.6-30.2c3.4-6.6,1.7-15.6,1.7-22.8c0-13.3,0-26.6,0-39.9c0-2.5-2.1-4.7-4.7-4.7c-22.9,0-45.8,0-68.7,0
							C194.3,616.7,194.3,626.1,200.3,626.1z"/>
					</g>
				</g>
			</g>
			<g>
				<g>
					<g>
						<path d="M330.9,626.1c22.9,0,45.8,0,68.7,0c-1.6-1.6-3.1-3.1-4.7-4.7c0,11.4,0,22.8,0,34.1c0,6.6,0,13.1,0,19.7
							c0,1-0.4,3.2,0,4.2c0-0.1,1.4-3.1,0.1-0.9c-5.3,8.5-9.3,18.1-13.9,27c-7.1,13.7-14.1,27.5-21.2,41.2
							c-4.4,8.6-8.8,17.1-13.2,25.7c1.3-0.8,2.7-1.5,4-2.3c-14.7,0.1-29.4,0.1-44,0.2c1.5,2,3,3.9,4.5,5.9
							c5.6-21.8,11.1-43.7,16.7-65.5c2.4-9.5,5.2-19,7.3-28.6c1.7-7.4,0.4-16,0.4-23.6c0-12.4,0-24.7,0-37.1c0-6-9.3-6-9.3,0
							c0,10.4,0,20.8,0,31.2c0,6.7,0,13.5,0,20.2c0,1.9-0.1,3.8,0,5.6c0.1,2.2,0.1,0.3,0.1,0.4c-5.9,22.6-11.5,45.2-17.3,67.8
							c-2.3,9-4.6,18-6.9,27c-0.7,2.9,1.4,5.9,4.5,5.9c14.7-0.1,29.4-0.1,44-0.2c1.6,0,3.3-0.9,4-2.3c10.8-20.9,21.5-41.8,32.3-62.7
							c5.2-10.1,10.4-20.1,15.6-30.2c3.4-6.6,1.7-15.6,1.7-22.8c0-13.3,0-26.6,0-39.9c0-2.5-2.1-4.7-4.7-4.7c-22.9,0-45.8,0-68.7,0
							C324.9,616.7,324.9,626.1,330.9,626.1z"/>
					</g>
				</g>
			</g>
		</g>
	</g>
	<g>
		<g>
			<g>
				<g>
					<path class="st2" d="M33.1,31.6c-0.6-4.7-3.2-9.6-8.2-10.7c-4.3-0.9-8.7,0.4-11.5,3.8c-6.1,7.6-0.5,18.1,9,17.9
						c-0.3-0.4-0.6-0.8-0.9-1.1c-1.2,3.8-3,7.8-7,9.3c-0.7,0.3-1,1.6,0,1.7C25.4,54.3,33.3,40.9,33.1,31.6c0-1.2-1.8-1.2-1.8,0
						c0.2,7.9-6.5,20.8-16.2,19.2c0,0.6,0,1.2,0,1.7c4.6-1.8,6.8-6.1,8.2-10.6c0.2-0.6-0.3-1.2-0.9-1.1c-6.8,0.2-11.3-5.6-9.2-12.1
						c1.2-3.7,4.9-6.3,8.8-6.3c5.3,0,8.6,4.2,9.3,9.2C31.4,32.7,33.2,32.7,33.1,31.6z"/>
				</g>
			</g>
			<g>
				<g>
					<path class="st2" d="M59,32.6c-0.5-4.1-2.3-9.2-6.3-11.1c-4.2-2-9.7-0.7-12.8,2.6c-6.7,7.1-1.1,18.8,8.4,18.5
						c-0.3-0.4-0.6-0.8-0.9-1.1c-1.2,3.8-3,7.8-7,9.3c-0.7,0.3-1,1.6,0,1.7C50.8,54.2,59.2,41.7,59,32.6c0-1.2-1.8-1.2-1.8,0
						c0.2,7.6-7,19.7-16.2,18.2c0,0.6,0,1.2,0,1.7c4.6-1.8,6.8-6.1,8.2-10.6c0.2-0.6-0.3-1.2-0.9-1.1c-7.7,0.2-12.7-9-7.5-15
						c2.4-2.8,6.4-4.2,10.1-3c4,1.4,5.8,5.9,6.3,9.8C57.3,33.7,59.1,33.7,59,32.6z"/>
				</g>
			</g>
		</g>
		<g class="st0">
			<g class="st1">
				<g>
					<path d="M-714.5-211.6c-0.1,5.8-0.8,11.9-3.5,17.2c-1.4,2.8-2.8,5.6-4.2,8.4c-2,3.9-3.9,7.8-5.8,11.7
						c-8.1,16.3-16.3,32.7-24.4,49c-2.2,4.5-4.5,9-6.7,13.5c2.1-0.6,4.3-1.1,6.4-1.7c-7.2-3.6-14.5-7.2-21.7-10.8
						c0.6,2.1,1.1,4.3,1.7,6.4c6.7-13.5,13.4-26.9,20.2-40.4c1.4-2.9-0.2-7.3-4-7c-31,2.7-56.9-25.9-49.9-56.6
						c6.9-30,41.8-45.7,68.6-30.3C-723.4-243.8-714.7-228.3-714.5-211.6c0.1,6,9.4,6,9.3,0c-0.5-37.1-37.3-65-73.2-53.3
						c-34.5,11.3-49.9,54.1-29.2,84.4c11.3,16.5,30.9,26.3,50.9,24.6c-1.3-2.3-2.7-4.7-4-7c-6.7,13.5-13.4,26.9-20.2,40.4
						c-1.1,2.1-0.7,5.2,1.7,6.4c7.2,3.6,14.5,7.2,21.7,10.8c2.1,1.1,5.2,0.7,6.4-1.7c12.3-24.7,24.7-49.4,37-74.2
						c1.6-3.1,3.2-6.3,4.7-9.4c3.1-6.5,4.1-13.9,4.3-21C-705-217.6-714.3-217.6-714.5-211.6z"/>
				</g>
			</g>
			<g class="st1">
				<g>
					<path d="M-583.8-211.6c-0.1,5.8-0.8,11.9-3.5,17.2c-1.4,2.8-2.8,5.6-4.2,8.4c-2,3.9-3.9,7.8-5.8,11.7
						c-8.1,16.3-16.3,32.7-24.4,49c-2.2,4.5-4.5,9-6.7,13.5c2.1-0.6,4.3-1.1,6.4-1.7c-7.2-3.6-14.5-7.2-21.7-10.8
						c0.6,2.1,1.1,4.3,1.7,6.4c6.7-13.5,13.4-26.9,20.2-40.4c1.4-2.9-0.2-7.3-4-7c-31,2.7-56.9-25.9-49.9-56.6
						c6.9-30,41.8-45.7,68.6-30.3C-592.8-243.8-584-228.3-583.8-211.6c0.1,6,9.4,6,9.3,0c-0.5-37.1-37.3-65-73.2-53.3
						c-34.5,11.3-49.9,54.1-29.2,84.4c11.3,16.5,30.9,26.3,50.9,24.6c-1.3-2.3-2.7-4.7-4-7c-6.7,13.5-13.4,26.9-20.2,40.4
						c-1.1,2.1-0.7,5.2,1.7,6.4c7.2,3.6,14.5,7.2,21.7,10.8c2.1,1.1,5.2,0.7,6.4-1.7c12.3-24.7,24.7-49.4,37-74.2
						c1.6-3.1,3.2-6.3,4.7-9.4c3.1-6.5,4.1-13.9,4.3-21C-574.4-217.6-583.7-217.6-583.8-211.6z"/>
				</g>
			</g>
		</g>
		<g class="st0">
			<g class="st1">
				<g>
					<g>
						<path d="M1174.4-114.4c-2.1,0.6-3.6-0.6-4.6-2.3c-1.2-2.1-1.1-3.2,0.8-4.5c3.6-2.4,7.2-4.7,10.8-7.1
							c6.4-4.2,12.8-8.4,18.7-13.3c11.1-9.2,21-20.9,25.1-35c2.6-8.7,5.7-28.9-9.6-23.9c-12,3.9-26.2,2.8-32.9-9.4
							c-6.3-11.5-4.7-27.9,4.2-37.6c9.9-10.9,25.5-13.4,39.1-8.3c30,11.2,31.1,50.1,21.6,75.7c-12.5,33.6-43.1,52.2-74.3,66.1
							c-5.5,2.4-0.7,10.5,4.7,8c16.4-7.3,32.8-15.7,46.6-27.2c13-10.8,23.3-24.5,30-39.9c12.3-28.3,11.8-69.5-17.2-87.5
							c-13.1-8.1-30.7-9.6-44.7-3c-13.7,6.5-22.6,20.5-23,35.6c-0.3,14.7,5.1,29.3,19.1,35.9c6.7,3.2,14.2,3.5,21.5,2.5
							c1.8-0.3,3.7-0.6,5.5-1.1c0.6-0.2,1.2-0.3,1.7-0.6c0.2-0.1,0.4-0.2,0.6-0.2c1.4-0.1,1.6-0.4,0.7-1c-0.2-0.2-0.4-0.4-0.6-0.5
							c0,0.6,0,1.2,0,1.8c-0.2,1.1-0.1,2.4-0.2,3.5c-0.2,2.7-0.8,5.3-1.5,7.8c-5.6,20.3-23.9,33.1-40.5,44
							c-6.6,4.3-17.4,8.4-16.1,17.9c1.1,8.3,8.6,15,17.1,12.6C1182.6-107.1,1180.1-116.1,1174.4-114.4z"/>
					</g>
				</g>
			</g>
			<g class="st1">
				<g>
					<g>
						<path d="M1305-114.4c-2.1,0.6-3.6-0.6-4.6-2.3c-1.2-2.1-1.1-3.2,0.8-4.5c3.6-2.4,7.2-4.7,10.8-7.1c6.4-4.2,12.8-8.4,18.7-13.3
							c11.1-9.2,21-20.9,25.1-35c2.6-8.7,5.7-28.9-9.6-23.9c-12,3.9-26.2,2.8-32.9-9.4c-6.3-11.5-4.7-27.9,4.2-37.6
							c9.9-10.9,25.5-13.4,39.1-8.3c30,11.2,31.1,50.1,21.6,75.7c-12.5,33.6-43.1,52.2-74.3,66.1c-5.5,2.4-0.7,10.5,4.7,8
							c16.4-7.3,32.8-15.7,46.6-27.2c13-10.8,23.3-24.5,30-39.9c12.3-28.3,11.8-69.5-17.2-87.5c-13.1-8.1-30.7-9.6-44.7-3
							c-13.7,6.5-22.6,20.5-23,35.6c-0.3,14.7,5.1,29.3,19.1,35.9c6.7,3.2,14.2,3.5,21.5,2.5c1.8-0.3,3.7-0.6,5.5-1.1
							c0.6-0.2,1.2-0.3,1.7-0.6c0.2-0.1,0.4-0.2,0.6-0.2c1.4-0.1,1.6-0.4,0.7-1c-0.2-0.2-0.4-0.4-0.6-0.5c0,0.6,0,1.2,0,1.8
							c-0.2,1.1-0.1,2.4-0.2,3.5c-0.2,2.7-0.8,5.3-1.5,7.8c-5.6,20.3-23.9,33.1-40.5,44c-6.6,4.3-17.4,8.4-16.1,17.9
							c1.1,8.3,8.6,15,17.1,12.6C1313.2-107.1,1310.8-116.1,1305-114.4z"/>
					</g>
				</g>
			</g>
		</g>
		<g class="st0">
			<g class="st1">
				<g>
					<g>
						<path d="M-302.1-122.9c16.8-5.9,30.6-18.1,40.5-32.7c9.4-13.8,13.2-29.2,13.2-45.7c0-2.5-2.1-4.7-4.7-4.7c-12,0-24,0-35.9,0
							c1.3,0.8,2.7,1.5,4,2.3c-5.3-8.7-8.7-17.9-8.6-28.3c0.1-10.2,3.9-19.6,8.6-28.6c-1.3,0.8-2.7,1.5-4,2.3c21.6,0,43.1,0,64.7,0
							c-1.5-1.1-3-2.3-4.5-3.4c11.3,28.8,13,62.2,0,90.7c-12.5,27.6-36.8,48.9-66,57c1.8,0.7,3.5,1.4,5.3,2.1c-3.3-6-6.5-12-9.8-18
							c-2.9-5.3-10.9-0.6-8,4.7c3.3,6,6.5,12,9.8,18c1,1.8,3.3,2.7,5.3,2.1c31.4-8.7,58.1-31.7,71.6-61.3c14-30.8,13.2-66.6,1-97.9
							c-0.8-1.9-2.3-3.4-4.5-3.4c-21.6,0-43.1,0-64.7,0c-1.6,0-3.3,0.9-4,2.3c-6.8,13-11.3,26.6-9.4,41.4c0.8,6.5,2.8,12.7,5.7,18.5
							c2,4,3.6,8.3,8.4,8.7c11.6,1,23.6,0,35.2,0c-1.6-1.6-3.1-3.1-4.7-4.7c0,14.3-3.1,27.4-11,39.5c-8.5,13.1-21,24.7-35.9,29.9
							C-310.2-129.9-307.8-120.9-302.1-122.9z"/>
					</g>
				</g>
			</g>
			<g class="st1">
				<g>
					<g>
						<path d="M-171.5-122.9c16.8-5.9,30.6-18.1,40.5-32.7c9.4-13.8,13.2-29.2,13.2-45.7c0-2.5-2.1-4.7-4.7-4.7c-12,0-24,0-35.9,0
							c1.3,0.8,2.7,1.5,4,2.3c-5.3-8.7-8.7-17.9-8.6-28.3c0.1-10.2,3.9-19.6,8.6-28.6c-1.3,0.8-2.7,1.5-4,2.3c21.6,0,43.1,0,64.7,0
							c-1.5-1.1-3-2.3-4.5-3.4c11.3,28.8,13,62.2,0,90.7c-12.5,27.6-36.8,48.9-66,57c1.8,0.7,3.5,1.4,5.3,2.1c-3.3-6-6.5-12-9.8-18
							c-2.9-5.3-10.9-0.6-8,4.7c3.3,6,6.5,12,9.8,18c1,1.8,3.3,2.7,5.3,2.1c31.4-8.7,58.1-31.7,71.6-61.3c14-30.8,13.2-66.6,1-97.9
							c-0.8-1.9-2.3-3.4-4.5-3.4c-21.6,0-43.1,0-64.7,0c-1.6,0-3.3,0.9-4,2.3c-6.8,13-11.3,26.6-9.4,41.4c0.8,6.5,2.8,12.7,5.7,18.5
							c2,4,3.6,8.3,8.4,8.7c11.6,1,23.6,0,35.2,0c-1.6-1.6-3.1-3.1-4.7-4.7c0,14.3-3.1,27.4-11,39.5c-8.5,13.1-21,24.7-35.9,29.9
							C-179.6-129.9-177.2-120.9-171.5-122.9z"/>
					</g>
				</g>
			</g>
		</g>
		<g class="st0">
			<g class="st1">
				<g>
					<g>
						<path d="M193.6-111.8c-2.4-3.6-4.8-7.3-7.1-10.9c-0.6,2.1-1.1,4.3-1.7,6.4c16.4-10.5,32.2-22,46.3-35.4
							c12.7-12.2,24.4-26.2,30.5-42.9c1.3-3.6-3.6-7.7-6.8-5.3c-8.6,6.6-18.8,12.1-29.9,8.8c-9.9-3-14.5-12.9-14.8-22.6
							c-0.8-20.7,13-42.7,35-44.4c10.7-0.8,20.2,3.5,26.6,12.2c6,8.3,7.3,18.8,6.2,28.8c-2.5,22.1-16.4,41.9-30.9,58
							c-16.9,18.8-37.3,33.8-59.6,45.7c-5.3,2.8-0.6,10.9,4.7,8c24.3-13,46.6-29.8,64.6-50.7c16.4-19.2,31.6-43.2,30.8-69.5
							c-0.8-25.3-20.8-45.4-46.7-41.4c-25,3.8-40.9,29.1-40.1,53.2c0.5,12.9,6.5,25.8,19.1,30.7c14.1,5.6,28.3-0.1,39.7-8.8
							c-2.3-1.8-4.6-3.5-6.8-5.3c-5.7,15.6-17.3,28.6-29.2,39.9c-13.2,12.5-28,23.1-43.3,32.9c-2,1.3-3.1,4.2-1.7,6.4
							c2.4,3.6,4.8,7.3,7.1,10.9C188.8-102.1,196.9-106.7,193.6-111.8z"/>
					</g>
				</g>
			</g>
			<g class="st1">
				<g>
					<g>
						<path d="M324.2-111.8c-2.4-3.6-4.8-7.3-7.1-10.9c-0.6,2.1-1.1,4.3-1.7,6.4c16.4-10.5,32.2-22,46.3-35.4
							c12.7-12.2,24.4-26.2,30.5-42.9c1.3-3.6-3.6-7.7-6.8-5.3c-8.6,6.6-18.8,12.1-29.9,8.8c-9.9-3-14.5-12.9-14.8-22.6
							c-0.8-20.7,13-42.7,35-44.4c10.7-0.8,20.2,3.5,26.6,12.2c6,8.3,7.3,18.8,6.2,28.8c-2.5,22.1-16.4,41.9-30.9,58
							c-16.9,18.8-37.3,33.8-59.6,45.7c-5.3,2.8-0.6,10.9,4.7,8c24.3-13,46.6-29.8,64.6-50.7c16.4-19.2,31.6-43.2,30.8-69.5
							c-0.8-25.3-20.8-45.4-46.7-41.4c-25,3.8-40.9,29.1-40.1,53.2c0.5,12.9,6.5,25.8,19.1,30.7c14.1,5.6,28.3-0.1,39.7-8.8
							c-2.3-1.8-4.6-3.5-6.8-5.3c-5.7,15.6-17.3,28.6-29.2,39.9c-13.2,12.5-28,23.1-43.3,32.9c-2,1.3-3.1,4.2-1.7,6.4
							c2.4,3.6,4.8,7.3,7.1,10.9C319.5-102.1,327.5-106.7,324.2-111.8z"/>
					</g>
				</g>
			</g>
		</g>
		<g class="st0">
			<g class="st1">
				<g>
					<g>
						<path d="M759.9-195.5c-0.4,44-40.2,70.2-78.3,81.6c1.9,1.1,3.8,2.2,5.7,3.3c-2.3-6-4.6-12.1-6.9-18.1
							c-1.1,1.9-2.2,3.8-3.3,5.7c18.4-7.8,38.7-18.5,47.3-37.6c7.9-17.4,4.2-38.4-10.1-51.4c-7.7-7-17.2-11.3-27.1-13.9
							c-8.2-2.2-6-16.3-2.4-21.6c10.5-15.7,32.1-11.6,45.6-3.1C749.6-238.7,759.7-217.6,759.9-195.5c0.1,6,9.4,6,9.3,0
							c-0.2-21.3-8.4-41.9-24.6-56.1c-12.5-10.9-30-18.9-46.8-14.8c-10,2.4-19.3,9-23.2,18.7c-3.4,8.4-3.2,21.3,4,27.8
							c2.9,2.6,6.7,3,10.3,4.1c5.6,1.8,11.1,4.3,15.8,7.8c8.6,6.3,14.2,15.8,14.5,26.6c0.9,25.9-23.7,40.5-44.6,49.3
							c-2.1,0.9-4.2,3.1-3.3,5.7c2.3,6,4.6,12.1,6.9,18.1c0.9,2.3,3.1,4,5.7,3.3c42.3-12.6,84.7-42.2,85.2-90.6
							C769.3-201.5,760-201.5,759.9-195.5z"/>
					</g>
				</g>
			</g>
			<g class="st1">
				<g>
					<g>
						<path d="M890.5-195.5c-0.4,44-40.2,70.2-78.3,81.6c1.9,1.1,3.8,2.2,5.7,3.3c-2.3-6-4.6-12.1-6.9-18.1
							c-1.1,1.9-2.2,3.8-3.3,5.7c18.4-7.8,38.7-18.5,47.3-37.6c7.9-17.4,4.2-38.4-10.1-51.4c-7.7-7-17.2-11.3-27.1-13.9
							c-8.2-2.2-6-16.3-2.4-21.6c10.5-15.7,32.1-11.6,45.6-3.1C880.2-238.7,890.3-217.6,890.5-195.5c0.1,6,9.4,6,9.3,0
							c-0.2-21.3-8.4-41.9-24.6-56.1c-12.5-10.9-30-18.9-46.8-14.8c-10,2.4-19.3,9-23.2,18.7c-3.4,8.4-3.2,21.3,4,27.8
							c2.9,2.6,6.7,3,10.3,4.1c5.6,1.8,11.1,4.3,15.8,7.8c8.6,6.3,14.2,15.8,14.5,26.6c0.9,25.9-23.7,40.5-44.6,49.3
							c-2.1,0.9-4.2,3.1-3.3,5.7c2.3,6,4.6,12.1,6.9,18.1c0.9,2.3,3.1,4,5.7,3.3c42.3-12.6,84.7-42.2,85.2-90.6
							C899.9-201.5,890.6-201.5,890.5-195.5z"/>
					</g>
				</g>
			</g>
		</g>
	</g>
</g>
</svg>
