<?xml version="1.0" encoding="utf-8"?>
<!-- Generator: Adobe Illustrator 25.2.1, SVG Export Plug-In . SVG Version: 6.00 Build 0)  -->
<svg version="1.1" id="Layer_1" xmlns="http://www.w3.org/2000/svg" xmlns:xlink="http://www.w3.org/1999/xlink" x="0px" y="0px"
	 viewBox="0 0 70 70" style="enable-background:new 0 0 70 70;" xml:space="preserve">
<style type="text/css">
	.st0{clip-path:url(#SVGID_2_);}
	.st1{fill:#004161;}
</style>
<g>
	<defs>
		<rect id="SVGID_1_" x="6" y="8.7" width="58.1" height="52.6"/>
	</defs>
	<clipPath id="SVGID_2_">
		<use xlink:href="#SVGID_1_"  style="overflow:visible;"/>
	</clipPath>
	<g class="st0">
		<path class="st1" d="M63.1,59.5h-5.7v-2.1h5.2c0.3,0,0.5-0.1,0.6-0.3c0.1-0.2,0.1-0.4,0-0.7l-2.7-4.3h0.8c0.3,0,0.5-0.1,0.6-0.3
			c0.1-0.2,0.1-0.4,0-0.7l-2.3-3.8h0.5c0.3,0,0.5-0.1,0.6-0.3c0.1-0.2,0.1-0.4,0-0.6l-3-4.9c-0.1-0.2-0.4-0.3-0.6-0.3
			c-0.3,0-0.5,0.1-0.6,0.3l-3,4.9c-0.1,0.2-0.1,0.5,0,0.7c0.1,0.2,0.4,0.3,0.6,0.3h0.5l-2.3,3.8c-0.1,0.2-0.1,0.4,0,0.6
			c0.1,0.2,0.4,0.3,0.6,0.3h0.8L51,56.4c-0.1,0.2-0.1,0.5,0,0.7c0.1,0.2,0.4,0.3,0.6,0.3h5.2v2.1h-9V14.4h0c1.3,0,2.3-0.9,2.3-2.1
			v-1.6c0-1.1-1-2.1-2.3-2.1H22.3c-1.3,0-2.3,0.9-2.3,2.1v1.6c0,1.1,1,2.1,2.3,2.1h0v45.1h-9v-2.1h5.2c0.3,0,0.5-0.1,0.6-0.3
			c0.1-0.2,0.1-0.4,0-0.6l-2.7-4.3h0.8c0.3,0,0.5-0.1,0.6-0.3c0.1-0.2,0.1-0.4,0-0.7l-2.3-3.8h0.5c0.3,0,0.5-0.1,0.6-0.3
			c0.1-0.2,0.1-0.4,0-0.7l-3-4.9c-0.1-0.2-0.4-0.3-0.6-0.3c-0.3,0-0.5,0.1-0.6,0.3l-3,4.9c-0.1,0.2-0.1,0.5,0,0.7
			c0.1,0.2,0.4,0.3,0.6,0.3h0.5l-2.3,3.8c-0.1,0.2-0.1,0.5,0,0.7c0.1,0.2,0.4,0.3,0.6,0.3h0.8L7,56.4c-0.1,0.2-0.1,0.5,0,0.7
			c0.1,0.2,0.4,0.3,0.6,0.3h5.2v2.1H6.9c-0.5,0-0.9,0.4-0.9,0.8C6,60.7,6.4,61,6.9,61h16.4h23.7h16.2c0.5,0,0.9-0.4,0.9-0.8
			C64,59.8,63.6,59.5,63.1,59.5z M51.5,56.8c0,0,0-0.1,0-0.1l2.9-4.7c0-0.1,0-0.2,0-0.3c-0.1-0.1-0.1-0.1-0.2-0.1h-1.3
			c-0.1,0-0.1-0.1-0.1-0.1c0,0,0-0.1,0-0.1l2.6-4.2c0.1-0.1,0.1-0.2,0-0.3c0-0.1-0.1-0.1-0.2-0.1h-0.9c-0.1,0-0.1,0-0.1-0.1
			c0,0,0-0.1,0-0.1l3-4.9c0-0.1,0.1-0.1,0.1-0.1c0,0,0.1,0,0.1,0.1l3,4.9c0,0.1,0,0.1,0,0.1c0,0-0.1,0.1-0.1,0.1h-1
			c-0.1,0-0.2,0.1-0.2,0.1c0,0.1,0,0.2,0,0.3l2.6,4.2c0,0.1,0,0.1,0,0.1c0,0-0.1,0.1-0.1,0.1h-1.3c-0.1,0-0.2,0.1-0.2,0.1
			c0,0.1,0,0.2,0,0.3l2.9,4.7c0,0.1,0,0.1,0,0.2c0,0-0.1,0.1-0.1,0.1h-11C51.6,56.9,51.5,56.8,51.5,56.8z M7.5,56.8c0,0,0-0.1,0-0.1
			l2.9-4.7c0.1-0.1,0.1-0.2,0-0.3c0-0.1-0.1-0.1-0.2-0.1H8.8c-0.1,0-0.1,0-0.1-0.1c0,0,0-0.1,0-0.1l2.6-4.2c0-0.1,0-0.2,0-0.3
			c-0.1-0.1-0.1-0.1-0.2-0.1h-0.9c-0.1,0-0.1-0.1-0.1-0.1c0,0,0-0.1,0-0.1l3-4.9c0-0.1,0.1-0.1,0.1-0.1c0,0,0.1,0,0.1,0.1l3,4.9
			c0,0.1,0,0.1,0,0.2c0,0-0.1,0.1-0.1,0.1h-1c-0.1,0-0.2,0.1-0.2,0.1c0,0.1,0,0.2,0,0.3l2.6,4.2c0,0.1,0,0.1,0,0.2
			c0,0-0.1,0.1-0.1,0.1H16c-0.1,0-0.2,0.1-0.2,0.1c0,0.1,0,0.2,0,0.3l2.9,4.7c0,0.1,0,0.1,0,0.1c0,0-0.1,0.1-0.1,0.1H7.6
			C7.5,56.9,7.5,56.8,7.5,56.8z M22.3,12.8c-0.3,0-0.5-0.2-0.5-0.5v-1.6c0-0.3,0.2-0.5,0.5-0.5h25.5c0.3,0,0.5,0.2,0.5,0.5v1.6
			c0,0.3-0.2,0.5-0.5,0.5h-0.9H23.2H22.3z M24.1,59.5V14.4H46v45.1L24.1,59.5L24.1,59.5z"/>
		<path class="st1" d="M30.7,17.7c-1.7,0-3,1.2-3,2.8v3.7c0,0.1,0.1,0.3,0.3,0.3h5.5c0.2,0,0.3-0.1,0.3-0.3v-3.7
			C33.7,19,32.4,17.7,30.7,17.7z M33.2,23.9h-5v-3.4c0-1.2,1.1-2.2,2.5-2.2c1.4,0,2.5,1,2.5,2.2V23.9z"/>
		<path class="st1" d="M39.8,17.7c-1.7,0-3,1.2-3,2.8v3.7c0,0.1,0.1,0.3,0.3,0.3h5.5c0.2,0,0.3-0.1,0.3-0.3v-3.7
			C42.8,19,41.5,17.7,39.8,17.7z M42.3,23.9h-5v-3.4c0-1.2,1.1-2.2,2.5-2.2c1.4,0,2.5,1,2.5,2.2V23.9z"/>
		<path class="st1" d="M30.7,27.9c-1.7,0-3,1.2-3,2.8v3.7c0,0.1,0.1,0.3,0.3,0.3h5.5c0.2,0,0.3-0.1,0.3-0.3v-3.7
			C33.7,29.2,32.4,27.9,30.7,27.9z M33.2,34.1h-5v-3.4c0-1.2,1.1-2.2,2.5-2.2c1.4,0,2.5,1,2.5,2.2V34.1z"/>
		<path class="st1" d="M39.8,27.9c-1.7,0-3,1.2-3,2.8v3.7c0,0.1,0.1,0.3,0.3,0.3h5.5c0.2,0,0.3-0.1,0.3-0.3v-3.7
			C42.8,29.2,41.5,27.9,39.8,27.9z M42.3,34.1h-5v-3.4c0-1.2,1.1-2.2,2.5-2.2c1.4,0,2.5,1,2.5,2.2V34.1z"/>
		<path class="st1" d="M30.7,37.9c-1.7,0-3,1.2-3,2.8v3.7c0,0.1,0.1,0.3,0.3,0.3h5.5c0.2,0,0.3-0.1,0.3-0.3v-3.7
			C33.7,39.1,32.4,37.9,30.7,37.9z M33.2,44.1h-5v-3.4c0-1.2,1.1-2.2,2.5-2.2c1.4,0,2.5,1,2.5,2.2V44.1z"/>
		<path class="st1" d="M39.8,37.9c-1.7,0-3,1.2-3,2.8v3.7c0,0.1,0.1,0.3,0.3,0.3h5.5c0.2,0,0.3-0.1,0.3-0.3v-3.7
			C42.8,39.1,41.5,37.9,39.8,37.9z M42.3,44.1h-5v-3.4c0-1.2,1.1-2.2,2.5-2.2c1.4,0,2.5,1,2.5,2.2V44.1z"/>
		<path class="st1" d="M30.7,47.9c-1.7,0-3,1.2-3,2.8v3.7c0,0.1,0.1,0.3,0.3,0.3h5.5c0.2,0,0.3-0.1,0.3-0.3v-3.7
			C33.7,49.1,32.4,47.9,30.7,47.9z M33.2,54.1h-5v-3.4c0-1.2,1.1-2.2,2.5-2.2c1.4,0,2.5,1,2.5,2.2V54.1z"/>
		<path class="st1" d="M39.8,47.9c-1.7,0-3,1.2-3,2.8v3.7c0,0.1,0.1,0.3,0.3,0.3h5.5c0.2,0,0.3-0.1,0.3-0.3v-3.7
			C42.8,49.1,41.5,47.9,39.8,47.9z M42.3,54.1h-5v-3.4c0-1.2,1.1-2.2,2.5-2.2c1.4,0,2.5,1,2.5,2.2V54.1z"/>
	</g>
</g>
</svg>
