<?xml version="1.0" encoding="utf-8"?>
<!-- Generator: Adobe Illustrator 25.2.1, SVG Export Plug-In . SVG Version: 6.00 Build 0)  -->
<svg version="1.1" id="Layer_1" xmlns="http://www.w3.org/2000/svg" xmlns:xlink="http://www.w3.org/1999/xlink" x="0px" y="0px"
	 viewBox="0 0 70 70" style="enable-background:new 0 0 70 70;" xml:space="preserve">
<style type="text/css">
	.st0{fill:none;}
	.st1{fill:#004161;}
</style>
<rect x="11" y="11.3" class="st0" width="48" height="48"/>
<g>
	<path class="st1" d="M34.8,17.3c-3.9,0.2-7.2,3.5-7.2,7.6v5.4c-0.1,0.9,0.7,1.7,1.7,1.7h11.2c1,0,1.8-0.8,1.8-1.8v-5.7
		c0-2.1-0.8-3.9-2.2-5.3C38.7,17.9,36.8,17.2,34.8,17.3z M34.6,30.5h-5.3c-0.2,0-0.2-0.2-0.2-0.2v-4.3h5.5V30.5z M34.6,25.3h-5.5
		v-0.5c0-3.2,2.4-5.9,5.5-6.1V25.3z M40.8,30.3c0,0.1-0.1,0.2-0.2,0.2h-5.3V26h5.5V30.3z M40.8,25.3h-5.5v-6.6
		c1.4,0.1,2.7,0.6,3.7,1.7c1.2,1.1,1.8,2.6,1.8,4.2V25.3z"/>
	<path class="st1" d="M65.5,58.1c0-0.1,0-0.1,0-0.2c0-2.1-1.3-3.9-3.1-4.8V27.4l1.5,0.9c0.3,0.2,0.7,0.3,1.1,0.3
		c0.4,0,0.7-0.1,1-0.3c0.7-0.4,1.1-1.1,1.1-1.9V23c0-0.8-0.4-1.4-1-1.8L36.6,3.3c-1.1-0.6-2.4-0.6-3.5-0.1l-29.3,17
		c-0.7,0.4-1.1,1.1-1.1,1.8v3.5c0,0.8,0.4,1.5,1,1.8c0.6,0.4,1.5,0.4,2.1,0l1.7-1v26.7c-1.8,0.9-3.1,2.8-3.1,4.8c0,0.1,0,0.1,0,0.2
		c-1.2,1.1-2,2.6-2,4.3c0,2.9,2.4,5.4,5.4,5.4h10.4c0.9,0,1.8-0.3,2.5-0.8h28.5c0.7,0.5,1.6,0.8,2.5,0.8h10.4c2.9,0,5.4-2.4,5.4-5.4
		C67.5,60.6,66.7,59.1,65.5,58.1z M4.8,25.7c-0.1,0-0.1,0-0.2,0c-0.1-0.1-0.1-0.1-0.1-0.2v-3.5c0-0.1,0-0.1,0.1-0.2L34.1,5
		c0.5-0.2,1.1-0.2,1.6,0l29.6,17.8c0,0.1,0.1,0.1,0.1,0.1v3.4c0,0,0,0.1-0.1,0.2c-0.1,0-0.1,0-0.2,0L35.9,9
		c-0.3-0.2-0.7-0.3-1.1-0.3S34.1,8.8,33.7,9L4.8,25.7z M19.9,65.1c-0.5,0.4-1,0.5-1.6,0.5H7.9c-1.9-0.1-3.4-1.6-3.4-3.4
		c0-1.2,0.6-2.2,1.6-2.8l0.5-0.3l-0.1-0.6c0-0.2,0-0.3,0-0.5c0-1.5,0.9-2.8,2.4-3.2c0.3-0.1,0.7-0.2,1-0.2c1.3,0,2.5,0.8,3.1,2.1
		l0.3,0.7l0.8-0.1c0.1,0,0.2,0,0.3,0c1.5,0,2.8,1,3,2.4l0.2,0.8h0.8c0.7,0,1.4,0.3,1.9,0.9c0.4,0.5,0.6,1,0.6,1.7
		C20.9,63.9,20.5,64.6,19.9,65.1z M22.4,64.9L22.4,64.9c0-0.2,0-0.2,0.1-0.2c0-0.1,0.1-0.2,0.1-0.2c0-0.1,0.1-0.2,0.1-0.3
		c0-0.1,0-0.2,0.1-0.2c0-0.1,0-0.2,0.1-0.3c0-0.1,0-0.1,0-0.2c0-0.2,0-0.3,0-0.5c0-0.2,0-0.5-0.1-0.8c0-0.1,0-0.2-0.1-0.2
		c0-0.1-0.1-0.2-0.1-0.3h24.8c0,0.1-0.1,0.2-0.1,0.4c0,0.1-0.1,0.2-0.1,0.2c-0.1,0.2-0.1,0.5-0.1,0.8c0,0.2,0,0.3,0,0.5
		c0,0.1,0,0.1,0,0.2c0,0.1,0,0.2,0.1,0.3c0,0.1,0,0.2,0.1,0.2c0,0.1,0.1,0.2,0.1,0.2s0.1,0.2,0.1,0.2s0,0.1,0.1,0.2H22.4z M29,59.7
		V39.9h11.7v19.8H29z M42.8,59.8V39.8c0-1.1-0.9-2-2-2H29c-1.1,0-2,0.9-2,2v19.9h-5.8c-0.6-0.5-1.4-0.9-2.2-1.1
		c-0.7-2-2.5-3.3-4.7-3.3c-1-1.7-2.8-2.7-4.9-2.6V25.3l25.3-14.5c0.1,0,0.2,0,0.2,0l25.5,15.4v26.6c-2-0.1-3.9,0.9-4.9,2.6
		c-2.1,0.1-3.9,1.4-4.7,3.3c-0.9,0.2-1.6,0.5-2.2,1.1H42.8z M62.2,65.6H51.7c-0.5,0-1.2-0.2-1.6-0.5c-0.6-0.5-0.9-1.2-0.9-2
		c0-0.6,0.2-1.3,0.6-1.7c0.5-0.5,1.2-0.9,1.9-0.9h0.8l0.2-0.8c0.3-1.4,1.6-2.4,3-2.4c0.1,0,0.2,0,0.3,0l0.8,0.1l0.3-0.7
		c0.6-1.5,2.4-2.4,4.1-1.9c1.4,0.4,2.4,1.7,2.4,3.2c0,0.2,0,0.3,0,0.5L63.5,59l0.5,0.3c1,0.6,1.6,1.7,1.6,2.8
		C65.5,64.1,64,65.6,62.2,65.6z"/>
	<path class="st1" d="M21.7,36.3h-7.7c-0.5,0-1,0.4-1,1v8.4c0,0.5,0.4,1,1,1h7.7c0.5,0,1-0.4,1-1v-8.4
		C22.7,36.8,22.3,36.3,21.7,36.3z M22.2,45.7c0,0.2-0.2,0.4-0.4,0.4h-7.7c-0.2,0-0.4-0.2-0.4-0.4v-8.4c0-0.2,0.2-0.4,0.4-0.4h7.7
		c0.2,0,0.4,0.2,0.4,0.4V45.7z"/>
	<path class="st1" d="M56.3,45.7v-8.4c0-0.5-0.4-1-1-1h-7.7c-0.5,0-1,0.4-1,1v8.4c0,0.5,0.4,1,1,1h7.7
		C55.8,46.6,56.3,46.2,56.3,45.7z M47.2,45.7v-8.4c0-0.2,0.2-0.4,0.4-0.4h7.7c0.2,0,0.4,0.2,0.4,0.4v8.4c0,0.2-0.2,0.4-0.4,0.4h-7.7
		C47.4,46.1,47.2,45.9,47.2,45.7z"/>
</g>
</svg>
