<?xml version="1.0" encoding="utf-8"?>
<!-- Generator: Adobe Illustrator 25.2.1, SVG Export Plug-In . SVG Version: 6.00 Build 0)  -->
<svg version="1.1" id="Layer_1" xmlns="http://www.w3.org/2000/svg" xmlns:xlink="http://www.w3.org/1999/xlink" x="0px" y="0px"
	 viewBox="0 0 70 70" style="enable-background:new 0 0 70 70;" xml:space="preserve">
<style type="text/css">
	.st0{clip-path:url(#SVGID_2_);}
	.st1{fill:#004161;}
</style>
<g>
	<defs>
		<rect id="SVGID_1_" x="3.5" y="3.4" width="63.1" height="63.1"/>
	</defs>
	<clipPath id="SVGID_2_">
		<use xlink:href="#SVGID_1_"  style="overflow:visible;"/>
	</clipPath>
	<g class="st0">
		<path class="st1" d="M23.5,7.8c-1.4-0.1-2.8,0.4-3.9,1.4c-1,1-1.5,2.4-1.4,3.9c0.2,2.2,2,4,4.3,4.3c0.2,0,0.3,0,0.5,0
			c1.3,0,2.5-0.5,3.4-1.4c1-1,1.5-2.4,1.4-3.9C27.6,9.8,25.8,8,23.5,7.8z M26,15.5c-0.9,0.9-2.1,1.3-3.4,1.2c-2-0.2-3.5-1.8-3.7-3.7
			c-0.1-1.3,0.3-2.5,1.2-3.4c0.8-0.8,1.8-1.2,3-1.2c0.1,0,0.3,0,0.4,0c2,0.2,3.5,1.8,3.7,3.7C27.3,13.4,26.9,14.6,26,15.5z"/>
		<path class="st1" d="M47.8,17.3c1.3,0,2.5-0.5,3.4-1.4c1-1,1.5-2.4,1.4-3.9c-0.2-2.3-2-4-4.3-4.3c-1.4-0.1-2.8,0.4-3.9,1.4
			c-1,1-1.5,2.4-1.4,3.9c0.2,2.2,2,4,4.3,4.3C47.5,17.3,47.6,17.3,47.8,17.3z M43.7,12.9c-0.1-1.3,0.3-2.5,1.2-3.4
			c0.8-0.8,1.8-1.2,3-1.2c0.1,0,0.3,0,0.4,0c2,0.2,3.5,1.8,3.7,3.7c0.1,1.3-0.3,2.5-1.2,3.4c-0.9,0.9-2.1,1.3-3.4,1.2
			C45.4,16.5,43.8,14.9,43.7,12.9z"/>
		<path class="st1" d="M35.6,30.9c-0.6,0-1.1,0.5-1.1,1.1c0,0.6,0.5,1.1,1.1,1.1c0.6,0,1.1-0.5,1.1-1.1
			C36.7,31.4,36.2,30.9,35.6,30.9z M35.6,32.4c-0.2,0-0.5-0.2-0.5-0.5c0-0.3,0.2-0.5,0.5-0.5c0.3,0,0.5,0.2,0.5,0.5
			C36,32.2,35.8,32.4,35.6,32.4z"/>
		<path class="st1" d="M44.7,21.1c1,0.3,1.9,0.5,3,0.5c5,0,9.1-4.1,9.1-9.1c0-2.5-1.1-4.9-2.9-6.7C52,4.1,49.6,3.3,47,3.5
			c-4.6,0.3-8.2,4.2-8.4,8.7c-0.1,1.5,0.2,2.9,0.9,4.2c0.1,0.1,0.1,0.3,0,0.4l-3.7,8.3c-0.1,0.3-0.3,0.5-0.5,0.7
			c-0.2-0.2-0.3-0.4-0.5-0.7l-3.7-8.3c-0.1-0.1,0-0.3,0-0.4c0.6-1.3,0.9-2.7,0.9-4.2c-0.2-4.6-3.8-8.4-8.4-8.7
			c-2.5-0.2-5,0.7-6.9,2.4C15,7.6,14,10,14,12.5c0,5,4.1,9.1,9.1,9.1c1,0,2-0.2,3-0.5c0.2-0.1,0.5,0,0.6,0.2l4.3,9.9l-11,25.3
			c-0.4,0.9-0.6,1.9-0.6,2.9c0,2.9,1.7,5.5,4.4,6.7l0.9,0.4l10.8-25l10.8,25l0.9-0.4c2.7-1.2,4.4-3.8,4.4-6.7c0-1-0.2-2-0.6-2.9
			l-11-25.3l4.3-9.9C44.3,21.1,44.5,21,44.7,21.1z M34.3,39.2L23.6,63.9c-1.5-1-2.4-2.7-2.4-4.5c0-0.7,0.2-1.5,0.4-2.1l10.3-23.7
			l1.1,2.5L34.3,39.2z M49.5,59.5c0,1.8-0.9,3.5-2.4,4.5L36.4,39.2l-4.5-10.3l-3.6-8.3c-0.4-0.9-1.2-1.4-2.1-1.4
			c-0.3,0-0.5,0-0.8,0.1c-0.7,0.3-1.5,0.4-2.3,0.4c-4,0-7.2-3.2-7.2-7.2c0-2,0.8-3.9,2.3-5.3c1.5-1.4,3.4-2,5.4-1.9
			c3.6,0.3,6.5,3.3,6.6,6.9c0,1.2-0.2,2.3-0.7,3.3c-0.3,0.6-0.3,1.4,0,2l3.7,8.3c0.2,0.4,0.4,0.7,0.6,1c0,0,0,0-0.1,0
			c0.1,0,0.1,0.1,0.2,0.1c0.1,0.1,0.2,0.2,0.3,0.3c0.3,0.3,0.7,0.6,1.2,0.8c0,0,0,0,0,0c0,0,0,0,0,0c0,0,0.1,0,0.1,0.1l0.1,0
			c0.7,0.3,1.3,0.9,1.6,1.6l11.9,27.4C49.4,58,49.5,58.7,49.5,59.5z M42.4,20.6l-3.6,8.3c-0.4-0.9-1.1-1.5-1.8-2
			c0.2-0.3,0.4-0.6,0.6-1l3.7-8.3c0.3-0.6,0.3-1.3,0-2c-0.5-1-0.7-2.2-0.7-3.3c0.1-3.6,3-6.7,6.6-6.9c2-0.1,4,0.5,5.4,1.9
			c1.5,1.4,2.3,3.3,2.3,5.3c0,4-3.2,7.2-7.2,7.2c-0.8,0-1.6-0.1-2.3-0.4c-0.3-0.1-0.5-0.1-0.8-0.1C43.7,19.2,42.8,19.7,42.4,20.6z"
			/>
	</g>
</g>
</svg>
