<?xml version="1.0" encoding="utf-8"?>
<!-- Generator: Adobe Illustrator 26.0.3, SVG Export Plug-In . SVG Version: 6.00 Build 0)  -->
<svg version="1.1" id="Layer_1" xmlns="http://www.w3.org/2000/svg" xmlns:xlink="http://www.w3.org/1999/xlink" x="0px" y="0px"
	 viewBox="0 0 30 30" style="enable-background:new 0 0 30 30;" xml:space="preserve">
<style type="text/css">
	.st0{fill:#004161;}
</style>
<g>
	<path class="st0" d="M24.4,7.6h-0.8c-0.2-0.3-0.6-0.5-1-0.5h-0.5c-0.4,0-0.8,0.2-1,0.5h-1.5V6.2c0-0.7-0.6-1.3-1.3-1.3h-7.2
		c-0.7,0-1.3,0.6-1.3,1.3v1.4H8.5c-0.2-0.3-0.6-0.5-1-0.5H7c-0.4,0-0.8,0.2-1,0.5H5.5C4.1,7.6,3,8.7,3,10.1V22
		c0,1.4,1.1,2.6,2.6,2.6h0.6c0.2,0.3,0.6,0.5,1,0.5h0.5c0.4,0,0.8-0.2,1-0.5h12.7c0.2,0.3,0.6,0.5,1,0.5h0.5c0.4,0,0.8-0.2,1-0.5
		h0.8c1.4,0,2.6-1.1,2.6-2.6V10.1C27,8.7,25.8,7.6,24.4,7.6z M10.6,6.2c0-0.3,0.3-0.6,0.6-0.6h7.2c0.3,0,0.6,0.3,0.6,0.6v1.4h-0.8
		V7.4c0-0.6-0.5-1.1-1.1-1.1h-4.7c-0.6,0-1.1,0.5-1.1,1.1v0.1h-0.8V6.2z M17.5,10.1l1.1,0.9c0.1,0.1,0.1,0.2,0.1,0.3v3.8
		c0,0.2-0.2,0.3-0.3,0.3h-2.2c-0.2,0-0.3-0.2-0.3-0.3v-3.8c0-0.1,0.1-0.2,0.1-0.3l1.1-0.9c0.1-0.1,0.1-0.1,0.2-0.1
		C17.3,10,17.4,10.1,17.5,10.1z M12,7.6V7.4c0-0.2,0.2-0.4,0.4-0.4h4.7c0.2,0,0.4,0.2,0.4,0.4v0.1H12z M3.7,22V10.1
		c0-1,0.8-1.8,1.8-1.8h0.4v15.5H5.5C4.5,23.8,3.7,23,3.7,22z M7,24.4c-0.2,0-0.3-0.1-0.4-0.3c0-0.1,0-0.1,0-0.1V8.2c0,0,0-0.1,0-0.1
		C6.7,7.9,6.9,7.8,7,7.8h0.5c0.2,0,0.3,0.1,0.4,0.3c0,0.1,0,0.1,0,0.1V24c0,0,0,0.1,0,0.1c-0.1,0.2-0.2,0.3-0.4,0.3H7z M8.7,8.3h1.2
		h1.4h5.8v1.5c-0.1,0-0.2,0.1-0.3,0.1l-1.1,0.9c-0.1,0.1-0.2,0.3-0.2,0.5v3.8c0,0.3,0.3,0.6,0.6,0.6h2.2c0.3,0,0.6-0.3,0.6-0.6v-3.8
		c0-0.2-0.1-0.3-0.2-0.5l-1.1-0.9c-0.1-0.1-0.2-0.1-0.3-0.1V8.3h0.8h1.4H21v15.5H8.7V8.3z M22.1,24.4c-0.2,0-0.3-0.1-0.4-0.3
		c0-0.1,0-0.1,0-0.1V8.2c0,0,0-0.1,0-0.1c0.1-0.2,0.2-0.3,0.4-0.3h0.5C22.8,7.8,23,7.9,23,8c0,0.1,0,0.1,0,0.1V24c0,0,0,0.1,0,0.1
		c-0.1,0.2-0.2,0.3-0.4,0.3H22.1z M26.2,22c0,1-0.8,1.8-1.8,1.8h-0.7V8.3h0.7c1,0,1.8,0.8,1.8,1.8V22z"/>
</g>
</svg>
