<?xml version="1.0" encoding="utf-8"?>
<!-- Generator: Adobe Illustrator 25.2.1, SVG Export Plug-In . SVG Version: 6.00 Build 0)  -->
<svg version="1.1" id="Layer_1" xmlns="http://www.w3.org/2000/svg" xmlns:xlink="http://www.w3.org/1999/xlink" x="0px" y="0px"
	 viewBox="0 0 70 70" style="enable-background:new 0 0 70 70;" xml:space="preserve">
<style type="text/css">
	.st0{fill-rule:evenodd;clip-rule:evenodd;fill:#164C82;}
</style>
<path class="st0" d="M63.7,70v-0.3C56.8,66.7,52,65.9,43,65.9H6.3v2.6h49.5C59.1,68.5,61.7,69.2,63.7,70L63.7,70z M49.2,1.9
	l-1.5-1.3c-0.8-0.3-1.5,0.3-1.5,0.3l-2,1v10.6c-2,4.1-6.9,6.1-7.1,6.3c-0.8,0.5-1,1-1,1.8v39.8c-1.3,0.2-2.5,0.4-3.8,0.5V26.9
	c0-1.3-0.5-1.5-1.8-1.8c-1.5-0.5-4.1-0.8-12.8-4.3v-7.1L15.7,13c0,0-1-0.5-1.8-0.3s-1.8,1-2.3,1.3c-2,1.5-5.4,4.3-5.4,9.1v41.3h3.6
	V23.1c0-3.5,2.3-5.3,3.6-6.1h0.5v47.3h3.6V24.6c2.8,1.3,4.6,2,7.9,2.8c1,0.5,2.3,0.8,3.1,0.8v33.2c-4.1,0.8-7.4,1.8-10.5,3h7.1
	c5.4-2.3,11.5-3.5,17.9-3.5c-1-0.3-2.3-0.3-3.3-0.3v-39l0.3-0.3c1-0.5,2.6-1.5,4.1-3v46.1c0.8,0.3,2.6,0,3.8,0.3V6.2h0.3
	c1.8,2.3,3.6,5.6,3.6,10.4v48.4c1.3,0,2.6,0.3,3.8,0.5V16.5C55.3,8.9,51.2,4.4,49.2,1.9L49.2,1.9z"/>
</svg>
