<?xml version="1.0" encoding="utf-8"?>
<!-- Generator: Adobe Illustrator 25.2.1, SVG Export Plug-In . SVG Version: 6.00 Build 0)  -->
<svg version="1.1" id="Layer_1" xmlns="http://www.w3.org/2000/svg" xmlns:xlink="http://www.w3.org/1999/xlink" x="0px" y="0px"
	 viewBox="0 0 70 70" style="enable-background:new 0 0 70 70;" xml:space="preserve">
<style type="text/css">
	.st0{clip-path:url(#SVGID_4_);}
	.st1{fill:#004161;}
</style>
<g>
	<defs>
		<rect id="SVGID_1_" x="3.5" y="3.4" width="63.1" height="63.1"/>
	</defs>
	<clipPath id="SVGID_2_">
		<use xlink:href="#SVGID_1_"  style="overflow:visible;"/>
	</clipPath>
</g>
<g>
	<defs>
		<rect id="SVGID_3_" x="4.6" y="14.9" width="60.8" height="40.1"/>
	</defs>
	<clipPath id="SVGID_4_">
		<use xlink:href="#SVGID_3_"  style="overflow:visible;"/>
	</clipPath>
	<g class="st0">
		<path class="st1" d="M65.4,37.2c0-0.6-0.1-1.2-0.5-1.7L59,25.8c-0.8-1.3-2.2-2.1-3.7-2.1h-7.2v-4.8c0.1-2.1-1.6-3.9-3.6-3.9H8.3
			c-2,0-3.6,1.7-3.6,3.9v23.3h0.6v0.2c0,1.7,0.8,3.2,2.1,4.1c-0.1,0.5-0.1,1-0.1,1.4c0,4,3,7.1,6.7,7.1c3.7,0,6.7-3.2,6.7-7.1
			c0-0.2,0-0.4,0-0.6h0.1c0,0.2,0,0.5,0,0.6c0,4,3,7.1,6.7,7.1c3.7,0,6.7-3.2,6.7-7.1c0-0.2,0-0.5,0-0.6h0.1c0,0.2,0,0.5,0,0.6
			c0,4,3,7.1,6.7,7.1c3.7,0,6.7-3.2,6.7-7.1c0-0.2,0-0.4,0-0.6h2.1c0,0.2,0,0.5,0,0.6c0,4,3,7.1,6.7,7.1c3.7,0,6.7-3.2,6.7-7.1
			c0-0.5-0.1-0.9-0.1-1.4c1.3-0.9,2.1-2.5,2.1-4.1v-0.2h0.6V37.2z M51.2,25.7h1.9v10.8H52c-0.4,0-0.8-0.4-0.8-0.9L51.2,25.7
			L51.2,25.7z M53.8,25.7h1.6c0.9,0,1.7,0.5,2.1,1.3l5.8,9.5h-9.6L53.8,25.7L53.8,25.7z M48.2,25.7h2.4v9.9c0,0.8,0.6,1.5,1.4,1.5
			h11.5v0.1v3H48.2V25.7z M17.8,42.1h5.7c-1.4,1-2.4,2.6-2.7,4.5h-0.3C20.2,44.8,19.1,43.1,17.8,42.1z M31.2,42.1h5.6
			c-1.3,1-2.4,2.6-2.7,4.5h-0.3C33.6,44.8,32.6,43.1,31.2,42.1z M44.6,42.1h1.8v0.1h5.8c-1.3,1-2.3,2.6-2.6,4.4h-2.3
			C47,44.8,46,43.1,44.6,42.1z M6.5,18.8c0-1,0.8-1.9,1.8-1.9h36.3c1,0,1.8,0.9,1.8,1.9v21.3H6.5V18.8z M5.8,42.3v-0.2H10
			C8.9,43,8,44.3,7.5,45.8C6.5,45,5.8,43.8,5.8,42.3z M14,53.1c-2.7,0-4.8-2.3-4.8-5.1c0-0.4,0-0.7,0.1-1.1c0.4-2.4,2.4-4.1,4.7-4.1
			c2.4,0,4.4,1.9,4.7,4.4c0.1,0.3,0.1,0.6,0.1,0.8C18.8,50.7,16.5,53.1,14,53.1z M27.3,53.1c-2.7,0-4.8-2.3-4.8-5.1
			c0-0.2,0-0.6,0.1-0.8c0.4-2.5,2.4-4.4,4.7-4.4c2.4,0,4.4,1.9,4.7,4.4c0.1,0.3,0.1,0.6,0.1,0.8C32.2,50.8,30,53.1,27.3,53.1z
			 M40.7,53.1c-2.7,0-4.8-2.3-4.8-5.1c0-0.2,0-0.6,0.1-0.8c0.4-2.5,2.4-4.4,4.7-4.4c2.4,0,4.4,1.9,4.7,4.4c0.1,0.3,0.1,0.6,0.1,0.8
			C45.6,50.8,43.4,53.1,40.7,53.1z M56.2,53.1c-2.7,0-4.8-2.3-4.8-5.1c0-0.2,0-0.6,0.1-0.8c0.4-2.5,2.4-4.4,4.7-4.4
			c2.3,0,4.2,1.7,4.7,4.1l0.1,0.2c0.1,0.2,0.1,0.6,0.1,0.9C61,50.8,58.9,53.1,56.2,53.1z M64.3,42.3c0,1.4-0.7,2.7-1.7,3.5v-0.2
			h-0.1c-0.4-1.4-1.3-2.6-2.4-3.5h4.1V42.3z"/>
		<path class="st1" d="M14.9,47.2c-0.4-0.6-1.1-0.7-1.6-0.3c-0.5,0.4-0.7,1.2-0.3,1.7c0.2,0.4,0.6,0.6,1,0.6c0.2,0,0.4-0.1,0.7-0.2
			c0.3-0.2,0.4-0.5,0.5-0.8C15.1,47.8,15.1,47.5,14.9,47.2z"/>
		<path class="st1" d="M28.3,47.2c-0.4-0.6-1.1-0.7-1.6-0.3c-0.3,0.2-0.4,0.5-0.5,0.8c-0.1,0.3,0,0.6,0.1,0.9c0.2,0.4,0.6,0.6,1,0.6
			c0.2,0,0.4-0.1,0.7-0.2C28.5,48.6,28.7,47.8,28.3,47.2z"/>
		<path class="st1" d="M41.6,47.2c-0.4-0.6-1.1-0.7-1.6-0.3c-0.3,0.2-0.4,0.5-0.5,0.8c-0.1,0.3,0,0.6,0.1,0.9c0.2,0.4,0.6,0.6,1,0.6
			c0.2,0,0.4-0.1,0.7-0.2C41.8,48.6,42,47.8,41.6,47.2z"/>
		<path class="st1" d="M57.2,47.2c-0.4-0.6-1.1-0.7-1.6-0.3c-0.3,0.2-0.4,0.5-0.5,0.8c-0.1,0.3,0,0.6,0.1,0.9c0.2,0.4,0.6,0.6,1,0.6
			c0.2,0,0.4-0.1,0.7-0.2C57.4,48.6,57.5,47.8,57.2,47.2z"/>
	</g>
</g>
</svg>
