<?xml version="1.0" encoding="utf-8"?>
<!-- Generator: Adobe Illustrator 25.2.1, SVG Export Plug-In . SVG Version: 6.00 Build 0)  -->
<svg version="1.1" id="Layer_1" xmlns="http://www.w3.org/2000/svg" xmlns:xlink="http://www.w3.org/1999/xlink" x="0px" y="0px"
	 viewBox="0 0 70 70" style="enable-background:new 0 0 70 70;" xml:space="preserve">
<style type="text/css">
	.st0{fill:#66CC00;}
	.st1{fill:#0081C5;}
</style>
<path class="st0" d="M50.9,11.3c0,0-13.8,11.3-14.7,27.5c0,0-4.3-14.8-20.7-19c0,0-2.3,15.1,14.7,25.8c0,0-18.2-1.3-28.7,12.1
	c0,0,6-12,21.9-14.9c0,0-10.4-7.5-9.7-24.9c0,0,12.4,0,21.8,14.1C35.4,32.1,35.7,20.5,50.9,11.3"/>
<path class="st1" d="M68.6,24.6c0,0-18.6,0.7-26.1,16c0,0,6.8-20.4-7.5-28.4c0,0-12.3,13.1-1.7,29.1c0,0-15.3-11.7-29.7-4.2
	c0,0,8.4,18.3,31.2,10.9C34.7,48,12,61.2,2,36.7c0,0,10.5-10.2,27.1-0.1c0,0-9-12.8,5.3-26.4c0,0,15.7,5.9,11,22.4
	C45.4,32.6,50.9,24.3,68.6,24.6"/>
</svg>
