<?xml version="1.0" encoding="utf-8"?>
<!-- Generator: Adobe Illustrator 25.2.1, SVG Export Plug-In . SVG Version: 6.00 Build 0)  -->
<svg version="1.1" id="Layer_1" xmlns="http://www.w3.org/2000/svg" xmlns:xlink="http://www.w3.org/1999/xlink" x="0px" y="0px"
	 viewBox="0 0 70 70" style="enable-background:new 0 0 70 70;" xml:space="preserve">
<style type="text/css">
	.st0{fill-rule:evenodd;clip-rule:evenodd;fill:#004161;}
	.st1{fill:#004161;}
</style>
<g>
	<path class="st0" d="M34.5,61.7c15.1,0,27.4-12.3,27.4-27.4S49.7,6.9,34.5,6.9S7.1,19.2,7.1,34.3S19.4,61.7,34.5,61.7z M34.5,67.2
		c18.2,0,32.9-14.7,32.9-32.9S52.7,1.4,34.5,1.4S1.6,16.1,1.6,34.3S16.4,67.2,34.5,67.2z"/>
	<path class="st1" d="M33.2,19.2c0-0.8,0.6-1.4,1.4-1.4s1.4,0.6,1.4,1.4v19.2c0,0.8-0.6,1.4-1.4,1.4s-1.4-0.6-1.4-1.4V19.2z"/>
	<path class="st1" d="M37.3,48c0,1.5-1.2,2.7-2.7,2.7s-2.7-1.2-2.7-2.7s1.2-2.7,2.7-2.7S37.3,46.5,37.3,48z"/>
</g>
</svg>
