<?xml version="1.0" encoding="utf-8"?>
<!-- Generator: Adobe Illustrator 25.2.1, SVG Export Plug-In . SVG Version: 6.00 Build 0)  -->
<svg version="1.1" id="Layer_1" xmlns="http://www.w3.org/2000/svg" xmlns:xlink="http://www.w3.org/1999/xlink" x="0px" y="0px"
	 viewBox="0 0 70 70" style="enable-background:new 0 0 70 70;" xml:space="preserve">
<style type="text/css">
	.st0{fill:#004161;}
</style>
<g>
	<path class="st0" d="M42.7,17.6c-0.1-0.2-0.3-0.3-0.5-0.3v-3.9h7.2c0.6,0,1.1-0.4,1.1-1c0-5.1-4.6-9.3-10.2-9.3H27.4
		c-1.9,0-3.4,1.3-3.5,3h-3.2c-1,0-1.8,0.7-1.8,1.6v3.4c0,0.9,0.8,1.6,1.8,1.6h3.2v3.8c0,0.2,0,0.3-0.1,0.4l-5.5,7.6
		c-0.6,0.8-0.5,1.9,0.3,2.6c0.4,0.4,1,0.6,1.6,0.6c0.6,0,1.2-0.2,1.6-0.6l8.5-7.7c0.6-0.5,0.9-1.2,0.9-1.9v-4.1h3.6v3.9
		c-0.3,0.1-0.5,0.3-0.7,0.6l-0.7,1.6c-0.6,1.4-0.6,3,0.1,4.3l2.6,5.4c0.8,1.7,0.4,3.7-1,5.1l-4.1,3.9c-2.6,2.5-4.1,5.7-4.1,9.2v19.8
		c0,0.5,0.5,1,1.1,1h19.7c0.5,0,0.9-0.3,1-0.7c0-0.1,4-13.2,4.4-24.7C53.4,30.9,43.2,18.1,42.7,17.6z M26,6.2C26,5.6,26.6,5,27.4,5
		h12.9c4.1,0,7.5,2.8,8,6.4H26V6.2z M19.6,11.1V7.7c0-0.5,0.5-1,1.1-1h3.2V12h-3.2C20.1,12,19.6,11.6,19.6,11.1z M28.9,17.4
		c0,0.2-0.1,0.4-0.2,0.5l-8.5,7.7c0,0-0.1,0-0.2,0c0,0,0-0.1,0-0.1l5.5-7.6c0.3-0.5,0.5-1,0.5-1.5v-3.1h2.9L28.9,17.4L28.9,17.4z
		 M41.5,13.3v3.8h-6.1v-3.8H41.5z M50.8,42.6c-0.3,9.8-3.3,20.7-4.1,23.6H29V47.3c0-2.9,1.2-5.7,3.5-7.8l4.1-3.9
		c2.1-1.9,2.6-4.8,1.4-7.2L35.4,23c-0.4-0.9-0.4-1.9,0-2.8l0.5-1h5.5C43,21.4,51.1,32.6,50.8,42.6z"/>
	<path class="st0" d="M34,48.1c0,2.9,2.6,5.3,5.8,5.3c3.2,0,5.8-2.4,5.8-5.3c0-2.9-2.6-5.3-5.8-5.3C36.6,42.8,34,45.2,34,48.1z
		 M44.8,48.1c0,2.6-2.3,4.6-5.1,4.6c-2.8,0-5.1-2.1-5.1-4.6c0-2.6,2.3-4.6,5.1-4.6C42.6,43.4,44.8,45.5,44.8,48.1z"/>
</g>
</svg>
