<svg id="Calque_1" data-name="Calque 1" xmlns="http://www.w3.org/2000/svg" viewBox="0 0 24 15.38"><defs><style>.cls-1,.cls-2{fill:#024161;}.cls-2{fill-rule:evenodd;}</style></defs><path class="cls-1" d="M103.4,103.69H96.63a.82.82,0,0,1-.76-.55L95.49,102a.79.79,0,0,1,.12-.72.76.76,0,0,1,.64-.32h7.5a.78.78,0,0,1,.75,1l-.35,1.13A.75.75,0,0,1,103.4,103.69Zm-7.12-2a.09.09,0,0,0-.06,0,0,0,0,0,0,0,.06l.35,1.13a.06.06,0,0,0,.06.06h6.74a.06.06,0,0,0,.06-.06l.35-1.13v-.06a.1.1,0,0,0-.06,0Z" transform="translate(-88.05 -91.95)"/><path class="cls-1" d="M104.85,99.62H95.17a2.12,2.12,0,0,1-1.83-1.07A3.09,3.09,0,0,0,92,97.24l-1-.5.47-.34a1.8,1.8,0,0,0,.2-.18c.12-.12.2-.17.29-.26a6.69,6.69,0,0,0,1.57-2.24l.29-.64A2.83,2.83,0,0,1,96,92h8.11a2.84,2.84,0,0,1,2.24,1.13l0,.09.21.49A6.79,6.79,0,0,0,108,95.81a3.55,3.55,0,0,0,.41.38l0,0,.08.09.58.46-1,.47a3.2,3.2,0,0,0-.87.61,2.87,2.87,0,0,0-.53.7A2.16,2.16,0,0,1,104.85,99.62Zm-12.58-3a4.19,4.19,0,0,1,.81.52A3.93,3.93,0,0,1,94,98.2a1.35,1.35,0,0,0,1.19.69h9.68a1.42,1.42,0,0,0,1.22-.69,5,5,0,0,1,.64-.85,3,3,0,0,1,1.08-.75l-.26-.26A8.16,8.16,0,0,1,105.9,94l-.21-.46a2,2,0,0,0-1.62-.81H96a2,2,0,0,0-1.63.81L94.1,94a7.3,7.3,0,0,1-1.72,2.44S92.3,96.57,92.27,96.6Z" transform="translate(-88.05 -91.95)"/><path class="cls-1" d="M103.4,103.69H96.63a.82.82,0,0,1-.76-.55L95.49,102a.79.79,0,0,1,.12-.72.76.76,0,0,1,.64-.32h7.5a.78.78,0,0,1,.75,1l-.35,1.13A.75.75,0,0,1,103.4,103.69Zm-7.12-2a.09.09,0,0,0-.06,0,0,0,0,0,0,0,.06l.35,1.13a.06.06,0,0,0,.06.06h6.74a.06.06,0,0,0,.06-.06l.35-1.13v-.06a.1.1,0,0,0-.06,0Z" transform="translate(-88.05 -91.95)"/><path class="cls-1" d="M92.24,102.79A1.29,1.29,0,0,1,91,101.51a1.26,1.26,0,0,1,1.28-1.25,1.24,1.24,0,0,1,1.25,1.25A1.26,1.26,0,0,1,92.24,102.79Zm0-2.3a1,1,0,1,0,0,2.07,1,1,0,0,0,1-1A1,1,0,0,0,92.24,100.49Z" transform="translate(-88.05 -91.95)"/><path class="cls-1" d="M107.7,102.79a1.29,1.29,0,0,1-1.28-1.28,1.28,1.28,0,0,1,2.56,0A1.29,1.29,0,0,1,107.7,102.79Zm0-2.3a1,1,0,1,0,1,1A1,1,0,0,0,107.7,100.49Z" transform="translate(-88.05 -91.95)"/><path class="cls-1" d="M90,98.14l-.2-.09c-1.14-.35-1.8-1-1.72-1.65.15-.82,1.37-1.2,2.85-1a4.12,4.12,0,0,1,1.4.46l.4.23-.32.35a3.33,3.33,0,0,1-.32.29l-.08.09h-.26a1.24,1.24,0,0,0-1,.44Zm.09-2.06c-.79,0-1.22.23-1.25.4s.29.53,1,.79l.43-.5a2.26,2.26,0,0,1,.9-.58,1.13,1.13,0,0,0-.32-.06C90.52,96.1,90.26,96.08,90.06,96.08Z" transform="translate(-88.05 -91.95)"/><path class="cls-1" d="M110,98l-.64-.72a1.26,1.26,0,0,0-1-.44h-.29l-.09-.09-.49-.43-.35-.38.46-.2a4.57,4.57,0,0,1,1.08-.32c1.48-.27,2.7.14,2.85.93.08.58-.41,1.16-1.31,1.54Zm-1.22-1.86a2,2,0,0,1,1.13.67l.26.32c.47-.23.67-.52.64-.64s-.78-.55-2-.35Z" transform="translate(-88.05 -91.95)"/><path class="cls-1" d="M93.26,107.32H91.37a1.14,1.14,0,0,1-1.14-1.13v-.87l.15,0a1.06,1.06,0,0,0,.32,0h3.69v.81A1.15,1.15,0,0,1,93.26,107.32Zm-2.79-1.71v.58a.9.9,0,0,0,.9.9h1.89a.91.91,0,0,0,.9-.9v-.58H90.47Z" transform="translate(-88.05 -91.95)"/><path class="cls-1" d="M108.37,107.32h-1.89a1.13,1.13,0,0,1-1.13-1.13v-.78h4.15v.78A1.15,1.15,0,0,1,108.37,107.32Zm-2.79-1.71v.58a.91.91,0,0,0,.9.9h1.89a.91.91,0,0,0,.9-.9v-.58Z" transform="translate(-88.05 -91.95)"/><path class="cls-2" d="M90.23,96.73a2,2,0,0,1,1.49-.67h1l-.48.48,0,0a3.38,3.38,0,0,1,.81.52h0A3.93,3.93,0,0,1,94,98.17a1.38,1.38,0,0,0,1.19.68h9.68a1.38,1.38,0,0,0,1.19-.68,3.48,3.48,0,0,1,.65-.84,3.63,3.63,0,0,1,1.08-.76l-.45-.45h1.05a2.08,2.08,0,0,1,1.52.7h0l.47.53,1.28,1.48h0a1.64,1.64,0,0,1,.41,1v3.29a2.63,2.63,0,0,1-2.63,2.63H90.69a1.57,1.57,0,0,1-.41,0,2.61,2.61,0,0,1-2.18-2.59V99.71a1.57,1.57,0,0,1,.41-1h0l1.1-1.25.62-.67Zm18.52.18-.66.31h0a3,3,0,0,0-.89.62,2.77,2.77,0,0,0-.51.67h0a2.12,2.12,0,0,1-1.83,1.06H95.17a2.11,2.11,0,0,1-1.83-1.06h0a3.32,3.32,0,0,0-.73-.88,2.48,2.48,0,0,0-.64-.41h0l-.7-.35a1.33,1.33,0,0,0-.51.35h0l-.61.67-1.1,1.24a.91.91,0,0,0-.23.58v3.46a1.9,1.9,0,0,0,1.59,1.88h0a.87.87,0,0,0,.26,0h18.72a1.91,1.91,0,0,0,1.9-1.9V99.88a.88.88,0,0,0-.23-.57h0l-1.28-1.48-.46-.52A1.38,1.38,0,0,0,108.75,96.91Z" transform="translate(-88.05 -91.95)"/></svg>