<svg id="Calque_1" data-name="Calque 1" xmlns="http://www.w3.org/2000/svg" viewBox="0 0 24 22.58"><defs><style>.cls-1{fill:#024161;}</style></defs><path class="cls-1" d="M110.55,106.83a6.66,6.66,0,0,0-3.11-.67l2.39-4.1a1,1,0,0,0-.15-1.16,10,10,0,0,0-.75-.7l-1.4-6a1.42,1.42,0,0,0,1.08-1.37V91.49a.77.77,0,0,0-.76-.76h-.75v-.81a1.56,1.56,0,0,0-1.57-1.57H94.34a1.56,1.56,0,0,0-1.57,1.57v.78H92.1a.77.77,0,0,0-.75.76v1.36a1.41,1.41,0,0,0,1.07,1.37L91,100.32c-.2.23-.44.43-.64.67a.93.93,0,0,0-.15,1.16l2.39,4.07a6.6,6.6,0,0,0-3,.78l-.23.12A2.45,2.45,0,0,0,88,109.33v.55a1,1,0,0,0,1,1H111a1,1,0,0,0,1.05-1v-.82A2.55,2.55,0,0,0,110.55,106.83Zm-4.24-.56-.23.06c-.06,0-.09,0-.15,0a.78.78,0,0,1-.23.06l-.12,0-.34.12-.18.08a3.06,3.06,0,0,1-2.09,0l-.67-.23-.58-.18a.62.62,0,0,0-.2,0l-.41-.09c-.09,0-.15,0-.23,0a.74.74,0,0,0-.35-.06H100a1.34,1.34,0,0,0-.35,0,.74.74,0,0,0-.26,0,1.59,1.59,0,0,0-.38.06c-.09,0-.18,0-.26,0l-.41.08c-.06,0-.15,0-.2.06a4.39,4.39,0,0,0-.61.21l-.21,0a2.94,2.94,0,0,1-2.2,0,4.43,4.43,0,0,0-.44-.14.33.33,0,0,0-.15,0l-.29-.09s-.11,0-.17,0-.18,0-.26-.06l-.18,0s-.11,0-.17,0l-2-3.4.35-.29a22.41,22.41,0,0,1,7.3-4.36l.58-.21v4.8a.35.35,0,0,0,.35.35.38.38,0,0,0,.34-.35V98l.47.15a25.8,25.8,0,0,1,7.73,4.36l.11.08-2.09,3.64s-.09,0-.11,0ZM100.7,95.93l-.72-.14-.5.08a17.58,17.58,0,0,0-6,2.56l.61-2.56a1.24,1.24,0,0,1,1.22-1h9.38a1.27,1.27,0,0,1,1.22,1l.58,2.44A18.11,18.11,0,0,0,100.7,95.93Zm8.49,5.75-.41.73-.09-.06A25.92,25.92,0,0,0,100.91,98l-.56-.17V96.63l.21,0a17.24,17.24,0,0,1,6,2.55,17,17,0,0,1,1.4,1.05l.43.38c.27.23.53.49.79.72A.26.26,0,0,1,109.19,101.68Zm-2.82-11.76v.78H103V89.07h2.53A.84.84,0,0,1,106.37,89.92Zm-9.27.78V89.07h2.73V90.7Zm3-1.63h2.73V90.7h-2.73Zm-6.53.85a.84.84,0,0,1,.84-.85H96.9V90.7H93.53Zm-1.43,2.9V91.46a0,0,0,0,1,0,0h15.75s0,0,0,0v1.36a.7.7,0,0,1-.67.7H92.77A.68.68,0,0,1,92.1,92.82Zm1.08,1.43H106.8L108,99.39l0,0-.35-.26c-.06,0-.09-.09-.15-.12s-.35-.26-.52-.38a1.74,1.74,0,0,1-.18-.11l-.63-2.68a1.48,1.48,0,0,0-1.46-1.13H95.3a1.49,1.49,0,0,0-1.45,1.13l-.67,2.79c-.06,0-.12.09-.18.12l-.52.38a1.18,1.18,0,0,0-.15.11l-.34.27,0,0Zm-2.36,7.23.76-.7a15.68,15.68,0,0,1,1.86-1.45,17,17,0,0,1,6.19-2.73v1.16L99,98a22.71,22.71,0,0,0-7.35,4.39l-.32.26-.5-.87C90.74,101.68,90.77,101.57,90.82,101.48Zm20.43,8.4a.33.33,0,0,1-.32.32H89.05a.33.33,0,0,1-.32-.32v-.55a1.76,1.76,0,0,1,1-1.57l.23-.12a6,6,0,0,1,2.79-.7,2.64,2.64,0,0,1,.47,0,5.77,5.77,0,0,1,1.68.38,1.53,1.53,0,0,0,.38.12,4,4,0,0,0,2.38-.15l.18-.06a6,6,0,0,1,4.27-.08l.67.23.32.09.14,0c.06,0,.12,0,.18,0a.21.21,0,0,1,.14,0c.06,0,.12,0,.18,0h.69c.09,0,.15,0,.24,0h.08c.09,0,.18,0,.26-.06s.06,0,.06,0a1.24,1.24,0,0,0,.32-.12l.18-.06c.11,0,.23-.09.32-.12a7.66,7.66,0,0,1,1-.23,6,6,0,0,1,3.4.55,1.8,1.8,0,0,1,1,1.6Z" transform="translate(-88.01 -88.35)"/></svg>