<svg id="Calque_1" data-name="Calque 1" xmlns="http://www.w3.org/2000/svg" xmlns:xlink="http://www.w3.org/1999/xlink" viewBox="0 0 19.25 24"><defs><style>.cls-1{fill:none;}.cls-2{clip-path:url(#clip-path);}.cls-3{fill:#024161;}</style><clipPath id="clip-path" transform="translate(-90.01 -87.78)"><rect class="cls-1" x="88.01" y="87.78" width="24" height="24"/></clipPath></defs><g class="cls-2"><path class="cls-3" d="M109.24,101.7a1.08,1.08,0,0,0-.24-.91,1.07,1.07,0,0,0-.85-.42h-1.68a3.91,3.91,0,0,0-2.36-2.92,11.88,11.88,0,0,1,0-4.48,5.8,5.8,0,0,0-1.56-4.18A3.66,3.66,0,0,0,99,87.91l-.35,0a3.71,3.71,0,0,0-3.33,3.48,21.66,21.66,0,0,0,.06,2.8,13.83,13.83,0,0,1,0,3.1,3.87,3.87,0,0,0-2.65,3h-1.6a1.08,1.08,0,0,0-.85.42,1.11,1.11,0,0,0-.24.91l1.59,8.6a.43.43,0,0,0,.06.18l0,0a.75.75,0,0,0-.2.53.73.73,0,0,0,.73.74H107a.84.84,0,0,0,.53-.21.7.7,0,0,0,.21-.53.66.66,0,0,0-.18-.47c0-.09.06-.15.09-.24ZM95.89,91.5a3.21,3.21,0,0,1,2.74-3,4,4,0,0,0,.47-.06,3.13,3.13,0,0,1,3,.74A5.29,5.29,0,0,1,103.49,93a14.32,14.32,0,0,0-.06,4.27,1.13,1.13,0,0,0-.32-.06.11.11,0,0,1-.09,0c-.09,0-.18,0-.26-.06h0c-.09,0-.18,0-.24,0h-.06c-.06,0-.15,0-.18,0h-.08a.6.6,0,0,1-.65-.32s0-.06,0-.09a4.33,4.33,0,0,0,1.12-1.89,4.9,4.9,0,0,0,.2-1.5c0-.21,0-.44,0-.68v-.06l-.12,0A32,32,0,0,1,99,90.68a1.43,1.43,0,0,0-1.29-.36,1.11,1.11,0,0,0-.71.77c-.21.56-.5,1.35-.68,1.86v.32a4.9,4.9,0,0,0,.21,1.5,4.14,4.14,0,0,0,1.12,1.89c0,.09-.18.32-.65.38h-.3a.54.54,0,0,0-.2,0c-.06,0-.15,0-.24,0h-.06l-.2,0h0a17.08,17.08,0,0,0,0-2.95A13.26,13.26,0,0,1,95.89,91.5Zm3.65,5.72A2.47,2.47,0,0,1,98,96.63a3.79,3.79,0,0,1-1.21-1.92,4.82,4.82,0,0,1-.2-1.44V93c.17-.5.47-1.26.67-1.82a.92.92,0,0,1,.56-.62,1.33,1.33,0,0,1,1.09.32,29.86,29.86,0,0,0,3.63,1.8,3.89,3.89,0,0,1,0,.59,4.34,4.34,0,0,1-.21,1.41A3.14,3.14,0,0,1,99.54,97.22ZM98.1,97a2.54,2.54,0,0,0,1.44.44A2.57,2.57,0,0,0,101,97a1.05,1.05,0,0,0,.85.59,3,3,0,0,1-3.18.92,2.78,2.78,0,0,1-1.42-.92C97.86,97.48,98,97.19,98.1,97Zm-2.45.83a4.91,4.91,0,0,1,1.27-.21h0a3,3,0,0,0,1.65,1.09,3.23,3.23,0,0,0,.94.12,3.7,3.7,0,0,0,.83-.09,3.26,3.26,0,0,0,1.77-1.12h0l.29,0c.06,0,.12,0,.21,0a3.94,3.94,0,0,1,1.06.27,3.36,3.36,0,0,1,2.12,2.41H93.24A3.4,3.4,0,0,1,95.65,97.84Zm-5.07,3.77a.48.48,0,0,1,.12-.44.57.57,0,0,1,.41-.21h17a.51.51,0,0,1,.41.21.58.58,0,0,1,.12.44l-1.59,8.58a.25.25,0,0,1-.06.14.53.53,0,0,1-.47.3H92.71a.55.55,0,0,1-.51-.33s0-.08,0-.11Zm16.77,9.79a.55.55,0,0,1-.35.14H92.15a.5.5,0,0,1-.51-.5.6.6,0,0,1,.12-.32,1.14,1.14,0,0,0,.95.53h13.82a1.13,1.13,0,0,0,.88-.44.43.43,0,0,1,.09.26A.55.55,0,0,1,107.35,111.4Z" transform="translate(-90.01 -87.78)"/><path class="cls-3" d="M99.54,106.47a.65.65,0,1,0-.65-.65A.65.65,0,0,0,99.54,106.47Zm0-1.06a.42.42,0,1,1-.41.41A.41.41,0,0,1,99.54,105.41Z" transform="translate(-90.01 -87.78)"/></g></svg>