<svg id="Calque_1" data-name="Calque 1" xmlns="http://www.w3.org/2000/svg" viewBox="0 0 24 17.35"><defs><style>.cls-1,.cls-2{fill:#024161;}.cls-2{fill-rule:evenodd;}</style></defs><path class="cls-1" d="M110.68,104.77v-1.53a10.58,10.58,0,0,0-3.13-7.54l-.28-.26s0,0,0,0a10.78,10.78,0,0,0-4.65-2.51,2.81,2.81,0,0,0-.68-1.15,2.68,2.68,0,0,0-4.47,1.16,10.59,10.59,0,0,0-8.1,10.34v1.53a1.8,1.8,0,0,0-.8.46,1.78,1.78,0,0,0-.52,1.28,1.81,1.81,0,0,0,1.8,1.8H110.2a1.8,1.8,0,0,0,.48-3.54Zm-.73-1.53v1.46H104a4.65,4.65,0,0,0,.72-2.5,4.73,4.73,0,0,0-2.08-3.92V93.67a9.93,9.93,0,0,1,4,2.17v4.78a.36.36,0,0,0,.72,0V96.56A9.87,9.87,0,0,1,110,103.24Zm-14-1a4,4,0,1,1,4,4A4,4,0,0,1,96,102.2Zm4-10.51A2,2,0,0,1,102,93.63v4.24a4.91,4.91,0,0,0-1.95-.42,4.68,4.68,0,0,0-2,.43V93.63A1.94,1.94,0,0,1,100,91.69Zm-10,11.55a9.91,9.91,0,0,1,2.58-6.64v4A.37.37,0,0,0,93,101a.36.36,0,0,0,.36-.36V95.86a9.79,9.79,0,0,1,4-2.18v4.6A4.72,4.72,0,0,0,96,104.7H90.06Zm20.14,4.35H89.81a1.09,1.09,0,0,1-1.08-1.08,1.08,1.08,0,0,1,1.08-1.08h6.71a4.76,4.76,0,0,0,7,0h6.71a1.08,1.08,0,0,1,0,2.16Z" transform="translate(-88.01 -90.96)"/><path class="cls-2" d="M110,104.7v-1.46a10,10,0,0,0-2.31-6.37,4.12,4.12,0,0,0-.28-.31v4.06a.36.36,0,0,1-.72,0V95.84a3.11,3.11,0,0,0-.28-.23,9.72,9.72,0,0,0-2.68-1.6l-.72-.26-.28-.08v4.61a2.83,2.83,0,0,1,.28.2,4.77,4.77,0,0,1,1.8,3.72,4.91,4.91,0,0,1-.24,1.5,4.75,4.75,0,0,1-.32.73c0,.09-.1.18-.16.27Zm-6.46.73-.28.27a4.76,4.76,0,0,1-5,.89,4.88,4.88,0,0,1-1.38-.89l-.28-.27H89.81a1,1,0,0,0-.29,0,1.13,1.13,0,0,0-.43.23l0,0a1.07,1.07,0,0,0-.32.77,1.09,1.09,0,0,0,1.08,1.08H110.2a1.08,1.08,0,0,0,.72-1.89,1.06,1.06,0,0,0-.43-.23,1,1,0,0,0-.29,0Zm7.46-.56a1.8,1.8,0,0,1-.75,3.44H89.81a1.81,1.81,0,0,1-1.8-1.8,1.78,1.78,0,0,1,.52-1.28,1.66,1.66,0,0,1,.53-.36l.27-.1v-1.53a10.65,10.65,0,0,1,2.74-7.16l.3-.31c.16-.16.32-.32.49-.47s.51-.43.78-.63A10.48,10.48,0,0,1,97.13,93h0l.3-.08a3,3,0,0,1,.12-.32,2.68,2.68,0,0,1,4.35-.84,2.83,2.83,0,0,1,.56.83,2.56,2.56,0,0,1,.12.32l.3.08h0a10.86,10.86,0,0,1,3.48,1.71c.26.2.52.4.76.62l.11.1s0,0,0,0l.09.08.19.18.09.09.26.28a6.4,6.4,0,0,1,.42.49.1.1,0,0,1,0,0,10.57,10.57,0,0,1,2.32,6.63v1.53Zm-9.27-12.23a1.57,1.57,0,0,0-.3-.38,1.91,1.91,0,0,0-1.37-.57,1.94,1.94,0,0,0-1.68,1,1.86,1.86,0,0,0-.27,1v4.25c.09,0,.18-.08.27-.12a4.38,4.38,0,0,1,.73-.21,4.85,4.85,0,0,1,1-.1,5,5,0,0,1,.95.1,4.27,4.27,0,0,1,.72.21l.28.11V93.63a2,2,0,0,0-.28-1Zm0,5.9h0a4.13,4.13,0,0,0-1.65-.35,4.18,4.18,0,0,0-1.66.35l0,0a3.08,3.08,0,0,0-.59.33,3.75,3.75,0,0,0-.61.51,4,4,0,0,0-.55,4.93l.07.11a5,5,0,0,0,.4.51,4.28,4.28,0,0,0,.55.49,4,4,0,0,0,4.81,0,4.28,4.28,0,0,0,.55-.49,3.9,3.9,0,0,0,.4-.51l.07-.11a4,4,0,0,0-.55-4.93,4.26,4.26,0,0,0-1.2-.85ZM95.5,103.7a4.63,4.63,0,0,1-.25-1.5,4.75,4.75,0,0,1,1.81-3.72,2.69,2.69,0,0,1,.27-.2v-4.6l-.27.08c-.25.08-.49.16-.73.26a9.73,9.73,0,0,0-2.69,1.6l-.27.24v4.76A.36.36,0,0,1,93,101a.37.37,0,0,1-.37-.36v-4l-.27.31a10.23,10.23,0,0,0-.73,1,9.88,9.88,0,0,0-1.58,5.33v1.46H96c-.06-.09-.11-.18-.16-.27A4.71,4.71,0,0,1,95.5,103.7Z" transform="translate(-88.01 -90.96)"/><path class="cls-2" d="M100,104.21a2,2,0,1,0-2-2A2,2,0,0,0,100,104.21Zm0,.25a2.25,2.25,0,1,0-2.25-2.25A2.25,2.25,0,0,0,100,104.46Z" transform="translate(-88.01 -90.96)"/></svg>