<svg id="Calque_1" data-name="Calque 1" xmlns="http://www.w3.org/2000/svg" xmlns:xlink="http://www.w3.org/1999/xlink" viewBox="0 0 24 23.99"><defs><style>.cls-1{fill:none;}.cls-2{clip-path:url(#clip-path);}.cls-3{fill:#024161;}</style><clipPath id="clip-path" transform="translate(-88.01 -87.72)"><rect class="cls-1" x="88.01" y="87.71" width="24" height="24"/></clipPath></defs><g class="cls-2"><path class="cls-3" d="M93.75,102.21l-4.22,2.6.12.2,4.23-2.6Z" transform="translate(-88.01 -87.72)"/><path class="cls-3" d="M105.08,89.24l-2.55,4.25.2.12,2.55-4.25Z" transform="translate(-88.01 -87.72)"/><path class="cls-3" d="M110.26,94.26l-4.16,2.58.12.2,4.16-2.58Z" transform="translate(-88.01 -87.72)"/><path class="cls-3" d="M106.37,102.47l-.12.2,4,2.48.12-.2Z" transform="translate(-88.01 -87.72)"/><path class="cls-3" d="M103,106l-.2.12,2.33,4,.2-.12Z" transform="translate(-88.01 -87.72)"/><path class="cls-3" d="M97.23,105.77l-2.65,4.16.19.12,2.66-4.15Z" transform="translate(-88.01 -87.72)"/><path class="cls-3" d="M89.9,94.27l-.13.2,4.06,2.58.13-.2Z" transform="translate(-88.01 -87.72)"/><path class="cls-3" d="M94.78,89.31l-.2.12,2.64,4.2.2-.12Z" transform="translate(-88.01 -87.72)"/><path class="cls-3" d="M112,99.69a13,13,0,0,0-.47-3.35c-.06-.15-.09-.32-.15-.47a6.68,6.68,0,0,0-6.76-7.58,7,7,0,0,0-.79.06c-.15-.06-.32-.09-.47-.15a11.93,11.93,0,0,0-6.7,0c-.15.06-.32.09-.47.15a3.6,3.6,0,0,0-.82-.06,6.68,6.68,0,0,0-6.73,7.58c-.06.15-.09.3-.15.47a12,12,0,0,0,0,6.88,2.26,2.26,0,0,0,.15.41,6.3,6.3,0,0,0-.09,1.08,6.83,6.83,0,0,0,6.82,6.82,5.78,5.78,0,0,0,1.61-.2l.4.09a13.36,13.36,0,0,0,2.6.29,13,13,0,0,0,2.57-.26h0l.4-.09a7.17,7.17,0,0,0,1.61.2,6.83,6.83,0,0,0,6.82-6.82,6.2,6.2,0,0,0-.09-1c.06-.12.09-.26.15-.38A13.92,13.92,0,0,0,112,99.69Zm-7.38-11.16a6.58,6.58,0,0,1,6.59,6.59v.26a8.22,8.22,0,0,0-.53-1.17,12.1,12.1,0,0,0-5.3-5.22,6.89,6.89,0,0,0-1-.44A.86.86,0,0,1,104.63,88.53ZM88.82,95.09a6.6,6.6,0,0,1,6.59-6.59h.27a9.59,9.59,0,0,0-1.14.52,12.1,12.1,0,0,0-5.72,6.33Zm6.56,16.18a6.6,6.6,0,0,1-6.59-6.59,3.76,3.76,0,0,1,0-.58,9.35,9.35,0,0,0,.44,1,11.82,11.82,0,0,0,7.23,6.09A4.5,4.5,0,0,1,95.38,111.27Zm2.19-.55a11.31,11.31,0,0,1-7.64-6l-.23.11.23-.11a13.42,13.42,0,0,1-.7-1.72,11.88,11.88,0,0,1-.5-3.36,11.52,11.52,0,0,1,.44-3.15,11.4,11.4,0,0,1,5.69-6.85,10.08,10.08,0,0,1,2-.82,11.73,11.73,0,0,1,6.33,0,12.26,12.26,0,0,1,1.87.73l.11-.23-.11.23a11.29,11.29,0,0,1,5,4.9,12.75,12.75,0,0,1,.82,2,11.45,11.45,0,0,1,.44,3.14,11.68,11.68,0,0,1-.5,3.33,13.31,13.31,0,0,1-.76,1.87,11.22,11.22,0,0,1-7.52,5.8h0A10.68,10.68,0,0,1,97.57,110.72Zm13.62-6a6.61,6.61,0,0,1-7.7,6.5,12,12,0,0,0,7.17-6c.18-.35.35-.72.5-1.1A3.57,3.57,0,0,1,111.19,104.71Z" transform="translate(-88.01 -87.72)"/><path class="cls-3" d="M106.79,101.65a7.36,7.36,0,0,0,.26-1.93,8.25,8.25,0,0,0-.15-1.48,6.09,6.09,0,0,0-.23-.82,7.05,7.05,0,0,0-3.91-4.17,6.91,6.91,0,0,0-.84-.29A7.3,7.3,0,0,0,98,93a7,7,0,0,0-5,5.31,6.2,6.2,0,0,0-.15,1.48,6.87,6.87,0,0,0,.27,1.93,5.17,5.17,0,0,0,.29.81,7,7,0,0,0,4.46,4l.06,0a.82.82,0,0,0,.26.06,1.17,1.17,0,0,1,.2,0c.09,0,.21,0,.33.06s.11,0,.2,0a1.38,1.38,0,0,0,.35,0,.22.22,0,0,1,.15,0l.52,0a6.89,6.89,0,0,0,2-.29A7.38,7.38,0,0,0,106.79,101.65Zm-4.93,4.14a6.58,6.58,0,0,1-3.68,0l-.06,0a6.38,6.38,0,0,1-4-3.59c-.09-.23-.18-.46-.26-.73a5.5,5.5,0,0,1-.24-1.72,6.88,6.88,0,0,1,.15-1.34,6.3,6.3,0,0,1,4.46-4.75,6.39,6.39,0,0,1,3.47,0c.26.09.53.17.76.26a6.37,6.37,0,0,1,3.7,4.49,6.88,6.88,0,0,1,.15,1.34,7,7,0,0,1-.24,1.75A6.49,6.49,0,0,1,101.86,105.79Z" transform="translate(-88.01 -87.72)"/></g></svg>