<svg id="Calque_1" data-name="Calque 1" xmlns="http://www.w3.org/2000/svg" xmlns:xlink="http://www.w3.org/1999/xlink" viewBox="0 0 24 23.89"><defs><style>.cls-1{fill:none;}.cls-2{clip-path:url(#clip-path);}.cls-3{fill:#024161;}</style><clipPath id="clip-path" transform="translate(-88.01 -87.64)"><rect class="cls-1" x="88.01" y="87.64" width="24" height="24"/></clipPath></defs><g class="cls-2"><path class="cls-3" d="M111.64,110.79h-2.36v-.93h2.14a.3.3,0,0,0,.26-.15.32.32,0,0,0,0-.3l-1.11-2h.34a.28.28,0,0,0,.26-.15.29.29,0,0,0,0-.3l-1-1.74h.21a.29.29,0,0,0,.26-.14.27.27,0,0,0,0-.3l-1.25-2.26a.32.32,0,0,0-.27-.15.31.31,0,0,0-.26.15l-1.26,2.26a.29.29,0,0,0,0,.3.29.29,0,0,0,.26.14h.18l-1,1.74a.27.27,0,0,0,0,.3.29.29,0,0,0,.25.15h.35l-1.11,2a.31.31,0,0,0,.26.45H109v.93H105.3V90.24h0a1,1,0,0,0,.94-.95v-.71a.94.94,0,0,0-.94-.94H94.77a1,1,0,0,0-1,.94v.71a1,1,0,0,0,1,.95h0V110.8H91.06v-.94H93.2a.3.3,0,0,0,.26-.15.29.29,0,0,0,0-.3l-1.11-2h.35A.31.31,0,0,0,93,107l-1-1.74h.21a.29.29,0,0,0,.26-.14.29.29,0,0,0,0-.3l-1.26-2.26a.31.31,0,0,0-.26-.15.32.32,0,0,0-.27.15l-1.25,2.26a.27.27,0,0,0,0,.3.3.3,0,0,0,.26.15h.19l-1,1.74a.29.29,0,0,0,0,.3.3.3,0,0,0,.26.14h.34l-1.1,2a.32.32,0,0,0,0,.3.3.3,0,0,0,.26.15h2.15v.94H88.37a.35.35,0,0,0-.36.36.36.36,0,0,0,.36.36h23.27a.36.36,0,0,0,.36-.36A.37.37,0,0,0,111.64,110.79Zm-4.8-1.2s0,0,0-.07l1.2-2.15a.13.13,0,0,0,0-.12.11.11,0,0,0-.1,0h-.54a.05.05,0,0,1-.05,0,.06.06,0,0,1,0-.07l1.06-1.91a.11.11,0,0,0,0-.11.11.11,0,0,0-.1-.06h-.39s0,0,0,0a.06.06,0,0,1,0-.07l1.26-2.26a0,0,0,0,1,.05,0,.06.06,0,0,1,.06,0l1.26,2.26s0,.06,0,.07a.07.07,0,0,1-.06,0H110a.11.11,0,0,0-.1.06.13.13,0,0,0,0,.12L111,107.1a0,0,0,0,1,0,.06.06.06,0,0,1-.06,0h-.54a.14.14,0,0,0-.1,0,.13.13,0,0,0,0,.12l1.21,2.15a.15.15,0,0,1,0,.07.07.07,0,0,1-.06,0H106.9A.15.15,0,0,1,106.84,109.59Zm-18.21,0a.08.08,0,0,1,0-.07l1.2-2.15a.13.13,0,0,0,0-.12.11.11,0,0,0-.1,0h-.54a.07.07,0,0,1-.06,0,.11.11,0,0,1,0-.06l1.07-1.91a.13.13,0,0,0,0-.12.11.11,0,0,0-.1-.06H89.7a.07.07,0,0,1-.06,0,.06.06,0,0,1,0-.07l1.26-2.25a.05.05,0,0,1,.06,0,0,0,0,0,1,.05,0l1.26,2.25a.06.06,0,0,1,0,.07s0,0,0,0H91.8a.11.11,0,0,0-.09.06.13.13,0,0,0,0,.12l1.06,1.91a.06.06,0,0,1,0,.07.06.06,0,0,1,0,0h-.55a.12.12,0,0,0-.1.06.13.13,0,0,0,0,.12l1.2,2.15a.11.11,0,0,1,0,.06.07.07,0,0,1-.06,0H88.68S88.63,109.6,88.63,109.59Zm6.14-20.08a.22.22,0,0,1-.22-.22v-.71a.22.22,0,0,1,.22-.22h10.54a.21.21,0,0,1,.21.22v.71a.21.21,0,0,1-.21.22H94.77Zm.73,21.28V90.24h9.07V110.8H95.5Z" transform="translate(-88.01 -87.64)"/><path class="cls-3" d="M98.22,91.75A1.26,1.26,0,0,0,97,93V94.7a.11.11,0,0,0,.12.11h2.28a.12.12,0,0,0,.12-.11V93A1.26,1.26,0,0,0,98.22,91.75Zm1,2.83h-2V93a1,1,0,1,1,2,0Z" transform="translate(-88.01 -87.64)"/><path class="cls-3" d="M102,91.75A1.26,1.26,0,0,0,100.72,93V94.7a.12.12,0,0,0,.12.11h2.28a.11.11,0,0,0,.12-.11V93A1.25,1.25,0,0,0,102,91.75Zm1,2.83h-2V93a1,1,0,1,1,2,0Z" transform="translate(-88.01 -87.64)"/><path class="cls-3" d="M98.22,96.4A1.27,1.27,0,0,0,97,97.66v1.69a.12.12,0,0,0,.12.12h2.28a.13.13,0,0,0,.12-.12V97.66A1.27,1.27,0,0,0,98.22,96.4Zm1,2.83h-2V97.66a1,1,0,0,1,2,0Z" transform="translate(-88.01 -87.64)"/><path class="cls-3" d="M102,96.4a1.27,1.27,0,0,0-1.26,1.26v1.69a.13.13,0,0,0,.12.12h2.28a.12.12,0,0,0,.12-.12V97.66A1.26,1.26,0,0,0,102,96.4Zm1,2.83h-2V97.66a1,1,0,0,1,2,0Z" transform="translate(-88.01 -87.64)"/><path class="cls-3" d="M98.22,101A1.26,1.26,0,0,0,97,102.22v1.69a.11.11,0,0,0,.12.11h2.28a.12.12,0,0,0,.12-.11v-1.69A1.26,1.26,0,0,0,98.22,101Zm1,2.83h-2v-1.57a1,1,0,1,1,2,0Z" transform="translate(-88.01 -87.64)"/><path class="cls-3" d="M102,101a1.26,1.26,0,0,0-1.26,1.26v1.69a.12.12,0,0,0,.12.11h2.28a.11.11,0,0,0,.12-.11v-1.69A1.25,1.25,0,0,0,102,101Zm1,2.83h-2v-1.57a1,1,0,1,1,2,0Z" transform="translate(-88.01 -87.64)"/><path class="cls-3" d="M98.22,105.51A1.27,1.27,0,0,0,97,106.77v1.69a.12.12,0,0,0,.12.12h2.28a.13.13,0,0,0,.12-.12v-1.69A1.27,1.27,0,0,0,98.22,105.51Zm1,2.83h-2v-1.57a1,1,0,1,1,2,0Z" transform="translate(-88.01 -87.64)"/><path class="cls-3" d="M102,105.51a1.27,1.27,0,0,0-1.26,1.26v1.69a.13.13,0,0,0,.12.12h2.28a.12.12,0,0,0,.12-.12v-1.69A1.26,1.26,0,0,0,102,105.51Zm1,2.83h-2v-1.57a1,1,0,1,1,2,0Z" transform="translate(-88.01 -87.64)"/></g></svg>