<svg id="Calque_1" data-name="Calque 1" xmlns="http://www.w3.org/2000/svg" viewBox="0 0 24.03 23.92"><defs><style>.cls-1{fill:#024161;}</style></defs><path class="cls-1" d="M99.92,93a2.82,2.82,0,0,0-2.65,2.82v2a.62.62,0,0,0,.64.64H102a.67.67,0,0,0,.67-.67v-2.1A2.67,2.67,0,0,0,99.92,93Zm-.06,4.88h-2a.1.1,0,0,1-.09-.09v-1.6h2Zm0-1.92h-2v-.17a2.21,2.21,0,0,1,2-2.24Zm2.27,1.84a.09.09,0,0,1-.09.09h-2V96.23h2Zm0-1.86h-2V93.55a2.06,2.06,0,0,1,1.37.61,2.08,2.08,0,0,1,.67,1.54Z" transform="translate(-87.99 -87.7)"/><path class="cls-1" d="M111.23,108.1V108a2,2,0,0,0-1.13-1.77V96.75l.55.35a.66.66,0,0,0,.41.12.58.58,0,0,0,.38-.12.8.8,0,0,0,.41-.7V95.15a.79.79,0,0,0-.38-.67l-10.88-6.6a1.41,1.41,0,0,0-1.31,0L88.46,94.13a.83.83,0,0,0-.41.67v1.28a.78.78,0,0,0,1.17.67l.64-.38v9.86A2,2,0,0,0,88.73,108v.06a2.15,2.15,0,0,0-.74,1.58,2,2,0,0,0,2,2h3.84a1.71,1.71,0,0,0,.93-.29h10.53a1.71,1.71,0,0,0,.93.29H110a2,2,0,0,0,2-2A2.09,2.09,0,0,0,111.23,108.1Zm-22.37-12H88.8a.07.07,0,0,1,0-.06V94.8s0,0,0-.06l10.85-6.23a.66.66,0,0,1,.58,0l10.91,6.57,0,0V96.4a.09.09,0,0,1,0,.06h-.06L100.32,90a.66.66,0,0,0-.41-.12.72.72,0,0,0-.41.12Zm5.56,14.55a.86.86,0,0,1-.58.2H90a1.25,1.25,0,0,1-.67-2.3l.2-.12,0-.23v-.17a1.25,1.25,0,0,1,.87-1.19,1.67,1.67,0,0,1,.38-.06,1.22,1.22,0,0,1,1.13.76l.12.26.29,0h.12a1.11,1.11,0,0,1,1.11.9l.06.29h.29a1,1,0,0,1,.7.32.91.91,0,0,1,.23.61A1,1,0,0,1,94.42,110.69Zm.93-.09v0s0,0,0-.06a.1.1,0,0,1,0-.06s0-.06,0-.12,0-.06,0-.06a.18.18,0,0,1,0-.12v-.23a1,1,0,0,0,0-.29.11.11,0,0,0,0-.09s0-.09,0-.12h9.16a1.3,1.3,0,0,0,0,.15s0,.06,0,.09a.86.86,0,0,0,0,.29v.23a.18.18,0,0,0,0,.12s0,.06,0,.06,0,.06,0,.09,0,.06,0,.09,0,0,0,.06Zm2.44-1.92v-7.3h4.33v7.3Zm5.07,0v-7.36a.73.73,0,0,0-.73-.73H97.76a.73.73,0,0,0-.73.73v7.33H94.88a1.84,1.84,0,0,0-.81-.41,1.81,1.81,0,0,0-1.72-1.22,2,2,0,0,0-1.8-1V96l9.34-5.35H100l9.43,5.7v9.8a2,2,0,0,0-1.8,1,1.91,1.91,0,0,0-1.72,1.22,1.61,1.61,0,0,0-.81.41Zm7.18,2.15h-3.87a1,1,0,0,1-.58-.2.89.89,0,0,1-.35-.73,1,1,0,0,1,.23-.64.94.94,0,0,1,.7-.32h.29l.06-.29a1.15,1.15,0,0,1,1.11-.9h.12l.29,0,.12-.26a1.29,1.29,0,0,1,1.51-.7,1.23,1.23,0,0,1,.87,1.19v.17l0,.23.2.12a1.19,1.19,0,0,1,.58,1A1.28,1.28,0,0,1,110,110.86Z" transform="translate(-87.99 -87.7)"/><path class="cls-1" d="M95.09,100.05H92.26a.36.36,0,0,0-.36.36v3.09a.36.36,0,0,0,.36.36h2.83a.36.36,0,0,0,.36-.36v-3.09A.36.36,0,0,0,95.09,100.05Zm.16,3.45a.16.16,0,0,1-.16.16H92.26a.16.16,0,0,1-.16-.16v-3.09a.16.16,0,0,1,.16-.16h2.83a.16.16,0,0,1,.16.16Z" transform="translate(-87.99 -87.7)"/><path class="cls-1" d="M107.84,103.5v-3.09a.36.36,0,0,0-.36-.36h-2.84a.36.36,0,0,0-.36.36v3.09a.36.36,0,0,0,.36.36h2.84A.36.36,0,0,0,107.84,103.5Zm-3.35,0v-3.09a.16.16,0,0,1,.16-.16h2.84a.16.16,0,0,1,.16.16v3.09a.16.16,0,0,1-.16.16h-2.84A.16.16,0,0,1,104.49,103.5Z" transform="translate(-87.99 -87.7)"/></svg>