<?xml version="1.0" encoding="utf-8"?>
<!-- Generator: Adobe Illustrator 25.2.1, SVG Export Plug-In . SVG Version: 6.00 Build 0)  -->
<svg version="1.1" id="Layer_1" xmlns="http://www.w3.org/2000/svg" xmlns:xlink="http://www.w3.org/1999/xlink" x="0px" y="0px"
	 viewBox="0 0 170 100" style="enable-background:new 0 0 170 100;" xml:space="preserve">
<style type="text/css">
	.st0{fill:#ADD04E;}
	.st1{fill:#F7AA36;}
	.st2{fill:#3EAAC4;}
</style>
<path class="st0" d="M129.3,1.7C107.8,1.9,90.4,19.4,90,41.1l0.3,41.2l39.6-0.3c21.9-0.2,39.4-18.3,39.3-40.4
	C169,19.4,151.1,1.6,129.3,1.7z"/>
<path class="st1" d="M45.2,59.6c0,0.1,0,0.2,0,0.3C45.4,81.3,63,98.5,84.5,98.4l-0.3-39L45.2,59.6z"/>
<path class="st2" d="M0.4,11.5c0.2,24.4,20.1,44,44.5,43.8c24.3-0.2,43.9-20.1,43.8-44.5L0.4,11.5z"/>
</svg>
