<svg id="Calque_1" data-name="Calque 1" xmlns="http://www.w3.org/2000/svg" xmlns:xlink="http://www.w3.org/1999/xlink" viewBox="0 0 24 14.77"><defs><style>.cls-1{fill:none;}.cls-2{clip-path:url(#clip-path);}.cls-3{fill:#024161;}</style><clipPath id="clip-path" transform="translate(-88.01 -92.23)"><rect class="cls-1" x="88.01" y="92.23" width="24" height="14.8"/></clipPath></defs><g class="cls-2"><path class="cls-3" d="M112,100.44a1,1,0,0,0-.21-.64l-2.33-3.57a1.76,1.76,0,0,0-1.46-.78h-2.84V93.67a1.39,1.39,0,0,0-1.4-1.44H89.44A1.44,1.44,0,0,0,88,93.67v8.58h.23v.09a1.77,1.77,0,0,0,.85,1.51,3.31,3.31,0,0,0-.06.53,2.63,2.63,0,1,0,5.25,0v-.23h.06v.23a2.63,2.63,0,0,0,5.26,0v-.23h0v.23a2.63,2.63,0,1,0,5.25,0v-.23h.85v.23a2.64,2.64,0,0,0,2.63,2.63,2.61,2.61,0,0,0,2.62-2.63,5,5,0,0,0,0-.53,1.78,1.78,0,0,0,.84-1.51v-.06H112Zm-5.61-4.23h.76v4h-.47a.33.33,0,0,1-.32-.33V96.21Zm1,0H108a1,1,0,0,1,.85.46l2.31,3.51h-3.8v-4Zm-2.22,0h1v3.64a.55.55,0,0,0,.55.56h4.56v1.14H105.2Zm-12,6h2.25a2.51,2.51,0,0,0-1,1.66h-.12A2.79,2.79,0,0,0,93.2,102.25Zm5.29,0h2.22a2.54,2.54,0,0,0-1,1.66h-.12A2.47,2.47,0,0,0,98.49,102.25Zm5.28,0h.7v0h2.28a2.51,2.51,0,0,0-1,1.63h-.91A2.4,2.4,0,0,0,103.77,102.25Zm-15-8.58a.72.72,0,0,1,.7-.71h14.33a.72.72,0,0,1,.7.71v7.85H88.74Zm-.27,8.67v-.09h1.67a2.66,2.66,0,0,0-1,1.37A1.6,1.6,0,0,1,88.47,102.34Zm3.21,4a1.92,1.92,0,1,1,1.87-2.22,1.06,1.06,0,0,1,0,.29A1.94,1.94,0,0,1,91.68,106.31Zm5.29,0a1.9,1.9,0,0,1-1.9-1.9,1,1,0,0,1,0-.29A1.93,1.93,0,0,1,97,102.51a1.89,1.89,0,0,1,1.87,1.61,1,1,0,0,1,0,.29A1.88,1.88,0,0,1,97,106.31Zm5.28,0a1.89,1.89,0,0,1-1.89-1.9,1,1,0,0,1,0-.29,1.92,1.92,0,0,1,1.86-1.61,1.88,1.88,0,0,1,1.87,1.61,1,1,0,0,1,0,.29A1.88,1.88,0,0,1,102.25,106.31Zm6.11,0a1.89,1.89,0,0,1-1.9-1.9,1,1,0,0,1,0-.29,1.89,1.89,0,0,1,3.73-.09l0,.09a1.06,1.06,0,0,1,0,.32A1.93,1.93,0,0,1,108.36,106.31Zm3.18-4a1.57,1.57,0,0,1-.67,1.28v-.06h0a2.62,2.62,0,0,0-.94-1.28h1.64Z" transform="translate(-88.01 -92.23)"/><path class="cls-3" d="M92.06,104.15a.45.45,0,0,0-.64-.12.48.48,0,0,0-.12.64.43.43,0,0,0,.38.21.48.48,0,0,0,.27-.09.46.46,0,0,0,.2-.29A.58.58,0,0,0,92.06,104.15Z" transform="translate(-88.01 -92.23)"/><path class="cls-3" d="M97.35,104.15a.46.46,0,0,0-.64-.12.44.44,0,0,0-.21.29.48.48,0,0,0,.06.35.42.42,0,0,0,.38.21.45.45,0,0,0,.26-.09A.45.45,0,0,0,97.35,104.15Z" transform="translate(-88.01 -92.23)"/><path class="cls-3" d="M102.6,104.15A.45.45,0,0,0,102,104a.42.42,0,0,0-.2.29.48.48,0,0,0,.06.35.41.41,0,0,0,.38.21.48.48,0,0,0,.26-.09A.45.45,0,0,0,102.6,104.15Z" transform="translate(-88.01 -92.23)"/><path class="cls-3" d="M108.74,104.15a.47.47,0,0,0-.65-.12.46.46,0,0,0-.2.29.48.48,0,0,0,.06.35.41.41,0,0,0,.38.21.48.48,0,0,0,.26-.09A.46.46,0,0,0,108.74,104.15Z" transform="translate(-88.01 -92.23)"/></g></svg>