<svg width="56" height="56" viewBox="0 0 56 56" fill="none" xmlns="http://www.w3.org/2000/svg">
<path d="M43.5186 3.44H10.5586V4H43.5186V3.44Z" fill="#F8AA36"/>
<path d="M43.5186 5.28003H10.5586V5.84003H43.5186V5.28003Z" fill="#F8AA36"/>
<path d="M41.5986 7.36L42.5586 7.12H10.5586V7.6H41.5186L41.5986 7.36Z" fill="#F8AA36"/>
<path d="M43.5203 8.88H42.9603L42.6403 9.28001L42.3203 9.44001H43.5203V8.88Z" fill="#F8AA36"/>
<path d="M40.5586 8.88H10.5586V9.44001H39.9186C40.0786 9.36001 40.3986 9.12001 40.5586 8.88Z" fill="#F8AA36"/>
<path d="M43.5186 10.72H10.5586V11.28H43.5186V10.72Z" fill="#F8AA36"/>
<path d="M43.5186 12.56H10.5586V13.12H43.5186V12.56Z" fill="#F8AA36"/>
<path d="M43.5186 14.4H10.5586V14.96H43.5186V14.4Z" fill="#F8AA36"/>
<path d="M43.5186 16.24H10.5586V16.8H43.5186V16.24Z" fill="#F8AA36"/>
<path d="M43.5186 18.08H10.5586V18.64H43.5186V18.08Z" fill="#F8AA36"/>
<path d="M43.5186 19.92H10.5586V20.48H43.5186V19.92Z" fill="#F8AA36"/>
<path d="M43.5186 21.76H10.5586V22.32H43.5186V21.76Z" fill="#F8AA36"/>
<path d="M43.5186 23.52H10.5586V24.08H43.5186V23.52Z" fill="#F8AA36"/>
<path d="M43.5186 25.36H10.5586V25.92H43.5186V25.36Z" fill="#F8AA36"/>
<path d="M43.5186 27.2H10.5586V27.76H43.5186V27.2Z" fill="#F8AA36"/>
<path d="M43.5186 29.04H10.5586V29.6H43.5186V29.04Z" fill="#F8AA36"/>
<path d="M43.5186 30.88H10.5586V31.44H43.5186V30.88Z" fill="#F8AA36"/>
<path d="M43.5186 32.72H10.5586V33.28H43.5186V32.72Z" fill="#F8AA36"/>
<path d="M43.5175 34.56H11.4375L11.5975 35.12H43.5175V34.56Z" fill="#F8AA36"/>
<path d="M43.5203 36.4H14.3203L14.5603 36.64H14.8803L15.4403 36.96H43.5203V36.4Z" fill="#F8AA36"/>
<path d="M43.5184 38.24H16.3984V38.48L16.6384 38.72H43.5184V38.24Z" fill="#F8AA36"/>
<path d="M43.52 40H18V40.08H18.88L19.44 40.56H43.52V40Z" fill="#F8AA36"/>
<path d="M43.5184 41.84H20.3984V41.92L21.4384 42.08L21.8384 42.4H43.5184V41.84Z" fill="#F8AA36"/>
<path d="M43.5189 43.68H22.8789C22.8789 43.68 22.8789 43.76 22.9589 43.76C23.1189 44 23.3589 44.16 23.5189 44.24H43.5989V43.68H43.5189Z" fill="#F8AA36"/>
<path d="M43.5173 45.52H25.2773C25.4373 45.76 25.5173 46 25.5173 46.08H43.5173V45.52Z" fill="#F8AA36"/>
<path d="M43.5167 47.36H26.6367L27.0367 47.76L27.1967 47.92H43.5167V47.36Z" fill="#F8AA36"/>
<path d="M43.5181 49.2H28.0781L28.1581 49.76H43.5181V49.2Z" fill="#F8AA36"/>
<path d="M43.5202 51.04H28.1602V51.6H43.5202V51.04Z" fill="#F8AA36"/>
<path d="M43.5175 52.88H29.4375H29.5175L29.7575 53.44H43.5175V52.88Z" fill="#F8AA36"/>
</svg>
