<svg width="60" height="60" viewBox="0 0 60 60" fill="none" xmlns="http://www.w3.org/2000/svg">
<path fill-rule="evenodd" clip-rule="evenodd" d="M30.0855 28.3713C28.9712 26.4856 26.6569 25.8856 24.7712 26.9999C23.9141 27.4285 23.3141 28.1999 22.8855 29.0571C19.4569 27.0856 17.1426 23.7428 16.2855 20.2285C17.3998 19.9713 18.6855 19.8856 19.9712 19.8856C22.5426 19.7999 25.0283 20.6571 27.1712 21.9428C28.0283 22.4571 28.7141 23.0571 29.4855 23.6571C29.7426 23.9999 29.9141 24.2571 30.0855 24.5142C30.7712 25.6285 30.8569 27.0856 30.0855 28.3713ZM37.6283 32.9999C40.8855 31.5428 43.8855 28.5428 45.8569 25.1142C47.2283 22.6285 47.9998 20.0571 48.1712 17.3999C43.0283 14.9142 36.5998 14.9142 31.1998 18.0856C30.7712 18.3428 30.3426 18.5999 29.9998 18.9428C27.1712 16.8856 23.5712 15.6856 19.7998 15.6856C16.9712 15.6856 14.2283 16.3713 11.9141 17.4856V17.6571C12.3426 23.3999 15.4283 28.7999 20.9141 31.9713C21.3426 32.2285 21.7712 32.4856 22.1141 32.6571C21.8569 36.1713 22.6283 39.8571 24.5998 43.1142C25.9712 45.5999 27.8569 47.5713 30.0855 49.1142C34.9712 45.8571 38.1426 40.2856 38.1426 34.0285C38.1426 33.5999 38.1426 33.0856 37.9712 32.6571L37.6283 32.9999ZM30.5141 28.7142C29.3998 30.5999 30.0855 32.9142 31.9712 34.0285C32.8283 34.5428 33.7712 34.7142 34.7141 34.5428C34.7141 38.4856 33.0855 42.1713 30.5141 44.7428C29.6569 43.8856 29.0569 42.8571 28.3712 41.7428C26.9998 39.5999 26.4855 36.9428 26.4855 34.5428C26.4855 33.5999 26.6569 32.6571 26.7426 31.7142C26.9141 31.2856 26.9998 31.0285 27.1712 30.7713C27.8569 29.5713 29.0569 28.7142 30.5141 28.7142ZM30.5141 28.8856C32.6569 28.5428 34.1141 26.6571 33.7712 24.4285C33.6855 23.4856 33.2569 22.6285 32.5712 21.9428C35.6569 19.5428 39.5998 18.5999 43.1998 19.0285C43.0283 20.1428 42.5998 21.3428 42.1712 22.5428C41.3141 24.9428 39.5998 26.9999 37.6283 28.4571C36.8569 29.0571 35.9998 29.5713 35.2283 29.9999C34.7998 30.1713 34.5426 30.1713 34.1998 30.2571C32.8283 30.5142 31.3712 30.0856 30.5141 28.8856Z" stroke="#F8AA36" stroke-miterlimit="10"/>
<path fill-rule="evenodd" clip-rule="evenodd" d="M21.5999 56.5714C11.2285 55.4571 2.91423 47.3142 2.39994 36.9428C2.39994 34.8857 2.22852 32.8285 2.22852 30.8571C2.22852 30.3428 2.22852 29.7428 2.22852 29.2285C2.22852 27.1714 2.39994 25.1142 2.39994 23.1428C2.91423 12.6857 11.2285 4.54282 21.5999 3.42853C24.4285 3.2571 27.1714 3.17139 29.9142 3.17139C32.7428 3.17139 35.4857 3.34282 38.2285 3.42853C48.5999 4.54282 56.8285 12.6857 57.4285 23.0571C57.5999 25.1142 57.5999 27.1714 57.6857 29.1428C57.6857 29.6571 57.6857 30.2571 57.6857 30.7714C57.6857 32.8285 57.5142 34.8857 57.4285 36.8571C56.8285 47.3142 48.5142 55.4571 38.1428 56.5714C35.3999 56.7428 32.7428 56.8285 29.8285 56.8285C27.1714 56.8285 24.4285 56.6571 21.5999 56.5714ZM29.9142 52.9714C32.7428 52.9714 35.4857 52.8 38.2285 52.5428C46.5428 51.8571 53.0571 45.1714 53.5714 36.8571C53.7428 34.8 53.7428 32.7428 53.7428 30.7714C53.7428 30.2571 53.7428 29.6571 53.7428 29.1428C53.7428 27.0857 53.7428 25.0285 53.5714 23.0571C53.0571 14.7428 46.4571 8.22853 38.2285 7.37139C35.4857 7.11424 32.8285 6.94282 29.9142 6.94282C27.1714 6.94282 24.3428 7.11424 21.5999 7.37139C13.4571 8.22853 6.9428 14.7428 6.3428 23.0571C6.17137 25.1142 6.08566 27.1714 6.08566 29.1428C6.08566 29.6571 6.08566 30.2571 6.08566 30.7714C6.08566 32.8285 6.25709 34.8857 6.3428 36.8571C6.85709 45.1714 13.4571 51.8571 21.5999 52.5428C24.3428 52.8857 27.1714 52.9714 29.9142 52.9714Z" stroke="#F8AA36" stroke-miterlimit="10"/>
</svg>
