<svg width="70" height="70" viewBox="0 0 70 70" fill="none" xmlns="http://www.w3.org/2000/svg">
<path d="M35.0006 1.5L34.4006 2.6C34.4006 2.6 32.5006 6 30.7006 10.3C28.8006 14.6 27.0006 19.8 27.0006 23.7C27.0006 26 27.4006 28.2 27.9006 30.2C24.8006 27.1 20.1006 25.4 16.2006 25.3C14.9006 25.3 13.5006 25.5 12.4006 25.9C9.7006 26.9 7.9006 29 7.4006 31.5C6.9006 34 7.5006 37 9.4006 39.6C11.1006 41.9 13.5006 43 15.5006 43.4C17.3006 43.9 19.1006 43.7 20.7006 43.4L19.8006 42.5C19.8006 42.5 18.9006 41.6 18.7006 41.2C17.8006 39.9 17.6006 38.7 17.8006 37.6C18.0006 36.6 18.7006 35.7 19.9006 35.1C20.6006 34.8 21.2006 34.7 21.9006 34.9C22.6006 35.1 23.3006 35.5 23.9006 36.1C25.2006 37.3 26.3006 39.3 26.7006 41.1V41.2C26.7006 41.3 26.6006 41.4 26.6006 41.5C26.3006 42.8 26.5006 44 27.0006 44.9C27.4006 45.6 28.0006 46.1 28.7006 46.5V46.6C28.7006 47.6 28.4006 48.8 27.9006 49.6C27.6006 50 27.4006 50.3 27.1006 50.5C26.8006 50.7 26.6006 50.7 26.2006 50.6C25.6006 50.5 25.2006 50.1 25.0006 49.7C24.8006 49.3 24.7006 48.7 25.0006 47.9C25.1006 47.7 25.4006 47.1 25.4006 47.1L26.1006 46C24.8006 46 23.6006 46.2 22.6006 46.7C21.5006 47.2 20.3006 48.1 19.6006 49.7C18.9006 51.5 18.9006 53.2 19.5006 54.6C20.2006 56 21.5006 57 23.2006 57.2C24.9006 57.4 26.8006 56.8 28.4006 55.8C29.2006 55.3 29.9006 54.7 30.5006 54C29.3006 57.4 28.1006 60.3 28.1006 60.3L27.2006 62.3L29.1006 61.2C29.1006 61.2 29.6006 60.9 30.3006 60.7C30.8006 60.5 31.3006 60.5 31.7006 60.5C31.7006 60.7 31.7006 61 31.7006 61.3C31.7006 62 31.7006 62.7 31.7006 62.7C31.7006 65.5 34.4006 67.5 34.4006 67.5L34.8006 67.8L35.2006 67.5C35.2006 67.5 37.9006 65.5 37.9006 62.7C37.9006 62.6 37.9006 61.9 37.9006 61.3C37.9006 61 37.9006 60.8 37.9006 60.5C38.3006 60.5 38.8006 60.6 39.3006 60.7C40.0006 60.9 40.5006 61.3 40.5006 61.3L42.3006 62.4L41.5006 60.4C41.5006 60.4 40.6006 58.2 39.6006 55.4C39.5006 55 39.3006 54.6 39.2006 54.1C39.8006 54.8 40.5006 55.3 41.2006 55.8C42.8006 56.8 44.7006 57.4 46.4006 57.2C48.1006 57 49.4006 56 50.1006 54.6C50.8006 53.2 50.8006 51.4 50.0006 49.7C49.4006 48.1 48.1006 47.2 47.0006 46.7C45.8006 46.1 44.7006 46 43.5006 46L44.2006 47.1C44.2006 47.1 44.6006 47.7 44.6006 47.9C44.9006 48.7 44.8006 49.3 44.6006 49.7C44.4006 50.1 44.0006 50.4 43.4006 50.6C43.1006 50.7 42.8006 50.6 42.5006 50.5C42.2006 50.3 41.9006 50.1 41.7006 49.7C41.2006 48.9 40.9006 47.8 40.9006 46.8H41.0006C41.8006 46.4 42.5006 45.8 42.8006 44.9C43.2006 44 43.2006 43 43.1006 41.7C43.1006 41.5 43.0006 41.4 43.0006 41.2C43.5006 39.4 44.5006 37.4 45.8006 36.2C46.4006 35.6 47.1006 35.2 47.8006 35C48.5006 34.8 49.1006 34.8 49.8006 35.2C51.0006 35.8 51.7006 36.6 51.9006 37.7C52.1006 38.7 51.9006 39.9 51.0006 41.3C50.7006 41.7 49.9006 42.6 49.9006 42.6L49.0006 43.5L50.3006 43.8C50.6006 43.9 51.0006 43.9 51.7006 43.9C52.4006 43.9 53.3006 43.8 54.3006 43.6C56.3006 43.2 58.7006 42.1 60.4006 39.8C62.3006 37.1 63.0006 34.2 62.4006 31.7C61.9006 29.2 60.1006 27.1 57.4006 26.1C55.9006 25.7 55.0006 25.5 53.6006 25.5C49.8006 25.6 45.1006 27.3 41.9006 30.4C42.5006 28.5 42.8006 26.3 42.8006 24C42.8006 20.1 40.9006 14.9 39.1006 10.6C37.2006 6.3 35.4006 2.9 35.4006 2.9L35.0006 1.5ZM35.0006 4.6C35.6006 5.8 36.7006 7.9 38.0006 10.9C39.8006 15.1 41.6006 20.3 41.6006 23.8C41.6006 26.3 41.2006 28.6 40.6006 30.6C40.0006 32.4 39.0006 33.9 38.2006 36C37.6006 37.5 37.2006 39 36.9006 40.6C36.9006 40.7 36.7006 41.1 36.7006 41.2C36.2006 41.2 35.7006 41.2 35.1006 41.2C34.5006 41.2 34.0006 41.2 33.5006 41.2L33.4006 41C33.0006 39.1 32.5006 37.3 31.8006 35.6C31.1006 33.9 30.1006 32.3 29.5006 30.7C28.8006 28.7 28.4006 26.4 28.4006 23.8C28.4006 20.3 30.2006 15.2 32.0006 10.9C33.3006 7.8 34.4006 5.8 35.0006 4.6ZM16.2006 26.8C20.3006 26.9 26.0006 29.3 28.5006 33.2C30.4006 36.1 31.5006 39.8 31.8006 41C31.4006 41 31.2006 41 30.6006 40.9C29.5006 40.8 28.4006 40.7 27.9006 40.6C27.3006 38.6 26.2006 36.7 24.8006 35.3C24.0006 34.6 23.2006 34 22.2006 33.7C21.2006 33.4 20.2006 33.5 19.2006 34C17.7006 34.7 16.7006 36 16.3006 37.4C16.0006 38.9 16.3006 40.5 17.4006 42.1C17.5006 42.2 17.5006 42.3 17.7006 42.4C17.1006 42.4 16.5006 42.3 15.8006 42.2C14.0006 41.8 12.0006 40.9 10.6006 38.9C8.9006 36.5 8.3006 34 8.8006 31.9C9.2006 29.8 10.6006 28.1 12.9006 27.3C14.0006 26.9 15.1006 26.8 16.2006 26.8ZM53.9006 26.8C55.0006 26.8 56.2006 27 57.2006 27.3C59.5006 28.1 60.9006 29.8 61.3006 31.9C61.7006 34 61.2006 36.5 59.5006 38.9C58.1006 40.9 56.0006 41.8 54.3006 42.2C53.6006 42.4 52.9006 42.4 52.4006 42.4C52.5006 42.3 52.6006 42.2 52.7006 42.1C53.8006 40.5 54.1006 38.9 53.8006 37.4C53.5006 35.9 52.4006 34.7 50.9006 34C49.9006 33.5 48.9006 33.5 47.9006 33.7C46.9006 34 46.1006 34.5 45.3006 35.3C43.9006 36.7 42.8006 38.6 42.2006 40.6C41.7006 40.7 40.6006 40.8 39.6006 40.9C38.8006 41 38.6006 41 38.2006 41C38.6006 39.7 39.7006 36 41.5006 33.1C44.1006 29.3 49.7006 26.8 53.9006 26.8ZM28.1006 42.5C30.2006 42.9 32.6006 43.2 35.1006 43.2C37.6006 43.2 40.0006 42.9 42.1006 42.5C42.2006 43.4 42.1006 44.1 41.9006 44.5C41.7006 45 41.3006 45.4 40.8006 45.7C39.7006 46.3 37.7006 46.4 35.1006 46.6C33.8006 46.7 31.6006 46.6 30.1006 45.9C29.3006 45.6 28.7006 45.1 28.4006 44.5C28.0006 44 28.0006 43.3 28.1006 42.5ZM30.1006 47.8C30.4006 47.9 30.6006 48 30.9006 48C31.2006 48.1 31.5006 48.1 31.7006 48.1C31.6006 48.9 31.3006 50 30.8006 51.2C30.3006 52.7 29.1006 54 27.7006 54.9C26.3006 55.8 24.7006 56.2 23.4006 56.1C22.1006 56 21.3006 55.3 20.8006 54.3C20.3006 53.3 20.3006 52 20.9006 50.5C21.4006 49.3 22.3006 48.6 23.2006 48.2C23.4006 48.1 23.5006 48.1 23.6006 48.1C23.4006 49 23.3006 49.9 23.7006 50.6C24.1006 51.4 24.9006 52 25.9006 52.3C26.6006 52.5 27.3006 52.3 27.8006 52C28.3006 51.7 28.8006 51.2 29.1006 50.7C29.8006 49.8 30.0006 48.8 30.1006 47.8ZM39.9006 47.8C40.0006 48.8 40.3006 49.8 40.9006 50.7C41.2006 51.2 41.7006 51.7 42.2006 52C42.7006 52.3 43.4006 52.4 44.1006 52.3C45.1006 52.1 45.9006 51.5 46.3006 50.6C46.7006 49.9 46.6006 49 46.4006 48.1C46.5006 48.2 46.7006 48.2 46.8006 48.2C47.7006 48.6 48.6006 49.3 49.1006 50.5C49.7006 52 49.7006 53.3 49.2006 54.3C48.7006 55.3 47.9006 55.9 46.6006 56.1C45.3006 56.2 43.7006 55.8 42.3006 54.9C40.9006 54 39.7006 52.7 39.2006 51.2C38.8006 50 38.4006 48.9 38.3006 48.1C38.6006 48.1 38.8006 48 39.2006 48C39.5006 47.9 39.7006 47.9 39.9006 47.8ZM36.4006 48.3C36.8006 50.6 37.7006 53.5 38.6006 56.1C39.3006 58 39.6006 58.7 39.9006 59.6C39.1006 59.3 38.2006 59.1 37.2006 59.4L36.7006 59.6V60.1C36.7006 60 36.7006 60.3 36.7006 60.5C36.7006 60.8 36.7006 61.1 36.7006 61.4C36.7006 62.1 36.7006 62.8 36.7006 62.8C36.7006 64.3 35.5006 65.5 35.0006 66C34.4006 65.5 33.3006 64.3 33.3006 62.8C33.3006 62.7 33.3006 62.1 33.3006 61.4C33.3006 61.1 33.3006 60.7 33.3006 60.5C33.3006 60.2 33.3006 60 33.3006 60.1V59.6L32.8006 59.4C31.9006 59.1 30.9006 59.3 30.2006 59.6C31.0006 57.6 33.0006 52.8 33.7006 48.4C34.2006 48.4 34.7006 48.4 35.1006 48.4C35.6006 48.4 36.0006 48.4 36.4006 48.3Z" fill="#F8AA36"/>
</svg>
