<svg width="173" height="173" viewBox="0 0 173 173" fill="none" xmlns="http://www.w3.org/2000/svg">
<circle cx="86.5089" cy="86.0215" r="86.0215" fill="#D7488F"/>
<g clip-path="url(#clip0_1_41)">
<path d="M119.535 92.9024C119.75 91.7554 119.428 90.4651 118.675 89.6407C117.922 88.673 116.776 88.1712 115.629 88.1712H109.607C108.46 83.1174 105.593 79.4973 101.148 77.7052C100.396 75.1604 100.001 70.4292 101.148 61.6479C101.148 61.2178 101.578 52.2572 95.5569 46.6658C90.6106 41.9705 85.521 42.9382 82.9045 43.4758C82.3669 43.5834 81.8651 43.6909 81.6501 43.6909C78.8185 43.6909 70.3597 46.7733 69.7146 56.164C69.4995 59.5332 69.7146 62.9382 69.9296 66.1998C70.1447 70.2142 70.4673 74.0135 69.8221 77.2751C64.7683 78.9597 61.5784 82.6515 60.3239 88.1712H54.625C53.478 88.1712 52.2952 88.7088 51.5784 89.6407C50.8257 90.5726 50.539 91.7554 50.7182 92.9024L56.4171 123.763C56.4171 123.978 56.5246 124.193 56.6321 124.408L56.5246 124.515C55.987 125.053 55.7719 125.662 55.7719 126.415C55.7719 127.884 56.9189 129.067 58.4243 129.067H111.543C112.295 129.067 112.905 128.745 113.442 128.315C113.98 127.777 114.195 127.132 114.195 126.415C114.195 125.77 113.98 125.16 113.55 124.73C113.657 124.408 113.765 124.193 113.872 123.87L119.571 92.9024H119.535ZM71.6859 56.3432C72.3311 47.7769 80.3597 45.7697 81.5067 45.7697C81.9368 45.7697 82.4744 45.6622 83.1913 45.5547C85.7361 45.017 89.858 44.3002 94.0873 48.207C99.3562 53.1891 98.9619 61.5045 98.9619 61.5045C98.1017 67.9561 98.03 73.1174 98.7468 76.8092C98.3167 76.7016 97.9942 76.5941 97.5999 76.5941C97.4924 76.5941 97.3848 76.5941 97.2773 76.4866C96.9547 76.3791 96.6321 76.3791 96.3454 76.2715H96.2379C95.9153 76.2715 95.5927 76.164 95.3777 76.164H95.1626C94.9476 76.164 94.625 76.164 94.5175 76.0565H94.1949C92.7253 76.164 92.1877 75.4113 91.8651 74.9095C91.8651 74.802 91.7576 74.6945 91.7576 74.5869C93.5497 72.9024 94.9117 70.5726 95.7719 67.8127C96.3096 66.1282 96.5246 64.336 96.5246 62.4364C96.5246 61.6837 96.5246 60.8593 96.4171 59.9991V59.7841L95.987 59.8916C92.7253 58.4221 84.9834 54.9095 82.9045 53.3325C81.22 52.078 79.6429 51.6479 78.2451 52.078C77.0981 52.4006 76.2379 53.3325 75.7002 54.8378C74.9476 56.845 73.9081 59.7124 73.263 61.5045V62.6515C73.263 64.5511 73.478 66.3432 74.0157 68.0278C74.7683 70.6801 76.2379 73.0816 78.03 74.802C78.03 75.1246 77.3848 75.9848 75.7002 76.164H74.625C74.4099 76.164 74.1949 76.164 73.8723 76.2715C73.6572 76.2715 73.3347 76.3791 73.0121 76.3791H72.797C72.582 76.3791 72.2594 76.4866 72.0443 76.4866H71.9368C72.3669 73.2249 72.1519 69.6049 71.9368 65.9131C71.6142 62.8307 71.2916 59.4615 71.6142 56.3074L71.6859 56.3432ZM84.7683 76.845C82.7612 76.845 80.8615 76.0923 79.177 74.7303C77.1698 73.1533 75.7002 70.716 74.84 67.8486C74.3024 66.2715 74.0873 64.4794 74.0873 62.6873V61.7196C74.7325 59.9274 75.7719 57.1676 76.5246 55.1604C76.9547 54.0135 77.6716 53.1532 78.5318 52.9382C79.5712 52.6156 80.9691 53.0457 82.4386 54.121C84.4458 55.5905 91.3275 58.7805 95.4135 60.5726C95.521 61.3253 95.521 61.9346 95.521 62.6873C95.521 64.4794 95.306 66.164 94.7683 67.7411C93.1913 73.2249 89.177 76.8092 84.7325 76.8092L84.7683 76.845ZM79.6071 76.0923C81.1841 77.1317 82.9762 77.6694 84.7683 77.6694C86.5605 77.6694 88.3526 77.1317 89.9296 76.0923C90.2522 76.845 90.9691 77.7769 93.0121 78.207C91.6501 79.7841 89.6429 80.9669 87.5282 81.5762C85.6286 82.1138 83.5139 82.0063 81.6142 81.4687C79.6071 80.931 77.8149 79.7841 76.5605 78.207C78.7827 77.7769 79.4278 76.7375 79.6071 76.0923ZM70.8257 79.0672C72.6178 78.5296 74.4099 78.3145 75.3777 78.3145H75.4852C76.9547 80.2142 78.9619 81.5762 81.3992 82.2214C82.4386 82.5439 83.6214 82.6515 84.7683 82.6515C85.8078 82.6515 86.7755 82.5439 87.7433 82.3289C90.2881 81.6837 92.5103 80.3217 94.0873 78.3145H94.1949C94.5175 78.3145 94.9476 78.4221 95.2343 78.4221C95.4494 78.4221 95.6644 78.5296 95.987 78.5296C97.1339 78.6371 98.4243 78.9597 99.7863 79.4973C103.693 80.9669 106.238 83.9418 107.385 88.1712H62.1877C63.4422 83.5117 66.3096 80.4651 70.8615 79.1031L70.8257 79.0672ZM52.6537 92.5798C52.5461 92.0421 52.6537 91.4328 53.0838 91.0027C53.4063 90.5726 54.0157 90.25 54.5533 90.25H115.521C116.059 90.25 116.56 90.4651 116.991 91.0027C117.313 91.4328 117.528 92.0421 117.421 92.5798L111.722 123.332C111.722 123.548 111.614 123.655 111.507 123.87C111.184 124.515 110.575 124.91 109.822 124.91H60.2881C59.5354 124.91 58.8185 124.479 58.4959 123.727C58.3884 123.619 58.3884 123.404 58.3884 123.297L52.6895 92.5439L52.6537 92.5798ZM112.761 127.669C112.439 127.992 111.901 128.207 111.507 128.207H58.2809C57.2415 128.207 56.4888 127.347 56.4888 126.415C56.4888 125.985 56.7038 125.555 56.9189 125.268C57.6716 126.415 58.9261 127.168 60.2881 127.168H109.822C111.077 127.168 112.259 126.522 112.976 125.591C113.191 125.913 113.299 126.236 113.299 126.558C113.299 126.881 113.084 127.383 112.761 127.705V127.669Z" fill="white"/>
<path d="M84.8042 110.035C86.0587 110.035 87.1339 108.996 87.1339 107.705C87.1339 106.415 86.0945 105.375 84.8042 105.375C83.5139 105.375 82.4744 106.415 82.4744 107.705C82.4744 108.996 83.5139 110.035 84.8042 110.035ZM84.8042 106.236C85.6644 106.236 86.2737 106.881 86.2737 107.705C86.2737 108.53 85.6286 109.175 84.8042 109.175C83.9798 109.175 83.3347 108.53 83.3347 107.705C83.3347 106.881 83.9798 106.236 84.8042 106.236Z" fill="white"/>
</g>
<defs>
<clipPath id="clip0_1_41">
<rect width="86.0215" height="86.0215" fill="white" transform="translate(43.4982 43.0108)"/>
</clipPath>
</defs>
</svg>
