<svg width="173" height="173" viewBox="0 0 173 173" fill="none" xmlns="http://www.w3.org/2000/svg">
<circle cx="86.0394" cy="86.0215" r="86.0215" fill="#F7AA36"/>
<g clip-path="url(#clip0_1_40)">
<path d="M103.781 66.7742C98.4767 61.7204 91.5592 59.2115 84.2473 59.7133C70.914 60.5376 60.1613 71.7204 59.8387 85.2688C59.6237 93.2617 62.957 100.717 68.9068 105.878C71.0215 107.67 72.1685 110.287 72.1685 113.011V119.642C72.1685 124.803 76.3262 128.996 81.4516 128.996H89.0502C94.1756 128.996 98.3692 124.803 98.3692 119.642V114.086C98.3692 111.147 99.7312 108.495 102.025 106.631C108.369 101.577 112.025 94.1219 112.025 86.0215C112.025 78.6738 109.014 71.7204 103.781 66.7742ZM74.7491 114.194H95.7527V115.986H74.7491V114.194ZM86.147 111.577V92.7599C89.1577 94.9821 94.3907 96.4516 97.4014 97.1685C93.9606 102.007 91.6667 105.484 91.2724 111.47H86.147V111.577ZM85.3226 111.577H79.9821C79.4803 105.484 77.1506 102.115 73.8172 97.276C76.9713 96.5233 82.276 94.9462 85.3226 92.8674V111.577ZM74.7491 116.846H95.7527V119.462H74.7491V116.846ZM89.0502 126.308H81.4516C78.0108 126.308 75.1792 123.692 74.7491 120.43H95.6452C95.3226 123.692 92.5269 126.308 89.0502 126.308ZM100.448 104.552C98.1541 106.344 96.5771 108.853 96.0753 111.685H93.8531C94.2832 106.308 96.4695 103.262 99.7312 98.5305C100.125 97.8853 100.233 97.0609 100.018 96.2366C99.7312 95.4839 99.086 94.8746 98.2617 94.6595C95.8602 94.0143 89.9104 92.4373 87.2939 90.3584C86.362 89.6057 85.1075 89.6057 84.1756 90.3584C81.4516 92.5807 75.3943 94.1577 72.9928 94.6595C72.1685 94.8746 71.5233 95.3763 71.2007 96.2366C70.914 96.9534 71.0215 97.8136 71.5233 98.5305C74.8566 103.262 76.9713 106.308 77.3656 111.685H74.6774C74.3549 108.638 72.8853 105.914 70.5914 103.907C65.1434 99.2832 62.2402 92.4373 62.4552 85.3047C62.7419 73.2258 72.4552 63.1183 84.4624 62.3656H86.0394C92.0968 62.3656 97.724 64.5878 102.133 68.7814C106.935 73.2975 109.516 79.3907 109.516 86.0215C109.409 93.1541 106.183 100 100.448 104.516V104.552Z" fill="white"/>
<path d="M85.9319 55.0179C86.6488 55.0179 87.1864 54.3728 87.1864 53.7634V44.2652C87.1864 43.5484 86.5771 43.0108 85.9319 43.0108C85.3226 43.0108 84.6774 43.6559 84.6774 44.2652V53.6201C84.5699 54.3728 85.2151 54.9821 85.9319 54.9821V55.0179Z" fill="white"/>
<path d="M53.5663 83.7276H44.2832C43.638 83.7276 43.0287 84.3728 43.0287 85.0896C43.0287 85.8065 43.638 86.3441 44.2832 86.3441H53.5663C54.319 86.3441 54.8208 85.6989 54.8208 85.0896C54.8208 84.4803 54.319 83.7276 53.5663 83.7276Z" fill="white"/>
<path d="M127.796 83.7276H118.513C117.76 83.7276 117.258 84.3728 117.258 84.9821C117.258 85.5914 117.867 86.2366 118.513 86.2366H127.796C128.513 86.2366 129.05 85.5914 129.05 84.9821C129.05 84.3728 128.513 83.7276 127.796 83.7276Z" fill="white"/>
<path d="M61.4158 62.4731C61.595 62.6882 62.0251 62.9032 62.3477 62.9032C62.6703 62.9032 62.957 62.7957 63.2796 62.4731C63.8172 61.9355 63.8172 61.1111 63.2796 60.5735L56.7204 53.9427C56.1828 53.405 55.3584 53.405 54.8208 53.9427C54.319 54.4803 54.319 55.3047 54.8208 55.8423L61.4158 62.4731Z" fill="white"/>
<path d="M118.907 54.0502C118.405 53.5125 117.581 53.5125 117.043 54.0502L110.484 60.681C109.946 61.2186 109.946 62.043 110.484 62.5806C110.663 62.7957 111.093 63.0108 111.416 63.0108C111.738 63.0108 112.025 62.9032 112.348 62.5806L118.907 55.9498C119.444 55.3047 119.444 54.4803 118.907 54.0502Z" fill="white"/>
</g>
<defs>
<clipPath id="clip0_1_40">
<rect width="86.0215" height="86.0215" fill="white" transform="translate(43.0287 43.0108)"/>
</clipPath>
</defs>
</svg>
