<svg width="173" height="173" viewBox="0 0 173 173" fill="none" xmlns="http://www.w3.org/2000/svg">
<circle cx="86.5699" cy="86.0215" r="86.0215" fill="#004161"/>
<g clip-path="url(#clip0_1_39)">
<path d="M122.054 75.7706C120.477 57.3477 104.957 43.0108 86.2832 43.0108C67.6093 43.0108 52.1971 57.4552 50.5484 75.9857C46.4982 77.4552 43.5591 81.2903 43.5591 85.7706V90.7527C43.5591 96.4875 48.2545 101.147 54.0968 101.147H58.6846C59.2222 101.147 59.724 101.039 60.2617 100.824C61.6237 100.215 62.448 98.8531 62.448 97.3835V79.0681C62.448 77.4194 61.3011 75.9498 59.724 75.4122C59.509 75.3047 59.1864 75.3047 59.0072 75.3047C60.6918 61.7921 72.448 51.2903 86.319 51.2903C100.19 51.2903 111.982 61.7921 113.631 75.4122C111.982 75.8423 110.728 77.276 110.728 79.0681V97.491C110.728 99.1398 111.767 100.609 113.344 101.039L113.559 101.147C113.882 101.254 114.204 101.254 114.491 101.254H116.247C115.817 112.294 107.502 121.434 96.4265 122.796L96.5341 123.62C108.004 122.151 116.677 112.688 117.072 101.254H119.151C124.885 101.254 129.581 96.5591 129.581 90.8602V85.8781C129.581 81.2186 126.462 77.1326 122.054 75.7706ZM59.7957 79.1039V97.5269C59.7957 97.957 59.5807 98.3513 59.1864 98.5663C59.0789 98.6738 58.8638 98.6738 58.7563 98.6738H54.1685C49.7957 98.6738 46.2473 95.1255 46.2473 90.8602V85.8781C46.2473 82.043 49.1864 78.7097 53.0215 78.172C53.4516 78.0645 53.7384 78.0645 54.1685 78.0645H59.0789C59.509 78.172 59.7957 78.5663 59.7957 79.1039ZM86.2832 50.5018C71.9104 50.5018 59.7957 61.3262 58.147 75.3763H53.2366C55.1362 58.6022 69.2939 45.6272 86.319 45.6272C103.344 45.6272 117.717 58.638 119.366 75.3763H114.455C112.771 61.3262 100.584 50.5018 86.2832 50.5018ZM126.964 90.7527C126.964 95.1255 123.416 98.5663 119.151 98.5663H114.025C113.595 98.3513 113.308 97.957 113.308 97.5269V79.1039C113.308 78.4946 113.738 78.0645 114.348 77.957H119.151C119.652 77.957 120.19 77.957 120.62 78.0645C124.276 78.7814 127 82.0072 127 85.7706V90.7527H126.964Z" fill="white"/>
<path d="M92.6631 129.032H80.9785C78.147 129.032 75.8531 126.738 75.8531 123.943V122.473C75.8531 119.677 78.147 117.384 80.9785 117.384H92.6631C95.4946 117.384 97.7885 119.677 97.7885 122.473V123.943C97.7885 126.738 95.4946 129.032 92.6631 129.032Z" fill="white"/>
</g>
<defs>
<clipPath id="clip0_1_39">
<rect width="86.0215" height="86.0215" fill="white" transform="translate(43.5591 43.0108)"/>
</clipPath>
</defs>
</svg>
