<svg width="173" height="173" viewBox="0 0 173 173" fill="none" xmlns="http://www.w3.org/2000/svg">
<circle cx="86.9785" cy="86.0215" r="86.0215" fill="#639E30"/>
<g clip-path="url(#clip0_1_42)">
<path d="M81.2437 121.649L57.6595 107.993L58.4838 106.846C59.0215 106.129 59.3441 105.376 59.3441 104.552V104.122C59.3441 103.405 59.129 102.652 58.8064 101.936C58.4838 101.111 57.767 100.358 56.9426 99.9642C56.1182 99.5341 55.258 99.3549 54.3261 99.4266L52.8566 99.5341V72.9391L54.3261 73.0466C56.1899 73.2617 57.982 72.2223 58.8064 70.6452C59.2365 69.9284 59.3441 69.1757 59.3441 68.4588V68.1362C59.2365 67.0968 58.9139 66.2724 58.3046 65.5198L57.2652 64.3728L81.2437 50.5018L81.7455 51.9714C82.0681 52.7957 82.6774 53.5484 83.4301 54.0502C84.9713 55.1972 87.1577 55.0896 88.7347 54.0502C89.4516 53.5126 90.0967 52.7957 90.4193 51.9714L90.9211 50.5018L114.9 64.3728L113.86 65.5198C113.251 66.2366 112.821 67.1685 112.821 68.1362V68.5663C112.821 69.2832 113.036 70.0359 113.358 70.7527C114.183 72.4373 115.939 73.3692 117.839 73.1542L119.272 73.0466V99.6416L117.839 99.5341C116.907 99.4266 116.047 99.6416 115.33 100.072C114.505 100.502 113.753 101.219 113.358 102.043C112.928 102.688 112.821 103.513 112.821 104.229V104.552C112.928 105.484 113.251 106.201 113.645 106.953L114.505 108.1L91.0286 121.649L90.4193 120.179C89.7742 118.423 88.0179 117.168 86.1183 117.168C84.2186 117.168 82.4982 118.423 81.7455 120.179L81.2437 121.649ZM86.1183 114.552C88.6272 114.552 90.9211 115.806 92.1756 117.885L110.849 107.133C110.527 106.416 110.312 105.556 110.204 104.731V104.122C110.204 102.867 110.527 101.72 111.064 100.681C111.674 99.4266 112.821 98.2796 114.075 97.6703C114.9 97.2402 115.76 96.9534 116.692 96.9534V75.8065C114.29 75.5914 112.211 74.1219 111.064 71.9355C110.527 70.8961 110.204 69.7491 110.204 68.4947V67.7778C110.312 66.8459 110.527 65.914 111.064 65.0538L92.1756 54.3011C91.6738 55.018 91.0286 55.7706 90.3118 56.2724C87.9104 57.9212 84.4695 57.9212 81.9605 56.2724C81.2437 55.7348 80.5985 55.018 80.0967 54.3011L61.2079 65.1255C61.638 65.9499 61.9247 66.8818 62.0322 67.957V68.5663C62.0322 69.8208 61.7455 70.8603 61.2079 72.0072C60.0609 74.1936 57.982 75.5556 55.5806 75.7706V96.8459C56.5125 96.9534 57.3369 97.1685 58.1971 97.5628C59.5591 98.1721 60.5985 99.319 61.2079 100.574C61.7455 101.613 62.0322 102.76 62.0322 103.907V104.624C61.9247 105.448 61.7455 106.201 61.4229 107.025L80.0967 117.778C81.3512 115.806 83.6451 114.552 86.1183 114.552ZM86.1183 96.6309C82.4982 96.6309 79.0573 94.7671 77.0501 91.6129C75.9032 89.8567 75.4014 87.8495 75.4014 85.7706C75.4014 84.1219 75.7957 82.3298 76.5484 80.8603C78.4122 77.2043 82.0681 75.018 86.1183 75.018C90.1684 75.018 93.8602 77.3119 95.724 80.8603C96.4408 82.3298 96.8709 84.0861 96.8709 85.7706C96.8709 87.8495 96.2616 89.8567 95.1863 91.6129C93.215 94.7312 89.7742 96.6309 86.1183 96.6309ZM86.1183 77.6344C83 77.6344 80.276 79.319 78.8423 82.1147C78.1971 83.2617 77.9104 84.5162 77.9104 85.8782C77.9104 87.4552 78.3046 88.9965 79.129 90.2509C80.7061 92.6524 83.215 94.0144 86.0107 94.0144C88.8064 94.0144 91.4588 92.5448 92.8924 90.2509C93.7527 88.8889 94.1469 87.4194 94.1469 85.8782C94.1469 84.6237 93.8602 83.2617 93.215 82.1147C91.9605 79.2832 89.1648 77.6344 86.1183 77.6344Z" fill="white"/>
<path d="M86.1183 57.5269C84.6846 57.5269 83.215 57.0968 81.9605 56.1649C80.8136 55.3405 79.8817 54.1936 79.3441 52.8316C79.0573 52.1147 78.8423 51.147 78.8423 50.3226C78.8423 46.3441 82.0681 43.0108 86.1183 43.0108C90.1684 43.0108 93.3226 46.2366 93.3226 50.3226C93.3226 51.2545 93.1075 52.0789 92.8208 52.9391C92.2831 54.1936 91.4588 55.3405 90.2043 56.2724C89.0573 57.0968 87.5878 57.5269 86.1183 57.5269ZM86.1183 45.6273C83.5376 45.6273 81.4229 47.7061 81.4229 50.3226C81.4229 50.9319 81.5304 51.4696 81.7455 52.0072C82.0681 52.8316 82.6774 53.5843 83.4301 54.0861C84.9713 55.233 87.1577 55.1255 88.7347 54.0861C89.4516 53.5484 90.0967 52.8316 90.4193 52.0072C90.5985 51.362 90.7061 50.8603 90.7061 50.3226C90.7061 47.7061 88.6272 45.6273 86.1183 45.6273Z" fill="white"/>
<path d="M86.1183 129.068C82.1756 129.068 78.8423 125.842 78.8423 121.864C78.8423 120.932 79.0573 120.072 79.3441 119.247C80.3835 116.416 83.1075 114.552 86.1183 114.552C89.129 114.552 91.853 116.416 92.8924 119.247C93.215 120.072 93.4301 120.932 93.4301 121.864C93.3226 125.806 90.0967 129.068 86.1183 129.068ZM86.1183 117.168C84.2545 117.168 82.4982 118.423 81.7455 120.179C81.5304 120.717 81.4229 121.219 81.4229 121.864C81.4229 124.373 83.5376 126.452 86.1183 126.452C88.6989 126.452 90.7061 124.373 90.7061 121.864C90.7061 121.326 90.5985 120.717 90.4193 120.179C89.7742 118.423 88.0179 117.168 86.1183 117.168Z" fill="white"/>
<path d="M117.409 111.326C115.115 111.326 112.928 110.179 111.566 108.387C110.742 107.348 110.312 105.986 110.204 104.731V104.122C110.204 102.867 110.527 101.72 111.064 100.681C111.674 99.4266 112.821 98.2796 114.075 97.6703C115.33 97.061 116.692 96.7384 118.125 96.9534C121.889 97.276 124.72 100.394 124.72 104.158C124.72 108.136 121.495 111.362 117.409 111.362V111.326ZM117.409 99.4266C116.692 99.4266 115.939 99.6416 115.33 99.9642C114.505 100.394 113.753 101.111 113.358 101.936C112.928 102.545 112.821 103.405 112.821 104.122V104.444C112.928 105.376 113.251 106.093 113.645 106.846C114.505 107.993 115.939 108.71 117.409 108.71C119.918 108.71 121.996 106.631 121.996 104.014C121.996 101.613 120.24 99.6416 117.839 99.4266H117.409Z" fill="white"/>
<path d="M54.7562 111.326C50.7777 111.326 47.5519 108.1 47.5519 104.014C47.5519 100.251 50.3835 97.1327 54.1111 96.8101H54.8638C56.0107 96.8101 57.1577 97.1327 58.1971 97.6344C59.4516 98.2438 60.5985 99.3907 61.2079 100.645C61.7455 101.685 62.0322 102.832 62.0322 104.086V104.803C61.9247 106.057 61.4229 107.312 60.7061 108.459C59.2365 110.143 57.0501 111.29 54.7562 111.29V111.326ZM54.7562 99.4266H54.3261C51.9247 99.6416 50.1684 101.613 50.1684 104.014C50.1684 106.631 52.2473 108.71 54.7562 108.71C56.1899 108.71 57.5519 107.993 58.4838 106.846C59.0215 106.129 59.3441 105.376 59.3441 104.552V104.122C59.3441 103.405 59.129 102.652 58.8064 101.936C58.4838 101.111 57.767 100.358 56.9426 99.9642C56.1899 99.5341 55.5806 99.4266 54.7562 99.4266Z" fill="white"/>
<path d="M117.409 75.8065C114.685 75.8065 112.319 74.337 111.064 71.9355C110.527 70.8961 110.204 69.7491 110.204 68.4947V67.7778C110.312 66.3083 110.957 64.9463 111.889 63.7993C113.251 62.1506 115.222 61.1828 117.409 61.1828C121.387 61.1828 124.613 64.4086 124.613 68.4947C124.613 72.2581 121.781 75.3764 118.054 75.699C117.946 75.8065 117.731 75.8065 117.409 75.8065ZM117.409 63.9068C116.047 63.9068 114.685 64.552 113.86 65.5914C113.251 66.3083 112.821 67.2402 112.821 68.2079V68.638C112.821 69.3549 113.036 70.1076 113.358 70.8244C114.183 72.509 115.939 73.4409 117.839 73.2258C120.24 73.0108 121.996 71.0395 121.996 68.638C122.104 66.0215 120.025 63.9427 117.409 63.9427V63.9068Z" fill="white"/>
<path d="M54.7562 75.8065H54.0036C50.3835 75.3764 47.5519 72.3656 47.5519 68.6022C47.5519 64.6237 50.7777 61.2904 54.7562 61.2904C56.9426 61.2904 58.9139 62.2223 60.276 63.9068C61.2079 65.0538 61.853 66.4158 61.9247 67.9929V68.6022C61.9247 69.8567 61.638 70.8961 61.1003 72.043C59.9534 74.337 57.4444 75.8065 54.7562 75.8065ZM54.7562 63.9068C52.2473 63.9068 50.1684 65.9857 50.1684 68.6022C50.1684 71.0036 51.9247 72.9749 54.3261 73.19H54.7562C56.5125 73.19 58.0896 72.2581 58.8064 70.681C59.2365 69.9642 59.3441 69.2115 59.3441 68.4947V68.1721C59.2365 67.1327 58.9139 66.3083 58.3046 65.5556C57.4444 64.5162 56.1899 63.871 54.7562 63.871V63.9068Z" fill="white"/>
<path d="M82.319 54.9463L57.1218 98.5305L57.8387 98.9606L83.0358 55.3405L82.319 54.9104V54.9463Z" fill="white"/>
<path d="M89.8458 54.9821L89.129 55.4122L114.326 99.0323L115.043 98.6022L89.8458 54.9821Z" fill="white"/>
<path d="M77.4803 81.828L59.4516 71.5054L59.6308 71.1828C60.0609 70.3585 60.276 69.4982 60.276 68.5663V68.0287L61.1003 67.9212V68.423C61.1003 69.3549 60.8853 70.1792 60.5985 71.0395L77.9104 80.9319L77.4803 81.7563V81.828Z" fill="white"/>
<path d="M94.7921 81.828L94.362 81.1111L111.674 71.2187C111.244 70.3943 111.172 69.5341 111.172 68.6022V68.0646L111.996 68.1721V68.7097C111.996 69.6416 112.211 70.466 112.606 71.3262L112.821 71.6488L94.7921 81.8638V81.828Z" fill="white"/>
<path d="M111.996 104.982H60.276L60.3835 104.48V103.943C60.3835 103.011 60.1684 102.186 59.7383 101.326L59.5591 101.004L78.3046 90.2509L78.5197 90.5735C80.2043 93.19 83 94.7312 86.1183 94.7312C89.2365 94.7312 92.0681 93.1542 93.7527 90.5735L93.9677 90.2509L112.713 101.004L112.498 101.326C112.104 102.043 111.889 102.975 111.889 103.943V104.48L111.996 104.982ZM61.1003 104.158H111.064V104.05C111.064 103.118 111.244 102.294 111.566 101.434L94.1469 91.4337C92.3907 94.1577 89.3799 95.699 86.1183 95.699C82.8566 95.699 79.8817 94.1219 77.982 91.4337L60.5985 101.434C60.9928 102.258 61.1003 103.19 61.1003 104.158Z" fill="white"/>
<path d="M86.5484 56.3083H85.724V76.4158H86.5484V56.3083Z" fill="white"/>
<path d="M86.5484 95.3047H85.724V115.95H86.5484V95.3047Z" fill="white"/>
<path d="M86.1183 96.6309C82.4982 96.6309 79.0573 94.7671 77.0501 91.6129C75.9032 89.8567 75.4014 87.8495 75.4014 85.7706C75.4014 84.1219 75.7957 82.3298 76.5484 80.8603C78.4122 77.2043 82.0681 75.018 86.1183 75.018C90.1684 75.018 93.8602 77.3119 95.724 80.8603C96.4408 82.3298 96.8709 84.0861 96.8709 85.7706C96.8709 87.8495 96.2616 89.8567 95.1863 91.6129C93.215 94.7312 89.7742 96.6309 86.1183 96.6309ZM86.1183 77.6344C83 77.6344 80.276 79.319 78.8423 82.1147C78.1971 83.2617 77.9104 84.5162 77.9104 85.8782C77.9104 87.4552 78.3046 88.9965 79.129 90.2509C80.7061 92.6524 83.215 94.0144 86.0107 94.0144C88.8064 94.0144 91.4588 92.5448 92.8924 90.2509C93.7527 88.8889 94.1469 87.4194 94.1469 85.8782C94.1469 84.6237 93.8602 83.2617 93.215 82.1147C91.9605 79.2832 89.1648 77.6344 86.1183 77.6344Z" fill="white"/>
</g>
<defs>
<clipPath id="clip0_1_42">
<rect width="86.0215" height="86.0215" fill="white" transform="translate(43.9677 43.0108)"/>
</clipPath>
</defs>
</svg>
